<?xml version="1.0" encoding="UTF-8"?>
<svg width="50px" height="50px" viewBox="0 0 50 50" version="1.1" xmlns="http://www.w3.org/2000/svg" xmlns:xlink="http://www.w3.org/1999/xlink">
    <title>头像</title>
    <defs>
        <circle id="path-1" cx="25" cy="25" r="25"></circle>
    </defs>
    <g id="控件" stroke="none" stroke-width="1" fill="none" fill-rule="evenodd">
        <g id="BANNER" transform="translate(-171.000000, -481.000000)">
            <g transform="translate(0.000000, 14.000000)" id="编组">
                <g transform="translate(171.000000, 467.000000)" id="头像">
                    <g>
                        <mask id="mask-2" fill="white">
                            <use xlink:href="#path-1"></use>
                        </mask>
                        <use id="蒙版" fill="#1F1F1F" xlink:href="#path-1"></use>
                        <path d="M24.6765358,21.6204678 C24.6765358,21.4871345 24.6765358,21.4871345 24.6765358,21.6204678 C24.6765358,21.4871345 24.6765358,21.6204678 24.6765358,21.6204678 Z M32.4853801,30.0292398 L32.251462,30.0292398 C32.251462,30.0292398 32.3684211,30.2542398 32.4853801,30.0292398 Z M25,5 C14.005848,5 5,13.8888889 5,25 C5,36.1111111 13.8888889,45 25,45 C35.994152,45 45,36.1111111 45,25 C45,13.8888889 36.1111111,5 25,5 Z M37.748538,12.8362573 C37.0467836,12.8362573 36.5789473,12.8362573 35.994152,13.1871345 C35.7602339,13.3040936 35.6432748,13.5380117 35.2923977,13.6549708 C35.0584795,13.7719298 34.7076023,13.6549708 34.4736842,13.7719298 C33.5380117,14.1228071 33.6549708,15.9941521 32.4853801,15.7602339 C31.9005848,15.6432748 31.5497076,14.9415205 31.1988304,14.4736842 C30.9649123,14.122807 30.497076,13.7719298 30.8479532,13.3040935 L30.3801169,13.3040935 C30.6140351,12.8362573 31.1988304,12.9532163 31.3157895,12.7192983 C31.5497076,12.1345029 30.6140351,12.1345029 30.2631579,12.0175438 C30.6140351,11.6666666 30.7309941,12.1345029 31.0818714,12.0175438 C31.4327486,11.9005848 30.9649123,11.5497076 30.7309941,11.4327485 C30.6140351,11.4327485 29.5614035,11.7836257 30.1461988,11.1988304 C29.3274854,10.7309941 28.5087719,10.1461988 27.6900585,9.67836256 C27.5730994,10.2631579 28.7426901,10.6140351 29.2105263,10.7309941 C29.0935672,10.9649123 28.7426901,11.3157895 28.5087719,11.1988304 C28.2748538,11.0818713 28.3918129,10.6140351 27.9239766,10.7309941 C27.6900585,11.4327485 28.5087719,11.1988304 28.625731,11.6666667 C28.7426901,12.1345029 28.2748538,11.9005848 28.1578947,11.9005848 C28.1578947,11.9005848 27.8070175,11.5497076 27.8070175,11.7836257 C27.8070175,12.0175438 28.2748538,12.0175438 28.3918129,12.251462 C27.8070175,12.251462 27.4561404,12.0175438 26.9883041,11.7836257 C26.4035087,11.4327485 26.1695906,11.4327485 25.4678362,11.4327485 C25.7017544,11.3157894 25.9356725,11.3157894 26.1695906,11.1988304 C26.2865497,11.0818713 26.6374269,10.7309941 26.6374269,10.6140351 C26.754386,10.2631579 26.6374269,10.2631579 26.2865497,10.0292398 C26.1695906,9.91228068 25.8187135,9.44444444 25.3508772,9.44444444 C24.0643275,9.21052632 24.883041,10.6140351 23.9473684,10.8479532 C23.7134503,10.8479532 23.2456141,10.7309941 23.128655,10.9649123 C23.0116959,11.0818714 23.0116959,11.4327485 22.8947368,11.5497076 C22.6608187,11.7836257 22.3099415,11.7836257 22.0760234,12.0175438 C21.8421053,12.1345029 21.2573099,12.6023392 21.1403509,12.8362573 C20.5555556,13.8888889 22.3099416,14.2397661 23.0116959,14.4736842 C23.3625731,14.5906433 24.1812865,14.8245614 24.2982456,15.0584795 C24.5321638,15.4093568 24.0643275,15.6432749 24.5321638,15.877193 C24.6491228,15.9941521 25,15.9941521 25.116959,15.7602339 C25.3508772,15.5263158 24.9999999,15.5263158 25,15.1754386 C24.8830409,14.7076023 25.1169591,14.8245614 25.3508772,14.7076023 C25.8187135,14.3567251 25.7017544,14.2397661 25.5847953,13.6549708 C25.4678362,13.4210526 25.1169591,12.6023392 25.4678362,12.3684211 C25.8187135,12.1345029 26.6374269,12.4853801 26.9883041,12.6023392 C27.3391813,12.6023392 27.5730994,13.0701754 27.6900585,13.3040935 C27.8070176,13.4210526 28.0409357,13.6549708 28.2748538,13.6549708 C28.625731,13.6549708 28.5087719,13.3040935 28.625731,13.1871345 C29.2105263,12.8362573 29.3274854,13.3040936 29.5614035,13.7719298 C29.7953216,14.2397661 29.9122807,14.3567252 30.2631579,14.7076023 C30.380117,14.8245614 31.1988304,15.2923977 31.0818714,15.6432748 C31.0818714,15.8771929 30.2631579,16.1111111 30.0292398,16.2280702 C29.2105263,16.4619883 27.6900585,15.7602339 27.5730994,17.0467836 C27.9239766,16.9298245 28.7426901,16.2280702 28.9766082,16.5789474 C29.0935673,16.6959065 28.8596491,16.9298246 28.9766082,17.1637427 C29.0935673,17.6315789 29.4444444,17.5146199 29.9122807,17.3976608 L29.7953216,17.3976608 C30.2631579,17.1637427 30.2631579,17.1637427 30.497076,16.8128655 C30.6140351,16.6959064 30.7309941,16.3450292 30.8479532,16.2280702 C31.1988304,15.8771929 31.3157895,16.1111111 31.5497076,16.3450292 C31.6666667,16.4619883 32.1345029,17.2807017 32.0175438,17.1637427 C31.3157895,17.0467836 30.7309941,17.0467836 30.1461988,17.3976608 C29.7953216,17.6315789 29.5614035,17.8654971 29.2105263,17.9824562 C29.0935672,17.9824562 28.3918129,18.0994152 28.5087719,17.9824562 C28.625731,17.8654971 28.9766082,17.748538 29.2105263,17.5146199 C28.7426901,17.2807017 28.3918129,17.748538 28.0409356,17.9824562 C27.6900584,18.0994152 27.5730994,18.4502924 27.3391813,18.8011696 C27.2222222,18.9181286 26.9883041,18.9181286 26.871345,19.1520468 C26.7543859,19.2690059 26.7543859,19.502924 26.6374269,19.7368421 C26.5204678,19.8538012 26.2865497,19.7368421 26.2865497,19.9707602 C26.1695906,20.2046784 26.4035088,20.3216374 26.2865497,20.5555556 C26.1695906,20.7894737 25.7017544,21.0233918 25.4678362,21.2573099 L25.5847953,21.1403509 C25.3508772,21.374269 25.1169591,21.4912281 25,21.7251462 C25.1169591,22.0760234 25.3508772,22.8947368 25.2339181,23.0116959 C24.6491228,23.4795321 24.2982456,22.5438596 24.0643275,22.3099415 C23.4795321,21.4912281 22.4269005,22.0760234 21.6081871,22.0760234 C20.6725146,22.1929825 19.7368421,23.3625731 20.3216374,24.4152047 C20.5555556,24.8830409 21.1403509,25.116959 21.6081871,25 C22.0760234,24.8830409 22.1929825,24.1812865 22.6608187,24.1812865 C23.4795322,24.1812865 22.6608187,25 22.6608187,25.3508772 C22.5438596,25.5847953 22.7777778,25.7017544 23.0116959,25.7017544 C23.245614,25.7017544 23.5964912,25.5847953 23.7134503,25.7017544 C23.8304094,25.8187135 23.8304094,26.1695906 23.9473684,26.0526316 C23.5964912,26.2865497 23.7134503,26.9883041 24.0643275,27.2222222 C24.4152047,27.4561403 24.8830409,27.2222222 25.2339181,27.3391813 C25.9356725,27.5730994 25.5847953,27.3391813 26.2865497,26.871345 C26.7543859,26.6374269 26.7543859,26.871345 27.1052632,26.871345 C27.3391813,26.871345 27.4561404,26.6374269 27.8070175,26.6374269 C28.0409356,26.754386 28.1578947,26.871345 28.5087719,26.9883041 L28.8596491,26.9883041 C29.4444444,27.1052632 29.9122807,27.4561403 30.3801169,27.8070175 C30.7309941,28.0409356 31.0818713,28.0409356 31.5497076,28.1578947 C31.9005848,28.2748538 32.4853801,28.7426901 32.4853801,29.2105263 C32.4853801,29.3274854 32.1345029,29.6783626 32.1345029,29.7953216 C32.251462,29.9122807 32.8362573,29.6783626 32.9532164,29.6783626 C32.9532164,29.7953216 32.4853801,30.0292398 32.4853801,29.9122807 C32.4853801,30.0292398 32.7192982,30.1461988 32.8362573,30.1461988 C33.0701754,29.4444444 33.4210526,29.9122807 33.7719298,30.0292398 C34.1228071,30.1461989 34.5906433,30.1461989 34.9415205,30.2631579 C35.2923977,30.380117 35.994152,30.6140351 36.2280702,30.8479532 C36.4619883,31.1988304 36.3450292,31.6666667 36.1111111,32.0175438 C35.877193,32.4853801 35.4093568,32.6023392 35.1754386,33.0701754 C35.0584795,33.4210526 35.1754386,33.8888889 35.0584795,34.2397661 C34.9415205,34.8245614 34.8245614,34.5906433 34.4736842,34.9415205 C34.122807,35.2923976 34.4736842,35.1754386 34.005848,35.4093567 C33.5380117,35.6432748 33.1871345,35.5263158 32.8362573,35.994152 L32.8362573,35.877193 C32.7192982,36.1111111 32.6023392,36.4619883 32.6023392,36.5789474 C32.4853801,36.9298246 32.251462,37.0467836 32.0175438,37.2807017 C31.9005848,37.3976608 31.0818714,38.5672514 31.0818714,38.4502924 C30.9649123,38.3333333 30.380117,38.5672515 30.3801169,38.4502924 C30.3801169,38.5672515 30.3801169,38.5672515 30.497076,38.6842105 C30.3801169,39.619883 29.9122807,39.7368421 28.9766082,39.7368421 C29.0935673,40.2046784 28.625731,40.0877193 28.3918129,40.3216374 C28.2748538,40.4385965 28.2748538,40.9064328 28.1578947,41.0233918 C28.1578947,41.1403509 27.6900585,41.6081871 27.6900585,41.7251462 C27.6900585,41.8421053 27.8070176,41.9590643 27.9239766,42.0760234 C27.2222222,42.1929825 26.6374269,42.3099415 25.9356725,42.3099415 C26.0526316,42.1929824 26.0526316,41.9590643 25.7017544,41.9590643 C25.8187135,41.6081871 26.0526316,41.4912281 26.1695906,41.2573099 L26.1695906,40.9064327 C26.2865497,40.4385965 26.2865497,40.6725146 26.1695906,40.3216374 C25.9356725,39.502924 26.2865497,39.2690059 26.5204678,38.4502924 C26.7543859,37.6315789 26.7543859,36.6959065 26.871345,35.7602339 C26.9883041,35.4093567 27.1052632,34.4736842 26.871345,34.122807 C26.7543859,33.6549708 26.0526316,33.3040935 25.7017544,33.0701754 C25.2339181,32.6023392 25,32.251462 24.6491228,31.6666667 C24.5321637,31.4327486 24.2982456,31.1988304 24.1812865,30.8479532 C23.9473684,30.2631579 24.1812865,30.6140351 24.1812865,30.2631579 C24.1812865,29.9122807 24.1812865,29.5614035 24.2982456,29.2105263 C24.4152047,28.8596491 24.7660819,28.5087719 25,28.1578947 C25.1169591,27.8070175 25,27.3391813 24.6491228,27.2222222 C24.4152047,27.1052631 24.1812865,27.3391813 24.0643275,27.2222222 C23.8304093,27.2222222 23.4795321,26.9883041 23.2456141,26.7543859 C22.8947368,26.5204678 22.7777778,26.1695906 22.4269006,25.9356725 C22.1929825,25.7017544 21.9590644,25.8187134 21.6081871,25.8187135 C21.2573099,25.7017544 21.1403509,25.3508772 20.9064327,25.2339181 C20.5555555,25 20.3216374,25.3508772 19.9707602,25.2339181 C19.619883,25.2339181 19.1520468,24.7660819 18.8011696,24.6491228 C18.0994152,24.4152047 17.748538,24.0643275 17.5146199,23.3625731 C17.2807017,22.7777778 16.9298245,22.5438596 16.5789474,22.0760234 C16.2280702,21.6081871 16.1111111,21.2573099 15.5263158,21.0233918 C15.4093567,21.0233918 15.6432749,21.4912281 15.6432748,21.6081871 C15.8771929,21.9590644 16.2280702,22.3099415 16.4619883,22.7777778 C16.8128655,23.3625731 16.6959064,23.3625731 16.3450292,22.8947368 C15.877193,22.3099415 15.4093568,21.7251462 15.0584795,21.1403509 C15.2923977,21.374269 15.2923977,21.1403509 15.0584795,20.9064327 C14.8245614,20.6725145 14.4736842,20.5555555 14.3567251,20.3216374 C13.5380117,19.6198831 13.4210526,18.5672515 13.4210526,17.5146199 C13.4210526,17.1637427 13.5380117,16.9298245 13.5380117,16.5789474 C13.5380117,16.3450292 13.3040935,16.1111111 13.0701754,15.877193 C12.9532163,15.7602339 12.8362573,15.5263158 12.8362573,15.5263158 C12.6023392,15.1754386 12.4853801,14.9415205 12.251462,14.7076023 C12.1345029,14.5906432 11.6666666,14.2397661 11.1988304,13.8888889 C13.0701754,11.5497076 15.5263158,9.67836256 18.3333333,8.50877195 C18.3333333,8.62573103 18.4502924,8.74269007 18.4502924,8.97660819 C18.8011696,9.3274854 19.0350877,9.3274854 19.3859649,9.44444444 C19.3859649,9.91228068 18.6842105,10.0292398 18.3333333,9.91228068 C17.8654971,9.7953216 17.2807017,9.67836256 16.9298246,10.1461988 C17.1637427,10.2631579 17.8654971,10.8479532 17.748538,10.2631579 L19.1520468,10.2631579 C19.3859649,10.2631579 19.9707602,10.497076 20.0877193,10.3801169 C20.2046784,10.3801169 20.2046784,10.0292397 20.3216374,9.91228068 C20.2046784,9.91228068 20.0877193,9.7953216 19.9707602,9.91228068 C20.3216374,9.56140347 20.5555556,9.7953216 21.0233918,10.0292398 C20.5555556,10.2631579 20.9064327,10.9649123 21.2573099,10.3801169 C21.6081871,9.91228068 21.1403508,9.67836256 20.7894737,9.44444444 C21.2573099,8.85964911 21.4912281,8.85964911 21.9590643,9.44444444 C22.0760234,9.09356723 22.3099415,9.21052632 22.6608187,9.21052632 L22.6608187,9.09356723 C22.5438596,9.09356723 22.3099415,8.97660814 22.1929825,8.97660819 C22.5438597,8.39181286 22.3099416,8.27485382 22.7777778,8.15789474 C23.128655,8.04093565 24.1812865,8.15789474 24.4152047,7.80701753 C23.7134503,7.92397661 22.7777778,8.04093565 22.0760234,8.27485377 C21.7251462,8.39181286 21.4912281,8.85964911 21.1403509,8.62573098 C20.7894737,8.27485377 21.374269,7.80701753 21.6081871,7.69005849 L21.4912281,7.69005849 C22.6608187,7.45614037 23.9473684,7.33918128 25.2339181,7.33918128 C26.0526316,7.33918128 26.871345,7.45614037 27.6900585,7.45614037 C27.4561404,7.57309946 27.5730994,7.69005849 27.4561404,7.80701753 C27.1052632,8.04093565 26.4035088,8.27485377 25.9356725,8.50877195 C26.5204678,8.50877195 27.9239766,9.09356728 28.1578947,8.27485377 C27.9239766,8.27485377 27.8070175,8.27485377 27.5730994,8.15789474 C27.9239766,7.92397661 28.2748538,7.69005849 28.7426901,7.5730994 C32.1345029,8.39181286 35.4093568,10.2631579 37.748538,12.8362573 C37.8654971,12.8362573 37.748538,12.8362573 37.748538,12.8362573 Z M41.0233918,19.8538011 C41.0233918,19.7368421 41.1403509,19.7368421 41.1403509,19.7368421 C41.25731,19.619883 41.1403509,19.502924 41.2573099,19.3859649 C41.374269,19.2690058 41.4912281,19.2690058 41.6081871,19.1520468 L41.7251462,19.0350877 C42.0760234,19.8538012 42.3099415,20.6725146 42.4269006,21.6081871 L42.0760234,21.7251462 C41.8421053,21.7251462 41.7251462,21.6081871 41.6081871,21.4912281 L41.1403509,21.0233918 C41.0233918,20.7894737 41.1403509,20.6725146 41.1403509,20.4385965 C41.0233918,20.2046784 40.9064328,19.9707602 41.0233918,19.8538011 Z M41.2573099,28.9766082 C40.9064327,28.625731 40.5555556,28.2748538 40.3216374,27.9239766 C40.0877193,27.4561404 40.2046784,27.1052632 40.2046784,26.6374269 C40.2046784,26.2865497 39.9707602,25.7017544 40.2046784,25.3508772 L40.5555556,25 C40.6725146,24.7660819 40.6725146,24.5321638 40.9064327,24.2982456 C41.1403508,24.0643275 41.374269,23.9473684 41.6081871,23.7134503 C41.8421053,23.4795322 41.8421053,23.3625731 41.9590643,23.0116959 C42.0760234,22.7777778 42.3099415,22.4269005 42.5438596,22.3099415 C42.6608187,23.245614 42.7777778,24.0643275 42.7777778,25 C42.7777778,26.5204678 42.5438596,28.1578947 42.1929825,29.5614035 C41.8421053,29.4444444 41.4912281,29.2105263 41.2573099,28.9766082 Z" id="形状" fill="#7C7C7C" fill-rule="nonzero" mask="url(#mask-2)"></path>
                    </g>
                    <g id="地球" transform="translate(5.000000, 5.000000)"></g>
                </g>
            </g>
        </g>
    </g>
</svg>