<?xml version="1.0" encoding="UTF-8"?>
<svg width="135px" height="85px" viewBox="0 0 135 85" version="1.1" xmlns="http://www.w3.org/2000/svg" xmlns:xlink="http://www.w3.org/1999/xlink">
    <title>已发货</title>
    <defs>
        <linearGradient x1="50%" y1="0%" x2="50%" y2="50%" id="linearGradient-1">
            <stop stop-color="#D3A137" offset="0%"></stop>
            <stop stop-color="#E8B13A" offset="100%"></stop>
        </linearGradient>
        <linearGradient x1="111.728395%" y1="33.6450628%" x2="-0.811938827%" y2="92.6035505%" id="linearGradient-2">
            <stop stop-color="#C3A563" offset="0%"></stop>
            <stop stop-color="#987835" offset="100%"></stop>
        </linearGradient>
    </defs>
    <g id="规范" stroke="none" stroke-width="1" fill="none" fill-rule="evenodd">
        <g id="Artboard" transform="translate(-1367.000000, -1041.000000)" fill-rule="nonzero">
            <g id="已发货" transform="translate(1367.000000, 1041.000000)">
                <rect id="Rectangle-19" fill="#E0D7C7" x="5" y="0" width="100" height="80" rx="10"></rect>
                <rect id="Rectangle-19" fill="#D1C5B1" x="0" y="0" width="110" height="14"></rect>
                <polygon id="Rectangle-25" fill="url(#linearGradient-1)" points="18 14 38 14 38 35 28.0273438 30 18 35"></polygon>
                <path d="M18.6259766,61 L18.6259766,47.9921875 L21.3330078,47.9921875 L21.3330078,53.2744141 L26.7119141,53.2744141 L26.7119141,47.9921875 L29.4189453,47.9921875 L29.4189453,61 L26.7119141,61 L26.7119141,55.0673828 L21.3330078,55.0673828 L21.3330078,61 L18.6259766,61 Z M32.6708984,61 L32.6708984,47.9921875 L38.2695312,47.9921875 C40.2851663,47.9921875 41.8290962,48.5268501 42.9013672,49.5961914 C43.9736382,50.6655327 44.5097656,52.2079977 44.5097656,54.2236328 C44.5097656,56.3681748 43.9414119,58.0336855 42.8046875,59.2202148 C41.6679631,60.4067442 40.0771587,61 38.0322266,61 L32.6708984,61 Z M35.3779297,59.1542969 L37.3994141,59.1542969 C38.8232493,59.1542969 39.8852504,58.7602578 40.5854492,57.972168 C41.285648,57.1840781 41.6357422,55.9873127 41.6357422,54.3818359 C41.6357422,53.1396422 41.354495,52.1054729 40.7919922,51.2792969 C40.4052715,50.7109347 39.9394558,50.3183605 39.3945312,50.1015625 C38.8496067,49.8847645 38.0556693,49.7763672 37.0126953,49.7763672 L35.3779297,49.7763672 L35.3779297,59.1542969 Z M46.9443359,61 L46.9443359,47.9921875 L49.6513672,47.9921875 L49.6513672,59.1542969 L55.5136719,59.1542969 L55.5136719,61 L46.9443359,61 Z" id="HDL" fill="#BAAB92"></path>
                <path d="M105,25.2107502 L105,35.7815848 C103.105915,37.9545577 100.779242,40.326697 98.166509,42.8104571 C98.4165888,43.7046626 98.7921293,44.9819789 99.2303999,46.4508505 L99.8745255,45.8067249 C100.518651,45.1625993 101.542523,45.1558701 102.178237,45.7915842 C102.813951,46.4272983 102.807222,47.4511701 102.163096,48.0952957 L100.23072,50.0276725 C100.918229,52.5187336 101.73204,55.2649216 102.48228,57.9475381 L102.99758,57.4322376 C103.547541,56.8822764 104.374334,56.7969723 105,57.1794665 L105,60.0069593 L103.353774,61.6531852 C104.008883,63.9140089 104.586027,65.9367543 105,67.412699 L105,71.9498696 C104.658716,72.0462973 104.264898,71.930656 103.928925,71.5037453 C103.61191,71.0579042 103.040608,70.3577776 102.215021,69.4033653 C99.4864969,65.9018908 94.5380207,59.4075131 91.302608,55.1414994 L90.7338299,54.0574208 L89.2792578,51.4434226 C85.1593774,55.1818746 81.6200511,58.2126296 78.7901042,60.4068624 L78.3392162,60.8577503 L78.8418994,62.2622094 L80.4126794,66.6671421 C80.4754096,66.8586975 80.4101559,67.051094 80.2813308,67.1799191 L77.9616375,69.6267553 L77.7683998,69.8199929 C77.6395747,69.9488181 77.4471782,70.0140717 77.3844479,69.8225164 L73.3268126,64.0901545 C71.9791957,64.6749145 71.0824667,64.8087865 70.4459115,64.3010563 C69.8101974,63.6653422 69.880498,62.7050418 70.5932419,61.3565838 L64.9252925,57.2345359 C64.7981497,57.1073931 64.7989909,56.9794091 64.927816,56.850584 L65.1210537,56.6573463 L67.5678899,54.337653 C67.696715,54.2088279 67.8891115,54.1435742 68.0806669,54.2063044 L72.4855995,55.7770843 L73.8900586,56.2797676 L74.3409466,55.8288797 C76.5987508,53.0625042 79.6930772,49.5867493 83.4315292,45.4668688 L80.8811024,44.0758681 L80.6903882,43.8851539 L79.6707221,43.2519633 C75.4691209,39.952138 69.0391558,34.9392492 65.5376814,32.2107254 C64.5188565,31.4495508 63.8187298,30.8782492 63.4373013,30.4968207 C62.2913336,29.6085033 63.5160134,28.2566807 64.7297583,28.5686497 C64.9213137,28.6313799 68.4337231,29.6961121 72.9047506,30.9465115 L74.5794772,29.2717849 C75.2236029,28.6276593 76.2474746,28.6209301 76.8831887,29.2566443 C77.5189029,29.8923584 77.5121736,30.9162301 76.868048,31.5603557 L76.4815726,31.9468311 C79.0997766,32.7614833 81.8459645,33.5752944 84.3370256,34.2628038 L86.2694025,32.330427 C86.9135281,31.6863014 87.9373999,31.6795722 88.573114,32.3152863 C89.2088281,32.9510003 89.2020989,33.9748722 88.5579732,34.6189978 L87.9138477,35.2631234 C89.4462907,35.7649654 90.7880195,36.0760933 91.682225,36.3261732 C96.9030506,31.0165188 101.585276,26.8660695 105,25.2107502 Z" id="Combined-Shape" fill="#C1B292"></path>
                <path d="M122.807787,52.8016194 C122.268366,52.7105263 121.36933,52.6194332 120.11068,52.5283401 C115.705406,51.9817814 107.614087,50.888664 102.309777,50.1599191 L101.141031,49.7955466 L100.961224,49.7955466 L98.2641177,48.9757085 C97.994407,54.5323887 97.6347928,59.1781376 97.185275,62.7307693 L97.185275,63.3684211 L98.5338283,64.0060729 L102.759295,66.0101215 C102.939102,66.1012146 103.029006,66.2834009 103.029006,66.4655871 L103.118909,69.8360324 L103.118909,70.1093117 C103.118909,70.291498 103.029006,70.4736842 102.849199,70.3825911 L95.9266253,69.1983806 C95.387204,70.5647774 94.8477827,71.2935223 94.0386507,71.3846154 L93.9487472,71.3846154 C93.1396152,71.3846154 92.5102904,70.6558704 92.0607726,69.1983806 L85.1381992,70.291498 C84.9583921,70.291498 84.8684885,70.2004049 84.8684885,70.0182187 L84.8684885,69.7449393 L84.9583921,66.374494 C84.9583921,66.1923077 85.0482956,66.0101215 85.2281027,65.9190284 L89.4535696,63.9149798 L90.8021229,63.2773279 L90.8021229,62.6396761 C90.4425087,59.0870446 90.172798,54.4412955 89.9030874,48.8846154 L87.1160773,49.7044535 L86.8463666,49.7044535 L85.6776204,49.9777328 C80.3733109,50.6153846 72.2819913,51.6174089 67.8767173,52.1639676 C66.6180676,52.3461538 65.7190321,52.437247 65.1796108,52.437247 C63.7411539,52.6194332 63.6512504,50.7975709 64.730093,50.1599191 C64.9099001,50.0688259 68.146428,48.3380567 72.1920878,46.0607288 L72.1920878,43.6923077 C72.1920878,42.7813765 72.9113162,42.0526316 73.8103517,42.0526316 C74.7093873,42.0526316 75.4286156,42.7813766 75.4286156,43.6923077 L75.4286156,44.2388664 C77.8560115,42.9635628 80.373311,41.597166 82.6208997,40.3218624 L82.6208997,37.5890688 C82.6208997,36.6781377 83.3401282,35.9493928 84.2391636,35.9493927 C85.1381991,35.9493926 85.8574275,36.6781377 85.8574275,37.5890688 L85.8574275,38.5 C87.2958843,37.771255 88.4646305,37.0425101 89.2737625,36.5870445 C89.1838589,25.9291498 89.9929909,17.7307692 92.9598081,16.2732794 C93.1396152,16.1821862 93.2295188,16.1821862 93.4093259,16.0910931 C93.4992295,16.0910931 93.6790366,16.0910931 93.7689401,16 L94.1285543,16 C94.2184578,16 94.3982649,16 94.4881685,16.0910931 C94.6679755,16.0910931 94.7578791,16.1821862 94.9376862,16.2732794 C97.9045034,17.7307692 98.7136354,25.9291498 98.4439248,36.5870445 C99.2530567,37.0425101 100.421803,37.6801619 101.770356,38.4089069 L101.770356,37.4979757 C101.770356,36.5870445 102.489584,35.8582996 103.38862,35.8582996 C104.287655,35.8582996 105.006884,36.5870446 105.006884,37.4979757 L105.006884,40.2307692 C107.254473,41.5060729 109.771772,42.8724696 112.199168,44.2388664 L112.199168,43.5101215 C112.199168,42.5991903 112.918396,41.8704454 113.817432,41.8704454 C114.716467,41.8704454 115.435696,42.5991903 115.435696,43.5101215 L115.435696,46.242915 C119.571259,48.5202429 122.807787,50.3421053 122.89769,50.4331984 C124.426051,51.0708502 124.336147,52.9838057 122.807787,52.8016194 Z" id="Shape" fill="url(#linearGradient-2)" transform="translate(94.000000, 43.692308) rotate(45.000000) translate(-94.000000, -43.692308) "></path>
            </g>
        </g>
    </g>
</svg>