<?xml version="1.0" encoding="UTF-8"?>
<svg width="129px" height="80px" viewBox="0 0 129 80" version="1.1" xmlns="http://www.w3.org/2000/svg" xmlns:xlink="http://www.w3.org/1999/xlink">
    <title>生产中</title>
    <defs>
        <linearGradient x1="111.728395%" y1="38.7078849%" x2="-0.811938827%" y2="79.4152275%" id="linearGradient-1">
            <stop stop-color="#C3A563" offset="0%"></stop>
            <stop stop-color="#987835" offset="100%"></stop>
        </linearGradient>
    </defs>
    <g id="规范" stroke="none" stroke-width="1" fill="none" fill-rule="evenodd">
        <g id="Artboard" transform="translate(-1555.000000, -1044.000000)" fill-rule="nonzero">
            <g id="生产中" transform="translate(1555.000000, 1044.000000)">
                <rect id="Rectangle-19" fill="#E0D7C7" x="0" y="0" width="110" height="80" rx="10"></rect>
                <rect id="Rectangle-19" fill="#D1C5B1" x="0" y="0" width="110" height="14"></rect>
                <rect id="Rectangle-19" fill="#BAAB92" x="0" y="0" width="54" height="14"></rect>
                <path d="M13.4804688,61.9414062 L13.4804688,59.8417969 C14.7109437,60.3170597 15.736324,60.5546875 16.5566406,60.5546875 C17.3834677,60.5546875 18.0393856,60.3089217 18.5244141,59.8173828 C19.0094425,59.3258439 19.2519531,58.6601604 19.2519531,57.8203125 C19.2519531,55.7499896 17.7643378,54.7148438 14.7890625,54.7148438 C14.4374982,54.7148438 14.0859393,54.7441403 13.734375,54.8027344 L13.734375,47.546875 L22.0351562,47.546875 L22.0351562,49.8320312 L15.84375,49.8320312 L15.6972656,52.9472656 C17.7806094,52.9472656 19.4065697,53.3736937 20.5751953,54.2265625 C21.7438209,55.0794313 22.328125,56.2708257 22.328125,57.8007812 C22.328125,59.2135487 21.8170624,60.3268188 20.7949219,61.140625 C19.7727813,61.9544312 18.3730558,62.3613281 16.5957031,62.3613281 C15.840491,62.3613281 14.8020899,62.2213556 13.4804688,61.9414062 Z M30.7265625,62.3613281 C29.0859293,62.3613281 27.7529348,61.6582102 26.7275391,60.2519531 C25.7021433,58.8456961 25.1894531,57.0195425 25.1894531,54.7734375 C25.1894531,52.5012907 25.7037709,50.6686268 26.7324219,49.2753906 C27.7610729,47.8821545 29.115226,47.1855469 30.7949219,47.1855469 C32.4615969,47.1855469 33.8108672,47.8805269 34.8427734,49.2705078 C35.8746796,50.6604887 36.390625,52.4817596 36.390625,54.734375 C36.390625,57.0455845 35.8746796,58.8945243 34.8427734,60.28125 C33.8108672,61.6679757 32.4388106,62.3613281 30.7265625,62.3613281 Z M30.7558594,60.5546875 C32.4681075,60.5546875 33.3242188,58.6276234 33.3242188,54.7734375 C33.3242188,50.9192516 32.4811282,48.9921875 30.7949219,48.9921875 C29.1087155,48.9921875 28.265625,50.9159964 28.265625,54.7636719 C28.265625,58.6243683 29.0956948,60.5546875 30.7558594,60.5546875 Z M38.5585938,62.3613281 L49.9257812,47.1855469 L51.8789062,47.1855469 L40.5214844,62.3613281 L38.5585938,62.3613281 Z M41.0292969,54.7734375 C39.9811146,54.7734375 39.1526723,54.4495475 38.5439453,53.8017578 C37.9352183,53.1539681 37.6308594,52.2734431 37.6308594,51.1601562 C37.6308594,50.0338485 37.9368459,49.1500683 38.5488281,48.5087891 C39.1608104,47.8675098 40.0006457,47.546875 41.0683594,47.546875 C42.1295626,47.546875 42.9661428,47.8675098 43.578125,48.5087891 C44.1901072,49.1500683 44.4960938,50.0305934 44.4960938,51.1503906 C44.4960938,52.2832088 44.1901072,53.1702442 43.578125,53.8115234 C42.9661428,54.4528027 42.1165419,54.7734375 41.0292969,54.7734375 Z M41.0488281,53.328125 C41.901697,53.328125 42.328125,52.6022208 42.328125,51.1503906 C42.328125,49.7115813 41.9082073,48.9921875 41.0683594,48.9921875 C40.222001,48.9921875 39.7988281,49.7148365 39.7988281,51.1601562 C39.7988281,52.605476 40.2154906,53.328125 41.0488281,53.328125 Z M49.3398438,62 C48.2916614,62 47.4632192,61.67611 46.8544922,61.0283203 C46.2457652,60.3805306 45.9414062,59.5000056 45.9414062,58.3867188 C45.9414062,57.260411 46.2473928,56.3766308 46.859375,55.7353516 C47.4713572,55.0940723 48.3111926,54.7734375 49.3789062,54.7734375 C50.4466199,54.7734375 51.2848277,55.0940723 51.8935547,55.7353516 C52.5022817,56.3766308 52.8066406,57.2571559 52.8066406,58.3769531 C52.8066406,59.5162817 52.5006541,60.4049447 51.8886719,61.0429688 C51.2766896,61.6809928 50.4270888,62 49.3398438,62 Z M49.359375,60.5546875 C50.2122438,60.5546875 50.6386719,59.8287833 50.6386719,58.3769531 C50.6386719,56.9381438 50.2187542,56.21875 49.3789062,56.21875 C48.5325479,56.21875 48.109375,56.941399 48.109375,58.3867188 C48.109375,59.8320385 48.5260375,60.5546875 49.359375,60.5546875 Z" id="50%" fill="#BAAB92"></path>
                <path d="M108,23.8702354 L108,46.6028301 L104.910097,49.2838673 C104.435075,49.6866255 103.722543,49.645667 103.303406,49.1882975 L99.3006509,44.7784363 C98.8884998,44.3142404 98.9304135,43.6179466 99.3984494,43.2083619 L102.576903,40.4504921 C103.226564,39.8839 103.01001,38.8394592 102.178723,38.5664028 L98.148025,37.255732 C97.5542481,37.0577661 97.2329099,36.4297363 97.4285071,35.8494914 L99.3355789,30.2586612 C99.5381617,29.6784163 100.180838,29.3644015 100.774615,29.5555409 L104.798327,30.8662118 C105.629615,31.1392682 106.446931,30.4293215 106.272291,29.589673 L105.420046,25.5211323 C105.294305,24.9204082 105.692485,24.3333369 106.307219,24.2104615 L108,23.8702354 Z M98.3268234,65.680765 C98.9882686,66.3355563 98.9882686,67.4021236 98.320074,68.0569149 L94.6078818,71.7696491 C93.953186,72.4244404 92.8867745,72.4244404 92.2320788,71.7696491 L88.8911058,68.4281883 C88.5738821,68.1041679 88.0879224,68.0434141 87.6829559,68.2526773 C86.8730231,68.6644532 86.0360925,69.0154754 85.1586652,69.2922428 C84.7267011,69.4272514 84.4229762,69.8187761 84.4229762,70.2710546 L84.4229762,75.0098535 C84.4229762,75.9414123 83.6737884,76.6907096 82.7423656,76.6907096 L77.4980504,76.6907096 C76.5666276,76.6907096 75.8174398,75.9414123 75.8174398,75.0098535 L75.8174398,70.2575537 C75.8174398,69.8052752 75.5204644,69.4205009 75.0885002,69.278742 C74.2178224,69.0019745 73.3808918,68.6509524 72.5844578,68.2391764 C72.1794914,68.0299132 71.6935317,68.090667 71.3695586,68.4146875 L68.0015878,71.78315 C67.3468921,72.4379413 66.2804805,72.4379413 65.6257848,71.78315 L61.920342,68.0704158 C61.2656463,67.4156245 61.2656463,66.3490572 61.920342,65.6942659 L65.3018117,62.3123025 C65.6257848,61.9882821 65.6865298,61.5090018 65.4772971,61.1039763 C65.0723307,60.3141765 64.7348587,59.4838741 64.4581316,58.6198196 C64.3231428,58.1877923 63.9316753,57.8840232 63.4794628,57.8840232 L58.6806107,57.8772727 C57.7491879,57.8772727 57,57.1279755 57,56.1964167 L57,50.9445854 C57,50.0130266 57.7491879,49.2637294 58.6806107,49.2637294 C60.1992347,49.2704798 62.3590557,49.2704798 63.4929616,49.2704798 C63.9451741,49.2772302 64.3298922,48.9734611 64.4716305,48.5414338 C64.7483575,47.6908802 65.0858296,46.8673282 65.490796,46.0775284 C65.7000286,45.6792533 65.6325342,45.1932226 65.3153105,44.8692022 L61.9135926,41.4602371 C61.2521474,40.8054458 61.2588969,39.7388785 61.9135926,39.0840872 L65.6257848,35.3781034 C66.2804805,34.7233121 67.3468921,34.7233121 68.0015878,35.3781034 L71.4033058,38.7803181 C71.7205295,39.1043385 72.2064892,39.1650923 72.6114556,38.9558291 C73.3943907,38.5508036 74.211073,38.2132823 75.0615024,37.9365148 C75.4934666,37.7947559 75.790442,37.4099816 75.790442,36.9577031 L75.790442,32.137899 C75.790442,31.2130907 76.5396299,30.457043 77.4710527,30.457043 L82.7153678,30.457043 C83.6400412,30.457043 84.3959785,31.2063403 84.3959785,32.137899 L84.3959785,36.9307014 C84.3959785,37.3897303 84.6997033,37.7745046 85.1316675,37.9095131 C85.9888464,38.1795302 86.8190276,38.5170514 87.6154615,38.922077 C88.020428,39.1313402 88.5063877,39.0638359 88.8236114,38.7465659 L92.2118304,35.3578522 C92.8665261,34.7030608 93.9329377,34.7030608 94.5876334,35.3578522 L98.2998256,39.0705864 C98.9545214,39.7253777 98.9545214,40.791945 98.2998256,41.4467363 L94.9386043,44.8084483 C94.6213806,45.1324688 94.5606357,45.6184994 94.7698683,46.023525 C95.1883336,46.8268256 95.5325551,47.657128 95.8160316,48.527933 C95.9577698,48.9599602 96.3424879,49.256979 96.7947004,49.256979 L101.553056,49.256979 C102.484479,49.256979 103.233667,50.0062762 103.233667,50.937835 L103.233667,56.1829159 C103.233667,57.1144746 102.484479,57.8637719 101.553056,57.8637719 L96.8216982,57.8637719 C96.3694857,57.8637719 95.9780182,58.1675411 95.8430294,58.5995683 C95.5595529,59.4771237 95.2153314,60.3209269 94.8036155,61.1242276 C94.5943829,61.5292531 94.6618773,62.0152838 94.979101,62.3325538 L98.3268234,65.680765 Z M80,62 C84.418278,62 88,58.418278 88,54 C88,49.581722 84.418278,46 80,46 C75.581722,46 72,49.581722 72,54 C72,58.418278 75.581722,62 80,62 Z" id="Combined-Shape" fill="#C1B292"></path>
                <path d="M100.326823,62.680765 C100.988269,63.3355563 100.988269,64.4021236 100.320074,65.0569149 L96.6078818,68.7696491 C95.953186,69.4244404 94.8867745,69.4244404 94.2320788,68.7696491 L90.8911058,65.4281883 C90.5738821,65.1041679 90.0879224,65.0434141 89.6829559,65.2526773 C88.8730231,65.6644532 88.0360925,66.0154754 87.1586652,66.2922428 C86.7267011,66.4272514 86.4229762,66.8187761 86.4229762,67.2710546 L86.4229762,72.0098535 C86.4229762,72.9414123 85.6737884,73.6907096 84.7423656,73.6907096 L79.4980504,73.6907096 C78.5666276,73.6907096 77.8174398,72.9414123 77.8174398,72.0098535 L77.8174398,67.2575537 C77.8174398,66.8052752 77.5204644,66.4205009 77.0885002,66.278742 C76.2178224,66.0019745 75.3808918,65.6509524 74.5844578,65.2391764 C74.1794914,65.0299132 73.6935317,65.090667 73.3695586,65.4146875 L70.0015878,68.78315 C69.3468921,69.4379413 68.2804805,69.4379413 67.6257848,68.78315 L63.920342,65.0704158 C63.2656463,64.4156245 63.2656463,63.3490572 63.920342,62.6942659 L67.3018117,59.3123025 C67.6257848,58.9882821 67.6865298,58.5090018 67.4772971,58.1039763 C67.0723307,57.3141765 66.7348587,56.4838741 66.4581316,55.6198196 C66.3231428,55.1877923 65.9316753,54.8840232 65.4794628,54.8840232 L60.6806107,54.8772727 C59.7491879,54.8772727 59,54.1279755 59,53.1964167 L59,47.9445854 C59,47.0130266 59.7491879,46.2637294 60.6806107,46.2637294 C62.1992347,46.2704798 64.3590557,46.2704798 65.4929616,46.2704798 C65.9451741,46.2772302 66.3298922,45.9734611 66.4716305,45.5414338 C66.7483575,44.6908802 67.0858296,43.8673282 67.490796,43.0775284 C67.7000286,42.6792533 67.6325342,42.1932226 67.3153105,41.8692022 L63.9135926,38.4602371 C63.2521474,37.8054458 63.2588969,36.7388785 63.9135926,36.0840872 L67.6257848,32.3781034 C68.2804805,31.7233121 69.3468921,31.7233121 70.0015878,32.3781034 L73.4033058,35.7803181 C73.7205295,36.1043385 74.2064892,36.1650923 74.6114556,35.9558291 C75.3943907,35.5508036 76.211073,35.2132823 77.0615024,34.9365148 C77.4934666,34.7947559 77.790442,34.4099816 77.790442,33.9577031 L77.790442,29.137899 C77.790442,28.2130907 78.5396299,27.457043 79.4710527,27.457043 L84.7153678,27.457043 C85.6400412,27.457043 86.3959785,28.2063403 86.3959785,29.137899 L86.3959785,33.9307014 C86.3959785,34.3897303 86.6997033,34.7745046 87.1316675,34.9095131 C87.9888464,35.1795302 88.8190276,35.5170514 89.6154615,35.922077 C90.020428,36.1313402 90.5063877,36.0638359 90.8236114,35.7465659 L94.2118304,32.3578522 C94.8665261,31.7030608 95.9329377,31.7030608 96.5876334,32.3578522 L100.299826,36.0705864 C100.954521,36.7253777 100.954521,37.791945 100.299826,38.4467363 L96.9386043,41.8084483 C96.6213806,42.1324688 96.5606357,42.6184994 96.7698683,43.023525 C97.1883336,43.8268256 97.5325551,44.657128 97.8160316,45.527933 C97.9577698,45.9599602 98.3424879,46.256979 98.7947004,46.256979 L103.553056,46.256979 C104.484479,46.256979 105.233667,47.0062762 105.233667,47.937835 L105.233667,53.1829159 C105.233667,54.1144746 104.484479,54.8637719 103.553056,54.8637719 L98.8216982,54.8637719 C98.3694857,54.8637719 97.9780182,55.1675411 97.8430294,55.5995683 C97.5595529,56.4771237 97.2153314,57.3209269 96.8036155,58.1242276 C96.5943829,58.5292531 96.6618773,59.0152838 96.979101,59.3325538 L100.326823,62.680765 Z M82,59 C86.418278,59 90,55.418278 90,51 C90,46.581722 86.418278,43 82,43 C77.581722,43 74,46.581722 74,51 C74,55.418278 77.581722,59 82,59 Z M100.148025,34.255732 C99.5542481,34.0577661 99.2329099,33.4297363 99.4285071,32.8494914 L101.335579,27.2586612 C101.538162,26.6784163 102.180838,26.3644015 102.774615,26.5555409 L106.798327,27.8662118 C107.629615,28.1392682 108.446931,27.4293215 108.272291,26.589673 L107.420046,22.5211323 C107.294305,21.9204082 107.692485,21.3333369 108.307219,21.2104615 L114.217046,20.0226661 C114.83178,19.8997907 115.432543,20.2888961 115.558284,20.8896202 L116.410528,24.9513345 C116.585168,25.790983 117.619039,26.1254771 118.275686,25.558885 L121.45414,22.8010152 C121.929161,22.398257 122.641693,22.4392154 123.06083,22.8965849 L127.063585,27.3064461 C127.475736,27.770642 127.433823,28.4669359 126.965787,28.8765205 L123.787334,31.6343904 C123.137672,32.2009824 123.354226,33.2454232 124.185514,33.5184796 L128.223197,34.8359769 C128.816974,35.0339428 129.138312,35.6619725 128.942715,36.2422174 L127.035643,41.8330476 C126.83306,42.4132925 126.190384,42.7273074 125.596607,42.5361679 L121.565909,41.2254971 C120.734622,40.9524407 119.917305,41.6623874 120.091945,42.5020359 L120.94419,46.5705765 C121.069931,47.1713006 120.671751,47.7583719 120.057017,47.8812473 L114.14719,49.0690428 C113.532456,49.1919181 112.931694,48.8028127 112.805953,48.2020886 L111.953708,44.133548 C111.779068,43.2938995 110.745197,42.9594054 110.08855,43.5259974 L106.910097,46.2838673 C106.435075,46.6866255 105.722543,46.645667 105.303406,46.1882975 L101.300651,41.7784363 C100.8885,41.3142404 100.930413,40.6179466 101.398449,40.2083619 L104.576903,37.4504921 C105.226564,36.8839 105.01001,35.8394592 104.178723,35.5664028 L100.148025,34.255732 Z M114,38 C116.209139,38 118,36.209139 118,34 C118,31.790861 116.209139,30 114,30 C111.790861,30 110,31.790861 110,34 C110,36.209139 111.790861,38 114,38 Z" id="Combined-Shape" fill="url(#linearGradient-1)"></path>
                <path d="M13,34 L33,34 L33,38 L13,38 L13,34 Z M13,25 L32.5,25 L32.5,29 L13,29 L13,25 Z M35.5,25 L43,25 L43,29 L35.5,29 L35.5,25 Z" id="Combined-Shape" fill="#D1C5B1"></path>
            </g>
        </g>
    </g>
</svg>