<?xml version="1.0" encoding="UTF-8"?>
<svg width="111px" height="105px" viewBox="0 0 111 105" version="1.1" xmlns="http://www.w3.org/2000/svg" xmlns:xlink="http://www.w3.org/1999/xlink">
    <title>需付款 copy</title>
    <defs>
        <linearGradient x1="100%" y1="30.8056641%" x2="8.84232955%" y2="100%" id="linearGradient-1">
            <stop stop-color="#E0D7C7" offset="0%"></stop>
            <stop stop-color="#D2C099" offset="100%"></stop>
        </linearGradient>
        <linearGradient x1="67.3010381%" y1="30.8056641%" x2="35.7585915%" y2="100%" id="linearGradient-2">
            <stop stop-color="#C3A563" offset="0%"></stop>
            <stop stop-color="#987835" offset="100%"></stop>
        </linearGradient>
    </defs>
    <g id="规范" stroke="none" stroke-width="1" fill="none" fill-rule="evenodd">
        <g id="Artboard" transform="translate(-835.000000, -1031.000000)" fill-rule="nonzero">
            <g id="需付款-copy" transform="translate(835.000000, 1031.000000)">
                <g id="需付款" transform="translate(1.000000, 25.000000)">
                    <rect id="Rectangle-19" fill="url(#linearGradient-1)" x="0" y="0" width="110" height="80" rx="10"></rect>
                    <rect id="Rectangle-21" fill="#BAAB92" x="12" y="55" width="86" height="11" rx="2"></rect>
                    <rect id="Rectangle-19" fill="#E8B13A" x="13" y="15" width="24" height="24" rx="4"></rect>
                    <path d="M31,32 L31,39 L27,39 L27,15 L31,15 L31,21 L37,21 L37,25 L31,25 L31,28 L37,28 L37,32 L31,32 Z M19,28 L19,25 L13,25 L13,21 L19,21 L19,15 L23,15 L23,39 L19,39 L19,32 L13,32 L13,28 L19,28 Z" id="Combined-Shape" fill="#F1BE4D"></path>
                    <path d="M58,15 L84,15 L84,19 L58,19 L58,15 Z M72,23 L90,23 L90,27 L72,27 L72,23 Z M94,23 L98,23 L98,27 L94,27 L94,23 Z M58,23 L68,23 L68,27 L58,27 L58,23 Z M88,15 L98,15 L98,19 L88,19 L88,15 Z" id="Combined-Shape" fill="#BAAB92"></path>
                </g>
                <g id="Group-4" transform="translate(43.000000, 24.500000) rotate(90.000000) translate(-43.000000, -24.500000) translate(18.500000, -18.500000)">
                    <path d="M24.2431641,4.79935004 L24.2431641,55.6923828 C30.0119697,54.728186 32.8963726,53.0120621 32.8963726,50.5440112 C32.8963726,48.0759603 32.8963726,43.3549329 32.8963726,36.3809289 C33.1312596,31.8010343 35.7466472,29.5110869 40.7425355,29.5110869 C45.7384238,29.5110869 48.4648849,32.3448604 48.9219188,38.0124073 L48.9223581,64.6831177 C49.4895135,71.7967882 46.9494684,77.7294578 41.3022226,82.4811264 C39.8454546,83.7721585 42.085309,83.6210937 38.4492187,85.0234375 C39.2319586,85.0234375 34.8720703,85.0234375 32.8963726,85.0234375 C25.9360028,81.7159708 14.875924,71.5230048 13.2685547,53.0302734 C13.424365,53.1420511 14.0614081,50.3025329 15.1796839,44.5117187 C10.7688898,40.4230232 10.1318468,36.7830493 13.2685547,33.5917969 C16.4052626,30.4005445 17.0423057,28.0879621 15.1796839,26.6540498 L15.1796839,11.2661303 C15.0525755,8.44605754 16.4516468,6.29046413 19.3768978,4.79935004 C22.3200144,3.5072002 23.9421031,3.5072002 24.2431641,4.79935004 Z" id="Path-11" fill="#CBBD9F" opacity="0.6"></path>
                    <path d="M24.6297469,1.62261282 L24.6297469,50.805191 C27.474164,50.4324554 28.8963726,49.0120621 28.8963726,46.5440112 C28.8963726,44.0759603 28.8963726,39.3549329 28.8963726,32.3809289 C29.1312596,27.8010343 31.7466472,25.5110869 36.7425355,25.5110869 C41.7384238,25.5110869 44.4648849,28.3448604 44.9219188,34.0124073 L44.9223581,60.6831177 C45.4895135,67.7967882 42.9494684,73.7294578 37.3022226,78.4811264 C35.8454546,79.7721585 32.5646514,81.6793649 32.5646514,85 C32.5646514,85 2.54539015,83.3229158 3.55271368e-15,54.0382847 C0.155810328,54.1500623 0.190076885,49.5192554 0.102799671,40.1458638 C0.149074167,35.8552739 1.74056538,32.1143527 4.8772733,28.9231002 C8.01398122,25.7318478 10.1147848,23.6421643 11.1796839,22.6540498 L11.1796839,7.26613028 C11.0525755,4.44605754 12.4516468,2.29046413 15.3768978,0.79935004 C18.3200144,-0.492799798 21.4042974,-0.218378872 24.6297469,1.62261282 Z" id="Path-11" fill="url(#linearGradient-2)"></path>
                    <path d="M21,1 L21,49.0519951 C21.4721442,50.6311119 22.8169734,51.4206703 25.0344876,51.4206703 C25.0814002,51.4206703 25.0814002,35.131192 25.0344876,2.55223535 C24.2093759,2.04791 23.5428254,1.69802499 23.034836,1.50258034 C22.5268467,1.30713568 21.848568,1.13960891 21,1 Z" id="Path-12" fill="#D1C5B1"></path>
                </g>
            </g>
        </g>
    </g>
</svg>