<?xml version="1.0" encoding="UTF-8"?>
<svg width="114px" height="81px" viewBox="0 0 114 81" version="1.1" xmlns="http://www.w3.org/2000/svg" xmlns:xlink="http://www.w3.org/1999/xlink">
    <title>审核未通过</title>
    <defs>
        <linearGradient x1="100%" y1="30.8056641%" x2="8.84232955%" y2="100%" id="linearGradient-1">
            <stop stop-color="#C3A563" offset="0%"></stop>
            <stop stop-color="#987835" offset="100%"></stop>
        </linearGradient>
    </defs>
    <g id="规范" stroke="none" stroke-width="1" fill="none" fill-rule="evenodd">
        <g id="Artboard" transform="translate(-1186.000000, -1043.000000)" fill-rule="nonzero">
            <g id="审核未通过" transform="translate(1186.000000, 1043.000000)">
                <path d="M10.8747165,0 L90,0 C95.5228475,0 100,4.4771525 100,10 L100,64.1835938 C89.5366951,74.7278646 84.1804569,80 83.9312855,80 C83.4412287,80 30.1914654,80 0,80 C0,79.5585538 0.291836904,56.1832109 0.875510711,9.87397129 L0.875511123,9.8739713 C0.944495141,4.40071316 5.40102368,0 10.8747165,0 Z" id="Rectangle-19" fill="#E0D7C7" transform="translate(50.000000, 40.000000) scale(-1, 1) translate(-50.000000, -40.000000) "></path>
                <path d="M33.4312799,41.039417 C36.7179992,40.1587432 40.0549163,40.9520741 42.522831,42.8937623 L43.8847048,42.8903787 C41.1517969,40.2830433 37.1431775,39.1239187 33.2010553,40.1802071 C31.2967162,40.6904732 29.6376807,41.6570341 28.3112371,42.9277717 L29.6704278,42.9244393 C30.748678,42.0715753 32.0164149,41.4185289 33.4312799,41.039417 Z M39.8318495,38.7252905 L40.6777672,39.0976789 L40.6678363,38.2026213 L41.3264331,37.5427126 L40.4261053,37.3004688 L39.9871531,36.5202718 L39.4407729,37.2657729 L38.5108856,37.4433927 L39.0733425,38.1464264 L38.9377455,39.0364554 L39.8318495,38.7252905 Z M27.2507308,40.0874228 L26.4022305,39.7855522 L26.4801689,40.7014972 L25.892056,41.439341 L26.7831754,41.6028273 L27.26808,42.3606001 L27.7409537,41.5456526 L28.6287638,41.2762381 L28.0299535,40.6089869 L28.0935944,39.6847722 L27.2507308,40.0874228 Z M33.6320275,37.0833033 L32.9175018,36.5395389 L32.710677,37.4369203 L31.9251319,37.9636254 L32.7228695,38.3882244 L32.9518633,39.2573985 L33.6514292,38.6224266 L34.5785167,38.6329513 L34.2133852,37.8158993 L34.5573837,36.9531143 L33.6320155,37.0832588 L33.6320275,37.0833033 Z M44.7818378,39.8767093 L43.8919547,39.5625565 L44.0158039,40.4532266 L43.4443039,41.1540433 L44.3716916,41.334807 L44.9085288,42.0820508 L45.3575318,41.3036428 L46.2609931,41.0644228 L45.611218,40.402147 L45.6326503,39.5073186 L44.7818827,39.8766972 L44.7818378,39.8767093 Z M56.2881424,43.75075 L15.9034846,43.8474376 C14.912289,43.8499888 14.1067507,44.6487625 14.1042592,45.6317121 L14.078495,56.3115537 C14.0763225,57.294419 14.877915,58.0894351 15.8691372,58.0871679 L56.2535227,57.9903633 C57.2450025,57.9879744 58.0505079,57.1892572 58.0529305,56.2062307 L58.078495,45.5265383 C58.0808975,44.5432772 57.2793619,43.7482936 56.2881424,43.75075 Z M31.9350081,35.4550748 C39.1608842,33.5189071 46.5417178,36.7520593 50.0907587,42.8755782 L51.1188962,42.8730491 C47.4776466,36.1223397 39.505235,32.505931 31.7050109,34.5959948 C26.9752551,35.863329 23.2401784,38.9791345 21.0814654,42.9450617 L22.1083183,42.9425906 C24.1839999,39.3872934 27.6234664,36.6103489 31.9350081,35.4550748 Z M42.486861,58.9133339 C41.4084219,59.7663916 40.1408766,60.4194343 38.725787,60.7986064 C35.4392474,61.6792321 32.1023542,60.8859901 29.6341313,58.9440506 L28.2723474,58.9474101 C31.0051654,61.5547696 35.0138866,62.7139147 38.9559638,61.6576383 C40.8604827,61.147324 42.5195778,60.1809857 43.8460994,58.9101795 L42.486861,58.9133339 Z M33.6583152,63.1908443 L32.8183596,62.8182415 L32.8294283,63.7108956 L32.1770365,64.3679016 L33.0705512,64.6107786 L33.5073521,65.3895966 L34.0484856,64.6469798 L34.9710226,64.4710434 L34.4118072,63.7691443 L34.5452001,62.8818522 L33.6583152,63.1908443 Z M39.6906262,64.4103986 L40.4005468,64.9538707 L40.6043981,64.0590508 L41.3831275,63.5351258 L40.5910046,63.1104532 L40.3625473,62.2432816 L39.6692579,62.8756179 L38.7493556,62.8636925 L39.1128603,63.6789865 L38.7728687,64.5389331 L39.6906143,64.4103541 L39.6906262,64.4103986 Z M27.2788786,61.9485935 L28.1376323,62.3243152 L28.0768234,61.429345 L28.6912701,60.7723472 L27.7863352,60.5265683 L27.3073856,59.7448309 L26.8087033,60.4879013 L25.8982243,60.6617515 L26.4950365,61.3668358 L26.4112646,62.2559991 L27.2788336,61.9486055 L27.2788786,61.9485935 Z M40.2219992,66.3827261 C32.9964376,68.3188095 25.6156159,65.0857019 22.0662962,58.9624007 L21.038156,58.9647398 C24.6794203,65.7156837 32.6520327,69.3319432 40.4522118,67.2418915 C45.1819676,65.9745572 48.9173708,62.858712 51.0758591,58.892845 L50.0489045,58.8952957 C47.9732587,62.4507264 44.5335858,65.22744 40.2220441,66.3827141 L40.2219992,66.3827261 Z M45.6479478,61.550217 L44.8114514,61.9494922 L44.8720217,61.0289143 L44.2752279,60.3630783 L45.1566231,60.0968612 L45.6240568,59.2862331 L46.1079754,60.0421237 L46.9939278,60.2069946 L46.4116474,60.9403662 L46.491746,61.8528707 L45.6479478,61.550217 Z M18.2764435,55.4454059 L18.2764435,46.2864271 L24.0379363,46.2864271 L24.0379363,47.5426924 L20.1825013,47.5426924 L20.1825013,50.3275171 L23.3510129,50.3275171 L23.3510129,51.5899709 L20.1825013,51.5899709 L20.1825013,55.4454059 L18.2764435,55.4454059 Z M28.8835312,54.715163 C28.2729295,55.3051362 27.619018,55.6001184 26.9217769,55.6001184 C26.327678,55.6001184 25.8449799,55.4185909 25.4736681,55.0555305 C25.1023563,54.69247 24.9167032,54.2221488 24.9167032,53.6445526 C24.9167032,52.8936777 25.2168424,52.3150588 25.8171298,51.9086786 C26.4174172,51.5022985 27.2765786,51.2991114 28.3946397,51.2991114 L28.8835312,51.2991114 L28.8835312,50.6802615 C28.8835312,49.9747691 28.4812827,49.6220282 27.6767738,49.6220282 C26.96303,49.6220282 26.2410457,49.8241838 25.5107991,50.2285011 L25.5107991,48.9660473 C26.3400621,48.6524951 27.1610615,48.4957213 27.9738218,48.4957213 C29.7519928,48.4957213 30.6410649,49.203266 30.6410649,50.6183765 L30.6410649,53.6259871 C30.6410649,54.1582007 30.8122784,54.4243035 31.1547104,54.4243035 C31.2165957,54.4243035 31.2970454,54.4160523 31.3960618,54.3995495 L31.4393813,55.4268404 C31.0515668,55.5423596 30.7091399,55.6001184 30.4120905,55.6001184 C29.6612155,55.6001184 29.1785174,55.3051362 28.9639817,54.715163 L28.8835312,54.715163 Z M28.8835312,53.7311916 L28.8835312,52.3511563 L28.4503362,52.3511563 C27.2662641,52.3511563 26.674237,52.7224625 26.674237,53.4650862 C26.674237,53.7167531 26.7598437,53.9281913 26.9310597,54.0994073 C27.1022757,54.2706233 27.3137139,54.35623 27.5653808,54.35623 C27.9944523,54.35623 28.4338313,54.147886 28.8835312,53.7311916 Z M33.0050716,55.4454059 L33.0050716,48.6504338 L34.8368674,48.6504338 L34.8368674,55.4454059 L33.0050716,55.4454059 Z M33.0050716,47.5055614 L33.0050716,45.9770021 L34.8368674,45.9770021 L34.8368674,47.5055614 L33.0050716,47.5055614 Z M37.1266121,55.4454059 L37.1266121,45.6737657 L38.9584079,45.6737657 L38.9584079,55.4454059 L37.1266121,55.4454059 Z M46.7806708,55.2164314 C45.9101509,55.472224 45.085026,55.6001184 44.3052712,55.6001184 C43.1707073,55.6001184 42.2754467,55.2783196 41.6194625,54.6347125 C40.9634783,53.9911054 40.6354911,53.1123473 40.6354911,51.9984119 C40.6354911,50.9463617 40.9356303,50.0995772 41.5359178,49.4580329 C42.1362052,48.8164886 42.9293566,48.4957213 43.9153957,48.4957213 C44.9096862,48.4957213 45.6357962,48.8092688 46.0937474,49.4363732 C46.5516987,50.0634776 46.7806708,51.0556904 46.7806708,52.4130413 L42.5663029,52.4130413 C42.6900735,53.7085069 43.4017438,54.35623 44.7013351,54.35623 C45.3160624,54.35623 46.0091674,54.213896 46.7806708,53.9292236 L46.7806708,55.2164314 Z M42.5415489,51.3795619 L44.9798176,51.3795619 C44.9798176,50.220244 44.6064485,49.6405937 43.8596992,49.6405937 C43.1005729,49.6405937 42.6611938,50.220244 42.5415489,51.3795619 Z M52.9506045,55.4454059 L52.9506045,54.1643866 C52.4802762,55.1215459 51.7397266,55.6001184 50.7289333,55.6001184 C49.9120473,55.6001184 49.2705127,55.3010106 48.8043101,54.702786 C48.3381075,54.1045614 48.1050097,53.2814993 48.1050097,52.2335748 C48.1050097,51.0948853 48.3680183,50.1872478 48.8940433,49.5106352 C49.4200684,48.8340226 50.1265816,48.4957213 51.0136043,48.4957213 C51.7232224,48.4957213 52.3688827,48.7762638 52.9506045,49.3373572 L52.9506045,45.6737657 L54.7885888,45.6737657 L54.7885888,55.4454059 L52.9506045,55.4454059 Z M52.9506045,50.4265331 C52.5091561,49.9314506 52.036772,49.6839132 51.5334382,49.6839132 C51.0837384,49.6839132 50.724809,49.9005085 50.4566394,50.3337056 C50.1884697,50.7669027 50.0543869,51.3486158 50.0543869,52.0788623 C50.0543869,53.4692188 50.4999544,54.1643866 51.3911027,54.1643866 C51.9356934,54.1643866 52.4555221,53.8157713 52.9506045,53.1185302 L52.9506045,50.4265331 Z" id="Combined-Shape" fill="#BAAB92"></path>
                <path d="M14,24 L34,24 L34,28 L14,28 L14,24 Z M14,15 L33.5,15 L33.5,19 L14,19 L14,15 Z M36.5,15 L44,15 L44,19 L36.5,19 L36.5,15 Z" id="Combined-Shape" fill="#D1C5B1"></path>
                <polygon id="Triangle-3" fill="#D1C5B1" transform="translate(12.727922, 67.727922) rotate(45.000000) translate(-12.727922, -67.727922) " points="12.727922 61.7279221 24.727922 73.7279221 0.727921967 73.7279221"></polygon>
                <path d="M100,29.8720396 L100,47.6280746 C99.7162204,47.9633102 99.4166719,48.284752 99.1025,48.59125 C98.1640246,49.4246534 97.6271456,50.6198916 97.6275,51.875 C97.6273731,53.5664618 98.5884838,55.0384328 100,55.7661329 L100,75 L70.75,75 C68.6789322,75 67,73.3210678 67,71.25 L67,60 C67,57.9289322 68.6789322,56.25 70.75,56.25 L77.11375,56.25 L77.11375,56.2475 L77.2575,56.24375 C79.0458037,56.1459713 80.5939201,54.9681104 81.1651487,53.2706745 C81.7363774,51.5732385 81.2153471,49.6990592 79.85,48.54 L79.8975,48.59125 L79.6075,48.3 C77.1287868,45.7393659 75.7451191,42.3138242 75.75,38.75 C75.75,31.15625 81.90625,25 89.5,25 C93.7097732,25 97.4777598,26.8919997 100,29.8720396 Z" id="Combined-Shape" fill="#C1B292"></path>
                <path d="M91.5,22 C99.09375,22 105.25,28.15625 105.25,35.75 C105.25,39.6075 103.66125,43.095 101.1025,45.59125 C100.164025,46.4246534 99.6271456,47.6198916 99.6275,48.875 C99.6273222,51.2456077 101.515247,53.1850822 103.885,53.24875 L103.88625,53.25 L110.25,53.25 C112.321068,53.25 114,54.9289322 114,57 L114,68.25 C114,70.3210678 112.321068,72 110.25,72 L72.75,72 C70.6789322,72 69,70.3210678 69,68.25 L69,57 C69,54.9289322 70.6789322,53.25 72.75,53.25 L79.11375,53.25 L79.11375,53.2475 L79.2575,53.24375 C81.0458037,53.1459713 82.5939201,51.9681104 83.1651487,50.2706745 C83.7363774,48.5732385 83.2153471,46.6990592 81.85,45.54 L81.8975,45.59125 L81.6075,45.3 C79.1287868,42.7393659 77.7451191,39.3138242 77.75,35.75 C77.75,28.15625 83.90625,22 91.5,22 Z M104.625,60.75 L78.375,60.75 C77.3394661,60.75 76.5,61.5894661 76.5,62.625 C76.5,63.6605339 77.3394661,64.5 78.375,64.5 L104.625,64.5 C105.660534,64.5 106.5,63.6605339 106.5,62.625 C106.5,61.5894661 105.660534,60.75 104.625,60.75 Z" id="Shape" fill="url(#linearGradient-1)"></path>
            </g>
        </g>
    </g>
</svg>