<?xml version="1.0" encoding="UTF-8"?>
<svg width="81px" height="44px" viewBox="0 0 81 44" version="1.1" xmlns="http://www.w3.org/2000/svg" xmlns:xlink="http://www.w3.org/1999/xlink">
    <title>Combined Shape</title>
    <g id="Why-choose-us？" stroke="none" stroke-width="1" fill="none" fill-rule="evenodd">
        <g id="Apple-TV" transform="translate(-320.000000, -2765.000000)" fill="#313131" fill-rule="nonzero">
            <g id="优势" transform="translate(0.000000, 2229.000000)">
                <path d="M395.073766,566.96426 C398.228269,566.96426 400.783273,569.519264 400.783273,572.673766 C400.783273,575.828269 398.228269,578.383273 395.073766,578.383273 L395.073766,578.383273 L366.526234,578.383273 C363.371731,578.383273 360.816727,575.828269 360.816727,572.673766 C360.816727,569.519264 363.371731,566.96426 366.526234,566.96426 L366.526234,566.96426 Z M395.498148,569.019013 L366.564814,569.019013 C364.97348,569.019013 363.67148,570.632903 363.67148,572.605436 C363.67148,574.577969 364.97348,576.191859 366.564814,576.191859 L366.564814,576.191859 L395.498148,576.191859 C397.089482,576.191859 398.391482,574.577969 398.391482,572.605436 C398.391482,570.632903 397.089482,569.019013 395.498148,569.019013 L395.498148,569.019013 Z M371.43574,571.24639 C372.220797,571.24639 372.863117,571.888709 372.863117,572.673766 C372.863117,573.458824 372.220797,574.101143 371.43574,574.101143 C370.650683,574.101143 370.008364,573.458824 370.008364,572.673766 C370.008364,571.888709 370.650683,571.24639 371.43574,571.24639 Z M365.726234,571.24639 C364.941176,571.24639 364.298857,571.888709 364.298857,572.673766 C364.298857,573.458824 364.941176,574.101143 365.726234,574.101143 C366.511291,574.101143 367.15361,573.458824 367.15361,572.673766 C367.15361,571.888709 366.511291,571.24639 365.726234,571.24639 Z M377.145247,571.24639 C376.36019,571.24639 375.71787,571.888709 375.71787,572.673766 C375.71787,573.458824 376.36019,574.101143 377.145247,574.101143 C377.930304,574.101143 378.572623,573.458824 378.572623,572.673766 C378.572623,571.888709 377.930304,571.24639 377.145247,571.24639 Z M382.854753,571.24639 C382.069696,571.24639 381.427377,571.888709 381.427377,572.673766 C381.427377,573.458824 382.069696,574.101143 382.854753,574.101143 C383.63981,574.101143 384.28213,573.458824 384.28213,572.673766 C384.28213,571.888709 383.63981,571.24639 382.854753,571.24639 Z M368.037885,536 L368.037885,580 L320,580 L320,536 L368.037885,536 Z M388.56426,571.24639 C389.349317,571.24639 389.991636,571.888709 389.991636,572.673766 C389.991636,573.458824 389.349317,574.101143 388.56426,574.101143 C387.779203,574.101143 387.136883,573.458824 387.136883,572.673766 C387.136883,571.888709 387.779203,571.24639 388.56426,571.24639 Z M394.273766,571.24639 C395.058824,571.24639 395.701143,571.888709 395.701143,572.673766 C395.701143,573.458824 395.058824,574.101143 394.273766,574.101143 C393.488709,574.101143 392.84639,573.458824 392.84639,572.673766 C392.84639,571.888709 393.488709,571.24639 394.273766,571.24639 Z M336.885938,559.846094 C336.134892,559.846094 335.547007,559.939973 335.122266,560.127734 C334.697524,560.315496 334.368491,560.585285 334.135156,560.937109 C333.901822,561.288934 333.741407,561.778382 333.653906,562.405469 L333.653906,562.405469 L335.885156,562.585938 C335.947136,562.133852 336.068358,561.81849 336.248828,561.639844 C336.429298,561.461197 336.661717,561.371875 336.946094,561.371875 C337.219533,561.371875 337.446483,561.458463 337.626953,561.631641 C337.807423,561.804819 337.897656,562.01354 337.897656,562.257812 C337.897656,562.483855 337.806511,562.722655 337.624219,562.974219 C337.441926,563.225783 337.024482,563.594008 336.371875,564.078906 C335.30364,564.870056 334.575393,565.556377 334.187109,566.137891 C333.798826,566.719404 333.566407,567.340101 333.489844,568 L333.489844,568 L340.172656,568 L340.172656,566.184375 L336.694531,566.184375 C336.898699,565.983853 337.076432,565.821615 337.227734,565.697656 C337.303386,565.635677 337.416178,565.550456 337.566113,565.441993 L337.818871,565.261866 C337.91241,565.196013 338.015234,565.124349 338.127344,565.046875 C338.882035,564.514581 339.402473,564.026044 339.688672,563.58125 C339.974871,563.136456 340.117969,562.669794 340.117969,562.18125 C340.117969,561.721873 339.9931,561.307163 339.743359,560.937109 C339.493619,560.567055 339.150914,560.292709 338.715234,560.114063 C338.279555,559.935416 337.669796,559.846094 336.885938,559.846094 Z M346.89375,559.846094 L344.952344,559.846094 L340.894531,564.669531 L340.894531,566.501562 L344.952344,566.501562 L344.952344,568 L346.89375,568 L346.89375,566.501562 L347.9,566.501562 L347.9,564.773438 L346.89375,564.773438 L346.89375,559.846094 Z M351.033594,559.982813 L348.807813,559.982813 L348.807813,568 L351.033594,568 L351.033594,565.210938 C351.033594,564.682289 351.117447,564.315886 351.285156,564.111719 C351.452865,563.907551 351.671613,563.805469 351.941406,563.805469 C352.185678,563.805469 352.37526,563.881119 352.510156,564.032422 C352.645053,564.183725 352.7125,564.441665 352.7125,564.80625 L352.7125,564.80625 L352.7125,568 L354.949219,568 L354.949219,564.308594 C354.949219,563.546611 354.775132,562.981512 354.426953,562.613281 C354.078774,562.24505 353.602086,562.060938 352.996875,562.060938 C352.58854,562.060938 352.234897,562.128385 351.935937,562.263281 C351.636978,562.398178 351.336199,562.622394 351.033594,562.935938 L351.033594,562.935938 L351.033594,559.982813 Z M392,565.6 L392,568 L372.8,568 L372.8,565.6 L392,565.6 Z M344.952344,562.252344 L344.952344,564.773438 L342.808594,564.773438 L344.952344,562.252344 Z M375.434315,559.902944 L377.697056,562.165685 L376.565685,563.297056 L374.302944,561.034315 L375.434315,559.902944 Z M389.365685,559.902944 L390.497056,561.034315 L388.234315,563.297056 L387.102944,562.165685 L389.365685,559.902944 Z M390.608877,536 L390.608877,547.18329 L388.603,547.183 L388.603655,551.444386 L385.47,551.444 L385.470496,558.21201 L383.339,558.212 L383.339948,562.907572 L381.334726,562.907572 L381.334,558.212 L379.204178,558.21201 L379.204,551.444 L376.071018,551.444386 L376.071,547.183 L374.065796,547.18329 L374.065796,536 L390.608877,536 Z M374.868629,555.337258 L378.262742,558.731371 L377.131371,559.862742 L373.737258,556.468629 L374.868629,555.337258 Z M389.931371,555.337258 L391.062742,556.468629 L387.668629,559.862742 L386.537258,558.731371 L389.931371,555.337258 Z M338.701563,548.646094 L336.858594,548.646094 C336.621613,549.149221 336.293492,549.572134 335.874219,549.914844 C335.454946,550.257554 334.86615,550.55104 334.107813,550.795313 L334.107813,550.795313 L334.107813,552.621875 C334.621878,552.465103 335.049347,552.301043 335.390234,552.129688 C335.731121,551.958332 336.083852,551.734116 336.448438,551.457031 L336.448438,551.457031 L336.448438,556.8 L338.701563,556.8 L338.701563,548.646094 Z M344.35625,548.646094 C343.605205,548.646094 343.01732,548.739973 342.592578,548.927734 C342.167836,549.115496 341.838803,549.385285 341.605469,549.737109 C341.372134,550.088934 341.211719,550.578382 341.124219,551.205469 L341.124219,551.205469 L343.355469,551.385937 C343.417448,550.933852 343.538671,550.61849 343.719141,550.439844 C343.89961,550.261197 344.13203,550.171875 344.416406,550.171875 C344.689845,550.171875 344.916796,550.258463 345.097266,550.431641 C345.277735,550.604819 345.367969,550.81354 345.367969,551.057812 C345.367969,551.283855 345.276824,551.522655 345.094531,551.774219 C344.912239,552.025783 344.494795,552.394008 343.842188,552.878906 C342.773953,553.670056 342.045705,554.356377 341.657422,554.937891 C341.269139,555.519404 341.036719,556.140101 340.960156,556.8 L340.960156,556.8 L347.642969,556.8 L347.642969,554.984375 L344.164844,554.984375 C344.369011,554.783853 344.546744,554.621615 344.698047,554.497656 C344.84935,554.373697 345.149217,554.156772 345.597656,553.846875 C346.352348,553.314581 346.872785,552.826044 347.158984,552.38125 C347.445184,551.936456 347.588281,551.469794 347.588281,550.98125 C347.588281,550.521873 347.463413,550.107163 347.213672,549.737109 C346.963931,549.367055 346.621226,549.092709 346.185547,548.914062 C345.749868,548.735416 345.140108,548.646094 344.35625,548.646094 Z M351.033594,548.782812 L348.807813,548.782812 L348.807813,556.8 L351.033594,556.8 L351.033594,554.010937 C351.033594,553.482289 351.117447,553.115886 351.285156,552.911719 C351.452865,552.707551 351.671613,552.605469 351.941406,552.605469 C352.185678,552.605469 352.37526,552.681119 352.510156,552.832422 C352.645053,552.983725 352.7125,553.241665 352.7125,553.60625 L352.7125,553.60625 L352.7125,556.8 L354.949219,556.8 L354.949219,553.108594 C354.949219,552.346611 354.775132,551.781512 354.426953,551.413281 C354.078774,551.04505 353.602086,550.860937 352.996875,550.860937 C352.58854,550.860937 352.234897,550.928385 351.935937,551.063281 C351.636978,551.198178 351.336199,551.422394 351.033594,551.735937 L351.033594,551.735937 L351.033594,548.782812 Z M383.465274,551.444386 L381.209399,551.444386 L381.209399,556.206789 L383.465274,556.206789 L383.465274,551.444386 Z M386.598433,547.18329 L378.07624,547.18329 L378.07624,549.439164 L386.598433,549.439164 L386.598433,547.18329 Z M388.603655,538.005222 L376.071018,538.005222 L376.071018,545.178068 L388.603655,545.178068 L388.603655,538.005222 Z M385.34517,539.509138 L385.34517,543.674151 L383.339948,543.674151 L383.339948,539.509138 L385.34517,539.509138 Z M381.334726,539.509138 L381.334726,543.674151 L379.329504,543.674151 L379.329504,539.509138 L381.334726,539.509138 Z" id="Combined-Shape"></path>
            </g>
        </g>
    </g>
</svg>