<?xml version="1.0" encoding="UTF-8"?>
<svg width="92px" height="26px" viewBox="0 0 92 26" version="1.1" xmlns="http://www.w3.org/2000/svg" xmlns:xlink="http://www.w3.org/1999/xlink">
    <title>形状结合</title>
    <g id="Why-choose-us？" stroke="none" stroke-width="1" fill="none" fill-rule="evenodd">
        <g id="Apple-TV" transform="translate(-1204.000000, -904.000000)" fill="#787878" fill-rule="nonzero">
            <g id="ISO" transform="translate(320.000000, 800.000000)">
                <g id="付款" transform="translate(881.000000, 39.000000)">
                    <path d="M16.2233578,65 C17.6151766,65.0108494 22.1674934,65.3984817 25.9161822,69.7238919 C25.9161822,69.7238919 28.7903654,72.8280097 28.9053327,77.4267028 C28.9053327,77.4267028 29.1352674,80.8757226 27.5257248,83.8648732 C25.9161822,86.8540237 24.1916723,88.348599 21.4324564,89.8431742 C18.5582732,91.2227821 14.0745475,91.4527168 11.0853969,90.0731089 C8.09624642,88.6935009 6.25676918,87.1989257 4.53225926,84.0948078 L4.53225926,84.0948078 L4.52069101,84.0740914 C4.50553834,84.0466303 4.47604803,83.9921905 4.43548013,83.9127014 L4.3667276,83.7749219 C3.85842298,82.7343611 2.4053637,79.2853413 3.26761866,75.3572909 C3.26761866,75.3572909 3.61252064,72.5980751 6.14180184,69.4939572 C6.02683451,69.3789899 9.82075633,64.7802968 15.7990574,65.0102314 C15.7990574,65.0102314 15.89595,65.0023218 16.0744348,65.0002472 Z M53.6233082,85.0145465 L53.6233082,85.1295138 L53.1634388,85.1295138 L53.1634388,87.313893 L54.8879487,85.7043504 L55.002916,85.5893831 L55.002916,85.4744157 C55.002916,85.3786096 55.002916,85.3626419 54.936384,85.3599806 L54.5430468,85.3594484 L54.5430468,85.2444811 L56.037622,85.2444811 L56.037622,85.3594484 C55.8076874,85.3594484 55.6927201,85.3594484 55.4627854,85.4744157 C55.3478181,85.5893831 55.1178834,85.7043504 54.8879487,85.8193177 L53.9682102,86.6240891 L55.9226547,89.8431742 L56.2675567,89.8431742 L56.2675567,89.9581416 L53.9682102,89.9581416 L53.9682102,89.8431742 L54.3131121,89.8431742 L53.0484715,87.5438276 L52.9335042,87.6587949 L52.9335042,89.9581416 L53.3933734,89.9581416 L53.3933734,90.0731089 L51.3239616,90.0731089 L51.3239616,89.8431742 L51.7838309,89.7282069 L51.7838309,85.1295138 L51.3239616,85.1295138 L51.3239616,85.0145465 L53.6233082,85.0145465 Z M60.8662498,84.7846118 C61.2111518,84.7846118 61.4410864,84.8995791 61.7859884,85.0145465 C62.0159231,85.1295138 62.3608251,85.3594484 62.5907597,85.5893831 C62.8206943,85.8193177 63.050629,86.1642197 63.1655963,86.3941544 C63.2805636,86.7390564 63.3955309,86.968991 63.3955309,87.4288603 C63.3955309,87.7737623 63.2805636,88.1186643 63.1655963,88.4635663 C63.050629,88.8084682 62.8206943,89.0384029 62.5907597,89.2683375 C62.3608251,89.4982722 62.1308904,89.7282069 61.7859884,89.8431742 C61.5560537,89.9581416 61.2111518,90.0731089 60.8662498,90.0731089 C60.5213478,90.0731089 60.2914132,89.9581416 59.9465111,89.8431742 C59.7165765,89.7282069 59.3716745,89.4982722 59.1417399,89.2683375 C58.9118052,89.0384029 58.6818706,88.6935009 58.5669033,88.4635663 C58.4519359,88.1186643 58.4519359,87.7737623 58.4519359,87.4288603 C58.4519359,87.0839583 58.4519359,86.7390564 58.5669033,86.3941544 C58.6818706,86.0492523 58.9118052,85.8193177 59.1417399,85.5893831 C59.3716745,85.3594484 59.6016092,85.1295138 59.9465111,85.0145465 C60.1764458,84.8995791 60.5213478,84.7846118 60.8662498,84.7846118 Z M46.527,89.603 C46.5464304,89.651562 46.5719787,89.6898844 46.6103011,89.7282069 C46.6103011,89.8431742 46.7252684,89.8431742 46.9552032,89.8431742 L47.1851378,89.8431742 L47.1851378,89.9581416 L46.0354645,89.9581416 L46.0354645,89.8431742 L46.1504318,89.8431742 C46.2653992,89.8431742 46.3803665,89.8431742 46.4953338,89.7282069 L46.5072904,89.6583067 L46.5072904,89.6583067 L46.527,89.603 Z M72.5929172,85.0145465 C72.9378192,85.0145465 73.1677538,85.1295138 73.5126558,85.2444811 C73.8575578,85.3594484 73.9725252,85.4744157 73.9725252,85.4744157 C74.0874925,85.4744157 74.0874925,85.4744157 74.0874925,85.3594484 C74.0874925,85.3594484 74.0874925,85.2444811 74.2024598,85.2444811 L74.3174271,85.2444811 L74.3174271,86.7390564 L74.2024598,86.7390564 C74.0874925,86.279187 73.8575578,85.8193177 73.6276232,85.5893831 C73.3976884,85.3594484 73.0527865,85.2444811 72.7078845,85.2444811 C72.5929172,85.2444811 72.3629826,85.2444811 72.2480152,85.3594484 L72.1617897,85.4277102 L72.1617897,85.4277102 L71.9893387,85.5211212 C71.9605969,85.5390849 71.9318551,85.5606413 71.9031133,85.5893831 C71.7881459,85.7043504 71.6731785,85.934285 71.6731785,86.1642197 C71.6731785,86.3941544 71.5582112,86.8540237 71.5582112,87.4288603 L71.5582112,88.6935009 C71.5582112,88.9234356 71.6731785,89.1533702 71.6731785,89.2683375 C71.7881459,89.4982722 71.9031133,89.6132395 72.0180806,89.7282069 C72.1330479,89.8431742 72.3629826,89.8431742 72.5929172,89.8431742 C73.0527865,89.8431742 73.3976884,89.7282069 73.6276232,89.4982722 C74.0363959,89.1916927 74.2634918,88.8851131 74.308911,88.4977884 L74.317,88.349 L74.4323944,89.8431742 L74.3174271,89.8431742 C74.3174271,89.7282069 74.3174271,89.7282069 74.2024598,89.6132395 L74.0874925,89.4982722 L73.6276232,89.7282069 C73.2827211,89.8431742 73.0527865,89.9581416 72.7078845,89.9581416 C72.3629826,89.9581416 72.0180806,89.9581416 71.7881459,89.8431742 C71.4432439,89.7282069 71.2133093,89.6132395 70.9833746,89.3833048 C70.75344,89.1533702 70.5235053,88.9234356 70.408538,88.5785336 C70.2935707,88.2336316 70.1786033,88.0036969 70.1786033,87.6587949 C70.1786033,87.313893 70.2935707,86.8540237 70.408538,86.5091217 C70.5235053,86.1642197 70.75344,85.8193177 71.0983419,85.5893831 C71.3282766,85.3594484 71.5582112,85.2444811 71.7881459,85.1295138 C72.0180806,85.0145465 72.3629826,85.0145465 72.5929172,85.0145465 Z M84.467,89.604 C84.4856485,89.651562 84.5111968,89.6898844 84.5495193,89.7282069 C84.5495193,89.8431742 84.6644866,89.8431742 84.8944212,89.8431742 L85.1243559,89.8431742 L85.1243559,89.9581416 L83.9746827,89.9581416 L83.9746827,89.8431742 L84.08965,89.8431742 C84.2046173,89.8431742 84.3195846,89.8431742 84.4345519,89.7282069 L84.4465085,89.6583067 L84.4465085,89.6583067 L84.467,89.604 Z M85.5842252,85.0145465 L87.883,88.299 L87.8835718,89.8431742 L87.0788005,89.8431742 L84.549,86.214 L84.5495193,85.934285 L84.08965,85.1295138 L83.9746827,85.1295138 L83.9746827,85.0145465 L85.5842252,85.0145465 Z M77.6514796,85.0145465 L77.6514796,85.1295138 L77.1916103,85.1295138 L77.1916103,87.313893 L78.5712183,87.313893 L78.5712183,85.1295138 L78.1113489,85.1295138 L78.1113489,85.0145465 L80.4106955,85.0145465 L80.4106955,85.1295138 L79.9508261,85.1295138 L79.9508261,89.7282069 L80.4106955,89.7282069 L80.4106955,89.8431742 L78.1113489,89.8431742 L78.1113489,89.7282069 L78.5712183,89.7282069 L78.5712183,87.4288603 L77.1916103,87.4288603 L77.1916103,89.7282069 L77.6514796,89.7282069 L77.6514796,89.8431742 L75.3521331,89.8431742 L75.8120024,89.7282069 L75.8120024,85.1295138 L75.3521331,85.1295138 L75.3521331,85.0145465 L77.6514796,85.0145465 Z M91.2176243,85.0145465 L92.8271668,89.7282069 L93.0571015,89.7282069 L93.0571015,89.8431742 L91.1026569,89.8431742 L91.1026569,89.7282069 L91.4475589,89.7282069 L90.8727223,88.348599 L89.723049,88.348599 L89.378147,89.2683375 L89.378147,89.4982722 C89.378147,89.6132395 89.378147,89.6132395 89.4931143,89.7282069 L89.723049,89.7282069 L89.723049,89.8431742 L88.9182777,89.8431742 L88.9182777,89.7282069 L89.1482124,89.7282069 C89.1482124,89.7282069 89.2631797,89.6132395 89.2631797,89.4982722 L90.757755,85.0145465 L91.2176243,85.0145465 Z M60.7512825,85.0145465 C60.4063805,85.0145465 60.1764458,85.1295138 60.0614784,85.4744157 C59.9465111,85.8193177 59.8315438,86.5091217 59.8315438,87.4288603 C59.8315438,88.348599 59.9465111,89.0384029 60.0614784,89.3833048 C60.1764458,89.7282069 60.4063805,89.8431742 60.7512825,89.8431742 C61.0961844,89.8431742 61.3261191,89.7282069 61.4410864,89.3833048 C61.5560537,89.0384029 61.671021,88.4635663 61.671021,87.4288603 C61.671021,86.5091217 61.5560537,85.8193177 61.4410864,85.4744157 C61.3261191,85.1295138 61.0961844,85.0145465 60.7512825,85.0145465 Z M83.2848786,85.0145465 L83.2848786,85.1295138 L82.8250093,85.1295138 L82.8250093,89.7282069 L83.2848786,89.7282069 L83.2848786,89.8431742 L80.9855321,89.8431742 L81.4454014,89.7282069 L81.4454014,85.1295138 L80.9855321,85.1295138 L80.9855321,85.0145465 L83.2848786,85.0145465 Z M47.6450071,85.0145465 L49.944,88.299 L49.9443536,89.8431742 L49.1395824,89.8431742 L46.61,86.214 L46.6103011,85.934285 L46.1504318,85.1295138 L46.0354645,85.1295138 L46.0354645,85.0145465 L47.6450071,85.0145465 Z M39.7122615,85.0145465 C39.9421961,85.0145465 40.0571634,85.1295138 40.1721308,85.1295138 C40.4020655,85.2444811 40.5170328,85.3594484 40.6320002,85.4744157 C40.7469675,85.5893831 40.7469675,85.8193177 40.7469675,85.934285 C40.7469675,86.279187 40.6320002,86.5091217 40.4020655,86.7390564 C40.1721308,86.968991 39.7122615,87.0839583 39.2523922,87.1989257 C39.8272288,87.1989257 40.2870982,87.4288603 40.6320002,87.6587949 C40.9769021,87.8887296 41.0918694,88.2336316 41.0918694,88.5785336 C41.0918694,88.8084682 40.9769021,89.0384029 40.8619348,89.2683375 C40.7469675,89.4982722 40.5170328,89.6132395 40.1721308,89.7282069 C40.0571634,89.7282069 39.9421961,89.8431742 39.7122615,89.8431742 L36.6081436,89.8431742 L36.6081436,89.7282069 L37.068013,89.7282069 L37.068013,85.1295138 L36.6081436,85.1295138 L36.6081436,85.0145465 L39.7122615,85.0145465 Z M43.8510853,85.0145465 L45.4606279,89.7282069 L45.6905626,89.7282069 L45.6905626,89.8431742 L43.736118,89.8431742 L43.736118,89.7282069 L44.08102,89.7282069 L43.5061833,88.348599 L42.3565101,88.348599 L42.0116081,89.2683375 L42.0116081,89.4982722 C42.0116081,89.6132395 42.0116081,89.6132395 42.1265754,89.7282069 L42.3565101,89.7282069 L42.3565101,89.8431742 L41.5517387,89.8431742 L41.5517387,89.7282069 L41.7816734,89.7282069 C41.7816734,89.7282069 41.8966407,89.6132395 41.8966407,89.4982722 L43.3912159,85.0145465 L43.8510853,85.0145465 Z M67.8792568,85.0145465 L67.8792568,86.279187 L67.7642894,86.279187 C67.6493221,85.8193177 67.5343548,85.5893831 67.3044202,85.3594484 C67.0744855,85.2444811 66.7295834,85.1295138 66.2697142,85.1295138 L65.8098449,85.1295138 L65.8098449,89.6132395 L66.2697142,89.6132395 L66.2697142,89.7282069 L64.43,89.728 L64.4302369,85.1295138 L63.9703677,85.1295138 L63.9703677,85.0145465 L67.8792568,85.0145465 Z M38.7925229,87.313893 L38.5625882,87.313893 L38.5625882,89.7282069 L38.7925229,89.7282069 C39.1374249,89.7282069 39.3673595,89.6132395 39.5972942,89.4982722 C39.7122615,89.3833048 39.8272288,89.0384029 39.8272288,88.5785336 C39.8272288,88.1186643 39.7122615,87.7737623 39.5972942,87.5438276 C39.4823268,87.313893 39.1374249,87.313893 38.7925229,87.313893 Z M84.4345519,86.0492523 L84.549,86.214 L84.5495193,89.2683375 C84.5495193,89.4062984 84.508131,89.5028709 84.4750204,89.5828882 L84.467,89.604 L84.4489228,89.541385 C84.4393422,89.4934819 84.4361487,89.4391918 84.4350842,89.3742565 L84.4345519,89.2683375 L84.4345519,86.0492523 Z M46.4953338,86.0492523 L46.61,86.214 L46.6103011,89.2683375 C46.6103011,89.4062984 46.5689129,89.5028709 46.5358023,89.5828882 L46.527,89.603 L46.5097047,89.541385 C46.5001241,89.4934819 46.4969306,89.4391918 46.4958661,89.3742565 L46.4953338,86.0492523 Z M50.026,85.368 L50.04495,85.431303 C50.0593209,85.5031575 50.0593209,85.5893831 50.0593209,85.7043504 L50.0593209,85.7043504 L50.0593209,88.4635663 L49.944,88.299 L49.9443536,85.7043504 C49.9443536,85.5663896 49.9857419,85.469817 50.0188524,85.3897998 L50.026,85.368 Z M87.966,85.369 L87.9841682,85.431303 C87.9985391,85.5031575 87.9985391,85.5893831 87.9985391,85.7043504 L87.9985391,88.4635663 L87.883,88.299 L87.8835718,85.7043504 C87.8835718,85.5663896 87.92496,85.469817 87.9580706,85.3897998 L87.966,85.369 Z M67.3044202,86.3941544 L67.3044202,88.2336316 L67.1894528,88.2336316 C67.1894528,87.8887296 67.0744855,87.6587949 66.9595182,87.5438276 C66.8445508,87.4288603 66.4996488,87.313893 66.1547468,87.313893 L66.2697142,87.313893 C66.6146161,87.313893 66.8445508,87.1989257 66.9595182,87.0839583 C67.0744855,86.968991 67.1894528,86.7390564 67.1894528,86.3941544 L67.3044202,86.3941544 Z M90.412853,86.5091217 L89.8380163,88.1186643 L90.9876896,88.1186643 L90.412853,86.5091217 Z M43.046314,86.5091217 L42.4714774,88.1186643 L43.6211507,88.1186643 L43.046314,86.5091217 Z M14.6493841,67.8844146 C12.6949395,67.7694473 9.93572366,69.4939572 9.47585434,69.9538265 C9.01598503,70.2987285 6.83160581,71.9082711 5.91186719,75.9321275 C4.87716124,79.9559841 7.17650779,83.1750692 7.17650779,83.1750692 C9.82075633,87.7737623 14.5344168,88.0036969 14.5344168,88.0036969 L14.5344168,88.0036969 L14.5344168,83.2900366 L12.5799722,83.2900366 C9.82075633,83.0601019 9.70578901,80.300886 9.70578901,80.300886 L9.70578901,80.300886 L9.70578901,75.9321275 C9.82075633,72.8280097 12.5799722,72.7130424 12.5799722,72.7130424 L14.6493841,72.7130424 Z M17.3001127,67.8849548 L17.2936327,67.8844146 L17.2936327,72.5980751 L19.0181426,72.5980751 C21.7773584,72.7130424 22.1222604,75.2423236 22.1222604,75.2423236 L22.1222604,75.2423236 L22.1222604,80.300886 C22.0072931,82.8301672 19.5929792,83.2900366 19.5929792,83.2900366 L19.5929792,83.2900366 L17.2936327,83.2900366 L17.2936327,88.0036969 C19.0181426,87.8887296 22.5821297,86.5091217 24.5365743,83.6349385 C26.4910188,80.645788 26.2610842,77.1967682 26.0311495,76.0470948 C25.8012149,74.8974216 25.1114109,72.5980751 22.697097,70.4136958 C20.2827832,68.1143493 17.2936327,67.8844146 17.2936327,67.8844146 Z M38.6775556,85.1295138 L38.4476209,85.1295138 L38.4476209,87.1989257 L38.6775556,87.1989257 C39.0224576,87.1989257 39.2523922,87.0839583 39.3673595,86.968991 C39.4823268,86.8540237 39.5972942,86.5091217 39.5972942,86.1642197 C39.5972942,85.7043504 39.4823268,85.4744157 39.3673595,85.3594484 C39.2523922,85.2444811 39.0224576,85.1295138 38.6775556,85.1295138 Z M88.5733758,85.0145465 L88.5733758,85.1295138 L88.343441,85.1295138 C88.2284737,85.1295138 88.1135064,85.1295138 87.9985391,85.2444811 L87.9865825,85.3143812 L87.9865825,85.3143812 L87.966,85.369 C87.9474425,85.321126 87.9218942,85.2828035 87.8835718,85.2444811 C87.8835718,85.1459377 87.799106,85.13186 87.6301744,85.129849 L87.4237025,85.1295138 L87.4237025,85.0145465 L88.5733758,85.0145465 Z M50.6341577,85.0145465 L50.6341577,85.1295138 L50.404223,85.1295138 C50.2892557,85.1295138 50.1742883,85.1295138 50.0593209,85.2444811 L50.0473643,85.3143812 L50.0473643,85.3143812 L50.026,85.368 C50.0082244,85.321126 49.9826761,85.2828035 49.9443536,85.2444811 C49.9443536,85.1459377 49.8598879,85.13186 49.6909563,85.129849 L49.4844843,85.1295138 L49.4844843,85.0145465 L50.6341577,85.0145465 Z M40.2870982,66.5048067 C41.3218041,67.1946107 42.1265754,68.1143493 42.4714774,69.3789899 C43.5061833,69.3789899 44.4259219,68.6891859 45.6905626,69.0340879 C45.9204972,70.6436305 43.8510853,71.6783364 43.6211507,72.942977 C43.8510853,72.942977 43.9660527,72.942977 44.1959873,73.0579444 L44.1959873,73.1729117 C44.08102,73.632781 43.8510853,73.7477483 43.8510853,74.322585 C43.5061833,74.322585 43.2762486,74.5525196 43.046314,74.7824543 C42.5864447,75.2423236 42.2415427,78.2314741 41.8966407,79.0362454 C41.4367714,79.9559841 42.1265754,80.9906899 41.666706,81.4505593 C41.2068368,81.5655266 41.0918694,81.7954613 40.6320002,81.9104286 C40.6320002,81.7954613 40.6320002,81.680494 40.5170328,81.5655266 C39.8272288,80.7607553 40.4020655,79.1512127 39.8272288,78.5763761 C39.8272288,78.5763761 39.7122615,78.5763761 39.7122615,78.6913434 C39.7122615,79.7260494 39.5972942,80.8757226 39.9421961,81.4505593 C40.0571634,81.7954613 40.4020655,81.7954613 40.5170328,82.3702979 L40.1721308,82.3702979 C39.2523922,80.5308207 39.4823268,78.2314741 38.9074902,76.0470948 L38.7925229,76.0470948 C38.6775556,76.0470948 38.5625882,76.0470948 38.4476209,76.1620622 C38.4476209,76.7368989 38.3326535,76.8518662 37.8727843,76.8518662 C37.412915,76.6219316 36.8380783,76.5069642 36.378209,76.1620622 C35.3435031,75.3572909 34.5387318,73.0579444 34.7686664,71.5633691 L35.1135684,71.5633691 L36.4931763,72.942977 C36.6081436,72.942977 36.7231109,72.942977 36.8380783,72.8280097 L37.4236931,72.3968822 L37.4236931,72.3968822 L38.55181,71.5346273 C38.7422247,71.3909181 38.936232,71.247209 39.1374249,71.1034998 C39.1374249,69.2640226 39.1374249,67.7694473 39.7122615,66.5048067 L40.2870982,66.5048067 Z M94.7816114,72.1382057 C94.8965787,72.3681404 94.8965787,72.3681404 95.011546,72.7130424 C94.0918075,73.1729117 91.5625262,73.5178137 90.9876896,74.0926503 L90.9876896,74.2076176 L91.2176243,74.4375523 C91.2176243,74.2076176 91.3325916,74.2076176 91.4475589,74.2076176 C91.4475589,74.6674869 91.2176243,76.0470948 91.3325916,76.3919969 C91.7924609,77.3117355 91.9074283,79.1512127 91.9074283,80.5308207 C91.3325916,80.8757226 91.1026569,81.3355919 90.1829184,81.3355919 C89.9529836,80.8757226 89.8380163,80.1859187 89.378147,79.9559841 C88.6883431,79.4961147 87.5386698,79.26618 87.1937678,78.3464415 L87.6536371,78.3464415 C87.9985391,79.0362454 89.2631797,79.26618 90.1829184,79.26618 C90.412853,78.0015394 90.6427877,75.4722582 90.2978857,74.0926503 C90.2978857,74.0926503 90.1829184,74.0926503 90.1829184,74.2076176 C89.9529836,74.4375523 87.7686044,75.7021929 87.3087352,75.7021929 C87.3087352,75.7021929 87.1937678,75.7021929 87.1937678,75.5872256 L87.1937678,74.8974216 C89.4931143,73.8627157 91.7924609,72.2531731 94.7816114,72.1382057 Z M41.2068368,78.3464415 C41.0918694,78.3464415 40.9769021,78.3464415 40.7469675,78.4614088 C40.7469675,79.26618 40.6320002,79.9559841 40.6320002,80.7607553 C40.8619348,80.8757226 40.7469675,80.8757226 40.9769021,80.9906899 C41.0918694,80.9906899 41.2068368,80.9906899 41.3218041,80.8757226 C41.2068368,80.1859187 41.2068368,79.26618 41.2068368,78.3464415 Z M75.1221984,67.309578 C75.2371658,67.8844146 73.8575578,72.7130424 73.3976884,73.287879 L73.1569756,73.3741045 L73.1569756,73.3741045 L72.7186627,73.5465555 C72.6432154,73.5752973 72.5641754,73.6040392 72.4779499,73.632781 C72.3629826,73.8627157 72.3629826,74.0926503 72.2480152,74.322585 L72.3629826,74.4375523 C72.7078845,74.2076176 73.0527865,74.0926503 73.3976884,73.977683 C73.3976884,73.632781 73.2827211,73.4028463 73.5126558,73.287879 C73.6276232,73.5178137 73.7425905,73.7477483 73.9725252,73.977683 C73.9725252,74.2076176 73.9725252,74.322585 73.8575578,74.5525196 C72.9378192,74.5525196 72.4779499,75.3572909 71.5582112,75.4722582 C71.5582112,73.977683 72.2480152,73.632781 72.5929172,72.5980751 L72.2480152,72.5980751 C72.1330479,72.8280097 71.9031133,72.8280097 71.6731785,73.0579444 C71.2133093,73.977683 71.0983419,74.8974216 71.0983419,75.8171602 L71.3282766,75.8171602 C71.5703131,75.4541055 72.1626655,75.5050606 72.7868649,75.5845102 L73.1626584,75.6325152 C73.5995979,75.685314 74.0209324,75.7142947 74.3174271,75.5872256 C75.3521331,75.2423236 75.5820677,74.322585 76.8467083,74.322585 L76.8467083,74.4375523 L76.6167736,74.6674869 C76.5018063,75.012389 76.2718717,75.1273563 75.9269697,75.1273563 C75.8120024,75.7021929 75.2371658,76.3919969 74.8922637,76.8518662 C75.5820677,77.5416701 77.8814143,77.8865721 78.9161202,78.4614088 L78.6861856,78.6913434 L78.6861856,78.8063107 C77.6514796,78.8063107 76.5018063,79.4961147 75.4671004,79.0362454 C75.3685569,78.9869737 75.2805717,78.9271437 75.1940949,78.863543 L75.0204707,78.7333249 C74.7550068,78.5364895 74.4488183,78.3464415 73.8575578,78.3464415 C73.3976884,79.1512127 72.2480152,80.4158533 71.0983419,80.4158533 C70.6384727,80.0709514 70.2935707,79.9559841 69.8337013,79.611082 C69.8337013,79.1512127 69.8337013,78.6913434 69.718734,78.2314741 L69.373832,78.2314741 C68.9139627,79.7260494 66.9595182,79.9559841 65.8098449,80.645788 C65.6948776,80.300886 65.6948776,79.9559841 65.5799102,79.611082 C65.9248122,79.3811473 66.2697142,79.0362454 66.4996488,78.6913434 C66.4996488,78.5763761 66.4996488,78.5763761 66.3846815,78.4614088 C66.0397795,78.4614088 65.9248122,78.4614088 65.8098449,78.2314741 C66.4996488,78.2314741 66.6146161,78.0015394 66.4996488,77.4267028 C66.4996488,77.4267028 66.4996488,77.3117355 66.3846815,77.3117355 C66.3846815,77.3117355 66.2697142,77.3117355 66.2697142,77.4267028 C65.9248122,77.8865721 65.2350083,79.1512127 64.5452043,79.26618 C64.4302369,78.9212781 64.2003023,78.9212781 64.085335,78.4614088 C64.085335,78.4614088 64.085335,78.3464415 64.2003023,78.3464415 C65.0050735,78.2314741 65.4649429,77.4267028 66.1547468,76.9668335 C66.1547468,76.9668335 66.1547468,76.8518662 66.0397795,76.8518662 L65.6948776,76.8518662 C65.5799102,75.5872256 65.3499756,75.2423236 66.2697142,74.4375523 C66.2697142,73.8627157 66.0397795,73.632781 65.8098449,73.287879 C66.2697142,72.942977 66.7295834,72.7130424 67.1894528,72.3681404 C67.4193875,72.5980751 67.6493221,72.942977 67.9942241,73.1729117 L67.9942241,73.4028463 C67.9175792,73.5178137 67.815386,73.6072327 67.7046768,73.6881356 L67.3640328,73.9223283 C67.2533236,74.0032313 67.1511304,74.0926503 67.0744855,74.2076176 C67.0744855,74.4375523 67.0744855,74.7824543 67.1894528,75.012389 L67.4193875,75.012389 C67.5343548,74.7824543 67.5343548,74.6674869 67.9942241,74.6674869 C67.9942241,74.4375523 67.9942241,74.4375523 68.1091914,74.322585 L68.2241587,74.322585 C68.339126,74.6674869 68.339126,75.012389 68.4540934,75.3572909 C68.2241587,75.4722582 67.9942241,75.7021929 67.8792568,75.9321275 L69.1438974,75.9321275 C69.2588647,76.1620622 69.373832,76.1620622 69.373832,76.6219316 C68.9650593,76.928511 67.6479028,78.3251512 67.1987574,78.9547116 L67.141,79.039 L67.1719777,79.0436033 C67.195891,79.0509612 67.2161252,79.065677 67.2473963,79.0951087 L67.3044202,79.1512127 C67.2879963,79.1676366 67.2739186,79.1817142 67.2611817,79.1937808 L67.245,79.207 L67.3044202,79.26618 C68.4540934,78.9212781 69.373832,77.7716048 70.0636359,76.9668335 C70.0636359,75.4722582 70.1786033,74.0926503 70.6384727,72.942977 C70.8684073,72.3681404 70.6384727,71.9082711 70.75344,71.4484018 C70.9833746,70.7585978 71.4432439,70.0687938 71.6731785,69.2640226 C72.0180806,69.2640226 72.0180806,69.3789899 72.3629826,69.3789899 L72.5929172,69.1490552 L72.5929172,68.8041532 L72.9378192,68.8041532 C73.0609985,68.5988544 73.2721629,68.4522124 73.4979916,68.3170923 L73.7713323,68.157462 C74.0874924,67.9706401 74.3749108,67.7694473 74.4323944,67.4245453 C74.6623291,67.4245453 74.8922637,67.4245453 75.1221984,67.309578 Z M19.3630445,75.8171602 C19.2480772,75.2423236 18.7882079,75.3572909 18.7882079,75.3572909 L18.7882079,75.3572909 L12.8099068,75.3572909 C12.4650049,75.3572909 12.4650049,75.8171602 12.4650049,75.8171602 L12.4650049,80.0709514 C12.5799722,80.645788 13.0398415,80.5308207 13.0398415,80.5308207 L13.0398415,80.5308207 L19.0181426,80.5308207 C19.4780118,80.645788 19.3630445,79.9559841 19.3630445,79.9559841 L19.3630445,79.9559841 Z M59.4866418,78.9212781 L59.1417399,78.9212781 C58.7968379,79.3811473 57.9920666,80.1859187 57.41723,80.4158533 C56.4974913,79.7260494 55.3478181,79.26618 54.1981448,78.8063107 L52.2437002,78.8063107 C52.114362,78.763198 51.9203546,78.7200852 51.7101799,78.6769725 L51.2826452,78.590747 C51.0724706,78.5476343 50.8784632,78.5045215 50.749125,78.4614088 L50.749125,79.0362454 C50.9790596,79.1512127 51.0940269,79.7260494 51.0940269,80.0709514 C48.5647457,79.9559841 49.2545497,70.7585978 50.404223,69.3789899 C50.5191903,69.4939572 50.5191903,69.3789899 50.6341577,69.6089245 C50.749125,69.9538265 50.5191903,70.7585978 50.2892557,71.1034998 C50.0593209,71.7933038 50.0593209,76.2770295 50.2892557,76.7368989 L50.404223,76.7368989 C50.404223,76.6219316 50.5191903,76.5069642 50.5191903,76.3919969 L50.6341577,76.3919969 C50.6341577,76.9668335 50.749125,78.0015394 51.0940269,78.1165068 C51.3239616,77.8865721 51.8987983,78.1165068 52.2437002,77.8865721 C52.8185368,77.5416701 55.002916,75.4722582 55.1178834,74.7824543 C55.1178834,74.7824543 55.002916,74.7824543 55.002916,74.6674869 C54.6580141,74.8974216 52.5886022,76.6219316 52.0137656,76.2770295 C52.1287329,74.7824543 53.1634388,74.2076176 53.6233082,73.1729117 L53.5083408,73.1729117 C53.2784061,73.4028463 53.2784061,73.5178137 52.8185368,73.5178137 C52.8185368,72.3681404 53.3933734,72.3681404 53.5083408,71.4484018 C53.3933734,71.2184671 53.6233082,71.1034998 53.2784061,70.9885325 C53.2784061,70.8735651 53.1634388,70.8735651 53.1634388,70.7585978 C52.9335042,70.8735651 52.7035695,71.1034998 52.3586676,71.1034998 L52.3586676,70.6436305 L52.9335042,70.0687938 C52.9335042,69.6089245 52.7035695,68.6891859 52.3586676,68.3442839 C52.3586676,68.3442839 52.2437002,68.3442839 52.2437002,68.4592513 C52.2437002,68.9191206 52.2437002,69.3789899 52.0137656,69.6089245 C51.8987983,69.6089245 51.8987983,69.6089245 51.7838309,69.7238919 C51.7838309,69.7238919 51.6688635,69.7238919 51.6688635,69.6089245 C51.4389289,69.2640226 51.3239616,69.1490552 51.3239616,68.5742186 C51.8987983,68.2293166 52.1287329,67.309578 52.7035695,66.964676 C53.2784061,66.619774 54.0831775,66.274872 54.6580141,66.0449374 C60.6363152,63.7455908 60.0614784,74.8974216 59.4866418,78.9212781 Z M87.0788005,65.8150027 C87.0788005,65.9299701 87.4237025,65.9299701 87.6536371,65.9299701 C87.7686044,66.3898394 88.1135064,66.619774 88.2284737,67.0796433 C88.8033104,68.3442839 88.2284737,69.6089245 87.8835718,70.5286632 C86.3889965,70.7585978 85.5842252,71.5633691 84.6644866,72.2531731 C84.6644866,72.2531731 84.6644866,72.3681404 84.7794539,72.3681404 C85.2393233,72.5980751 86.9638332,72.942977 86.7338984,73.4028463 C86.7338984,73.5178137 86.7338984,73.7477483 86.8488659,73.8627157 C86.1590618,74.322585 85.0093885,75.4722582 84.6644866,76.1620622 C85.8141599,76.6219316 86.9638332,78.9212781 85.8141599,80.0709514 L85.8141599,80.1859187 C85.8141599,80.1859187 85.6991926,80.1859187 85.6991926,80.0709514 C85.2393233,79.4961147 84.5495193,79.4961147 84.4345519,78.5763761 C84.6644866,78.4614088 84.7794539,77.0818008 84.7794539,76.8518662 C83.054944,76.9668335 83.1699113,78.8063107 82.1352054,78.0015394 C82.0202381,77.8865721 81.7903034,77.8865721 81.675336,77.7716048 C81.5603687,77.5416701 81.5603687,77.3117355 81.3304341,76.9668335 C81.5603687,76.6219316 81.5603687,76.3919969 81.7903034,76.0470948 C82.4801074,75.1273563 83.5148133,74.322585 84.2046173,73.4028463 C84.2046173,73.287879 84.2046173,73.287879 84.08965,73.1729117 C83.3998459,73.1729117 82.3651401,72.8280097 82.1352054,72.3681404 C82.1352054,72.1382057 82.1352054,71.9082711 82.2501727,71.6783364 C83.3998459,70.9885325 85.1243559,68.5742186 85.9291272,67.4245453 C86.3889965,66.8497087 86.5039638,66.1599047 87.0788005,65.8150027 Z M71.2133093,76.6219316 L71.0983419,76.7368989 C70.9833746,78.1165068 70.75344,78.4614088 71.5582112,79.3811473 C72.0180806,79.0362454 72.9378192,78.3464415 73.6276232,78.2314741 C73.6276232,77.8865721 73.6276232,77.8865721 73.8575578,77.7716048 C73.2827211,77.3117355 72.1330479,76.7368989 71.2133093,76.6219316 Z M52.4736349,68.3442839 C52.9335042,68.5742186 53.1634388,69.1490552 53.2784061,69.6089245 C53.9682102,69.6089245 54.0831775,69.2640226 54.7729814,69.1490552 C54.8879487,69.2640226 54.8879487,69.3789899 55.002916,69.4939572 C55.002916,70.2987285 54.4280794,70.7585978 54.0831775,71.3334344 C54.6580141,71.6783364 55.5777527,72.7130424 55.5777527,73.8627157 C55.2328508,73.977683 55.1178834,74.0926503 55.3478181,74.4375523 C56.037622,73.8627157 56.6124586,72.7130424 57.072328,71.9082711 C57.072328,71.9082711 57.1872953,71.9082711 57.1872953,72.0232384 L57.41723,72.2531731 C57.3022627,73.4028463 56.2675567,74.2076176 55.5777527,74.8974216 L55.5777527,75.3572909 C55.9226547,75.5872256 56.1525893,75.8171602 56.7274259,75.9321275 C57.072328,75.3572909 57.1872953,74.7824543 57.5321973,73.977683 L57.6471646,73.977683 C57.6471646,75.2423236 57.3022627,75.8171602 56.9573607,76.6219316 C57.3022627,76.6219316 57.5321973,76.6219316 57.8770993,76.7368989 L57.8770993,77.4267028 C57.41723,77.7716048 57.6471646,78.2314741 56.6124586,78.2314741 C56.5046768,78.0159104 55.3864399,78.2045286 54.8681607,78.4184083 L54.7729814,78.4614088 L54.7729814,78.4614088 C55.8076874,78.4614088 57.6471646,78.9212781 58.1070339,78.8063107 C60.5213478,77.4267028 59.0267726,67.8844146 57.3022627,66.8497087 C55.6927201,65.9299701 52.8185368,67.5395126 52.4736349,68.3442839 Z M55.1178834,75.3572909 C54.6580141,76.3919969 53.2784061,76.7368989 52.8185368,77.7716048 L53.6233082,77.7716048 C54.3131121,77.3117355 56.037622,76.9668335 56.7274259,76.7368989 L56.7274259,76.5069642 C56.7274259,76.5069642 56.7274259,76.3919969 56.6124586,76.3919969 C55.8076874,76.3919969 55.8076874,75.5872256 55.1178834,75.3572909 Z M68.6840281,76.2770295 L68.2241587,76.2770295 C67.7642894,76.5069642 67.5343548,76.6219316 67.5343548,77.4267028 L67.6493221,77.5416701 C67.9942241,77.3117355 68.5690608,76.8518662 68.6840281,76.2770295 Z M75.1221984,76.0470948 L74.6623291,76.0470948 C74.5473618,76.2770295 74.3174271,76.2770295 74.0874925,76.5069642 C74.2024598,76.7368989 74.2024598,76.7368989 74.5473618,76.8518662 L74.6623291,76.8518662 C74.7772964,76.6219316 75.007231,76.3919969 75.1221984,76.0470948 Z M68.6840281,66.619774 C68.7702536,66.7347413 68.87085,66.8353378 68.9750391,66.9323414 L69.1850142,67.124752 C69.4281222,67.351094 69.6516698,67.5969963 69.718734,67.9993819 C69.0289301,68.3442839 67.8792568,68.6891859 67.5343548,69.3789899 C66.6146161,70.8735651 64.3152696,74.8974216 64.3152696,76.6219316 C63.9703677,76.6219316 63.8554003,76.6219316 63.6254657,76.3919969 L63.6254657,75.1273563 C64.6601716,75.012389 64.7751389,73.4028463 65.2350083,72.5980751 C66.1547468,70.6436305 66.9595182,68.1143493 68.339126,66.619774 L68.6840281,66.619774 Z M39.3673595,72.4831077 C38.7925229,72.4831077 37.8727843,73.0579444 37.8727843,73.8627157 C38.1027189,74.2076176 38.3326535,74.6674869 38.6775556,75.012389 C39.0224576,74.8974216 39.2523922,74.5525196 39.4823268,74.322585 C39.3673595,73.7477483 39.3673595,73.1729117 39.3673595,72.4831077 Z M54.0831775,73.287879 C53.6233082,73.7477483 52.9335042,74.4375523 52.9335042,75.012389 C53.6233082,75.012389 54.1981448,74.5525196 54.5430468,74.2076176 L54.5430468,73.8627157 C54.3131121,73.7477483 54.3131121,73.5178137 54.0831775,73.287879 Z M54.5430468,73.0579444 L54.5430468,73.632781 C54.7729814,73.632781 54.7729814,73.7477483 55.1178834,73.7477483 L55.1178834,73.4028463 L54.9633961,73.3166208 L54.9633961,73.3166208 L54.6975341,73.1441699 C54.6508287,73.115428 54.6005305,73.0866862 54.5430468,73.0579444 Z M44.3109546,69.3789899 C44.1959873,69.4939572 44.08102,69.4939572 43.8510853,69.4939572 C43.046314,70.2987285 42.0116081,70.2987285 42.5864447,72.3681404 L42.9313467,72.3681404 C43.1612813,71.7933038 44.3109546,70.2987285 44.6558566,69.7238919 L44.3109546,69.3789899 Z M93.5169709,69.4939572 C93.6319382,69.4939572 93.7469055,69.4939572 93.8618728,69.6089245 C93.8618728,69.6089245 93.8618728,69.7238919 93.7469055,69.7238919 C93.4020034,69.9538265 93.2870361,70.2987285 93.1720688,70.6436305 C91.3325916,70.6436305 90.0679509,71.3334344 89.0332451,72.2531731 L88.8033104,72.2531731 L88.5733758,72.0232384 C88.5733758,71.5633691 88.4584084,71.5633691 88.343441,71.2184671 C88.5733758,71.1034998 88.5733758,70.8735651 88.8033104,70.6436305 C89.6080817,71.3334344 90.9876896,70.1837612 91.6774935,69.8388592 C92.3672976,69.6089245 92.9421342,69.7238919 93.5169709,69.4939572 Z M74.3174271,67.9993819 L74.0874925,68.2293166 C73.7425905,68.4592513 73.3976884,69.0340879 72.9378192,69.0340879 C72.8228518,69.9538265 71.7881459,70.6436305 72.1330479,71.7933038 L72.4779499,71.7933038 C72.9378192,71.3334344 73.5126558,70.8735651 73.9725252,70.4136958 C74.0874925,69.6089245 74.3174271,68.9191206 74.4323944,68.1143493 L74.3174271,67.9993819 Z M55.2328508,68.9191206 C56.2675567,68.9191206 56.382524,69.3789899 57.1872953,69.4939572 C57.1872953,70.5286632 56.8423933,70.9885325 55.8076874,70.8735651 C55.4627854,70.2987285 55.2328508,69.8388592 55.2328508,68.9191206 Z M69.1438974,69.0340879 C69.373832,69.2640226 69.373832,69.2640226 69.6037667,69.2640226 L69.9486686,70.2987285 C69.2588647,70.2987285 69.0289301,70.7585978 68.4540934,70.8735651 L68.339126,70.7585978 C68.339126,70.5286632 68.4540934,69.2640226 68.6840281,69.1490552 C68.7989954,69.0340879 68.9139627,69.0340879 69.1438974,69.0340879 Z M54.0831775,70.2987285 L53.7382755,70.2987285 L53.7382755,70.6436305 L54.0831775,70.6436305 L54.0831775,70.2987285 Z" id="形状结合"></path>
                </g>
            </g>
        </g>
    </g>
</svg>