<?xml version="1.0" encoding="UTF-8"?>
<svg width="91px" height="44px" viewBox="0 0 91 44" version="1.1" xmlns="http://www.w3.org/2000/svg" xmlns:xlink="http://www.w3.org/1999/xlink">
    <title>Combined Shape</title>
    <g id="Why-choose-us？" stroke="none" stroke-width="1" fill="none" fill-rule="evenodd">
        <g id="Apple-TV" transform="translate(-1277.000000, -2438.000000)" fill="#313131">
            <g id="优势" transform="translate(0.000000, 2229.000000)">
                <path d="M1325.03788,209 L1325.037,221.141 L1317.75808,221.141071 C1315.98154,221.141071 1315.72334,222.885357 1315.55263,224.039929 C1315.30043,225.744786 1315.06882,226.439071 1313.77609,226.439071 L1309.88244,226.439071 C1309.40868,226.439071 1309.02463,226.822827 1309.02463,227.296214 C1309.02463,227.769601 1309.40868,228.153357 1309.88244,228.153357 L1313.77609,228.153357 C1316.67723,228.153357 1317.0358,225.735357 1317.25026,224.291071 C1317.42954,223.072214 1317.53934,222.855357 1317.75808,222.855357 L1325.036,222.855 L1325.03662,222.6 L1331.45566,222.6 L1331.455,229.8 L1342.79994,229.8 L1351.53769,235.248437 L1351.53769,239.039188 L1362.74614,232.947656 L1367.50966,235.744531 L1367.50966,242.261385 L1349.77302,252.279688 L1339.91212,252.279688 L1331.455,247.114 L1331.45566,248.2 L1325.037,248.199 L1325.03788,253 L1277,253 L1277,209 L1325.03788,209 Z M1341.78918,232.966211 L1331.45566,232.966211 L1331.45566,242.498047 L1340.97135,249.080078 L1348.88912,249.005273 L1364.33763,240.141797 L1364.33763,237.482812 L1364.33763,237.482812 C1364.33763,237.482812 1363.67356,237.236849 1362.34543,236.744922 L1347.80271,244.984375 L1340.00574,239.425 L1336.29246,239.426758 L1336.29246,236.283594 L1340.97135,236.283594 L1348.21964,241.197852 L1348.21964,237.171484 L1341.78918,232.966211 Z M1328.24041,225.8 L1325.03788,225.8 L1325.03788,245 L1328.24041,245 L1328.24041,225.8 Z M1304.09479,233.8 L1302.6,235.307307 L1305.81518,238.550494 L1302.6,241.789467 L1304.09479,243.296774 L1308.0542,239.304674 C1308.46723,238.886987 1308.46723,238.215054 1308.0542,237.797367 L1308.0542,237.797367 L1304.09479,233.8 Z M1294.06813,233.8 L1290.10977,237.793153 C1289.69674,238.210841 1289.69674,238.882774 1290.10977,239.300461 L1290.10977,239.300461 L1294.07234,243.293614 L1295.56714,241.7842 L1292.35301,238.545227 L1295.56714,235.304147 L1294.06813,233.8 Z M1299.51216,234.6 L1296.2,241.762607 L1298.11646,242.663199 L1301.42861,235.501646 L1299.51216,234.6 Z M1313.77523,232.341071 L1309.88244,232.341071 C1309.40868,232.341071 1309.02463,232.724827 1309.02463,233.198214 C1309.02463,233.671601 1309.40868,234.055357 1309.88244,234.055357 L1313.77609,234.055357 C1314.64248,234.055357 1315.03965,234.585071 1315.29614,235.769643 L1309.88244,235.769643 C1309.40868,235.769643 1309.02463,236.153399 1309.02463,236.626786 C1309.02463,237.100173 1309.40868,237.483929 1309.88244,237.483929 L1315.55349,237.483929 C1315.73363,239.092786 1315.97125,241.0685 1317.75808,241.0685 L1325.036,241.068 L1325.036,239.354 L1317.7212,239.3525 C1317.49731,239.203357 1317.36091,238.184214 1317.28028,237.483929 L1319.7568,237.483929 C1320.14797,238.001643 1320.76388,238.341071 1321.46301,238.341071 C1322.59152,238.340841 1323.52677,237.466739 1323.60231,236.341643 C1323.67784,235.216546 1322.86781,234.225457 1321.74944,234.074616 C1320.63107,233.923775 1319.58705,234.6648 1319.36135,235.769643 L1317.04953,235.769643 C1316.73814,234.0785 1316.02186,232.341071 1313.77523,232.341071 Z M1323.60755,226.341071 C1322.03833,226.343766 1320.67174,227.411877 1320.29122,228.933071 C1320.25691,228.928786 1320.22603,228.9125 1320.19,228.9125 L1309.88244,228.9125 C1309.40868,228.9125 1309.02463,229.296256 1309.02463,229.769643 C1309.02463,230.24303 1309.40868,230.626786 1309.88244,230.626786 L1320.19,230.626786 C1320.22603,230.626786 1320.25691,230.6105 1320.29122,230.606214 C1320.67174,232.127409 1322.03833,233.195519 1323.60755,233.198214 C1324.11764,233.198214 1324.60172,233.087001 1325.03685,232.887517 L1325.036,230.717 L1325.01111,230.756098 C1324.69163,231.210435 1324.1687,231.484926 1323.6067,231.484786 C1322.65894,231.484549 1321.89082,230.716653 1321.89106,229.769643 C1321.89129,228.822632 1322.6598,228.05512 1323.60755,228.055357 C1324.185,228.055501 1324.72106,228.34556 1325.03746,228.822626 L1325.03685,226.651769 C1324.60172,226.452285 1324.11764,226.341071 1323.60755,226.341071 Z M1294.03437,226.83419 C1293.72188,227.146444 1293.72188,227.630437 1294.03437,227.94269 L1294.69062,228.598423 L1294.03437,229.254155 C1293.72188,229.566409 1293.72188,230.050402 1294.03437,230.362655 C1294.34687,230.674909 1294.83125,230.674909 1295.14375,230.362655 L1295.8,229.706923 L1296.45625,230.362655 C1296.76875,230.674909 1297.25312,230.674909 1297.56562,230.362655 C1297.87813,230.050402 1297.87812,229.566409 1297.56562,229.254155 L1296.90937,228.598423 L1297.56562,227.94269 C1297.87812,227.630437 1297.87812,227.146444 1297.56562,226.83419 C1297.25313,226.521937 1296.76875,226.521937 1296.45625,226.83419 L1295.8,227.489923 L1295.14375,226.83419 C1294.83125,226.521937 1294.34687,226.521937 1294.03437,226.83419 Z M1303.4532,229 L1300.15059,229 C1299.73026,229 1299.4,229.33 1299.4,229.75 C1299.4,230.17 1299.73026,230.5 1300.15059,230.5 L1300.15059,230.5 L1303.4532,230.5 C1303.87353,230.5 1304.20379,230.17 1304.20379,229.75 C1304.20379,229.33 1303.87353,229 1303.4532,229 L1303.4532,229 Z M1303.4532,226.6 L1300.15059,226.6 C1299.73026,226.6 1299.4,226.93 1299.4,227.35 C1299.4,227.77 1299.73026,228.1 1300.15059,228.1 L1300.15059,228.1 L1303.4532,228.1 C1303.87353,228.1 1304.20379,227.77 1304.20379,227.35 C1304.20379,226.93 1303.87353,226.6 1303.4532,226.6 L1303.4532,226.6 Z M1350.9928,209.2848 L1350.9928,210.248 C1353.99441,210.666135 1356.25679,211.435194 1357.78,212.5552 L1356.1448,214.3472 C1354.56186,213.510929 1352.84454,212.958401 1350.9928,212.6896 L1350.9928,216.856 C1356.15976,217.124801 1358.7432,218.692786 1358.7432,221.56 C1358.7432,224.815483 1356.15976,226.577599 1350.9928,226.8464 L1350.9928,228.0784 L1348.3048,228.0784 L1348.3048,226.8016 C1345.00451,226.532799 1342.42854,225.651741 1340.5768,224.1584 L1342.0328,222.2096 C1343.92934,223.419206 1346.01999,224.150932 1348.3048,224.4048 L1348.3048,219.1856 C1343.52611,219.051199 1341.1368,217.66988 1341.1368,215.0416 C1341.1368,213.63786 1341.74906,212.517871 1342.9736,211.6816 C1344.19814,210.845329 1345.97519,210.352534 1348.3048,210.2032 L1348.3048,209.2848 L1350.9928,209.2848 Z M1295.40189,220.2 C1294.98156,220.2 1294.6513,220.53 1294.6513,220.95 L1294.6513,221.85 L1293.75059,221.85 C1293.33026,221.85 1293,222.18 1293,222.6 C1293,223.02 1293.33026,223.35 1293.75059,223.35 L1294.6513,223.35 L1294.6513,224.25 C1294.6513,224.67 1294.98156,225 1295.40189,225 C1295.82223,225 1296.15249,224.67 1296.15249,224.25 L1296.15249,223.35 L1297.0532,223.35 C1297.47353,223.35 1297.80379,223.02 1297.80379,222.6 C1297.80379,222.18 1297.47353,221.85 1297.0532,221.85 L1296.15249,221.85 L1296.15249,220.95 C1296.15249,220.53 1295.82223,220.2 1295.40189,220.2 Z M1350.9928,219.32 L1350.9928,224.4944 C1354.21841,224.285332 1355.8312,223.366941 1355.8312,221.7392 C1355.8312,220.215992 1354.21841,219.4096 1350.9928,219.32 Z M1303.4532,221.8 L1300.15059,221.8 C1299.73026,221.8 1299.4,222.13 1299.4,222.55 C1299.4,222.97 1299.73026,223.3 1300.15059,223.3 L1300.15059,223.3 L1303.4532,223.3 C1303.87353,223.3 1304.20379,222.97 1304.20379,222.55 C1304.20379,222.13 1303.87353,221.8 1303.4532,221.8 L1303.4532,221.8 Z M1348.3048,212.5776 C1345.40772,212.697067 1343.9592,213.398927 1343.9592,214.6832 C1343.9592,215.877873 1345.40772,216.542399 1348.3048,216.6768 L1348.3048,212.5776 Z" id="Combined-Shape"></path>
            </g>
        </g>
    </g>
</svg>