<?xml version="1.0" encoding="UTF-8"?>
<svg width="117px" height="16px" viewBox="0 0 117 16" version="1.1" xmlns="http://www.w3.org/2000/svg" xmlns:xlink="http://www.w3.org/1999/xlink">
    <title>dhl</title>
    <g id="Why-choose-usï¼Ÿ" stroke="none" stroke-width="1" fill="none" fill-rule="evenodd">
        <g id="Apple-TV" transform="translate(-747.000000, -842.000000)" fill="#787878" fill-rule="nonzero">
            <g id="ISO" transform="translate(320.000000, 800.000000)">
                <g id="ç‰©æµ" transform="translate(427.000000, 39.000000)">
                    <path d="M32.0331477,9.1334476 C33.058437,9.1334476 33.0458638,9.5129305 32.5440779,10.1724533 C32.0342907,10.8411202 31.1678813,11.9932848 30.64895,12.6733819 C30.3860552,13.0185742 29.9105587,13.6472354 31.4879269,13.6472354 L43.9239892,13.6472354 C42.8895558,15.023432 39.5347909,19 33.5110731,19 L15.268467,19 L22.7495358,9.1334476 L32.0331477,9.1334476 Z M58.112302,13.6472354 L54.0545794,19 L43.3547651,19 L43.3976362,18.9433996 C43.8313154,18.3708412 47.4092664,13.6472354 47.4124877,13.6472354 L58.112302,13.6472354 Z M73.5876557,13.6483778 L69.5287901,18.9999995 L58.8301187,18.9999995 L58.8730019,18.9434112 C59.3068034,18.3709751 62.8857631,13.6483778 62.8889843,13.6483778 L73.5876557,13.6483778 Z M14.1631662,17.8695523 L13.3059009,18.9999995 L0,18.9999995 L0,17.8695523 L14.1631662,17.8695523 Z M116.573225,17.8695529 L116.573225,19 L99.2736109,19 L100.130876,17.8695529 L116.573225,17.8695529 Z M101.372196,13.6472354 L97.3133308,19 L80.1337336,19 C75.7491072,19 74.560366,16.9459923 75.9045581,15.1834548 C76.2840409,14.685098 77.0658669,13.6472354 77.0658669,13.6472354 L77.0658669,13.6472354 L101.372196,13.6472354 Z M15.7645379,15.7583935 L14.9027004,16.8956989 L0,16.8956989 L0,15.7583935 L15.7645379,15.7583935 Z M116.573225,15.7583941 L116.573225,16.8956994 L100.869267,16.8956994 L101.731105,15.7583941 L116.573225,15.7583941 Z M116.573225,13.6472354 L116.573225,14.7833977 L102.470639,14.7845406 L103.331333,13.6472354 L116.573225,13.6472354 Z M17.3659095,13.6483778 L16.5029291,14.7833971 L0,14.7833971 L0,13.6483778 L17.3659095,13.6483778 Z M41.9808545,3 C47.4353481,3 48.82869,7.18116875 47.3027577,9.19059868 C47.2579056,9.24971569 47.2127079,9.30929541 47.1672639,9.36920621 L46.4795631,10.2762498 C45.6165648,11.4149512 44.8441207,12.4356336 44.8441207,12.4356336 L44.8441207,12.4356336 L36.5435064,12.4356336 C34.9661381,12.4356336 35.4416346,11.8069724 35.7045294,11.4617803 C36.2246036,10.7816831 37.0761538,9.61808827 37.5847979,8.94827829 C38.0865839,8.28875553 38.1003001,7.91041579 37.0738678,7.91041579 L37.0738678,7.91041579 L16.7761109,7.91041579 L20.5000715,3 L41.9808545,3 Z M66.1865983,3 L62.0831549,8.40991573 L66.8598374,8.40991573 L70.9632807,3 L81.660809,3 L74.505501,12.4356336 L48.3303331,12.4356336 L55.4890701,3 L66.1865983,3 Z M96.4754968,3 L89.3201889,12.4356336 L77.9837122,12.4356336 C77.9837122,12.4356336 85.1413062,3 85.1458782,3 L96.4754968,3 Z" id="dhl"></path>
                </g>
            </g>
        </g>
    </g>
</svg>