<?xml version="1.0" encoding="UTF-8"?>
<svg width="88px" height="20px" viewBox="0 0 88 20" version="1.1" xmlns="http://www.w3.org/2000/svg" xmlns:xlink="http://www.w3.org/1999/xlink">
    <title>形状结合</title>
    <g id="Why-choose-us？" stroke="none" stroke-width="1" fill="none" fill-rule="evenodd">
        <g id="Apple-TV" transform="translate(-761.000000, -906.000000)" fill="#787878" fill-rule="nonzero">
            <g id="ISO" transform="translate(320.000000, 800.000000)">
                <g id="物流" transform="translate(427.000000, 39.000000)">
                    <path d="M80.3898373,67.0441335 L83.0111017,69.6199559 L82.3022288,73.0993175 L77.6103425,73.0993175 L77.6103425,71.7039511 L75.7134565,71.7039511 L74.7909817,74.7038608 L78.5768763,74.7038608 L81.334029,77.2783147 L79.2973879,84.242854 L76.1238817,87 L69.8904159,87 L67.2852084,84.242854 L68.147009,80.936263 L72.9849428,80.936263 L72.9849428,82.209292 L74.6574541,82.209292 L75.7134565,78.9372552 L71.0895295,78.9372552 L69.0625225,77.2783147 L71.0895295,69.6199559 L74.7909817,67.0441335 L80.3898373,67.0441335 Z M49.3834311,67 L47.9821071,71.904634 L43.3509351,71.904634 L42.6989081,74.356951 L47.2814451,74.356951 L45.8801211,79.261585 L41.3948543,79.261585 L40.6496807,82.064233 L45.5297901,82.064233 L44.1284661,86.9688671 L33.7403309,86.9688671 L39.0496929,67 L49.3834311,67 Z M58.5464342,67 L58.5947189,74.2542629 L62.0839563,67 L70.1073572,67 L64.7979951,86.9688671 L59.1926991,86.9688671 L62.2716677,75.3886598 L56.7273815,86.9688671 L54.4310713,86.9688671 L54.3884684,77.3679148 L51.8357481,86.9688671 L46.2304521,86.9688671 L51.5398142,67 L58.5464342,67 Z M31.3728497,84.5165501 L30.6759511,86.6185361 L30.282176,86.6185361 L28.5376571,84.5165501 L31.3728497,84.5165501 Z M32.0735117,81.01324 L31.3766131,83.115226 L27.3746446,83.115226 L25.6301258,81.01324 L32.0735117,81.01324 Z M33.1245047,77.50993 L32.4276061,79.611916 L24.4671132,79.611916 L22.7225943,77.50993 L33.1245047,77.50993 Z M34.1754977,74.00662 L33.4785991,76.108606 L21.5595817,76.108606 L19.8150629,74.00662 L34.1754977,74.00662 Z M101.58275,74.00662 L101.58275,76.108606 L84.7668622,76.108606 L85.4675242,74.00662 L101.58275,74.00662 Z M34.8761597,70.50331 L34.1792611,72.605296 L18.6520503,72.605296 L16.9075314,70.50331 L34.8761597,70.50331 Z M101.58275,70.50331 L101.58275,72.605296 L85.4675242,72.605296 L86.1681862,70.50331 L101.58275,70.50331 Z M35.9309161,67 L35.2340174,69.101986 L15.7445189,69.101986 L14,67 L35.9309161,67 Z M101.58275,67 L101.58275,69.101986 L86.5185172,69.101986 L87.2191792,67 L101.58275,67 Z" id="形状结合"></path>
                </g>
            </g>
        </g>
    </g>
</svg>