<?xml version="1.0" encoding="UTF-8"?>
<svg width="68px" height="28px" viewBox="0 0 68 28" version="1.1" xmlns="http://www.w3.org/2000/svg" xmlns:xlink="http://www.w3.org/1999/xlink">
    <title>形状结合</title>
    <g id="Why-choose-us？" stroke="none" stroke-width="1" fill="none" fill-rule="evenodd">
        <g id="Apple-TV" transform="translate(-909.000000, -839.000000)" fill="#787878" fill-rule="nonzero">
            <g id="ISO" transform="translate(320.000000, 800.000000)">
                <g id="物流" transform="translate(427.000000, 39.000000)">
                    <path d="M206.597079,22.4802596 C207.172526,22.4802596 207.619254,22.6846944 207.952407,23.093564 C208.255273,23.4721471 208.406706,23.9567334 208.406706,24.5624661 C208.406706,25.1379124 208.255273,25.614927 207.959978,25.99351 C207.641969,26.4023796 207.195241,26.6068144 206.634938,26.6068144 C206.150352,26.6068144 205.756625,26.3796647 205.438615,25.925365 L205.438615,28 L204.636019,28 L204.636019,22.5862629 L205.385614,22.5862629 L205.385614,23.0557058 C205.658194,22.6695511 206.067063,22.4802596 206.597079,22.4802596 Z M221.64954,22.4802596 C222.664143,22.4802596 223.224446,22.8891292 223.315305,23.7144402 L222.535424,23.7144402 C222.474851,23.5024337 222.383991,23.3585721 222.255273,23.2752839 C222.118983,23.184424 221.906977,23.1389941 221.634397,23.1389941 C221.392104,23.1389941 221.210384,23.1692806 221.089237,23.2449972 C220.945376,23.3207139 220.877231,23.4418604 220.877231,23.5932937 C220.877231,23.7295835 220.983234,23.8431584 221.195241,23.94159 C221.33153,24.0021633 221.588967,24.0778799 221.982693,24.1763114 C222.429421,24.2823147 222.762574,24.411033 222.974581,24.5473228 C223.285019,24.744186 223.444024,25.0167658 223.444024,25.3650622 C223.444024,26.1903732 222.861006,26.6068144 221.702542,26.6068144 C220.627366,26.6068144 220.05192,26.1449432 219.96106,25.2363439 L220.748513,25.2363439 C220.793943,25.501352 220.892374,25.6906436 221.028664,25.7966468 C221.164954,25.8950784 221.37696,25.94808 221.679827,25.94808 C222.300703,25.94808 222.618713,25.7663601 222.618713,25.4180638 C222.618713,25.2287723 222.497566,25.0773391 222.270416,24.9713358 C222.14927,24.9107625 221.884262,24.8350459 221.482964,24.744186 C221.021092,24.6381827 220.695511,24.5246079 220.513791,24.4034613 C220.210925,24.2141698 220.059492,23.9491617 220.059492,23.6160086 C220.059492,23.2601406 220.203353,22.9799891 220.498648,22.7831259 C220.793943,22.5786912 221.180097,22.4802596 221.64954,22.4802596 Z M217.712277,22.4802596 C218.726879,22.4802596 219.287182,22.8891292 219.378042,23.7144402 L218.598161,23.7144402 C218.537588,23.5024337 218.446728,23.3585721 218.31801,23.2752839 C218.18172,23.184424 217.969713,23.1389941 217.697134,23.1389941 C217.45484,23.1389941 217.27312,23.1692806 217.151974,23.2449972 C217.008112,23.3207139 216.939967,23.4418604 216.939967,23.5932937 C216.939967,23.7295835 217.045971,23.8431584 217.257977,23.94159 C217.394267,24.0021633 217.651704,24.0778799 218.04543,24.1763114 C218.492158,24.2823147 218.825311,24.411033 219.037317,24.5473228 C219.347755,24.744186 219.50676,25.0167658 219.50676,25.3650622 C219.50676,26.1903732 218.923743,26.6068144 217.765278,26.6068144 C216.690103,26.6068144 216.114657,26.1449432 216.023797,25.2363439 L216.811249,25.2363439 C216.856679,25.501352 216.955111,25.6906436 217.091401,25.7966468 C217.227691,25.8950784 217.439697,25.94808 217.742563,25.94808 C218.36344,25.94808 218.681449,25.7663601 218.681449,25.4180638 C218.681449,25.2287723 218.560303,25.0773391 218.333153,24.9713358 C218.212006,24.9107625 217.946998,24.8350459 217.5457,24.744186 C217.083829,24.6381827 216.758248,24.5246079 216.576528,24.4034613 C216.273661,24.2141698 216.122228,23.9491617 216.122228,23.6160086 C216.122228,23.2601406 216.26609,22.9799891 216.561384,22.7831259 C216.856679,22.5786912 217.242834,22.4802596 217.712277,22.4802596 Z M213.638724,22.4802596 C214.274743,22.4802596 214.766901,22.692266 215.100054,23.1314224 C215.40292,23.5251487 215.561925,24.0703083 215.569497,24.766901 L212.601406,24.766901 C212.631693,25.145484 212.730124,25.4407788 212.911844,25.6452136 C213.093564,25.8420767 213.343429,25.94808 213.661438,25.94808 C213.94159,25.94808 214.16874,25.8799351 214.342888,25.7512168 C214.479178,25.6452136 214.592753,25.4710654 214.698756,25.2439156 L215.501352,25.2439156 C215.410492,25.6073553 215.236344,25.9177934 214.963764,26.1600865 C214.623039,26.4553813 214.191455,26.6068144 213.66901,26.6068144 C213.093564,26.6068144 212.631693,26.4250946 212.29854,26.0692266 C211.9351,25.6906436 211.75338,25.1833423 211.75338,24.5397511 C211.75338,23.9567334 211.919957,23.4721471 212.268253,23.0784207 C212.601406,22.6771228 213.063277,22.4802596 213.638724,22.4802596 Z M199.729583,21.0946458 L199.729583,21.7988101 L196.670633,21.7988101 L196.670633,23.3737155 L199.547864,23.3737155 L199.547864,24.0778799 L196.670633,24.0778799 L196.670633,25.7966468 L199.858302,25.7966468 L199.858302,26.5008112 L195.845322,26.5008112 L195.845322,21.0946458 L199.729583,21.0946458 Z M201.319632,22.5862629 L202.182801,23.8280151 L203.038399,22.5862629 L203.977285,22.5862629 L202.621958,24.4186046 L204.143861,26.5008112 L203.204976,26.5008112 L202.182801,25.0091941 L201.153056,26.5008112 L200.206598,26.5008112 L201.736074,24.4186046 L200.380746,22.5862629 L201.319632,22.5862629 Z M210.981071,22.4802596 C211.177934,22.4802596 211.352082,22.5105462 211.488372,22.5786912 L211.488372,23.3812871 C211.291509,23.3207139 211.102217,23.2979989 210.920497,23.2979989 C210.678204,23.2979989 210.458626,23.3964305 210.269335,23.5932937 C210.0649,23.8053001 209.966468,24.0854515 209.966468,24.4261763 L209.966468,26.5008112 L209.163872,26.5008112 L209.163872,22.5862629 L209.966468,22.5862629 L209.966468,23.1768523 C210.0649,22.9648458 210.193618,22.8058409 210.345051,22.6998377 C210.526771,22.5484045 210.738778,22.4802596 210.981071,22.4802596 Z M206.475933,23.1314224 C206.127636,23.1314224 205.855057,23.2677122 205.665765,23.5478637 C205.499189,23.7901569 205.4159,24.1157382 205.4159,24.5170362 L205.4159,24.5851811 C205.4159,25.0016224 205.514332,25.3423472 205.726338,25.5997836 C205.908058,25.8345051 206.150352,25.9556517 206.453218,25.9556517 C206.846944,25.9556517 207.134667,25.8269335 207.323959,25.569497 C207.490535,25.3272039 207.581395,24.9940508 207.581395,24.5624661 C207.581395,24.1308815 207.498107,23.7977284 207.346674,23.5554353 C207.157382,23.2677122 206.869659,23.1314224 206.475933,23.1314224 Z M213.661438,23.1389941 C213.358572,23.1389941 213.123851,23.2222823 212.942131,23.4040022 C212.775554,23.5781503 212.661979,23.8280151 212.616549,24.1611682 L214.729043,24.1611682 C214.653326,23.4797187 214.297458,23.1389941 213.661438,23.1389941 Z M172.285661,1.77635684e-15 L172.285661,3.88064633 L166.62442,3.88064633 L166.62442,6.35784008 L171.812118,6.35784008 L171.812118,8.63941195 C172.846376,6.80369396 174.828233,5.6771374 177.337988,5.6771374 C180.428455,5.6771374 182.51261,7.30364508 183.320736,9.95774463 C184.029385,7.54900571 186.048162,5.72713251 188.728157,5.72713251 C190.03649,5.72713253 191.164072,6.08761009 192.066548,7.12494461 L192.066548,7.12494461 L192.111416,7.12494461 L192.111416,1.77635684e-15 L205.735886,-2.66453526e-14 L205.735886,3.88064633 L200.165918,3.88064633 L200.165918,6.35784008 L205.735886,6.35784008 L205.735886,10.0915777 L200.165918,10.0915777 L200.165918,13.5186786 L205.735886,13.5186786 L205.735886,17.4098367 L192.111416,17.4095803 L192.111416,16.282511 L192.066548,16.282511 C191.321749,17.3872749 190.10392,18.0415698 188.773793,18.0415698 C185.690249,18.0415698 183.443289,15.5538643 183.093323,12.6692745 L183.093323,12.6692745 L175.023855,12.6692745 C175.023855,13.9545334 176.095289,15.0387865 177.337988,15.0387865 C178.409678,15.0387865 178.816305,14.8113728 179.352406,14.0458066 L179.352406,14.0458066 L183.315352,14.0458066 C182.277505,16.5940191 180.315389,17.9920875 177.337988,17.9920875 C173.797308,17.9920875 171.022964,15.443875 171.022964,11.8121788 C171.020997,11.2320894 171.091799,10.6540438 171.233713,10.0915777 L171.233713,10.0915777 L166.62442,10.0915777 L166.62442,17.4100931 L162,17.4100931 L162,1.77635684e-15 L172.285661,1.77635684e-15 Z M226.359113,11.7360735 C227.190754,11.7360735 227.904476,12.0277686 228.500279,12.6235714 C229.089876,13.2131679 229.387777,13.92689 229.387777,14.7647377 C229.387777,15.596379 229.089876,16.3101012 228.500279,16.905904 C227.904476,17.4955004 227.190754,17.7934018 226.359113,17.7934018 C225.521265,17.7934018 224.807543,17.4955004 224.217947,16.905904 C223.622144,16.3101012 223.330449,15.596379 223.330449,14.7647377 C223.330449,13.92689 223.622144,13.2131679 224.217947,12.6235714 C224.807543,12.0277686 225.521265,11.7360735 226.359113,11.7360735 Z M210.92461,6.35784008 L213.360269,9.0421931 L215.705681,6.35784008 L220.713396,6.35784008 L215.819003,11.8614047 L220.780569,17.4098367 L215.570566,17.4098367 L213.157212,14.7034346 L210.766164,17.4098367 L205.735886,17.4098367 L210.65361,11.884223 L205.735886,6.35784008 L210.92461,6.35784008 Z M226.358013,12.3531639 C225.69418,12.3531639 225.122849,12.5871376 224.64946,13.0550851 C224.181513,13.5284737 223.947539,14.099805 223.947539,14.7636374 C223.947539,15.4274698 224.181513,15.9933599 224.64946,16.4721898 C225.122849,16.9401372 225.69418,17.174111 226.358013,17.174111 C226.95655,17.174111 227.47891,16.9836672 227.925093,16.6027798 L227.364644,16.6027798 C227.293908,16.5048373 227.250378,16.3415998 227.228613,16.1130673 L227.179641,15.6560024 C227.157876,15.4601174 227.092581,15.3240861 226.983756,15.2370261 C226.880373,15.1445249 226.722576,15.1009949 226.515809,15.1009949 L225.639768,15.1009949 L225.639768,16.6027798 L225.046671,16.6027798 L225.046671,12.9517013 L226.591986,12.9517013 C226.967433,12.9517013 227.26126,13.0333201 227.473469,13.2019988 C227.702001,13.38156 227.821709,13.6481813 227.821709,13.9964212 C227.821709,14.1814237 227.772738,14.3501025 227.674795,14.4970162 C227.560529,14.6602536 227.408174,14.7690786 227.212289,14.8234912 L227.212289,14.8398149 C227.52244,14.9051099 227.69656,15.1173187 227.74009,15.4764411 L227.799944,16.0532136 C227.821709,16.2708636 227.881563,16.4449835 227.968623,16.564691 L228.066565,16.4721898 L228.066565,16.4721898 C228.534512,15.9933599 228.768486,15.4274698 228.768486,14.7636374 C228.768486,14.099805 228.534512,13.5284737 228.066565,13.0550851 C227.587735,12.5871376 227.021845,12.3531639 226.358013,12.3531639 Z M189.637555,8.83170086 C188.013355,8.83170086 187.201126,10.3343744 187.201126,11.8970422 C187.201126,13.3589506 188.134881,14.7590702 189.637555,14.7590702 C191.281497,14.7590702 191.992453,13.3789486 191.992709,11.8970422 C191.992709,10.3343745 191.321749,8.83170086 189.637555,8.83170086 Z M226.515809,13.4522963 L225.639768,13.4522963 L225.639768,14.6003999 L226.515809,14.6003999 C226.755224,14.6003999 226.934785,14.5459875 227.059934,14.4480449 C227.168759,14.3501025 227.228613,14.2031887 227.228613,14.0181862 C227.228613,13.8223013 227.1742,13.6808287 227.065375,13.5937687 C226.945668,13.4958263 226.766106,13.4522963 226.515809,13.4522963 Z M177.337988,8.31508468 C176.267323,8.31508468 175.409715,9.03783454 175.152561,10.1436239 L175.152561,10.1436239 L179.544695,10.1436239 C179.330614,9.01578543 178.516591,8.31508468 177.337988,8.31508468 Z" id="形状结合"></path>
                </g>
            </g>
        </g>
    </g>
</svg>