<?xml version="1.0" encoding="UTF-8"?>
<svg width="98px" height="18px" viewBox="0 0 98 18" version="1.1" xmlns="http://www.w3.org/2000/svg" xmlns:xlink="http://www.w3.org/1999/xlink">
    <title>形状结合</title>
    <g id="Why-choose-us？" stroke="none" stroke-width="1" fill="none" fill-rule="evenodd">
        <g id="Apple-TV" transform="translate(-1351.000000, -908.000000)" fill="#787878" fill-rule="nonzero">
            <g id="ISO" transform="translate(320.000000, 800.000000)">
                <g id="付款" transform="translate(881.000000, 39.000000)">
                    <path d="M210.780259,69.3483724 L211.017612,75.0948329 L210.430474,75.0948329 C210.089016,73.9538633 209.643461,73.033606 209.093797,72.3340334 C208.044438,71.0181706 206.632822,70.3602491 204.858906,70.3602491 C203.068333,70.3602491 201.604666,71.0681394 200.46786,72.4839411 C199.331055,73.8997428 198.762661,75.8485229 198.762661,78.33034 C198.762661,80.6122792 199.360203,82.4340556 200.555307,83.7957236 C201.75041,85.1573918 203.264046,85.8382156 205.096259,85.8382156 C206.42045,85.8382156 207.64052,85.5217471 208.756505,84.8888004 C209.39778,84.5306858 210.101506,83.989358 210.867705,83.2648007 L211.342412,83.7395083 C210.776092,84.4557374 210.072365,85.0845105 209.231213,85.6258464 C207.798754,86.5419534 206.24556,87 204.571583,87 C201.823262,87 199.641294,86.1213834 198.025615,84.3641235 C196.534859,82.7401157 195.789492,80.7122184 195.789492,78.2803708 C195.789492,75.7902255 196.576499,73.6998672 198.150538,72.0092334 C199.807859,70.2353172 201.964842,69.3483724 204.621552,69.3483724 C205.545987,69.3483724 206.495393,69.4857864 207.469798,69.7606185 C208.444202,70.0354506 208.989694,70.1728645 209.10629,70.1728645 C209.347809,70.1728645 209.576832,70.1062396 209.793366,69.9729877 C210.009901,69.8397357 210.159807,69.6315327 210.243089,69.3483724 L210.780259,69.3483724 Z M178.080269,69.2859109 L178.642423,74.732556 L178.0303,74.732556 C177.613888,73.0918917 176.945556,71.9467752 176.025285,71.297172 C175.105014,70.6475689 174.195167,70.3227722 173.295716,70.3227722 C172.596144,70.3227722 171.986109,70.5288932 171.465594,70.9411413 C170.945078,71.3533895 170.684825,71.9259477 170.684825,72.6588333 C170.684825,73.3167647 170.884699,73.8789128 171.284455,74.3452946 C171.684211,74.8200046 172.304656,75.3155277 173.145809,75.8318789 L175.394424,77.2185248 C176.801897,78.0846623 177.792943,78.8799979 178.367592,79.6045552 C178.933913,80.3374408 179.217069,81.2035653 179.217069,82.2029548 C179.217069,83.5438022 178.711136,84.6639344 177.699254,85.5633849 C176.687372,86.4628353 175.394432,86.9125539 173.820393,86.9125539 C173.02921,86.9125539 172.202644,86.7626477 171.340671,86.4628309 C170.478697,86.1630141 169.985256,86.0131079 169.860332,86.0131079 C169.560516,86.0131079 169.358559,86.1047172 169.254456,86.2879386 C169.150353,86.4711601 169.081646,86.6668708 169.048333,86.875077 L168.486179,86.875077 L167.724148,81.4284318 L168.311286,81.4284318 C168.744355,82.5777296 169.252371,83.4938229 169.835348,84.176739 C170.851394,85.367678 172.113104,85.9631387 173.620516,85.9631387 C174.436684,85.9631387 175.142493,85.704967 175.737962,85.1886158 C176.333432,84.6722645 176.631162,83.9518821 176.631162,83.0274469 C176.631162,82.1946224 176.33135,81.4700759 175.731716,80.8537857 C175.340288,80.4623582 174.515805,79.8752257 173.258239,79.0923707 L171.072086,77.7307094 C170.414155,77.3142971 169.889483,76.893727 169.498056,76.4689865 C168.773498,75.6611467 168.411225,74.7700378 168.411225,73.7956331 C168.411225,72.5047551 168.840123,71.4304276 169.697932,70.5726183 C170.555742,69.7148091 171.69253,69.2859109 173.108332,69.2859109 C173.691309,69.2859109 174.392953,69.4295709 175.213285,69.7168954 C176.033617,70.0042199 176.502074,70.1478799 176.61867,70.1478799 C176.935143,70.1478799 177.153756,70.0729269 177.274516,69.9230184 C177.395275,69.77311 177.488967,69.5607429 177.555593,69.2859109 L178.080269,69.2859109 Z M157.108122,69.6481877 L157.108122,70.1228953 C156.16703,70.1895213 155.554913,70.3602477 155.271753,70.6350798 C154.988593,70.9099119 154.847015,71.5053725 154.847015,72.4214795 L154.847015,77.4059094 L162.604736,77.4059094 L162.604736,72.4214795 C162.604736,71.5053725 162.467322,70.9099119 162.19249,70.6350798 C161.917658,70.3602477 161.305541,70.1895213 160.356121,70.1228953 L160.356121,69.6481877 L167.464243,69.6481877 L167.464243,70.1228953 C166.523151,70.1895213 165.913117,70.3602477 165.63412,70.6350798 C165.355124,70.9099119 165.215628,71.5053725 165.215628,72.4214795 L165.215628,83.8019698 C165.215628,84.7347333 165.355124,85.3322759 165.63412,85.5946157 C165.913117,85.8569554 166.523151,86.0297639 167.464243,86.1130463 L167.464243,86.5752616 L160.356121,86.5752616 L160.356121,86.1130463 C161.363839,86.0131074 161.99053,85.8298887 162.236213,85.5633849 C162.481897,85.2968811 162.604736,84.6098111 162.604736,83.5021545 L162.604736,78.5302169 L154.847015,78.5302169 L154.847015,83.8019698 C154.847015,84.7347333 154.988593,85.3343579 155.271753,85.6008618 C155.554913,85.8673657 156.16703,86.0380921 157.108122,86.1130463 L157.108122,86.5752616 L150,86.5752616 L150,86.1130463 C150.999389,86.0047791 151.623998,85.8194784 151.873846,85.5571388 C152.123693,85.294799 152.248615,84.6098111 152.248615,83.5021545 L152.248615,72.4214795 C152.248615,71.5053725 152.109119,70.9099119 151.830123,70.6350798 C151.551127,70.3602477 150.941092,70.1895213 150,70.1228953 L150,69.6481877 L157.108122,69.6481877 Z M187.097281,69.6481877 C189.146029,69.6481877 190.772095,69.9771485 191.975526,70.6350798 C193.178957,71.2930112 193.780664,72.4256356 193.780664,74.0329869 C193.780664,75.2405825 193.360094,76.1566757 192.518941,76.7812941 C192.044231,77.1394087 191.332177,77.435057 190.382757,77.6682478 C191.55704,77.9514082 192.560578,78.424029 193.393403,79.0861245 C194.226227,79.74822 194.642633,80.6747234 194.642633,81.8656625 C194.642633,83.8644414 193.718212,85.2385812 191.869341,85.9881233 C190.894937,86.3795508 189.695687,86.5752616 188.271557,86.5752616 L179.926697,86.5752616 L179.926697,86.1130463 C180.9594,86.0547486 181.627731,85.8944323 181.931712,85.6320925 C182.235693,85.3697529 182.387681,84.759718 182.387681,83.8019698 L182.387681,72.4214795 C182.387681,71.4803878 182.235693,70.8745171 181.931712,70.6038491 C181.627731,70.3331811 180.9594,70.1728648 179.926697,70.1228953 L179.926697,69.6481877 L187.097281,69.6481877 Z M222.335989,69 L222.335989,69.1112358 L239.577543,69.1112358 L239.466307,69.2224717 L248.031467,77.7876308 L239.355071,86.4640258 L239.355071,86.2415542 L222.335989,86.2415542 L222.335989,86.35279 L213.659594,77.676395 L222.335989,69 Z M222.335989,69.2224717 L222.335989,86.1303183 L230.789912,77.676395 L222.335989,69.2224717 Z M239.355071,69.3337075 L231.012384,77.676395 L239.355071,86.0190825 L239.355071,69.3337075 Z M184.986081,78.2304016 L184.986081,84.6014774 C184.986081,85.0428744 185.111003,85.3281125 185.36085,85.4572003 C185.610697,85.5862881 186.189502,85.650831 187.097281,85.650831 C188.404815,85.650831 189.499963,85.3968234 190.382757,84.8888004 C191.265551,84.3807774 191.706941,83.4063874 191.706941,81.9656009 C191.706941,80.5331427 191.190598,79.5545886 190.157895,79.0299091 C189.125193,78.5052297 187.80935,78.2428939 186.210327,78.2428939 L185.467035,78.2428939 C185.362932,78.2428939 185.202615,78.2387298 184.986081,78.2304016 Z M186.160358,70.5976029 C185.62735,70.5976029 185.298389,70.6434076 185.173466,70.7350183 C185.048542,70.826629 184.986081,71.0764726 184.986081,71.4845566 L184.986081,77.2560018 L187.422081,77.2185248 C188.27989,77.2018683 188.991944,77.0644544 189.558265,76.8062787 C190.640937,76.306584 191.182265,75.4113111 191.182265,74.1204331 C191.182265,72.5963642 190.557656,71.5678413 189.308419,71.0348336 C188.617174,70.743345 187.567831,70.5976029 186.160358,70.5976029 Z" id="形状结合"></path>
                </g>
            </g>
        </g>
    </g>
</svg>