<?xml version="1.0" encoding="UTF-8"?>
<svg width="92px" height="30px" viewBox="0 0 92 30" version="1.1" xmlns="http://www.w3.org/2000/svg" xmlns:xlink="http://www.w3.org/1999/xlink">
    <title>形状结合</title>
    <g id="Why-choose-us？" stroke="none" stroke-width="1" fill="none" fill-rule="evenodd">
        <g id="Apple-TV" transform="translate(-1354.000000, -839.000000)" fill="#787878" fill-rule="nonzero">
            <g id="ISO" transform="translate(320.000000, 800.000000)">
                <g id="付款" transform="translate(881.000000, 39.000000)">
                    <path d="M229.18887,0 C237.485666,0 244.214165,6.72849916 244.214165,14.9747049 C244.214165,23.2715008 237.485666,30 229.18887,30 C220.942664,29.9494098 214.214165,23.2715008 214.214165,14.9747049 C214.214165,6.67790894 220.942664,0 229.18887,0 Z M229.23946,2.27655987 C222.20742,2.27655987 216.541315,7.99325464 216.541315,14.9747049 C216.541315,21.9561551 222.20742,27.6728499 229.23946,27.6728499 C236.271501,27.6728499 241.937605,21.9561551 241.937605,14.9747049 C241.937605,7.94266442 236.220911,2.27655987 229.23946,2.27655987 Z M228.682968,6.88026981 L228.682968,9.2074199 L223.522766,9.2074199 L223.522766,11.53457 L228.126476,11.53457 L228.126476,18.5160202 L223.522766,18.5160202 L223.522766,20.7925801 L228.682968,20.7925801 L228.682968,23.1197302 L221.195616,23.1197302 L221.195616,16.1888702 L225.799325,16.1888702 L225.799325,13.8617201 L221.195616,13.8617201 L221.195616,6.88026981 L228.682968,6.88026981 Z M237.333895,6.88026981 L237.333895,13.7605396 L232.730185,13.7605396 L232.730185,16.0876897 L237.333895,16.0876897 L237.333895,23.06914 L229.846543,23.06914 L229.846543,20.8431703 L235.006745,20.8431703 L235.006745,18.5160202 L230.403035,18.5160202 L230.403035,11.53457 L235.006745,11.53457 L235.006745,9.2074199 L229.846543,9.2074199 L229.846543,6.88026981 L237.333895,6.88026981 Z M183.708263,6.8296796 C185.32715,6.8296796 186.693086,7.28499157 187.60371,8.1450253 C188.463744,8.90387858 188.919056,10.0168634 188.919056,11.2310287 C188.919056,13.4569983 188.008432,14.2158516 187.300169,14.5699831 L187.300169,14.5699831 L187.249578,14.6205734 L187.300169,14.6711636 C188.817875,15.3794266 189.627319,16.6947723 189.627319,18.5666105 C189.627319,19.4266442 189.424958,20.6408094 188.463744,21.6020236 C187.50253,22.5632378 186.035413,23.0185497 184.112985,23.0185497 L184.112985,23.0185497 L175.259696,22.9679595 L175.259696,6.8296796 L183.708263,6.8296796 Z M156.237774,6.88026981 L156.237774,23.0185497 L153,23.0185497 L153,6.88026981 L156.237774,6.88026981 Z M205.107926,6.88026981 L205.107926,9.91568297 L200.706577,9.91568297 C198.480607,9.91568297 196.86172,10.4215852 195.849916,11.4333895 C195.040472,12.2934233 194.63575,13.4569983 194.63575,14.9241147 C194.63575,16.2900506 194.989882,17.4030354 195.698145,18.2124789 C196.709949,19.376054 198.379427,19.9831366 200.706577,19.9831366 L200.706577,19.9831366 L205.107926,19.9831366 L205.107926,23.0185497 L200.453626,23.0185497 C197.721754,23.0185497 195.799325,22.5126476 194.43339,21.450253 C193.573356,20.7925801 192.865093,19.9325464 192.409781,18.920742 C191.853288,17.7571669 191.600337,16.391231 191.600337,14.8229342 C191.600337,11.3322091 193.472175,9.35919056 194.332209,8.65092749 C195.040472,8.04384486 195.849916,7.6391231 196.91231,7.33558179 C197.974705,7.03204047 199.18887,6.88026981 200.605396,6.88026981 L200.605396,6.88026981 L205.107926,6.88026981 Z M172.072513,6.98145025 L172.072513,10.0168634 L167.924115,10.0168634 C165.698145,10.0168634 164.079258,10.5227656 163.067454,11.53457 C162.25801,12.3440135 161.853288,13.5075885 161.853288,14.9241147 C161.853288,16.2900506 162.20742,17.3524452 162.915683,18.1618887 C163.927487,19.3254637 165.596965,19.8819562 167.924115,19.8819562 L167.924115,19.8819562 L172.072513,19.8819562 L172.072513,22.9173693 L167.671164,22.9173693 C165.091062,22.9173693 163.067454,22.3608769 161.650927,21.1973019 C160.740304,20.4384486 160.082631,19.6795953 159.627319,18.7689713 C159.070826,17.6559865 158.817875,16.391231 158.817875,14.8229342 L158.817875,14.8229342 C158.817875,11.53457 160.537943,9.61214165 161.549747,8.75210793 C162.25801,8.1450253 163.067454,7.74030354 164.129848,7.43676223 C165.192243,7.13322091 166.406408,6.98145025 167.822934,6.98145025 L167.822934,6.98145025 L172.072513,6.98145025 Z M183.860034,16.1382799 L178.29511,16.1888702 L178.193929,19.9325464 L178.193929,19.9831366 L184.158413,19.9815142 C184.78408,19.9717796 185.55842,19.9036377 186.035413,19.4266442 C186.338954,19.1231029 186.490725,18.7183811 186.490725,18.1618887 C186.490725,17.5042159 186.237774,16.9477234 185.681282,16.5935919 C185.124789,16.2394604 184.365936,16.1382799 183.860034,16.1382799 L183.860034,16.1382799 Z M183.404722,9.81450253 L178.29511,9.81450253 L178.29511,13.2040472 L183.404722,13.2040472 C183.860034,13.2040472 184.467116,13.2040472 184.973019,12.9510961 C185.529511,12.698145 185.833052,12.2428331 185.833052,11.5851602 C185.833052,9.81450253 184.315346,9.81450253 183.404722,9.81450253 L183.404722,9.81450253 Z" id="形状结合"></path>
                </g>
            </g>
        </g>
    </g>
</svg>