<?xml version="1.0" encoding="UTF-8"?>
<svg width="91px" height="44px" viewBox="0 0 91 44" version="1.1" xmlns="http://www.w3.org/2000/svg" xmlns:xlink="http://www.w3.org/1999/xlink">
    <title>ISO</title>
    <g id="Why-choose-us？" stroke="none" stroke-width="1" fill="none" fill-rule="evenodd">
        <g id="Apple-TV" transform="translate(-801.000000, -2438.000000)" fill="#313131">
            <g id="优势" transform="translate(0.000000, 2229.000000)">
                <path d="M849.037885,209 L849.037,222.6 L855.442936,222.6 L855.442,229.8 L866.79994,229.8 L875.53769,235.248437 L875.53769,239.039188 L886.746139,232.947656 L891.509661,235.744531 L891.509661,242.261385 L873.773017,252.279688 L863.912115,252.279688 L855.442,247.106 L855.442936,248.2 L849.037,248.199 L849.037885,253 L801,253 L801,209 L849.037885,209 Z M865.789182,232.966211 L855.455663,232.966211 L855.455663,242.498047 L864.971349,249.080078 L872.889117,249.005273 L888.337628,240.141797 L888.337628,237.482812 L888.337628,237.482812 C888.337628,237.482812 887.673563,237.236849 886.345432,236.744922 L871.802713,244.984375 L864.005744,239.425 L860.292464,239.426758 L860.292464,236.283594 L864.971349,236.283594 L872.219643,241.197852 L872.219643,237.171484 L865.789182,232.966211 Z M852.24041,225.8 L849.037885,225.8 L849.037885,245 L852.24041,245 L852.24041,225.8 Z M878.661247,217 L871.455564,217 L871.455564,224.2 L878.661247,224.2 L878.661247,217 Z M876.259353,221.8 L873.857459,221.8 L873.857459,219.4 L876.259353,219.4 L876.259353,221.8 Z M885.86693,219.4 L885.86693,217 L883.465036,217 L883.465036,214.6 C883.465036,213.274 882.390188,212.2 881.063141,212.2 L878.661247,212.2 L878.661247,209.8 L876.259353,209.8 L876.259353,212.2 L873.857459,212.2 L873.857459,209.8 L871.455564,209.8 L871.455564,212.2 L869.05367,212.2 C867.726624,212.2 866.651776,213.274 866.651776,214.6 L866.651776,217 L864.249882,217 L864.249882,219.4 L866.651776,219.4 L866.651776,221.8 L864.249882,221.8 L864.249882,224.2 L866.651776,224.2 L866.651776,226.6 C866.651776,227.926 867.726624,229 869.05367,229 L871.455564,229 L871.455564,231.4 L873.857459,231.4 L873.857459,229 L876.259353,229 L876.259353,231.4 L878.661247,231.4 L878.661247,229 L881.063141,229 C882.390188,229 883.465035,227.926 883.465036,226.6 L883.465036,224.2 L885.86693,224.2 L885.86693,221.8 L883.465036,221.8 L883.465036,219.4 L885.86693,219.4 Z M881.063141,226.6 L869.05367,226.6 L869.05367,214.6 L881.063141,214.6 L881.063141,226.6 Z M815.842174,221.782813 L818.326946,221.782813 L818.326946,229.8 L815.842174,229.8 L815.842174,221.782813 Z M819.67332,227.147656 L822.032212,227 C822.083294,227.382814 822.187281,227.674478 822.344177,227.875 C822.599588,228.199481 822.964455,228.361719 823.43879,228.361719 C823.792717,228.361719 824.065455,228.278777 824.257013,228.112891 C824.448572,227.947004 824.544349,227.754689 824.544349,227.535937 C824.544349,227.328124 824.453132,227.142188 824.270696,226.978125 C824.08826,226.814062 823.665013,226.659115 823.000945,226.513281 C821.913623,226.269009 821.13828,225.944533 820.674891,225.539844 C820.207854,225.135154 819.974339,224.619274 819.974339,223.992188 C819.974339,223.580206 820.093833,223.191017 820.332825,222.824609 C820.571817,222.458201 820.931211,222.170183 821.411019,221.960547 C821.890827,221.75091 822.5485,221.646094 823.384059,221.646094 C824.409352,221.646094 825.191081,221.836587 825.729268,222.217578 C826.267456,222.59857 826.587627,223.204683 826.689791,224.035937 L824.352792,224.172656 C824.290764,223.811717 824.160324,223.54922 823.961468,223.385156 C823.762612,223.221093 823.488049,223.139062 823.137771,223.139062 C822.849522,223.139062 822.632426,223.20013 822.486476,223.322266 C822.340527,223.444402 822.267554,223.592968 822.267554,223.767969 C822.267554,223.895574 822.327757,224.010416 822.448165,224.1125 C822.564924,224.21823 822.842224,224.316666 823.280071,224.407813 C824.363744,224.641147 825.139999,224.877212 825.608861,225.116016 C826.077722,225.354819 826.418873,225.65104 826.632324,226.004687 C826.845775,226.358335 826.952499,226.753904 826.952499,227.191406 C826.952499,227.705471 826.8102,228.179425 826.525599,228.613281 C826.240998,229.047138 825.843293,229.376171 825.332471,229.600391 C824.821649,229.82461 824.177658,229.936719 823.400478,229.936719 C822.035854,229.936719 821.090847,229.674221 820.56543,229.149219 C820.040013,228.624216 819.742646,227.957035 819.67332,227.147656 Z M827.888393,225.796875 C827.888393,224.488014 828.25326,223.469014 828.983006,222.739844 C829.712752,222.010673 830.728908,221.646094 832.031504,221.646094 C833.366939,221.646094 834.395865,222.004293 835.118313,222.720703 C835.840762,223.437113 836.201981,224.440619 836.201981,225.73125 C836.201981,226.668234 836.044175,227.436586 835.72856,228.036328 C835.412945,228.636071 834.956861,229.102733 834.360294,229.436328 C833.763727,229.769924 833.020309,229.936719 832.130019,229.936719 C831.225134,229.936719 830.476244,229.79271 829.883326,229.504687 C829.290407,229.216665 828.809694,228.760941 828.441173,228.1375 C828.072651,227.514059 827.888393,226.733859 827.888393,225.796875 Z M830.367692,225.807813 C830.367692,226.617192 830.5182,227.198696 830.81922,227.552344 C831.12024,227.905991 831.529804,228.082812 832.047923,228.082812 C832.580638,228.082812 832.992938,227.909637 833.284836,227.563281 C833.576735,227.216925 833.722682,226.595317 833.722682,225.698438 C833.722682,224.943746 833.570349,224.392319 833.26568,224.044141 C832.961012,223.695962 832.547799,223.521875 832.026031,223.521875 C831.526155,223.521875 831.124801,223.698696 830.821956,224.052344 C830.519112,224.405991 830.367692,224.991142 830.367692,225.807813 Z M823.455209,232.982812 L825.929035,232.982812 L825.929035,237.7625 C825.929035,238.236461 825.855149,238.683982 825.707376,239.105078 C825.559602,239.526174 825.327912,239.894399 825.012297,240.209766 C824.696681,240.525132 824.365564,240.746614 824.018935,240.874219 C823.537303,241.052865 822.958988,241.142188 822.283973,241.142188 C821.893559,241.142188 821.467576,241.114844 821.006012,241.060156 C820.544448,241.005468 820.1586,240.897006 819.848458,240.734766 C819.538316,240.572525 819.254632,240.341929 818.997397,240.042969 C818.740161,239.744009 818.564113,239.435939 818.469246,239.11875 C818.315999,238.608331 818.239377,238.156252 818.239377,237.7625 L818.239377,232.982812 L820.713203,232.982812 L820.713203,237.877344 C820.713203,238.314846 820.834521,238.656639 821.077162,238.902734 C821.319802,239.148829 821.656393,239.271875 822.086943,239.271875 C822.513844,239.271875 822.84861,239.150652 823.09125,238.908203 C823.333891,238.665754 823.455209,238.322138 823.455209,237.877344 L823.455209,232.982812 Z M827.570955,232.982812 L830.050254,232.982812 L830.050254,239.025781 L833.919712,239.025781 L833.919712,241 L827.570955,241 L827.570955,232.982812 Z" id="ISO"></path>
            </g>
        </g>
    </g>
</svg>