<?xml version="1.0" encoding="UTF-8"?>
<svg width="80px" height="80px" viewBox="0 0 80 80" version="1.1" xmlns="http://www.w3.org/2000/svg" xmlns:xlink="http://www.w3.org/1999/xlink">
    <title>iso9001</title>
    <g id="Why-choose-us？" stroke="none" stroke-width="1" fill="none" fill-rule="evenodd">
        <g id="Apple-TV" transform="translate(-320.000000, -839.000000)" fill="#787878" fill-rule="nonzero">
            <g id="ISO" transform="translate(320.000000, 800.000000)">
                <g id="iso9001" transform="translate(0.000000, 39.000000)">
                    <path d="M31.936,71.2406395 C32.693332,71.2406395 33.352,71.370168 33.656,71.6292249 C33.94784,71.8779194 33.981632,72.8677239 33.983868,73.567252 L33.984,73.6531067 L31.888,73.6531067 L31.888,73.1026108 L27.28,73.1026108 L27.28,74.4950415 L32.032,74.4950415 C32.821332,74.4950415 33.362668,74.6299668 33.656,74.8998179 C33.933036,75.1546772 34.079252,75.6357944 34.09464,76.3431702 L34.096,76.4703501 L34.096,78.0246914 C34.096,78.801862 33.949332,79.3253726 33.656,79.5952236 C33.37992,79.849201 32.88416,79.9836596 32.16872,79.9985995 L32.032,80 L27.328,80 C26.538668,80 25.997332,79.8650747 25.704,79.5952236 C25.4224,79.3361668 25.275968,78.3061566 25.264704,77.5365796 L25.264,77.4418134 L27.36,77.4418134 L27.36,78.0246914 L32,78.0246914 L32,76.5189233 L27.248,76.5189233 C26.458668,76.5189233 25.92,76.383998 25.632,76.1141469 C25.35652,75.8560287 25.212792,74.9954847 25.200816,74.240999 L25.2,74.1388383 L25.2,73.2159482 C25.2,72.4387776 25.344,71.915267 25.632,71.6454159 C25.904,71.3905566 26.399588,71.2560478 27.118764,71.2418887 L27.248,71.2406395 L31.936,71.2406395 Z M52.56,71.2406395 C53.317332,71.2406395 53.976,71.370168 54.28,71.6292249 C54.57184,71.8779194 54.605632,72.8677239 54.607868,73.567252 L54.608,73.6531067 L52.512,73.6531067 L52.512,73.1026108 L47.904,73.1026108 L47.904,74.4950415 L52.656,74.4950415 C53.445332,74.4950415 53.986668,74.6299668 54.28,74.8998179 C54.557036,75.1546772 54.703252,75.6357944 54.71864,76.3431702 L54.72,76.4703501 L54.72,78.0246914 C54.72,78.801862 54.573332,79.3253726 54.28,79.5952236 C54.00392,79.849201 53.50816,79.9836596 52.79272,79.9985995 L52.656,80 L47.952,80 C47.162668,80 46.621332,79.8650747 46.328,79.5952236 C46.0464,79.3361668 45.899968,78.3061566 45.888704,77.5365796 L45.888,77.4418134 L47.984,77.4418134 L47.984,78.0246914 L52.624,78.0246914 L52.624,76.5189233 L47.872,76.5189233 C47.082668,76.5189233 46.544,76.383998 46.256,76.1141469 C45.98052,75.8560287 45.836792,74.9954847 45.824816,74.240999 L45.824,74.1388383 L45.824,73.2159482 C45.824,72.4387776 45.968,71.915267 46.256,71.6454159 C46.528,71.3905566 47.023588,71.2560478 47.742764,71.2418887 L47.872,71.2406395 L52.56,71.2406395 Z M42.808,71.2406395 C43.576,71.2406395 44.109332,71.3728666 44.408,71.6373204 C44.69518,71.8916029 44.844292,73.0515426 44.855336,73.7929112 L44.856,73.8797814 L44.856,74.0740741 L42.584,74.0740741 L42.584,73.1349929 L37.384,73.1349929 L37.384,78.0246914 L42.584,78.0246914 L42.584,76.9722728 L39.848,76.9722728 L39.848,75.1426837 L44.856,75.1426837 L44.856,78.0246914 C44.856,78.801862 44.712,79.3253726 44.424,79.5952236 C44.152,79.850083 43.656412,79.9845918 42.937236,79.9987509 L42.808,80 L37.112,80 C36.322668,80 35.784,79.8650747 35.496,79.5952236 C35.224,79.3403643 35.080444,78.8592471 35.065332,78.1518713 L35.064,78.0246914 L35.064,73.2159482 C35.064,72.4387776 35.208,71.915267 35.496,71.6454159 C35.768,71.3905566 36.263588,71.2560478 36.982764,71.2418887 L37.112,71.2406395 L42.808,71.2406395 Z M40,0 C62.091388,0 80,18.122455 80,40.4776361 C80,56.5361615 70.759044,70.4105736 57.364832,76.9524266 L56.996024,75.7834612 C69.9062,69.4073633 78.8,55.9935313 78.8,40.4776361 C78.8,18.7931103 61.428648,1.21432908 40,1.21432908 C18.571352,1.21432908 1.2,18.7931103 1.2,40.4776361 C1.2,55.9129156 10.001624,69.2679186 22.803068,75.6835074 L22.453244,76.8629962 C9.157352,70.2847201 0,56.4633548 0,40.4776361 C0,18.122455 17.908612,0 40,0 Z M44.8,58.6586007 L44.8,62.9229974 L38.906712,68.7780097 L36.4,66.2875774 L36.4,61.6110342 L38.94326,64.4063813 L44.8,58.6586007 Z M40,10.119409 C56.568544,10.119409 70,23.7112504 70,40.4776361 C70,52.0123161 63.642956,62.0444991 54.280816,67.1822048 L53.90894,66.0035875 C62.78736,61.0389909 68.8,51.4688618 68.8,40.4776361 C68.8,24.3819057 55.9058,11.3337381 40,11.3337381 C24.0942,11.3337381 11.2,24.3819057 11.2,40.4776361 C11.2,51.3204716 17.051384,60.7803238 25.73304,65.7999992 L25.37958,66.9929492 C16.203648,61.8007185 10,51.8722979 10,40.4776361 C10,23.7112504 23.431456,10.119409 40,10.119409 Z M46,38.8585307 C47.343724,38.8585307 48.476192,39.6359494 49.397404,41.1907865 C50.332468,42.7850868 50.8,44.7898009 50.8,47.204929 C50.8,50.0541486 50.270128,52.2719624 49.210388,53.85837 C48.316884,55.1922153 47.250216,55.8591378 46.010388,55.8591378 C45.137664,55.8591378 44.393072,55.5671127 43.776624,54.9830621 C43.160172,54.3990115 42.633768,53.6452706 42.197404,52.7218393 C41.823376,51.9404744 41.560172,51.0446671 41.407792,50.0344173 C41.317748,49.442474 41.248484,48.5900761 41.2,47.4772228 C41.2,44.5806476 41.767964,42.3391564 42.903896,40.7527488 C43.804328,39.4899369 44.836364,38.8585307 46,38.8585307 Z M35.2,38.8585307 C36.543724,38.8585307 37.676192,39.6359494 38.597404,41.1907865 C39.532468,42.7850868 40,44.7898009 40,47.204929 C40,50.0541486 39.470128,52.2719624 38.410388,53.85837 C37.516884,55.1922153 36.450216,55.8591378 35.210388,55.8591378 C34.337664,55.8591378 33.593072,55.5671127 32.976624,54.9830621 C32.360172,54.3990115 31.833768,53.6452706 31.397404,52.7218393 C31.023376,51.9404744 30.760172,51.0446671 30.607792,50.0344173 C30.517748,49.442474 30.448484,48.5900761 30.4,47.4772228 C30.4,44.5806476 30.967964,42.3391564 32.103896,40.7527488 C33.004328,39.4899369 34.036364,38.8585307 35.2,38.8585307 Z M24.243136,38.8585307 C25.686276,38.8585307 26.873204,39.4875256 27.80392,40.7455151 C28.73464,42.003505 29.2,43.6657078 29.2,45.7321235 C29.2,48.8396341 28.140304,51.335896 26.020916,53.2209087 C24.297008,54.7581728 22.271548,55.6316762 19.944532,55.8414191 L19.725492,55.8591378 L19.725492,55.2439454 L19.938972,55.1932491 C20.995344,54.9302951 21.886276,54.525235 22.611764,53.9780684 C23.955772,52.9465861 24.871232,51.3969743 25.35814,49.3292342 L25.40392,49.1275126 L25.299348,49.0446982 L25.19232,49.0846266 C24.949076,49.174342 24.7512,49.2399037 24.598692,49.2813107 C24.25708,49.3680688 23.89804,49.4114475 23.521568,49.4114475 C22.399128,49.4114475 21.464924,48.9737146 20.718956,48.0982481 C19.972984,47.222782 19.6,46.0318324 19.6,44.5253997 C19.6,42.7823546 20.060132,41.402115 20.980392,40.3846812 C21.900652,39.3672475 22.988236,38.8585307 24.243136,38.8585307 Z M58.123156,38.8585307 L58.123156,52.6137397 L58.124308,52.7578009 C58.13734,53.5593042 58.261148,54.1084821 58.495732,54.4053354 C58.733316,54.7059842 59.324404,54.8628448 60.269,54.8759166 L60.4,54.8768075 L60.4,55.4543615 L52.451748,55.4543615 L52.451748,54.8768075 L52.589944,54.8758608 C53.587336,54.8619721 54.231224,54.6953078 54.521604,54.375868 C54.810004,54.0586064 54.961416,53.4700862 54.975836,52.6103068 L54.976972,52.4722979 L54.976972,43.1725035 L54.976048,43.0471787 C54.96804,42.5155693 54.907976,42.1330192 54.79586,41.899528 C54.67512,41.6480761 54.452608,41.5223501 54.128332,41.5223501 C53.955844,41.5223501 53.690212,41.5891419 53.331436,41.7227258 C53.129048,41.7925736 52.861248,41.8996738 52.528024,42.0440255 L52.4,42.0999037 L52.4,41.4869897 L57.750584,38.8585307 L58.123156,38.8585307 Z M45.81,39.263307 C45.35,39.263307 45,39.616642 44.76,40.3233115 C44.528,41.006425 44.408132,42.2808634 44.4004,44.1466262 L44.4,44.3417454 L44.4,49.959169 L44.4017,50.1566306 C44.421676,52.0445205 44.544444,53.3261631 44.77,54.0015584 C45.003332,54.7002429 45.356668,55.0495851 45.83,55.0495851 C46.423332,55.0495851 46.823332,54.4028027 47.03,53.1092382 C47.137668,52.4341093 47.194192,51.4527071 47.199576,50.1650318 L47.2,49.959169 L47.2,44.3417454 L47.199604,44.145069 C47.19198,42.2646408 47.073776,40.986729 46.845,40.3113337 C46.608332,39.6126493 46.263332,39.263307 45.81,39.263307 Z M35.01,39.263307 C34.55,39.263307 34.2,39.616642 33.96,40.3233115 C33.728,41.006425 33.608132,42.2808634 33.6004,44.1466262 L33.6,44.3417454 L33.6,49.959169 L33.6017,50.1566306 C33.621676,52.0445205 33.744444,53.3261631 33.97,54.0015584 C34.203332,54.7002429 34.556668,55.0495851 35.03,55.0495851 C35.623332,55.0495851 36.023332,54.4028027 36.23,53.1092382 C36.337668,52.4341093 36.394192,51.4527071 36.399576,50.1650318 L36.4,49.959169 L36.4,44.3417454 L36.399604,44.145069 C36.39198,42.2646408 36.273776,40.986729 36.045,40.3113337 C35.808332,39.6126493 35.463332,39.263307 35.01,39.263307 Z M24.300688,39.263307 C23.771036,39.263307 23.388504,39.545341 23.153104,40.1094094 C22.9177,40.6734778 22.8,41.5035786 22.8,42.5997118 C22.8,44.4479356 22.954484,45.8381044 23.263448,46.7702174 C23.572412,47.7023303 24.091036,48.168387 24.819312,48.168387 C24.988504,48.168387 25.181608,48.1323825 25.39862,48.060374 C25.615632,47.9883651 25.746208,47.920357 25.790344,47.8563493 C25.827128,47.8083433 25.871264,47.5203084 25.92276,46.9922445 C25.974252,46.4641801 26,45.8401044 26,45.1200174 C26,44.3199203 25.985288,43.6018332 25.955864,42.9657559 C25.926436,42.329679 25.871264,41.7796122 25.790344,41.315556 C25.694712,40.7634888 25.569656,40.335437 25.415172,40.0314001 C25.150344,39.5193382 24.778852,39.263307 24.300688,39.263307 Z M8.538932,37.8358357 L9.196432,38.3615462 L8.538932,38.9365424 C8.5714,38.9748755 8.59846,39.0118393 8.620104,39.0474345 C8.641752,39.0830293 8.660692,39.1172556 8.676928,39.1501125 C8.779744,39.347254 8.847388,39.5375503 8.87986,39.7210014 C8.912328,39.9044525 8.928564,40.0564157 8.928564,40.1768909 C8.928564,40.2973665 8.910976,40.4506986 8.8758,40.6368877 C8.840624,40.8230771 8.774332,41.0174807 8.676928,41.220098 C8.503756,41.537715 8.203416,41.8306893 7.775904,42.0990208 C7.348396,42.3673524 6.71254,42.5015179 5.86834,42.5015179 C5.02414,42.5015179 4.388284,42.3673524 3.960776,42.0990208 C3.533264,41.8306893 3.232924,41.537715 3.059752,41.220098 C2.956936,41.0174807 2.887936,40.8230771 2.852764,40.6368877 C2.817588,40.4506986 2.8,40.2973665 2.8,40.1768909 C2.8,40.0564157 2.817588,39.9030832 2.852764,39.7168942 C2.887936,39.5307051 2.956936,39.3363016 3.059752,39.1336839 C3.232924,38.8160672 3.533264,38.5230929 3.960776,38.2547614 C4.388284,37.9864299 5.02414,37.8522643 5.86834,37.8522643 C6.344556,37.8522643 6.753124,37.9001805 7.094052,37.996013 C7.43498,38.0918458 7.719084,38.2136903 7.946368,38.3615462 L7.946368,38.3615462 L8.538932,37.8358357 Z M76.966192,37.5671544 L76.991552,39.0372775 L72.413016,39.997207 L72.413156,40.00542 L77.021724,40.786642 L77.04694,42.2485521 L71.219608,42.3514831 L71.203456,41.4152038 L76.073096,41.3291888 L76.072812,41.312763 L71.187592,40.4953499 L71.170448,39.5015798 L76.024928,38.5367764 L76.024648,38.5203501 L71.155008,38.6063651 L71.138856,37.6700854 L76.966192,37.5671544 Z M5.86834,38.8626145 C5.2406,38.8626145 4.777916,38.9584469 4.48028,39.1501125 C4.182648,39.3417778 3.990536,39.5526096 3.903952,39.782608 C3.876896,39.8483218 3.857956,39.9154046 3.847132,39.9838567 C3.836308,40.0523084 3.830896,40.1166533 3.830896,40.1768909 C3.830896,40.2371285 3.836308,40.3014734 3.847132,40.3699255 C3.857956,40.4383773 3.876896,40.50546 3.903952,40.5711739 C3.990536,40.8011726 4.182648,41.0120045 4.48028,41.2036697 C4.777916,41.395335 5.2406,41.4911678 5.86834,41.4911678 C6.496076,41.4911678 6.958764,41.395335 7.2564,41.2036697 C7.554032,41.0120045 7.746144,40.8011726 7.832728,40.5711739 C7.859784,40.50546 7.878724,40.4383773 7.889548,40.3699255 C7.900372,40.3014734 7.905784,40.2371285 7.905784,40.1768909 C7.905784,40.1221295 7.900372,40.0646298 7.889548,40.0043922 C7.878724,39.9441546 7.862492,39.8811787 7.840844,39.8154649 C7.83002,39.7880842 7.816492,39.7579652 7.800256,39.7251083 C7.784024,39.6922514 7.767788,39.6621328 7.751552,39.6347521 L7.751552,39.6347521 L7.19146,40.1193912 L6.53396,39.5936806 L7.110288,39.0843987 C6.964176,39.0186849 6.7883,38.965292 6.582664,38.924221 C6.377024,38.88315 6.138916,38.8626145 5.86834,38.8626145 Z M50.21018,20.6435944 C52.3138,20.6435944 54.061164,21.440544 55.452268,23.0344436 C56.884088,24.6681911 57.6,26.7721384 57.6,29.3462862 C57.6,31.9204339 56.884088,34.0243813 55.452268,35.6581287 C54.05438,37.2520283 52.307016,38.0489779 50.21018,38.0489779 C47.984412,38.0489779 46.169188,37.1763177 44.764512,35.4309978 C43.454836,33.7892811 42.8,31.8048763 42.8,29.477783 C42.8,26.9116045 43.485372,24.8036725 44.85612,23.1539862 C46.24044,21.4803918 48.025128,20.6435944 50.21018,20.6435944 Z M40.587128,20.6435944 L40.587128,25.9935608 L40.004904,25.9935608 L39.953424,25.7766051 C39.667088,24.6290273 39.192248,23.6337519 38.528908,22.7907784 C37.824108,21.8951188 36.967792,21.4472888 35.95996,21.4472888 C35.251752,21.4472888 34.69166,21.673203 34.279672,22.1250314 C33.867688,22.5768593 33.661696,23.1266505 33.661696,23.7744044 C33.661696,24.5501093 33.855772,25.1298891 34.243924,25.513743 C34.610596,25.890523 35.408544,26.4373564 36.63776,27.1542437 L36.787336,27.2410864 L38.360368,28.1527399 L38.519688,28.2476385 C39.146824,28.630357 39.652108,29.0505525 40.035548,29.5082247 C40.811848,30.4358721 41.2,31.5634434 41.2,32.8909387 C41.2,34.1304675 40.782908,35.3000231 39.948724,36.3996049 C39.11454,37.4991868 37.77814,38.0489779 35.939532,38.0489779 C35.517332,38.0489779 35.090024,38.0029953 34.657608,37.9110306 C34.286968,37.8322032 33.92008,37.7166553 33.556944,37.5643866 L33.375688,37.4851921 L32.967108,37.3052605 L32.872908,37.2752722 C32.810864,37.2566124 32.750336,37.2406185 32.691316,37.2272904 C32.602792,37.2072977 32.527884,37.1973018 32.4666,37.1973018 C32.248688,37.1973018 32.098876,37.2712734 32.01716,37.4192172 C31.94566,37.5486683 31.881976,37.7255697 31.826116,37.9499219 L31.802656,38.0489779 L31.2,38.0489779 L31.2,31.96729 L31.802656,31.96729 L31.841348,32.1687112 C32.18416,33.8965371 32.72114,35.1608905 33.4523,35.9617713 C34.211576,36.7934552 35.081512,37.2092973 36.062104,37.2092973 C37.015456,37.2092973 37.69302,36.9234058 38.094792,36.3516232 C38.49656,35.7798405 38.697448,35.1780692 38.697448,34.5463092 C38.697448,33.8105889 38.486348,33.2108172 38.064148,32.7469933 C37.80046,32.4599915 37.284704,32.0909589 36.516872,31.6398956 L36.378752,31.5594451 L35.020224,30.7677458 L34.846616,30.6655693 C33.59006,29.9166064 32.69798,29.1749601 32.170376,28.4406306 C31.618796,27.6729225 31.343004,26.7252823 31.343004,25.597711 C31.343004,24.3981672 31.709024,23.2785926 32.441064,22.2389881 C33.1731,21.1993831 34.294996,20.6795807 35.80674,20.6795807 C36.576236,20.6795807 37.320192,20.8155292 38.038612,21.0874256 C38.757032,21.3593224 39.167312,21.4952706 39.26946,21.4952706 C39.500988,21.4952706 39.661016,21.4173001 39.74954,21.2613596 C39.82542,21.127696 39.888792,20.9573119 39.939656,20.7502068 L39.964044,20.6435944 L40.587128,20.6435944 Z M30,21.0483708 L30,21.6719134 L29.873968,21.6790548 C29.298324,21.7158636 28.897876,21.8014187 28.672624,21.9357203 C28.29156,22.1704954 28.091,22.6241016 28.070944,23.2965396 L28.069272,23.4106387 L28.069272,35.2939251 L28.070944,35.4128828 C28.08876,36.0347104 28.249096,36.4547209 28.551956,36.672914 C28.852292,36.8892884 29.292784,37.0046881 29.873432,37.0191131 L30,37.020659 L30,37.6442016 L22.8,37.6442016 L22.8,37.020659 L22.922468,37.0161927 C23.44226,36.9923327 23.820432,36.909883 24.056984,36.7688436 C24.450748,36.526495 24.657996,36.0724898 24.67872,35.4068282 L24.680448,35.2939251 L24.680448,23.4106387 L24.678804,23.2977685 C24.65908,22.6325056 24.461864,22.1824865 24.087152,21.9477114 C23.8619,21.8059486 23.473132,21.7164141 22.920848,21.6791083 L22.8,21.6719134 L22.8,21.0483708 L30,21.0483708 Z M50.404964,21.4531471 C48.868964,21.4531471 47.816276,22.559065 47.246896,24.7709006 C46.948964,25.9446905 46.8,27.4698191 46.8,29.3462862 C46.8,31.254693 46.952276,32.7957915 47.256828,33.9695815 C47.819588,36.1494774 48.868964,37.2394252 50.404964,37.2394252 C51.927724,37.2394252 52.973792,36.1494774 53.543172,33.9695815 C53.847724,32.7878065 54,31.246708 54,29.3462862 C54,26.7352022 53.67724,24.7669079 53.031724,23.4414038 C52.386208,22.1158992 51.51062,21.4531471 50.404964,21.4531471 Z M75.881004,30.7286727 L76.383932,33.1230221 L76.40136,33.2221749 C76.456656,33.5799955 76.417336,33.8746667 76.283396,34.1061882 C76.13728,34.3587573 75.956208,34.5502639 75.74018,34.6807075 C75.623268,34.7562417 75.505908,34.8164756 75.3881,34.8614102 C75.270292,34.9063445 75.166396,34.9384894 75.076412,34.957845 C74.764108,35.0250196 74.470344,35.0224246 74.19512,34.9500591 C73.919892,34.877694 73.709888,34.7339158 73.565104,34.5187241 L73.565104,34.5187241 L73.560056,34.5292576 L73.554772,34.553488 L73.554772,34.553488 L73.549724,34.5640215 C73.4927,34.7666359 73.38962,34.9343688 73.240488,35.0672192 C73.091356,35.2000696 72.760064,35.321715 72.246616,35.432155 C71.828448,35.5221008 71.548548,35.5921028 71.40692,35.6421607 C71.265296,35.6922186 71.181348,35.773258 71.155088,35.8852783 L71.155088,35.8852783 L71.012168,35.916019 L70.782644,34.8232961 L70.880568,34.7783522 C70.982228,34.7339166 71.0951,34.6910055 71.219188,34.6496195 C71.384632,34.594438 71.612924,34.5355369 71.904052,34.4729164 C72.295756,34.3886634 72.565776,34.2913936 72.714116,34.1811075 C72.862456,34.0708217 72.898372,33.833558 72.821864,33.4693171 L72.821864,33.4693171 L72.615468,32.4471985 L70.384352,32.9271002 L70.18014,31.9548978 L75.881004,30.7286727 Z M4.137352,30.967456 L7.858484,31.6994082 L7.989992,31.7271726 C8.677816,31.8826982 9.148636,32.1573783 9.40246,32.5512123 C9.672144,32.9696616 9.74968,33.4772285 9.635064,34.0739134 C9.614412,34.1814244 9.582916,34.2951698 9.540576,34.41515 C9.498232,34.5351305 9.440252,34.6576126 9.366628,34.782597 C9.297284,34.914002 9.204552,35.038017 9.088432,35.1546424 C8.972312,35.2712674 8.829556,35.3687067 8.660168,35.4469605 C8.460084,35.541492 8.239344,35.5929087 7.99794,35.6012111 C7.75654,35.6095131 7.491376,35.5908278 7.20246,35.545154 L7.20246,35.545154 L3.401644,34.7975288 L3.5968,33.7815515 L7.309964,34.511936 L7.408928,34.5296296 C7.764568,34.5865877 8.040824,34.5564436 8.237688,34.4391973 C8.452448,34.3112925 8.582028,34.1317656 8.626428,33.9006173 C8.692512,33.5565829 8.644136,33.2918438 8.481296,33.1063999 C8.318456,32.9209561 8.064392,32.7942752 7.719104,32.7263566 L7.719104,32.7263566 L3.942196,31.9834333 L4.137352,30.967456 Z M75.100664,31.9126464 L73.5762,32.2405505 L73.819224,33.3975515 C73.867936,33.6558013 73.965064,33.8350565 74.110604,33.9353163 C74.25614,34.0355762 74.469184,34.0555345 74.749728,33.9951909 C74.78678,33.9872208 74.824876,33.9776272 74.864012,33.96641 C74.903148,33.9551925 74.942764,33.9396729 74.98286,33.9198519 C75.104276,33.8657438 75.207508,33.7777571 75.292556,33.6558907 C75.377608,33.5340247 75.397068,33.3632835 75.35094,33.1436677 L75.35094,33.1436677 L75.100664,31.9126464 Z M5.778764,25.3805736 L11.815084,26.0057855 L11.407616,27.0263428 L10.178184,26.8603433 L9.518332,28.513037 L10.50754,29.2807088 L10.11224,30.2708019 L5.346972,26.4620599 L5.778764,25.3805736 Z M74.727432,26.8697474 L75.085236,27.8129905 L69.64412,29.9265788 L69.286316,28.9833358 L74.727432,26.8697474 Z M6.782116,26.4198073 L6.776036,26.4350399 L8.685424,27.8801449 L9.141544,26.7377296 L6.782116,26.4198073 Z M71.916336,21.196155 L73.565244,24.2063878 L72.6636,24.7121449 L71.49874,22.5855839 L70.348612,23.2307225 L71.367868,25.0914633 L70.466224,25.59722 L69.446968,23.7364797 L67.302904,24.9391455 L66.818856,24.0554734 L71.916336,21.196155 Z M8.402564,20.4321741 L12.35954,23.1330573 L13.689508,21.1377551 L14.564348,21.7348893 L12.676068,24.5678098 L7.844252,21.2697923 L8.402564,20.4321741 Z M11.869516,15.6858223 L16.334192,19.4768658 L15.692416,20.2508391 L11.22774,16.4597956 L11.869516,15.6858223 Z M65.451248,13.0037296 L66.917324,14.5400235 L66.991912,14.6229197 C67.350264,15.038391 67.489724,15.4687173 67.410288,15.913898 C67.325552,16.3887573 67.143924,16.8231775 66.865404,17.2171577 C66.775072,17.3511103 66.678192,17.476234 66.574768,17.5925278 C66.471344,17.7088221 66.369024,17.8164218 66.267812,17.9153273 C66.162708,18.0180364 66.04898,18.121562 65.926628,18.2259033 C65.804272,18.3302445 65.675308,18.4296276 65.539728,18.5240534 C65.098228,18.8260801 64.619264,19.0257838 64.102836,19.1231641 C63.586412,19.2205448 63.117684,19.0486387 62.696656,18.6074471 L62.696656,18.6074471 L61.258776,17.1006974 L65.451248,13.0037296 Z M65.409488,14.4262514 L62.665112,17.1081105 L63.341764,17.817169 C63.608532,18.1045966 63.935552,18.1713698 64.322832,18.0174888 C64.710112,17.8636078 65.072952,17.6289338 65.411352,17.3134677 L65.411352,17.3134677 L65.4931,17.2335823 L65.58092,17.1463688 C65.979104,16.7442263 66.214428,16.4100538 66.286888,16.1438514 C66.364524,15.8586343 66.366616,15.6263024 66.293172,15.4468557 C66.263632,15.3843688 66.229228,15.3266371 66.189956,15.2736604 C66.150684,15.2206837 66.110372,15.1725299 66.069024,15.1291985 L66.069024,15.1291985 L65.409488,14.4262514 Z M16.546868,11.2928351 L17.236672,12.0680891 L16.16292,13.0464469 L19.372956,16.6541251 L18.63098,17.3301813 L15.42094,13.7225031 L14.347188,14.700861 L13.657384,13.925607 L16.546868,11.2928351 Z M60.117416,8.73163489 L62.960944,10.8222465 L62.354996,11.666219 L60.30608,10.1598195 L59.585624,11.1632827 L61.470364,12.5489767 L60.86442,13.3929492 L58.97968,12.0072548 L58.092232,13.243309 L60.233084,14.817303 L59.627136,15.6612755 L56.691672,13.5030686 L60.117416,8.73163489 Z M21.91568,7.3478053 L22.429076,11.338406 L23.553688,13.2324266 L22.697868,13.7527954 L21.564896,11.844693 L18.276704,9.56043068 L19.2856,8.94698765 L21.445804,10.6234009 L20.948532,7.9358644 L21.91568,7.3478053 Z M54.042308,5.53930945 L56.234628,6.57381137 L56.323368,6.61939931 C56.63904,6.79005181 56.847936,6.99916778 56.950048,7.24674722 C57.061444,7.51683384 57.103612,7.77842218 57.076552,8.03151265 C57.065804,8.17145558 57.042712,8.30255211 57.007276,8.42480348 C56.97184,8.54705444 56.934684,8.65036592 56.895804,8.73473831 C56.760868,9.02756001 56.582028,9.26340984 56.359284,9.4422882 C56.13654,9.62116616 55.896684,9.70435823 55.63972,9.69186319 L55.63972,9.69186319 L55.644992,9.70228294 L55.652964,9.71170897 C55.659176,9.71766201 55.663592,9.72427727 55.666212,9.73155475 C55.791796,9.89957701 55.86214,10.0838264 55.877236,10.2843028 C55.892332,10.4847792 55.78896,10.8257268 55.56712,11.3071455 C55.386448,11.6992289 55.273248,11.9675628 55.22752,12.1121477 C55.181792,12.2567322 55.195232,12.3733447 55.267832,12.4619846 L55.267832,12.4619846 L55.206084,12.5959879 L54.205564,12.123866 L54.229024,12.0176794 C54.255136,11.908778 54.2892,11.7917324 54.331212,11.6665436 C54.387232,11.4996248 54.478132,11.279681 54.60392,11.0067116 C54.77316,10.6394434 54.858896,10.3626816 54.861128,10.1764254 C54.863364,9.9901696 54.697728,9.81835458 54.36422,9.66098077 L54.36422,9.66098077 L53.43334,9.21265776 L52.469364,11.3045958 L51.579196,10.8845464 L54.042308,5.53930945 Z M29.729924,4.11418822 L32.959392,9.31259057 L31.913812,9.61598664 L31.286164,8.53341267 L29.592944,9.02473305 L29.604168,10.2861745 L28.589796,10.5805137 L28.62192,4.43569763 L29.729924,4.11418822 Z M47.2723,3.30718195 L48.260232,3.57505768 L47.281204,7.27245821 L47.25686,7.37112366 C47.175904,7.72616312 47.186348,8.00713702 47.288196,8.21404533 C47.399304,8.43976402 47.56724,8.58309573 47.792008,8.64404088 C48.126544,8.73475046 48.390896,8.7043813 48.585064,8.55293382 C48.779232,8.40148634 48.921836,8.15385185 49.012876,7.81003076 L49.012876,7.81003076 L50.008708,4.04915564 L50.99664,4.31703137 L50.015512,8.02236632 L49.978968,8.15318559 C49.777672,8.83667638 49.474052,9.29279943 49.068108,9.52155394 C48.636792,9.76460555 48.131028,9.80746934 47.550816,9.65014531 C47.446272,9.62179883 47.33634,9.58206922 47.221016,9.5309573 C47.105696,9.47984497 46.988996,9.41276948 46.870924,9.32973001 C46.746224,9.25056304 46.63044,9.14830156 46.523572,9.02294556 C46.416704,8.89758996 46.330604,8.74668488 46.26528,8.57023072 C46.186048,8.36165918 46.15076,8.13523902 46.159416,7.89096984 C46.168072,7.64670067 46.204988,7.38033111 46.270164,7.09186035 L46.270164,7.09186035 L47.2723,3.30718195 Z M40.950384,3.12746448 C41.22196,2.90606922 41.627952,2.80970168 42.168364,2.83836187 C42.697968,2.86644849 43.091288,3.01480308 43.348324,3.28342522 C43.60536,3.55204736 43.774588,3.84205991 43.856,4.15346286 C43.8876,4.2757794 43.909812,4.39622708 43.922636,4.51480631 C43.93546,4.63338514 43.939324,4.74189273 43.934228,4.84032827 L43.934228,4.84032827 L42.978124,4.78139688 L42.974296,4.7332119 C42.971284,4.69832261 42.967356,4.65790083 42.962512,4.61194657 C42.955244,4.54301518 42.93724,4.4721437 42.908496,4.39933131 C42.866372,4.27097308 42.780452,4.15125926 42.650728,4.04019024 C42.521008,3.92912083 42.31834,3.86627768 42.042732,3.8516612 C42.015712,3.85022829 41.987268,3.85009067 41.957404,3.85124874 C41.92754,3.8524068 41.898956,3.85500344 41.871652,3.85903947 C41.702992,3.87202914 41.548348,3.92826108 41.407724,4.02773487 C41.267096,4.12720826 41.19098,4.28905242 41.179368,4.51326695 C41.170588,4.68279498 41.197848,4.81036511 41.261152,4.89597733 C41.324456,4.98158956 41.398488,5.04309452 41.483256,5.08049221 C41.509428,5.09833111 41.537092,5.11350739 41.566248,5.12602105 C41.595404,5.1385343 41.623348,5.14824206 41.650088,5.1551439 L41.650088,5.1551439 L42.799532,5.56157418 L42.917328,5.60946286 C43.188032,5.72698077 43.429676,5.88494151 43.642256,6.08334588 C43.885204,6.3100931 43.99294,6.68869622 43.965468,7.21915523 C43.938848,7.73320826 43.814568,8.11869945 43.592632,8.37562922 C43.370696,8.63255859 43.1326,8.8091184 42.878344,8.90530743 C42.696044,8.97241085 42.523268,9.01260069 42.360008,9.02587735 C42.196752,9.03915402 42.071892,9.0434997 41.985428,9.03891399 C41.369356,9.00624165 40.923416,8.85372556 40.647608,8.58136612 C40.3718,8.30900668 40.193328,8.01439101 40.1122,7.69751913 C40.080884,7.56973406 40.060376,7.44252216 40.05068,7.31588342 C40.04098,7.18924469 40.038824,7.07397328 40.044204,6.97006881 L40.044204,6.97006881 L40.044628,6.96186602 L41.001156,7.01259421 L40.999796,7.07375632 C41.000056,7.11520219 41.00266,7.15799109 41.0076,7.20212224 C41.015008,7.26831937 41.02782,7.33480267 41.04604,7.40157296 C41.092716,7.54662376 41.183192,7.68303016 41.317472,7.81079215 C41.451748,7.93855373 41.667496,8.01031613 41.964724,8.02607934 L41.964724,8.02607934 L42.033628,8.02973325 L42.069196,8.02956365 L42.069196,8.02956365 L42.102956,8.02518478 C42.319684,8.02571139 42.51998,7.97738434 42.70384,7.8802032 C42.887696,7.78302247 42.986848,7.59498158 43.001292,7.31608055 C43.01234,7.10280308 42.948664,6.94588383 42.810268,6.84532159 C42.671876,6.74475977 42.490892,6.65564825 42.267316,6.57798745 L42.267316,6.57798745 L42.219528,6.55900223 L42.195636,6.54950941 L42.195636,6.54950941 L42.17174,6.5400166 L41.669124,6.35707671 L41.661712,6.36285286 L41.661712,6.36285286 L41.65654,6.36463469 C41.653836,6.3644914 41.652628,6.36168549 41.652912,6.35621696 C41.274884,6.22649545 40.936952,6.05503097 40.639112,5.84182311 C40.341272,5.62861566 40.209064,5.19936167 40.242484,4.55406112 C40.24758,4.45562558 40.26128,4.34804979 40.28358,4.23133374 C40.305884,4.11461769 40.339204,3.9943732 40.383548,3.87060028 C40.489864,3.59657154 40.678808,3.34885974 40.950384,3.12746448 Z M35.836824,2.86724226 C36.3632,2.80183971 36.776004,2.87882534 37.075232,3.09819955 C37.374456,3.31757377 37.590876,3.57344424 37.724492,3.86581016 C37.7766,3.98071564 37.81914,4.09543048 37.85212,4.20995426 C37.8851,4.32447845 37.907524,4.43065817 37.919392,4.52849423 L37.919392,4.52849423 L36.967704,4.63846671 L36.955664,4.5916863 C36.946716,4.55785549 36.935908,4.51873791 36.923252,4.47433354 C36.904268,4.40772637 36.874372,4.34109532 36.833572,4.2744404 C36.770064,4.15543412 36.664904,4.05263752 36.518092,3.96605019 C36.371284,3.87946327 36.160912,3.85318802 35.88698,3.88722404 C35.860124,3.89056102 35.832092,3.8954236 35.80288,3.90181178 C35.773668,3.90819996 35.745964,3.91578021 35.719768,3.92455252 C35.555896,3.96698239 35.413252,4.0495341 35.291832,4.17220765 C35.170412,4.29488079 35.123224,4.46764177 35.150264,4.69049059 C35.170708,4.85898604 35.219444,4.97982757 35.29648,5.05301558 C35.373512,5.1262032 35.456976,5.17376402 35.546872,5.19569804 C35.575704,5.20866748 35.605552,5.21875207 35.636412,5.22595183 C35.667276,5.23315199 35.696464,5.23780125 35.723976,5.23990002 L35.723976,5.23990002 L36.925704,5.43817284 L37.049928,5.46463469 C37.336688,5.53279903 37.601764,5.6458984 37.84516,5.80393321 C38.123324,5.98454483 38.294396,6.33846428 38.358368,6.86569156 C38.42036,7.37661283 38.364116,7.77808622 38.189644,8.07011172 C38.015168,8.36213722 37.810988,8.57785266 37.5771,8.71725845 C37.409084,8.81537664 37.245828,8.88531714 37.087328,8.92707954 C36.928832,8.96884234 36.806612,8.99506254 36.720672,9.00574054 C36.108356,9.08182109 35.64302,9.0099834 35.324664,8.79022748 C35.006312,8.57047116 34.779996,8.31169277 34.645724,8.01389112 C34.592956,7.89355029 34.550932,7.77187452 34.519648,7.64886379 C34.488368,7.52585307 34.46646,7.41271241 34.453932,7.309441 L34.453932,7.309441 L34.45294,7.301288 L35.403644,7.18316252 L35.4128,7.24363449 C35.420168,7.28440518 35.430072,7.32608662 35.442508,7.36867962 C35.461164,7.43256871 35.485192,7.49579073 35.514592,7.55834527 C35.585452,7.69299008 35.69796,7.81142522 35.85212,7.91365108 C36.00628,8.01587654 36.231068,8.04863671 36.526484,8.01193078 L36.526484,8.01193078 L36.594968,8.00342198 L36.629968,7.99700385 L36.629968,7.99700385 L36.66246,7.98675977 C36.875992,7.94919409 37.064948,7.86640518 37.22934,7.73839263 C37.393728,7.61038049 37.459104,7.40777292 37.425472,7.13057114 C37.399752,6.918593 37.310116,6.77524631 37.156568,6.70053107 C37.00302,6.62581583 36.809492,6.56986116 36.575988,6.53266667 L36.575988,6.53266667 L36.525668,6.52236713 L36.500508,6.51721757 L36.500508,6.51721757 L36.475352,6.5120676 L35.948976,6.42022748 L35.942668,6.42721838 L35.942668,6.42721838 L35.93788,6.42988221 C35.935196,6.43021575 35.933524,6.42766485 35.932864,6.42222951 C35.538316,6.3609067 35.176096,6.25142927 34.846196,6.09379761 C34.516296,5.93616596 34.312432,5.53666545 34.234612,4.89529569 C34.22274,4.79746003 34.217772,4.68911111 34.219708,4.57024894 C34.221644,4.45138717 34.233824,4.32711435 34.256256,4.19743007 C34.313932,3.90888241 34.457496,3.63173204 34.686956,3.36597855 C34.916416,3.10022546 35.299704,2.93397976 35.836824,2.86724226 Z M54.507092,6.8824918 L53.848432,8.31185873 L54.907808,8.81175228 C55.14094,8.92780287 55.34086,8.9571868 55.507576,8.89990407 C55.674288,8.84262133 55.818252,8.68245821 55.939464,8.4194151 C55.955472,8.38467355 55.970828,8.34811253 55.985528,8.30973244 C56.000228,8.27135195 56.01182,8.22999555 56.020308,8.18566201 C56.050672,8.05497673 56.04336,7.91859543 55.998368,7.77651892 C55.953372,7.63444242 55.830336,7.51596033 55.629248,7.42107347 L55.629248,7.42107347 L54.507092,6.8824918 Z M29.538384,5.55409877 L29.52278,5.558627 L29.572996,7.97090913 L30.743424,7.63128678 L29.538384,5.55409877 Z"></path>
                </g>
            </g>
        </g>
    </g>
</svg>