<?xml version="1.0" encoding="UTF-8"?>
<svg width="77px" height="28px" viewBox="0 0 77 28" version="1.1" xmlns="http://www.w3.org/2000/svg" xmlns:xlink="http://www.w3.org/1999/xlink">
    <title>ocs</title>
    <g id="Why-choose-us？" stroke="none" stroke-width="1" fill="none" fill-rule="evenodd">
        <g id="Apple-TV" transform="translate(-1027.000000, -839.000000)" fill="#787878" fill-rule="nonzero">
            <g id="ISO" transform="translate(320.000000, 800.000000)">
                <g id="物流" transform="translate(427.000000, 39.000000)">
                    <path d="M332.281843,8.39113876 L343.867881,15.2212817 L343.867881,28 L332.281843,21.169857 L332.281843,8.39113876 Z M356.817063,8.39113876 L356.817063,13.6327513 C356.42829,13.2475406 355.775956,12.8784246 354.992957,12.6390377 C354.641667,12.5316377 354.29758,12.460593 353.976383,12.4241071 L353.907912,12.416817 L353.810522,12.4051306 C350.264141,12.0055221 347.172033,14.3574017 346.524958,18.0271454 C346.003764,20.9829868 347.366792,23.8248602 349.736213,25.2657714 L349.758427,25.2790308 L345.230944,27.9148085 L345.230944,15.1360903 L356.817063,8.39113876 Z M317.450011,22.4595042 L316.846855,24.7801194 L316.837143,24.8185578 C316.824876,24.8692638 316.815334,24.9177888 316.808519,24.964133 C316.8,25.0220632 316.79574,25.0782895 316.79574,25.1328121 C316.79574,25.3406792 316.865597,25.5016911 317.005311,25.6158476 C317.145025,25.7300042 317.366523,25.7870824 317.669805,25.7870824 C318.027609,25.7870824 318.31726,25.6942237 318.538757,25.5085064 C318.750625,25.3308636 318.89546,25.1056747 318.973263,24.8329398 L318.983457,24.7954539 L319.586612,22.4595042 L320.184656,22.4595042 L319.581501,24.7954539 L319.570279,24.8373466 C319.450612,25.2673755 319.215816,25.6086596 318.865893,25.861199 C318.504681,26.1218849 318.061685,26.2522278 317.536906,26.2522278 C317.097318,26.2522278 316.75996,26.1687402 316.524831,26.0017649 C316.289703,25.8347897 316.172139,25.5877344 316.172139,25.2605992 C316.172139,25.1958537 316.17725,25.1277006 316.187473,25.0561398 C316.195652,24.9988911 316.207101,24.940552 316.221822,24.8811224 L316.233477,24.8363458 L316.846855,22.4595042 L317.450011,22.4595042 Z M302.207555,22.3879434 C302.670997,22.3879434 303.028801,22.4842097 303.280968,22.6767424 C303.525493,22.8634408 303.649859,23.1438638 303.654064,23.5180115 L303.654106,23.5533625 L303.654106,23.6147003 L303.045839,23.6147003 L303.043852,23.583553 C303.02514,23.3370893 302.938907,23.155791 302.785154,23.039658 C302.624994,22.9186861 302.388161,22.8582002 302.074657,22.8582002 C301.631661,22.8582002 301.251707,22.9885431 300.934795,23.249229 C300.617883,23.5099148 300.399793,23.8719785 300.280525,24.33542 C300.256671,24.4206115 300.239633,24.5040991 300.22941,24.5858829 C300.219187,24.6676667 300.214075,24.7460429 300.214075,24.8210113 C300.214075,25.1242929 300.308638,25.3611252 300.497763,25.5315081 C300.686888,25.701891 300.956945,25.7870824 301.307934,25.7870824 C301.526024,25.7870824 301.733039,25.7504501 301.928979,25.6771855 C302.12492,25.6039208 302.301266,25.4974315 302.458018,25.3577175 C302.469377,25.3486304 302.480357,25.3391647 302.490959,25.3293203 L302.506577,25.3142699 L302.550025,25.2708222 L302.57828,25.2400113 C302.624189,25.1884232 302.664182,25.1356517 302.698258,25.0816972 C302.73915,25.0169517 302.780042,24.9402794 302.820934,24.8516803 C302.834565,24.8176037 302.848195,24.7801194 302.861826,24.7392275 C302.870913,24.7119663 302.880757,24.6839477 302.891359,24.6551719 L302.907829,24.6114404 L301.573731,24.6114404 L301.681072,24.1871869 L303.551877,24.1871869 L303.040728,26.1653325 L302.657366,26.1653325 L302.642032,25.7104101 L302.593064,25.7486441 C302.527909,25.7988048 302.4633,25.8456942 302.399236,25.8893122 C302.319156,25.9438347 302.239928,25.9898381 302.161552,26.0273223 C302.0048,26.1091061 301.84464,26.1670363 301.681072,26.2011129 C301.517505,26.2351895 301.336899,26.2522278 301.139255,26.2522278 C300.645144,26.2522278 300.261783,26.1329597 299.98917,25.8944237 C299.716557,25.6558876 299.580251,25.3287524 299.580251,24.9130181 C299.580251,24.824419 299.587066,24.7332641 299.600697,24.6395535 C299.614328,24.5458429 299.63307,24.4495766 299.656923,24.3507545 C299.813676,23.7510067 300.122069,23.2739345 300.582102,22.9195381 C301.042136,22.5651416 301.583954,22.3879434 302.207555,22.3879434 Z M313.115469,22.3879434 C313.643656,22.3879434 314.050872,22.5072114 314.337115,22.7457475 C314.623358,22.9842836 314.76648,23.3148264 314.76648,23.737376 C314.76648,23.8225675 314.760516,23.9103147 314.74859,24.0006176 C314.736663,24.0909206 314.717069,24.1854831 314.689807,24.2843052 C314.543278,24.8431611 314.240848,25.3108622 313.782518,25.6874084 C313.324188,26.0639547 312.755961,26.2522278 312.077837,26.2522278 C311.553058,26.2522278 311.149251,26.1346636 310.866415,25.8995352 C310.583579,25.6644067 310.442162,25.3372716 310.442162,24.9181296 C310.442162,24.8295305 310.448977,24.7392275 310.462607,24.6472208 C310.476238,24.555214 310.49498,24.4597996 310.518834,24.3609775 C310.675586,23.7510067 310.986535,23.2696749 311.45168,22.9169823 C311.916826,22.5642897 312.471422,22.3879434 313.115469,22.3879434 Z M306.046282,22.4595042 L307.865054,22.4595766 C308.154724,22.4606395 308.368009,22.4733941 308.504908,22.4978404 C308.648029,22.5233978 308.770705,22.5753646 308.872935,22.6537407 C308.961534,22.7184862 309.028835,22.7977143 309.074839,22.8914249 C309.120842,22.9851355 309.14214,23.089921 309.138732,23.2057813 C309.138732,23.2500809 309.136176,23.2952324 309.131065,23.3412358 C309.125954,23.3872391 309.116582,23.4340944 309.102952,23.4818017 C309.048429,23.6964841 308.954719,23.8719785 308.82182,24.0082849 C308.688921,24.1445912 308.506612,24.2536362 308.274891,24.33542 C308.411197,24.3797196 308.509167,24.4342421 308.568801,24.4989876 C308.628435,24.5637331 308.658252,24.6557399 308.658252,24.7750079 C308.658252,24.8295305 308.652289,24.8900164 308.640362,24.9564657 C308.630139,25.0134223 308.616787,25.0772637 308.600305,25.14799 L308.591803,25.1839269 L308.47935,25.6081804 L308.469695,25.6521959 C308.463637,25.6813504 308.458336,25.7101261 308.453793,25.7385233 C308.446978,25.781119 308.44357,25.8228628 308.44357,25.8637547 C308.44357,25.9182773 308.450385,25.9727998 308.464016,26.0273223 C308.47492,26.0709404 308.490187,26.1134679 308.509815,26.1549051 L308.525354,26.1857784 L307.819969,26.1857784 L307.817732,26.1607002 C307.816454,26.1443009 307.815602,26.1285404 307.815176,26.113419 L307.814857,26.0912159 L307.814857,26.0119879 L307.815017,25.9819579 C307.815336,25.9525668 307.816135,25.9250926 307.817413,25.8995352 C307.818549,25.8768174 307.82082,25.8540997 307.824228,25.831382 L307.830191,25.7973054 L307.840414,25.7257446 C307.842686,25.7098422 307.845715,25.6939397 307.849502,25.6780374 L307.855749,25.6541838 L307.978425,25.1839269 L307.985613,25.1538969 C307.992321,25.1245059 307.997593,25.0970316 308.001426,25.0714742 C308.006538,25.0373976 308.009094,25.0050249 308.009094,24.974356 C308.009094,24.803973 307.936681,24.6991876 307.791855,24.6599995 C307.656685,24.6234239 307.486635,24.603917 307.281706,24.6014786 L307.237259,24.6012174 L306.092286,24.6012174 L305.678255,26.1857784 L305.080211,26.1857784 L306.046282,22.4595042 Z M323.818924,22.4595042 L323.863044,22.4596246 C324.124537,22.4610687 324.32792,22.4755112 324.473194,22.5029518 C324.626539,22.5319169 324.752622,22.5855876 324.851444,22.6639637 C324.943451,22.7321169 325.013308,22.8164564 325.061015,22.9169823 C325.108722,23.0175082 325.132576,23.129109 325.132576,23.2517847 C325.132576,23.2926766 325.13002,23.3352724 325.124909,23.3795719 C325.119797,23.4238715 325.110426,23.4698749 325.096796,23.5175821 C325.03205,23.7697488 324.910226,23.986987 324.731324,24.1692967 C324.552422,24.3516064 324.335184,24.4785417 324.07961,24.5501025 C323.994418,24.5739561 323.888781,24.5918463 323.762697,24.6037731 C323.652375,24.6142091 323.530311,24.6200793 323.396507,24.6213838 L323.338444,24.6216633 L322.213917,24.6216633 L321.804998,26.1857784 L321.206954,26.1857784 L322.173025,22.4595042 L323.818924,22.4595042 Z M283.051405,22.2601562 L283.562554,25.9302041 L282.729381,25.9302041 L282.652709,25.173704 L281.298165,25.173704 L280.884134,25.9302041 L280.076519,25.9302041 L282.167118,22.2601562 L283.051405,22.2601562 Z M287.651743,22.2601562 L288.561588,24.8158998 L288.571811,24.8158998 L289.11874,22.2601562 L289.834349,22.2601562 L289.052291,25.9302041 L288.285568,25.9302041 L287.345054,23.3131226 L287.334831,23.3131226 L286.777679,25.9302041 L286.062071,25.9302041 L286.844128,22.2601562 L287.651743,22.2601562 Z M294.521582,22.2601562 L295.032731,25.9302041 L294.199559,25.9302041 L294.122886,25.173704 L292.768342,25.173704 L292.354312,25.9302041 L291.546697,25.9302041 L293.637295,22.2601562 L294.521582,22.2601562 Z M312.987682,22.8582002 C312.524241,22.8582002 312.130656,22.9885431 311.806929,23.249229 C311.483201,23.5099148 311.259999,23.8753862 311.137324,24.345643 C311.116878,24.4274268 311.101543,24.5058029 311.09132,24.5807714 C311.081097,24.6557399 311.075986,24.7273007 311.075986,24.7954539 C311.075986,25.1055508 311.17566,25.3483464 311.375008,25.5238408 C311.574356,25.6993352 311.859747,25.7870824 312.231182,25.7870824 C312.687808,25.7870824 313.077985,25.6558876 313.401713,25.3934979 C313.72544,25.1311082 313.948642,24.7630811 314.071317,24.2894167 C314.091763,24.2076329 314.107098,24.1275529 314.117321,24.0491768 C314.127544,23.9708006 314.132655,23.897536 314.132655,23.8293828 C314.132655,23.5226936 314.033833,23.2841575 313.836189,23.1137746 C313.638545,22.9433917 313.355709,22.8582002 312.987682,22.8582002 Z M350.108689,23.561965 C350.135284,23.561965 350.162221,23.5622626 350.189446,23.5630304 C350.207035,24.0952317 350.27405,24.5526879 350.390999,24.9109261 L349.988709,25.145058 C349.31147,24.7705718 348.911443,24.3274697 349.014402,23.9907049 C349.097478,23.7189759 349.490754,23.5729716 350.04451,23.5625636 L350.077927,23.5621019 L350.108689,23.561965 Z M350.428678,23.5752459 C350.430948,23.5754272 350.43322,23.5756105 350.435399,23.5757793 C350.60372,23.6349481 350.776043,23.6924843 350.952001,23.7481234 C351.276639,23.8507759 351.599233,23.9424118 351.916546,24.0229226 L350.617656,24.7789319 C350.5177,24.4869992 350.456391,24.1136744 350.433183,23.6766176 L350.430371,23.6192501 L350.428678,23.5752459 Z M293.897981,23.0882171 L293.887758,23.0882171 L293.110812,24.5398795 L294.046214,24.5398795 L293.897981,23.0882171 Z M282.427803,23.0882171 L282.41758,23.0882171 L281.640634,24.5398795 L282.576037,24.5398795 L282.427803,23.0882171 Z M347.958973,22.4183348 C348.482767,22.7520296 349.149789,23.0839042 349.918829,23.384242 C349.343299,23.428431 348.930852,23.6214945 348.831565,23.9462479 C348.793113,24.0720196 348.804646,24.2076817 348.859496,24.3475317 L348.870286,24.3738013 L348.878167,24.3919921 C348.66278,24.1943493 348.460528,23.98338 348.272444,23.7604846 C348.277039,23.7630178 348.281671,23.7655542 348.286341,23.7680938 C348.118214,23.4502885 348.011278,23.0275465 347.965533,22.4998678 L347.960866,22.4429293 L347.958973,22.4183348 Z M323.691137,22.929761 L322.648393,22.929761 L322.331481,24.1514065 L323.266883,24.1514065 C323.539496,24.1514065 323.789959,24.1215895 324.018272,24.0619555 C324.246585,24.0023214 324.398226,23.827679 324.473194,23.538028 C324.480009,23.5039514 324.485973,23.4715787 324.491084,23.4409098 C324.496196,23.4102408 324.498752,23.3829796 324.498752,23.359126 C324.495344,23.1785201 324.41356,23.0618078 324.2534,23.0089891 C324.09324,22.9561704 323.905819,22.929761 323.691137,22.929761 Z M307.68707,22.929761 L306.521651,22.929761 L306.20985,24.1309605 L307.329266,24.1309605 C307.591655,24.1309605 307.830191,24.0994397 308.044874,24.036398 C308.259556,23.9733564 308.402678,23.8038254 308.474239,23.527805 C308.481054,23.4937285 308.487018,23.4613557 308.492129,23.4306868 C308.497241,23.4000179 308.499796,23.3710528 308.499796,23.3437915 C308.499796,23.1631856 308.418864,23.0490291 308.257001,23.0013219 C308.095137,22.9536146 307.90516,22.929761 307.68707,22.929761 Z M350.69448,20.6952391 C350.717997,20.7000248 350.741576,20.7048781 350.765179,20.7099301 C351.173711,20.8747108 351.600016,21.0291087 352.037564,21.1697809 C352.664072,21.3712036 353.266722,21.5294048 353.834188,21.6443822 C353.938558,21.6869526 354.040693,21.7299483 354.140371,21.7733112 C353.949128,22.2423925 353.749324,22.6784006 353.545712,23.0744455 L352.292138,23.8042542 C352.220252,23.7865111 352.147986,23.7681931 352.075386,23.7493025 C351.95213,23.7024318 351.824578,23.6586697 351.693356,23.6185512 C351.499848,23.5593897 351.308524,23.5112597 351.121969,23.4739243 C350.881558,23.3975154 350.648079,23.3179948 350.422594,23.2361049 C350.424405,22.5307555 350.509423,21.6980284 350.675871,20.7953155 L350.692787,20.7048131 L350.69448,20.6952391 Z M350.460332,20.6495748 C350.286847,21.5619674 350.194891,22.4124482 350.185587,23.1479791 C349.260257,22.7961082 348.484645,22.4065269 347.941537,22.0338325 C347.932942,21.5998382 347.957885,21.1083294 348.016366,20.5593059 L348.025878,20.47214 L348.067656,20.467703 C348.669999,20.4078019 349.508451,20.4708665 350.460332,20.6495748 Z M347.077189,21.7181502 C347.237577,21.8896505 347.447035,22.0666049 347.699251,22.2445762 C347.719676,22.6862369 347.774863,22.9765944 347.810831,23.147817 C347.534996,22.7360425 347.302967,22.2941794 347.120035,21.8298546 L347.088263,21.7476833 L347.077189,21.7181502 Z M333.500011,12.7870648 C333.398666,12.8688192 333.389332,12.9293332 333.389332,13.0998059 C333.389332,13.2702785 333.65128,14.011105 334.194687,14.6627349 C334.556959,15.0971549 334.848427,15.4450791 335.069092,15.7065074 C335.267777,16.1102782 335.36712,16.3686008 335.36712,16.4814754 C335.36712,16.59435 335.198138,16.4592196 334.860174,16.0760844 C334.689889,16.1178332 334.554742,16.1958356 334.454731,16.3100915 C334.35472,16.4243474 334.329218,16.5725012 334.378226,16.7545528 L334.860174,17.279317 C334.999452,17.3179573 335.069092,17.3179573 335.069092,17.279317 C335.069092,17.2406769 335.117016,17.282388 335.212865,17.4044503 L335.308329,17.4044503 L335.634708,19.690693 L335.878283,20.3395193 L336.464252,18.1611734 L336.644334,18.1611734 C336.644334,18.1611734 337.160666,18.7161714 338.19333,19.8261673 C338.372208,20.0084661 338.653829,20.2602128 339.038194,20.5814075 L339.109211,20.6405717 C339.397806,20.8802899 339.740745,21.1567409 340.138028,21.4699246 C340.171406,21.5205725 340.355234,21.9443043 340.689514,22.7411198 L341.075855,23.1117632 L340.757159,21.8762354 L340.950083,21.9574805 L341.075855,21.7282925 L340.757159,21.1630335 C341.634542,20.6205386 342.287721,20.2395248 342.716693,20.019992 C342.716693,20.019992 342.71699,20.0190329 342.717373,20.0171251 L342.717989,20.0135529 C342.722912,19.9800171 342.725483,19.8161974 342.386715,19.5387703 C342.386715,19.5387703 341.51221,19.5894111 339.763199,19.690693 L337.983616,17.4044503 L339.905154,17.279317 L339.64805,17.0621834 L337.327732,16.3953696 C337.241231,16.3660963 336.978031,16.0897324 336.538132,15.566278 C336.299853,15.2827401 335.993752,14.8993373 335.680436,14.5132701 L335.594853,14.4079861 C335.552017,14.355384 335.50915,14.3028968 335.466404,14.2507708 L335.407312,14.1788514 C334.945266,13.6176707 334.505912,13.1123686 334.285334,12.9774248 C334.285334,12.9774248 334.060626,12.7870648 333.777015,12.7870648 C333.493404,12.7870648 333.601356,12.7053105 333.500011,12.7870648 Z M354.321905,21.8536343 C354.578678,21.9695889 354.818176,22.0875183 355.037859,22.2057497 L353.849804,22.8974621 C353.993977,22.6061999 354.135301,22.2971647 354.272248,21.9724478 L354.317733,21.8636309 L354.321905,21.8536343 Z M354.866685,21.810872 C355.12765,21.8412427 355.377916,21.8606797 355.61605,21.8691865 L355.306873,22.0490952 C355.167813,21.969113 355.020891,21.8895668 354.866685,21.810872 Z M347.786471,20.5080971 C347.718722,21.0403071 347.693085,21.4841222 347.691321,21.8502951 C347.20194,21.4644832 346.986672,21.1074752 347.142776,20.843347 C347.233877,20.689205 347.44313,20.5807848 347.74461,20.5165113 L347.777263,20.5097937 L347.786471,20.5080971 Z M355.44752,18.2207031 C355.978438,18.4919215 356.441118,18.7770406 356.817065,19.0621996 L356.816982,21.169857 L356.299055,21.4715136 C355.788921,21.5070102 355.180493,21.4766422 354.509399,21.382697 C354.648928,21.0186595 354.782496,20.6382943 354.90827,20.2441131 C355.110349,19.610785 355.278735,18.9843208 355.413139,18.3790523 L355.441419,18.2496815 L355.44752,18.2207031 Z M351.785098,16.9174226 C351.823399,16.9260643 351.861806,16.9348825 351.900306,16.9439202 C352.247955,17.0833195 352.612866,17.2145312 352.989919,17.3343568 C353.55894,17.5151884 354.106635,17.685589 354.621031,17.8340565 C354.840879,17.9282858 355.052601,18.0253554 355.255169,18.1245511 C355.11963,18.7680526 354.944872,19.4405281 354.731494,20.1226841 C354.597734,20.5503069 354.455126,20.9615005 354.30612,21.3526434 C354.02881,21.3093696 353.741765,21.2556626 353.447412,21.191637 C353.18512,21.0936009 352.911932,20.999361 352.629371,20.9100136 C352.099307,20.742404 351.574692,20.6041646 351.06954,20.4957819 C350.964196,20.457009 350.86024,20.4176081 350.757698,20.3776329 C350.895019,19.7150789 351.074184,19.0209542 351.294535,18.3165057 C351.430782,17.8809342 351.576208,17.4624083 351.728227,17.0646731 L351.774027,16.9459799 L351.785098,16.9174226 Z M294.729874,2.32245881 C296.472982,2.511973 297.266067,3.45825339 297.10913,5.16130001 C294.795852,14.9227367 293.639213,19.803455 293.639213,19.803455 C293.313451,20.5501298 292.676014,20.9897568 291.726901,21.1223358 L291.681469,21.128417 L282.205103,21.128417 C280.614208,20.8490861 279.884139,19.892746 280.014896,18.2593966 L280.019122,18.209694 L283.383131,4.10708072 C283.578308,3.49351476 283.813754,3.05981606 284.08947,2.80598464 C284.355679,2.56090603 284.709988,2.40220366 285.152397,2.32987752 L285.200135,2.32245881 L294.729874,2.32245881 Z M311.159904,2.32245881 C312.716417,2.58953996 313.383802,3.5525567 313.162059,5.21150899 L313.155067,5.26199329 L312.140131,9.4721017 L306.649651,9.4721017 C307.116054,7.64830992 307.349255,6.73641401 307.349255,6.73641401 C307.349255,6.37415064 307.179553,6.15377912 306.840147,6.07529946 L306.815616,6.0699351 L304.253644,6.0699351 C303.912264,6.0699351 303.693276,6.29209473 303.596683,6.73641401 C302.007632,13.3014163 301.213107,16.5839174 301.213107,16.5839174 C301.213107,17.0261867 301.364048,17.2769337 301.66593,17.3361586 L301.686279,17.3398232 L304.396986,17.3398232 C304.672045,17.3398232 304.83998,17.1691355 304.90079,16.8277603 L304.905256,16.801164 L305.688947,13.5284858 L311.159904,13.5284858 C310.182794,17.5391362 309.694238,19.5444615 309.694238,19.5444615 C309.294173,20.556419 308.586512,21.0839217 307.571255,21.1269694 L307.53102,21.128417 L298.291791,21.128417 C296.637703,20.8299049 295.892253,19.9131506 296.055443,18.3781543 L296.060666,18.33145 L299.416497,3.99467274 C299.508751,3.57360632 299.728575,3.1896374 300.075969,2.84276597 C300.413146,2.50609663 300.78014,2.33281094 301.176951,2.32290891 L301.213107,2.32245881 L311.159904,2.32245881 Z M326.379925,2.32245881 C328.039063,2.39785024 328.834448,3.23047981 328.766081,4.82034754 L328.763745,4.86875713 L327.678301,9.45818661 L322.585446,9.45818661 C323.024057,7.6866452 323.243363,6.8008745 323.243363,6.8008745 C323.243363,6.37424001 323.091561,6.14094556 322.787958,6.10099115 L322.767492,6.09861395 L320.073354,6.09861395 C319.851381,6.09861395 319.699425,6.19607047 319.617487,6.3909835 C319.308864,7.76435603 319.154553,8.45104229 319.154553,8.45104229 C318.996495,8.87367722 319.150807,9.27220055 319.617487,9.64661239 C322.948904,11.1349729 324.614612,11.8791531 324.614612,11.8791531 C326.082594,12.4516804 326.671032,13.4561514 326.379925,14.8925658 C325.933527,17.0009207 325.57481,18.5401214 325.303775,19.510168 C325.036215,20.4677781 324.363479,21.005729 323.285565,21.1240205 L323.243363,21.128417 L314.09491,21.128417 C312.116146,20.9039684 311.30565,19.882782 311.663421,18.0648577 L311.67462,18.0095253 L312.763654,13.5334666 L317.899363,13.5334666 C317.511748,15.0633301 317.259009,16.0477473 317.141147,16.4867181 C317.025551,16.9172471 317.166044,17.1941862 317.562625,17.317535 L317.586249,17.3246138 L320.073354,17.3246138 C320.498683,17.3246138 320.740413,17.2285615 320.798545,17.036457 C320.964535,16.397674 321.125709,15.7486031 321.282068,15.0892443 C321.438426,14.4298856 321.277252,14.0036895 320.798545,13.8106561 C317.917278,12.5275681 316.003399,11.6577036 315.05691,11.2010623 C314.121426,10.7497308 313.722076,9.92818898 313.858857,8.73643677 L313.863907,8.69422125 L314.802973,4.0404001 C315.040655,3.57713225 315.31341,3.19803981 315.621236,2.90312276 C315.918068,2.61873846 316.281114,2.42860568 316.710373,2.33272442 L316.758341,2.32245881 L326.379925,2.32245881 Z M346.784805,17.8721182 C346.940834,18.3056724 347.374426,18.7742037 348.001407,19.2347761 C347.925404,19.6032829 347.866382,19.9421328 347.821291,20.2532032 C347.309131,20.3281653 346.944778,20.4851514 346.789523,20.7258992 L346.788567,20.7273366 L346.773623,20.6547351 C346.61278,19.8527389 346.591651,19.0082336 346.732624,18.1534895 L346.745888,18.0757582 L346.756036,18.0194342 L346.756036,18.0194342 L346.766579,17.9633296 L346.784805,17.8721182 Z M351.559495,16.8683047 C351.392882,17.2898215 351.234075,17.7345653 351.086064,18.1984427 C350.858891,18.9104174 350.674297,19.6137177 350.532657,20.2879531 C349.618994,19.9161861 348.833274,19.5002643 348.241751,19.0823042 C348.421861,18.2421084 348.703831,17.3529153 348.923979,16.6937538 L348.93897,16.649133 L348.93897,16.649133 L348.954056,16.6047634 L349.002096,16.6030844 C349.726137,16.579964 350.606125,16.6682398 351.559495,16.8683047 Z M348.184663,19.365185 C348.639516,19.6798148 349.181677,19.9887064 349.784002,20.2778923 C349.128961,20.1988342 348.539021,20.1810155 348.055143,20.22567 C348.077673,20.0462093 348.103506,19.8610842 348.132642,19.6702947 C348.140409,19.6194352 348.148743,19.5681104 348.157604,19.5163918 L348.171283,19.4385273 L348.184663,19.365185 Z M348.700929,16.6198877 C348.657703,16.7468802 348.61672,16.8742182 348.577962,17.0017636 C348.358422,17.7242396 348.190049,18.371707 348.062091,18.9505522 C347.298329,18.3699797 346.922591,17.7937531 347.112444,17.3343568 C347.277727,16.934416 347.839733,16.6974417 348.651325,16.6241178 L348.693526,16.6204711 L348.700929,16.6198877 Z M356.39429,18.2704062 C356.541674,18.2971433 356.682792,18.3191792 356.817087,18.3359827 L356.817087,18.5537363 C356.68364,18.4583562 356.542542,18.3637767 356.39429,18.2704062 Z M355.809561,15.1595063 C356.171636,15.3062389 356.512638,15.4617875 356.817093,15.6265012 L356.817068,18.0941496 C356.470538,18.0415586 356.068374,17.9494243 355.62533,17.8307112 C355.595624,17.8152568 355.565724,17.7998594 355.535618,17.7844681 C355.708669,16.8720734 355.800119,16.0218084 355.808888,15.2867729 L355.8095,15.2111479 L355.809561,15.1595063 Z M353.098192,14.3027879 C353.441918,14.5110296 353.858438,14.6974488 354.320452,14.8387005 C354.769303,14.9759279 355.206395,15.0538027 355.599048,15.0760632 L355.600923,15.0767904 L355.600923,15.0767904 L355.602797,15.0775177 L355.60312,15.1022647 C355.60971,15.8397855 355.521954,16.7247125 355.341914,17.6878948 C354.757818,17.4027915 354.107254,17.140482 353.40809,16.9157002 C352.912534,16.7563787 352.421912,16.6253454 351.944943,16.5221762 C352.296884,15.679132 352.675683,14.9484692 353.052535,14.3718878 L353.088997,14.316572 L353.098192,14.3027879 Z M291.128988,6.09585157 L288.511001,6.09585157 C288.298269,6.11190548 288.154713,6.17424798 288.080333,6.28287907 C288.005953,6.39151016 287.944095,6.55467444 287.894759,6.77237191 L285.524585,16.6225236 C285.419923,17.1274065 285.58222,17.3798478 286.011475,17.3798478 L288.564287,17.3798478 C288.958453,17.36393 289.177905,17.1842717 289.222644,16.840873 C289.229319,16.8154145 289.238494,16.7794012 289.25017,16.7328332 L289.262679,16.682747 C289.467272,15.8608127 290.25977,12.5573543 291.640172,6.77237191 C291.720325,6.32135835 291.54993,6.09585157 291.128988,6.09585157 Z M348.582676,14.4408708 C348.592779,14.7276423 348.813332,15.0577909 349.193181,15.3992442 C349.060195,15.6821173 348.939309,15.9691715 348.830275,16.2587061 C348.057196,16.3236353 347.445348,16.5132073 347.081517,16.8232576 C347.401923,15.9499264 347.879325,15.1840046 348.47625,14.5510148 L348.524911,14.4999831 L348.582676,14.4408708 Z M350.389632,13.8089197 C351.067968,13.8444703 351.912354,13.9860738 352.813668,14.2057148 L352.89576,14.2258964 L352.888891,14.2362698 C352.487303,14.8424219 352.087752,15.6023175 351.71987,16.4753881 C351.604834,16.4524166 351.490688,16.4310944 351.377571,16.4114771 C350.597767,16.0569691 349.941871,15.6672489 349.489259,15.2975459 C349.753425,14.7538153 350.040698,14.2839569 350.340399,13.8754505 L350.383296,13.8175085 L350.389632,13.8089197 Z M349.370577,15.5504214 C349.675687,15.7972491 350.058818,16.0475068 350.501156,16.2894065 C349.994042,16.2371951 349.517286,16.2216437 349.084289,16.2420998 C349.159865,16.0414986 349.238394,15.8491512 349.319529,15.6646475 L349.360312,15.5730475 L349.370577,15.5504214 Z M356.81701,14.8973151 L356.817132,15.3042941 C356.660935,15.2138656 356.495207,15.1283003 356.321439,15.0465921 C356.513238,15.0158827 356.680824,14.9658495 356.81701,14.8973151 Z M350.132332,13.7735841 L350.097166,13.8240568 C349.803763,14.2480147 349.543441,14.6915457 349.315201,15.1474455 C348.915585,14.780803 348.734213,14.4423868 348.852721,14.1891788 L348.857783,14.1788398 L348.927369,14.1175433 C348.974234,14.0767659 349.02167,14.0367064 349.069663,13.9973743 L349.142067,13.9389229 L349.163834,13.9298518 C349.380587,13.8413733 349.690172,13.8002329 350.067969,13.8001098 L350.113631,13.8002915 L350.132332,13.7735841 Z M355.304302,12.9565965 C355.440552,13.0069663 355.571447,13.0606994 355.69593,13.1170432 C356.09038,13.3293708 356.452647,13.5856716 356.780262,13.8383816 L356.816982,13.8669047 L356.817061,14.7113403 C356.629147,14.8213248 356.34055,14.8797863 355.988842,14.8842341 L355.955456,14.8844934 C355.905093,14.8634354 355.854204,14.8426142 355.802783,14.8220197 C355.769544,13.9949132 355.614404,13.3542712 355.335438,12.9947497 L355.318204,12.9730903 L355.304302,12.9565965 Z M354.951342,13.0228853 C355.329241,13.2214776 355.541067,13.8449442 355.59155,14.7394894 C355.186206,14.5851271 354.753971,14.4419168 354.30877,14.3004343 C354.011413,14.205936 353.71645,14.1204163 353.426347,14.0441657 L353.302321,14.0120552 L353.326919,13.9788963 C353.932573,13.1710614 354.51476,12.7934546 354.951342,13.0228853 Z M338.185558,3.7593729 L350.061352,11.0006466 L344.541733,14.1654705 L332.477731,7.08915588 L338.185558,3.7593729 Z M354.482094,12.7127542 C354.054907,12.8415028 353.570314,13.2807159 353.081651,13.9573585 C353.016,13.9415542 352.950658,13.926245 352.885617,13.9114694 C352.459981,13.6020778 352.233591,13.274204 352.314002,13.0111914 C352.446932,12.5763972 353.374077,12.4634994 354.482094,12.7127542 Z M352.480418,12.5886256 C352.301557,12.6822646 352.179403,12.8089577 352.131166,12.9667344 C352.051634,13.2268709 352.185937,13.5293178 352.47509,13.8235998 C351.772818,13.6833162 351.11981,13.6050758 350.556726,13.5935691 C350.784441,13.3099027 351.017664,13.0587674 351.251904,12.8348839 C351.587372,12.7333701 351.934312,12.6582239 352.290337,12.6110704 L352.379531,12.5998661 L352.480418,12.5886256 Z M350.748573,13.0105515 C350.548763,13.2378667 350.387069,13.4323578 350.263548,13.5939611 C349.979718,13.6007192 349.723755,13.6269024 349.501817,13.6731393 C349.847845,13.4360127 350.217533,13.2334891 350.606568,13.0685061 L350.684632,13.0360109 L350.748573,13.0105515 Z M344.607834,0 L356.824393,7.07089078 L350.860991,10.4858652 L339.070389,3.24459153 L344.607834,0 Z" id="ocs"></path>
                </g>
            </g>
        </g>
    </g>
</svg>