<?xml version="1.0" encoding="UTF-8"?>
<svg width="79px" height="44px" viewBox="0 0 79 44" version="1.1" xmlns="http://www.w3.org/2000/svg" xmlns:xlink="http://www.w3.org/1999/xlink">
    <title>Combined Shape</title>
    <g id="Why-choose-us？" stroke="none" stroke-width="1" fill="none" fill-rule="evenodd">
        <g id="Apple-TV" transform="translate(-1277.000000, -2765.000000)" fill="#313131">
            <g id="优势" transform="translate(0.000000, 2229.000000)">
                <path d="M1325,536 L1325,540 L1355.4,540 L1355.4,572.5 L1341.65,572.5 C1341.65,575.96072 1342.84016,577.18752 1343.23872,577.5 L1343.23872,577.5 L1347.8,577.5 L1347.8,580 L1277,580 L1277,536 L1325,536 Z M1329.15,572.5 L1325,572.5 L1325,577.5 L1327.54848,577.5 C1327.96528,577.173648 1329.07752,576.009273 1329.14663,572.815455 L1329.15,572.5 Z M1339.15,572.5 L1331.65,572.5 C1331.65,574.78336 1331.20904,576.38248 1330.64904,577.5 L1330.64904,577.5 L1340.15104,577.5 C1339.59128,576.38248 1339.15,574.78336 1339.15,572.5 L1339.15,572.5 Z M1352.9,542.49984 L1325,542.499 L1325,562.5 L1332.89984,562.5 C1333.54705,562.5 1334.07937,562.991875 1334.14339,563.622195 L1334.14984,563.75 C1334.14984,564.440356 1333.5902,565 1332.89984,565 L1332.89984,565 L1325,565 L1325,570 L1352.9,570 L1352.901,543.148496 C1352.90389,542.773274 1352.91135,542.49984 1352.9,542.49984 L1352.9,542.49984 Z M1336.65,566.24984 L1336.65,568.74984 L1334.15,568.74984 L1334.15,566.24984 L1336.65,566.24984 Z M1335.76642,551.616566 C1336.07091,551.311988 1336.51071,551.185525 1336.93048,551.28184 L1336.93048,551.28184 L1347.93048,553.8208 C1348.37314,553.923221 1348.72543,554.257655 1348.85071,554.694392 C1348.976,555.131129 1348.85457,555.601458 1348.53352,555.92296 L1348.53352,555.92296 L1346.87952,557.57696 L1351.284,561.98152 C1351.51852,562.215823 1351.65028,562.533734 1351.65028,562.86524 C1351.65028,563.196746 1351.51852,563.514657 1351.284,563.74896 L1351.284,563.74896 L1347.89896,567.134 C1347.66465,567.368497 1347.34674,567.500251 1347.01524,567.500251 C1346.68374,567.500251 1346.36583,567.368497 1346.13152,567.134 L1346.13152,567.134 L1341.72712,562.72976 L1340.07184,564.38376 C1339.75037,564.704826 1339.28005,564.826269 1338.84333,564.700978 C1338.40661,564.575687 1338.0722,564.223378 1337.96984,563.78072 L1337.96984,563.78072 L1335.432,552.78072 C1335.33557,552.360973 1335.46192,551.921144 1335.76642,551.616566 Z M1338.31712,554.1676 L1339.89912,561.02184 L1340.84272,560.07824 C1341.07706,559.843572 1341.39508,559.711708 1341.72672,559.711708 C1342.05836,559.711708 1342.37638,559.843572 1342.61072,560.07824 L1342.61072,560.07824 L1347.01504,564.48248 L1348.6316,562.86544 L1344.22736,558.4612 C1343.99275,558.226833 1343.86093,557.908817 1343.86093,557.5772 C1343.86093,557.245583 1343.99275,556.927567 1344.22736,556.6932 L1344.22736,556.6932 L1345.17136,555.7496 L1338.31712,554.1676 Z M1340.56848,546.25 C1341.99536,546.25 1343.35641,546.850249 1344.31848,547.904 C1344.76329,548.392712 1345.10645,548.965014 1345.328,549.5876 C1345.47758,550.008459 1345.39127,550.477148 1345.10159,550.817118 C1344.8119,551.157087 1344.36285,551.316687 1343.92359,551.235798 C1343.48432,551.154909 1343.12158,550.845819 1342.972,550.42496 C1342.86131,550.114032 1342.68948,549.828416 1342.46664,549.58496 C1341.97938,549.05225 1341.29042,548.749194 1340.56848,548.75 L1340.56848,548.75 L1330.4464,548.75 C1329.04264,548.75 1327.9,549.87184 1327.9,551.25 C1327.9,552.62816 1329.04264,553.75 1330.4464,553.75 L1330.4464,553.75 L1331.71096,553.75 C1332.40132,553.75 1332.96096,554.309644 1332.96096,555 C1332.96096,555.690356 1332.40132,556.25 1331.71096,556.25 L1331.71096,556.25 L1330.4464,556.25 C1327.6644,556.25 1325.4,554.0076 1325.4,551.25 C1325.4,548.4924 1327.6644,546.25 1330.4464,546.25 L1330.4464,546.25 Z M1280.90469,558.16875 C1280.90469,557.046869 1281.21718,556.173441 1281.84219,555.548437 C1282.46719,554.923434 1283.33749,554.610937 1284.45312,554.610937 C1285.59688,554.610937 1286.47812,554.917966 1287.09687,555.532031 C1287.71563,556.146097 1288.025,557.006244 1288.025,558.1125 C1288.025,558.915629 1287.88985,559.574216 1287.61953,560.088281 C1287.34922,560.602346 1286.9586,561.002342 1286.44766,561.288281 C1285.93672,561.57422 1285.3,561.717188 1284.5375,561.717188 C1283.7625,561.717188 1283.1211,561.593751 1282.61328,561.346875 C1282.10547,561.099999 1281.69375,560.709378 1281.37812,560.175 C1281.0625,559.640622 1280.90469,558.971879 1280.90469,558.16875 Z M1283.02813,558.178125 C1283.02813,558.871878 1283.15703,559.370311 1283.41484,559.673437 C1283.67266,559.976564 1284.02344,560.128125 1284.46719,560.128125 C1284.92344,560.128125 1285.27656,559.979689 1285.52656,559.682812 C1285.77656,559.385936 1285.90156,558.853129 1285.90156,558.084375 C1285.90156,557.437497 1285.7711,556.964845 1285.51016,556.666406 C1285.24922,556.367967 1284.89531,556.21875 1284.44844,556.21875 C1284.02031,556.21875 1283.67656,556.370311 1283.41719,556.673437 C1283.15781,556.976564 1283.02813,557.478122 1283.02813,558.178125 Z M1289.18281,554.728125 L1291.16563,554.728125 L1293.75312,558.529688 L1293.75312,554.728125 L1295.75469,554.728125 L1295.75469,561.6 L1293.75312,561.6 L1291.17969,557.826563 L1291.17969,561.6 L1289.18281,561.6 L1289.18281,554.728125 Z M1297.16563,554.728125 L1299.28906,554.728125 L1299.28906,559.907812 L1302.60313,559.907812 L1302.60313,561.6 L1297.16563,561.6 L1297.16563,554.728125 Z M1303.65313,554.728125 L1305.78125,554.728125 L1305.78125,561.6 L1303.65313,561.6 L1303.65313,554.728125 Z M1307.31875,554.728125 L1309.30156,554.728125 L1311.88906,558.529688 L1311.88906,554.728125 L1313.89062,554.728125 L1313.89062,561.6 L1311.88906,561.6 L1309.31562,557.826563 L1309.31562,561.6 L1307.31875,561.6 L1307.31875,554.728125 Z M1315.29688,554.728125 L1320.9875,554.728125 L1320.9875,556.195312 L1317.425,556.195312 L1317.425,557.2875 L1320.72969,557.2875 L1320.72969,558.689062 L1317.425,558.689062 L1317.425,560.04375 L1321.09063,560.04375 L1321.09063,561.6 L1315.29688,561.6 L1315.29688,554.728125 Z" id="Combined-Shape"></path>
            </g>
        </g>
    </g>
</svg>