<?xml version="1.0" encoding="UTF-8"?>
<svg width="99px" height="24px" viewBox="0 0 99 24" version="1.1" xmlns="http://www.w3.org/2000/svg" xmlns:xlink="http://www.w3.org/1999/xlink">
    <title>形状结合</title>
    <g id="Why-choose-us？" stroke="none" stroke-width="1" fill="none" fill-rule="evenodd">
        <g id="Apple-TV" transform="translate(-1201.000000, -841.000000)" fill="#787878" fill-rule="nonzero">
            <g id="ISO" transform="translate(320.000000, 800.000000)">
                <g id="付款" transform="translate(881.000000, 39.000000)">
                    <path d="M67.5136436,12.3869654 C67.8802424,12.3869654 68.1002016,12.802444 67.8313625,13.1201629 L67.8313625,13.1201629 L59.1307515,25.6822811 C59.0085519,25.8778004 58.7641528,26 58.5197536,26 L58.5197536,26 L55.9046823,26 C55.5380835,26 55.3181242,25.5845214 55.5380835,25.2912424 L55.5380835,25.2912424 L58.2509145,21.4786151 L55.3670041,13.0224033 C55.2692444,12.7291242 55.4892037,12.4114053 55.8069226,12.4114053 L55.8069226,12.4114053 L58.373114,12.4114053 C58.7152729,12.4114053 59.0085519,12.6313646 59.1063116,12.9490835 L59.1063116,12.9490835 L60.6460265,18.0570265 L64.2631344,12.7291242 C64.4097739,12.509165 64.6541731,12.3869654 64.8985723,12.3869654 L64.8985723,12.3869654 Z M11.6439898,2 C14.2101813,2 16.2142546,2.53767821 17.3384908,3.80855396 C18.3405275,4.95723015 18.6338065,6.22810592 18.3405275,8.08553973 C18.7560061,8.305499 19.1226049,8.59877802 19.4158839,8.91649695 C20.3690407,9.99185338 20.5645601,11.5315682 20.1979613,13.389002 C19.3425641,17.8126273 16.4097739,19.3279022 12.6460265,19.3279022 L12.6460265,19.3279022 L12.0594684,19.3279022 C11.59511,19.3279022 11.2040713,19.6456212 11.1307515,20.1099796 L11.1307515,20.1099796 L11.0818717,20.3543788 L10.3486741,24.9979633 L10.2997943,25.1934827 C10.2264745,25.6334012 9.83543583,25.9755601 9.37107738,25.9755601 L9.37107738,25.9755601 L5.48513034,25.9755601 C5.14297148,25.9755601 4.87413237,25.6822811 4.92301221,25.3401222 L4.92301221,25.3401222 L5.24073115,23.3360489 L0.646026468,23.3360489 C0.254987788,23.3360489 -0.0627311731,22.99389 0.0105885926,22.6028513 L0.0105885926,22.6028513 L3.13889817,2.90427699 C3.21221794,2.3910387 3.67657638,2 4.18981467,2 L4.18981467,2 Z M47.2040713,12.1425662 C48.4749471,12.1425662 49.7213829,12.4358452 50.283501,13.2423625 L50.283501,13.2423625 L50.4545805,13.5112016 L50.57678,12.7780041 C50.6012199,12.5580448 50.7967393,12.3869654 51.0166986,12.3869654 L51.0166986,12.3869654 L53.6317699,12.3869654 C53.9250489,12.3869654 54.1205682,12.6558045 54.0716884,12.9002037 L54.0716884,12.9002037 L52.6541731,21.8207739 C52.5808534,22.1873727 52.2631344,22.4562118 51.8965356,22.4562118 L51.8965356,22.4562118 L49.5503035,22.4562118 C49.2814643,22.4562118 49.0615051,22.2118126 49.1103849,21.9429735 L49.1103849,21.9429735 L49.2325845,21.209776 C49.2325845,21.209776 47.9617087,22.700611 45.6399165,22.700611 C44.295721,22.700611 43.1714847,22.3095723 42.3649674,21.3808554 C41.4851303,20.3543788 41.1429715,18.8879837 41.3873707,17.3727088 C41.876169,14.3177189 44.3201609,12.1425662 47.2040713,12.1425662 Z M85.990222,12.1425662 C87.2610978,12.1425662 88.5075336,12.4358452 89.0696517,13.2423625 L89.0696517,13.2423625 L89.2407311,13.5112016 L89.3629308,12.7780041 C89.3873707,12.5580448 89.58289,12.3869654 89.8028493,12.3869654 L89.8028493,12.3869654 L92.4179206,12.3869654 C92.7111996,12.3869654 92.9067189,12.6558045 92.8578391,12.9002037 L92.8578391,12.9002037 L91.4403238,21.8207739 C91.3670041,22.1873727 91.0492851,22.4562118 90.6826864,22.4562118 L90.6826864,22.4562118 L88.3364542,22.4562118 C88.0676151,22.4562118 87.8476558,22.2118126 87.8965356,21.9429735 L87.8965356,21.9429735 L88.0187352,21.209776 C88.0187352,21.209776 86.7478594,22.700611 84.4260672,22.700611 C83.0818717,22.700611 81.9576354,22.3095723 81.1511181,21.3808554 C80.271281,20.3543788 79.9291222,18.8879837 80.1735214,17.3727088 C80.6623197,14.3177189 83.1063116,12.1425662 85.990222,12.1425662 Z M76.1653747,7.37678209 C77.9983686,7.37678209 79.3670041,7.84114053 80.1002016,8.74541752 C80.7845194,9.57637475 81.0289185,10.7739308 80.7845194,12.2647658 C80.2468411,15.7107943 78.193888,17.4460285 74.60122,17.4460285 L74.60122,17.4460285 L72.8904257,17.4460285 C72.499387,17.4460285 72.181668,17.7148676 72.1327882,18.0814664 L72.1327882,18.0814664 L71.4973503,22.0407332 C71.4729104,22.2851324 71.2529511,22.4806517 70.984112,22.4806517 L70.984112,22.4806517 L68.1979613,22.4806517 C67.9291222,22.4806517 67.7091629,22.2362525 67.7580428,21.9674135 L67.7580428,21.9674135 L69.9576354,8.01221996 C70.0309552,7.64562118 70.3486741,7.37678209 70.7152729,7.37678209 L70.7152729,7.37678209 Z M37.379224,7.37678209 C39.2122179,7.37678209 40.5808534,7.84114053 41.3140509,8.74541752 C41.9983686,9.57637475 42.2427678,10.7739308 41.9983686,12.2647658 C41.4606904,15.7107943 39.4077373,17.4460285 35.8150692,17.4460285 L35.8150692,17.4460285 L34.1042749,17.4460285 C33.7132362,17.4460285 33.3955173,17.7148676 33.3466375,18.0814664 L33.3466375,18.0814664 L32.7600794,21.8452138 C32.6867597,22.2118126 32.3690407,22.4806517 32.0024419,22.4806517 L32.0024419,22.4806517 L29.4118106,22.4806517 C29.1429715,22.4806517 28.9230122,22.2362525 28.9718921,21.9674135 L28.9718921,21.9674135 L31.1714847,8.01221996 C31.2448045,7.64562118 31.5625234,7.37678209 31.9291222,7.37678209 L31.9291222,7.37678209 Z M98.4790204,7.35234216 C98.7478595,7.35234216 98.9678187,7.59674136 98.9189389,7.86558045 L98.9189389,7.86558045 L96.7193462,21.8207739 C96.6460265,22.1873727 96.3283075,22.4562118 95.9617087,22.4562118 L95.9617087,22.4562118 L93.7132362,22.4562118 C93.4443971,22.4562118 93.2244379,22.2118126 93.2733177,21.9429735 L93.2733177,21.9429735 L95.4973503,7.74338084 C95.5217902,7.52342159 95.7173096,7.37678209 95.9617087,7.35234216 L95.9617087,7.35234216 Z M47.8150692,14.904277 C46.3486741,14.904277 45.1511181,15.9551935 44.9067189,17.4215886 C44.7845194,18.1547861 44.9311589,18.790224 45.3221976,19.2545825 C45.7132362,19.7189409 46.3242342,19.9633401 47.0818717,19.9633401 C48.5727067,19.9633401 49.7702627,18.9613035 50.0146619,17.4704684 C50.1368615,16.7372709 49.9657821,16.101833 49.5503035,15.6130346 C49.1592648,15.1486762 48.5482668,14.904277 47.8150692,14.904277 Z M86.60122,14.904277 C85.1348249,14.904277 83.9372689,15.9551935 83.6928697,17.4215886 C83.57067,18.1547861 83.7173096,18.790224 84.1083483,19.2545825 C84.499387,19.7189409 85.1103849,19.9633401 85.8680224,19.9633401 C87.3588574,19.9633401 88.5564134,18.9613035 88.8008126,17.4704684 C88.9230122,16.7372709 88.7519328,16.101833 88.3364542,15.6130346 C87.9454155,15.1486762 87.3344175,14.904277 86.60122,14.904277 Z M74.1368615,10.3828921 L73.7702627,10.3828921 C73.5503035,10.3828921 73.3547841,10.5539715 73.3303442,10.7739308 L73.3303442,10.7739308 L72.7437862,14.4154786 L73.7240344,14.4153985 L73.7240344,14.4153985 L74.0224361,14.4133141 C75.3123315,14.394555 76.5378728,14.2132172 76.8008126,12.4602851 C76.8985723,11.7759674 76.8252525,11.287169 76.5319735,10.9450102 C76.0431751,10.3828921 75.1144582,10.3828921 74.1368615,10.3828921 L74.1368615,10.3828921 Z M35.3507108,10.3828921 L34.984112,10.3828921 C34.7641527,10.3828921 34.5686334,10.5539715 34.5441935,10.7739308 L34.5441935,10.7739308 L33.9576354,14.4154786 L34.9378837,14.4153985 C36.3319401,14.4131538 37.731496,14.3480582 38.0146619,12.4602851 C38.1124216,11.7759674 38.0391018,11.287169 37.7458228,10.9450102 C37.2570244,10.3828921 36.3283075,10.3828921 35.3507108,10.3828921 L35.3507108,10.3828921 Z" id="形状结合"></path>
                </g>
            </g>
        </g>
    </g>
</svg>