<?xml version="1.0" encoding="UTF-8"?>
<svg width="93px" height="30px" viewBox="0 0 93 30" version="1.1" xmlns="http://www.w3.org/2000/svg" xmlns:xlink="http://www.w3.org/1999/xlink">
    <title>形状结合</title>
    <g id="Why-choose-us？" stroke="none" stroke-width="1" fill="none" fill-rule="evenodd">
        <g id="Apple-TV" transform="translate(-1021.000000, -900.000000)" fill="#787878" fill-rule="nonzero">
            <g id="ISO" transform="translate(320.000000, 800.000000)">
                <g id="物流" transform="translate(427.000000, 39.000000)">
                    <path d="M280.708207,67.2052211 C281.794617,71.9637917 283.7394,75.4105351 286.542556,77.5454513 L286.776808,77.7230632 L286.776808,77.7230632 L287.248668,78.077049 C287.327621,78.1359701 287.406706,78.1948733 287.485893,78.2537891 L287.961972,78.6076794 C291.776226,81.4439168 295.676246,84.4498007 296.124718,91 C295.406172,89.6558163 294.647411,85.8906689 287.536364,81.3221546 C281.197099,78.0922001 278.921047,73.3865556 280.708207,67.2052211 Z M322.203754,80.4536368 C322.590194,80.4536368 322.741164,80.602075 322.656666,80.8989559 C322.574391,81.1880241 322.388342,81.332556 322.098511,81.332556 C321.972175,81.332556 321.842827,81.2778682 321.710464,81.1684911 C321.653177,81.0825519 321.576229,81.039583 321.479619,81.039583 C321.390441,81.039583 321.273059,81.0864581 321.12747,81.18021 C321.318701,81.5005288 321.359836,81.8520931 321.250878,82.2349131 C321.11079,82.7271104 320.796386,83.1528936 320.307659,83.5122757 C319.828587,83.8638452 319.291796,84.0396273 318.697273,84.0396273 C318.489189,84.0396273 318.223852,83.9927521 317.901253,83.8990002 C317.56771,84.0786913 317.3876,84.2154106 317.360916,84.3091625 C317.316444,84.4654157 317.667681,84.602135 318.41464,84.7193249 C319.37565,84.8677653 320.018615,85.0630787 320.343555,85.305271 C320.6328,85.5162127 320.724054,85.8091828 320.617319,86.1841903 C320.463889,86.7232634 320.011595,87.0982651 319.260423,87.3092069 C318.816109,87.4342094 318.311561,87.4967096 317.746764,87.4967096 C316.921862,87.4967096 316.306837,87.3990529 315.901672,87.2037366 C315.501714,87.0162328 315.349546,86.7545129 315.445162,86.4185687 C315.527436,86.1295005 315.77361,85.8912181 316.183692,85.7037144 C316.442216,85.5787119 316.883539,85.4380862 317.507672,85.2818332 L317.514343,85.2583953 C317.271267,85.1724561 316.986942,85.0747994 316.661358,84.9654222 C316.50594,84.8326071 316.447132,84.699794 316.484934,84.5669788 C316.527183,84.4185384 316.656385,84.2779127 316.872543,84.1450976 C317.025563,84.0513458 317.295231,83.9263452 317.681555,83.770092 C317.143207,83.363834 316.960758,82.8560191 317.134201,82.246632 C317.265395,81.7856855 317.563092,81.3794335 318.027301,81.027864 C318.530131,80.6450439 319.086231,80.4536368 319.695618,80.4536368 C320.238122,80.4536368 320.678566,80.6294189 321.016964,80.9809884 C321.488604,80.6294189 321.884197,80.4536368 322.203754,80.4536368 Z M342.761255,80.4536368 C343.147696,80.4536368 343.298665,80.602075 343.214167,80.8989559 C343.131893,81.1880241 342.945843,81.332556 342.656013,81.332556 C342.529677,81.332556 342.400329,81.2778682 342.267965,81.1684911 C342.210678,81.0825519 342.133731,81.039583 342.037121,81.039583 C341.947942,81.039583 341.83056,81.0864581 341.684972,81.18021 C341.876202,81.5005288 341.917338,81.8520931 341.80838,82.2349131 C341.668291,82.7271104 341.353888,83.1528936 340.86516,83.5122757 C340.386088,83.8638452 339.849298,84.0396273 339.254774,84.0396273 C339.046691,84.0396273 338.781353,83.9927521 338.458754,83.8990002 C338.125212,84.0786913 337.945101,84.2154106 337.918418,84.3091625 C337.873945,84.4654157 338.225183,84.602135 338.972141,84.7193249 C339.933151,84.8677653 340.576117,85.0630787 340.901056,85.305271 C341.190301,85.5162127 341.281555,85.8091828 341.174821,86.1841903 C341.021391,86.7232634 340.569096,87.0982651 339.817924,87.3092069 C339.373611,87.4342094 338.869063,87.4967096 338.304265,87.4967096 C337.479363,87.4967096 336.864339,87.3990529 336.459173,87.2037366 C336.059216,87.0162328 335.907047,86.7545129 336.002664,86.4185687 C336.084938,86.1295005 336.331112,85.8912181 336.741193,85.7037144 C336.999718,85.5787119 337.44104,85.4380862 338.065174,85.2818332 L338.071845,85.2583953 C337.828769,85.1724561 337.544443,85.0747994 337.21886,84.9654222 C337.063441,84.8326071 337.004634,84.699794 337.042435,84.5669788 C337.084684,84.4185384 337.213886,84.2779127 337.430045,84.1450976 C337.583065,84.0513458 337.852733,83.9263452 338.239057,83.770092 C337.700709,83.363834 337.518259,82.8560191 337.691702,82.246632 C337.822896,81.7856855 338.120594,81.3794335 338.584803,81.027864 C339.087633,80.6450439 339.643733,80.4536368 340.25312,80.4536368 C340.795623,80.4536368 341.236067,80.6294189 341.574465,80.9809884 C342.046106,80.6294189 342.441699,80.4536368 342.761255,80.4536368 Z M318.009387,85.3990224 C316.962474,85.65684 316.377877,86.0005916 316.255577,86.4302876 C316.108818,86.9459229 316.63367,87.2037366 317.830149,87.2037366 C319.048923,87.2037366 319.733903,86.9381103 319.88511,86.4068498 C319.960714,86.1412195 319.833853,85.9341873 319.504524,85.7857468 C319.30083,85.691995 318.802456,85.5630882 318.009387,85.3990224 Z M338.566888,85.3990224 C337.519976,85.65684 336.935378,86.0005916 336.813079,86.4302876 C336.666319,86.9459229 337.191171,87.2037366 338.387651,87.2037366 C339.606425,87.2037366 340.291405,86.9381103 340.442612,86.4068498 C340.518215,86.1412195 340.391354,85.9341873 340.062026,85.7857468 C339.858331,85.691995 339.359957,85.5630882 338.566888,85.3990224 Z M309.584077,80.4536368 C310.282642,80.4536368 310.787073,80.7309819 311.097383,81.2856803 C311.394292,81.8091282 311.441572,82.4263187 311.239221,83.1372702 C311.034647,83.8560344 310.629721,84.4693186 310.024429,84.9771412 C309.42136,85.4771511 308.7817,85.7271523 308.105429,85.7271523 C307.429158,85.7271523 306.934763,85.4537135 306.62223,84.9068276 C306.330528,84.3911924 306.282517,83.7896271 306.478197,83.1021134 C306.673876,82.4145998 307.061716,81.8091282 307.641729,81.2856803 C308.260363,80.7309819 308.907806,80.4536368 309.584077,80.4536368 Z M330.141578,80.4536368 C330.840144,80.4536368 331.344574,80.7309819 331.654884,81.2856803 C331.951794,81.8091282 331.999073,82.4263187 331.796723,83.1372702 C331.592149,83.8560344 331.187222,84.4693186 330.58193,84.9771412 C329.978862,85.4771511 329.339202,85.7271523 328.662931,85.7271523 C327.98666,85.7271523 327.492265,85.4537135 327.179731,84.9068276 C326.88803,84.3911924 326.840019,83.7896271 327.035698,83.1021134 C327.231378,82.4145998 327.619218,81.8091282 328.199231,81.2856803 C328.817865,80.7309819 329.465307,80.4536368 330.141578,80.4536368 Z M365.116159,78.7105185 L365.116159,80.5705581 L366.380837,80.5705581 L366.380837,81.7686751 L365.116159,81.7686751 L365.116159,83.6952767 C365.116159,84.2499633 365.326936,84.5162088 365.748498,84.4940214 C365.90381,84.4940214 366.05912,84.4496471 366.214432,84.3608973 L365.604872,85.5922953 C365.294247,85.7919825 365.604872,85.6921384 365.116159,85.6921384 C364.02018,85.6921384 363.544802,85.2215774 363.519028,84.2233725 L363.518669,81.7686751 L362.686644,81.7686751 L362.686644,80.5705581 L363.518669,80.5705581 L363.518669,79.2467128 L365.116159,78.7105185 Z M362.345402,81.631853 L360.681351,81.7982582 C360.614788,81.4432588 360.337449,81.2657617 359.849325,81.2657617 C359.405576,81.2879492 359.172611,81.4543527 359.150423,81.7649771 C359.128236,82.0090393 359.361201,82.1754427 359.849325,82.2641926 C359.98245,82.28638 360.204321,82.3418479 360.514946,82.4305978 C360.73682,82.4971601 360.914317,82.5415343 361.047442,82.5637219 C362.090253,82.7855965 362.57837,83.3069939 362.511807,84.1279301 C362.511807,85.1707408 361.724164,85.6921384 360.148854,85.6921384 C358.418232,85.7808882 357.464186,85.2483972 357.286686,84.0946491 L358.917456,83.9282439 C359.028394,84.3941807 359.394481,84.6271455 360.01573,84.6271455 C360.614792,84.6271455 360.914318,84.4385549 360.914318,84.061368 C360.958693,83.8173059 360.603699,83.6287154 359.849325,83.4955906 C359.738388,83.4512156 359.549797,83.3957478 359.283548,83.3291855 C359.017298,83.262623 358.817614,83.2182488 358.684489,83.1960614 C357.88574,82.9519993 357.475278,82.4971631 357.453091,81.8315392 C357.475278,80.766541 358.240734,80.2229563 359.749482,80.2007689 C361.16948,80.156394 362.034778,80.6334172 362.345402,81.631853 Z M353.946454,80.2340499 C355.765826,80.3006123 356.708779,81.2213782 356.775341,82.9963751 C356.708779,84.7269972 355.754732,85.625576 353.913173,85.6921384 C352.093801,85.581201 351.139755,84.6826224 351.051005,82.9963751 C351.139755,81.2213782 352.104895,80.3006123 353.946454,80.2340499 Z M347.744054,78.2704694 C349.519051,78.3148442 350.439817,79.0803002 350.506379,80.5668601 C350.528567,82.2309198 349.552333,83.0518436 347.577649,83.0296562 L346.346251,83.0296562 L346.346251,85.5922953 L344.682199,85.5922953 L344.682199,78.2704694 L347.744054,78.2704694 Z M313.452663,80.4536368 L312.943,82.12 L313.042576,81.9752961 C313.564677,81.2261244 314.405554,80.4536368 315.269668,80.4536368 C316.176202,80.4536368 316.455083,81.066921 316.105973,82.2935077 L315.391544,84.5904167 C315.329882,84.8669182 315.287628,84.9068276 315.391544,84.9068276 C315.611511,84.9068276 315.90735,84.543541 316.255577,84.0396273 C316.207654,84.3181737 316.11748,84.5642711 315.985056,84.7779194 C315.93101,84.8651153 315.844109,85.0057424 315.724355,85.1998006 C315.615228,85.356053 315.469653,85.4525351 315.287628,85.489247 C314.911531,85.5651003 314.8906,85.5279305 314.707492,85.3990224 C314.65095,85.2935521 314.435004,85.1294872 314.545155,84.543541 L315.287628,82.2231943 C315.53445,81.3559896 315.404685,80.9554841 314.781821,80.9927073 C313.997439,81.039583 313.296602,81.9185022 312.789874,82.7940311 L312.261916,84.6372924 C312.188537,84.89511 312.216536,85.070892 312.345915,85.1646439 C312.439599,85.2271452 312.615379,85.2623016 312.873259,85.2701142 L312.789874,85.5630874 L310.526978,85.5630874 L310.610364,85.2701142 C310.874915,85.2544889 311.074043,85.2076137 311.207752,85.1294872 C311.33403,85.0513606 311.432746,84.8872973 311.503902,84.6372924 L312.521518,80.9223937 C312.648265,80.4770724 312.371498,80.6528586 311.813372,80.6294207 L311.813372,80.4536368 L313.452663,80.4536368 Z M303.71715,77.9575062 L303.633764,78.2504792 C303.319415,78.2582919 303.085354,78.2973546 302.931574,78.3676685 C302.692359,78.4770456 302.531617,78.6762653 302.449343,78.9653336 L301.735562,81.4731832 L305.202362,81.4731832 L305.906137,79.0004903 C305.99953,78.6723589 305.950319,78.4536078 305.758503,78.3442307 C305.642524,78.2817294 305.42476,78.2504792 305.105203,78.2504792 L305.188589,77.9575062 L308.16491,77.9575062 L308.081524,78.2504792 C307.774607,78.2582919 307.540546,78.2973546 307.379334,78.3676685 C307.140119,78.4770456 306.979378,78.6762653 306.897103,78.9653336 L305.30277,84.5669788 C305.218272,84.8638597 305.269326,85.0630794 305.455934,85.1646439 C305.564481,85.2271452 305.773702,85.2623016 306.083604,85.2701142 L306.000218,85.5630874 L303.023897,85.5630874 L303.107283,85.2701142 C303.411976,85.2701142 303.640098,85.238864 303.791655,85.1763629 C304.058372,85.0747984 304.235088,84.8716723 304.32181,84.5669788 L305.095629,81.8481887 L301.628828,81.8481887 L300.834997,84.6372924 C300.761617,84.89511 300.823058,85.070892 301.019321,85.1646439 C301.130092,85.2193325 301.335597,85.2544889 301.635843,85.2701142 L301.552458,85.5630874 L298.609579,85.5630874 L298.692965,85.2701142 C299.346941,85.2701142 299.740632,85.0357381 299.87405,84.5669788 L301.468384,78.9653336 C301.604025,78.4887617 301.426607,78.2504792 300.936125,78.2504792 L300.690885,78.2504792 L300.774271,77.9575062 L303.71715,77.9575062 Z M324.80068,77.7934412 L323.246371,83.2544594 L325.192757,81.8599075 C325.565622,81.5942773 325.7754,81.3794325 325.822096,81.2153669 C325.87324,81.0356758 325.685523,80.938019 325.25894,80.9223937 L325.342326,80.6294207 L327.672105,80.6294207 L327.588719,80.9223937 C327.264715,80.938019 326.948206,81.0317695 326.639182,81.2036479 C326.381418,81.3520884 325.776808,81.7661528 324.825335,82.4458537 L325.731068,84.7076059 C325.830837,84.9576109 325.966212,85.1216742 326.137196,85.1998006 C326.235328,85.2466766 326.392148,85.2701142 326.607663,85.2701142 C326.485917,85.3299844 326.388225,85.3729538 326.314586,85.3990224 C326.250668,85.42165 326.142024,85.4517248 325.988656,85.489247 C325.746464,85.4744498 325.565278,85.444375 325.445099,85.3990224 C325.324921,85.3536698 325.224818,85.2432373 325.144791,85.067725 C324.879414,84.5359751 324.728858,84.2284326 324.693125,84.1450976 L324.113401,82.9497675 L323.132966,83.6529029 L322.822772,84.7427627 C322.729379,85.0708942 322.92087,85.2466762 323.39725,85.2701142 L323.313864,85.5630874 L321.084411,85.5630874 L321.167796,85.2701142 C321.437556,85.2623016 321.630744,85.2232388 321.747367,85.152925 C321.907818,85.0591732 322.028067,84.8716722 322.108118,84.5904167 L323.806213,78.5407621 C323.912947,78.1657546 323.674007,78.1936721 323.132966,78.1624215 L323.081015,77.7934412 L324.80068,77.7934412 Z M333.958381,80.3967571 L333.448579,82.0654412 L333.548293,81.9184164 C334.070394,81.1692448 334.911271,80.3967571 335.775385,80.3967571 C336.681919,80.3967571 336.9608,81.0100414 336.61169,82.236628 L335.897261,84.533537 C335.835599,84.8100386 335.793345,84.8499479 335.897261,84.8499479 C336.117228,84.8499479 336.413067,84.4866613 336.761294,83.9827477 C336.713371,84.2612941 336.623197,84.5073915 336.490773,84.7210398 C336.436727,84.8082357 336.349827,84.9488627 336.230072,85.1429211 C336.120945,85.2991733 335.97537,85.3956554 335.793345,85.4323673 C335.417249,85.5082206 335.396317,85.4710508 335.213209,85.3421427 C335.156667,85.2366724 334.940721,85.0726075 335.050873,84.4866613 L335.793345,82.1663146 C336.040168,81.2991099 335.910402,80.8986044 335.287538,80.9358276 C334.503156,80.9827033 333.802319,81.8616226 333.295591,82.7371515 L332.767633,84.5804127 C332.694254,84.8382303 332.722253,85.0140125 332.851632,85.1077642 C332.945316,85.1702655 333.121096,85.205422 333.378976,85.2132345 L333.295591,85.5062077 L331.032695,85.5062077 L331.116081,85.2132345 C331.380632,85.1976093 331.57976,85.1507341 331.71347,85.0726075 C331.839747,84.9944809 331.938463,84.8304176 332.009619,84.5804127 L333.027235,80.8655141 C333.153982,80.4201928 332.877216,80.595979 332.319089,80.572541 L332.319089,80.3967571 L333.958381,80.3967571 Z M309.530797,80.7583288 C309.047747,80.7583288 308.619853,80.9692673 308.247105,81.3911506 C307.874356,81.813034 307.587923,82.3755367 307.387796,83.0786756 C307.194341,83.7583766 307.15016,84.3052542 307.255255,84.7193249 C307.379718,85.1958968 307.694617,85.4341792 308.199962,85.4341792 C308.690445,85.4341792 309.127993,85.2154281 309.51262,84.7779194 C309.863835,84.3794741 310.137278,83.8365028 310.332957,83.1489891 C310.524189,82.4771009 310.572085,81.9302233 310.476646,81.5083399 C310.358854,81.00833 310.043574,80.7583288 309.530797,80.7583288 Z M330.088299,80.7583288 C329.605248,80.7583288 329.177355,80.9692673 328.804606,81.3911506 C328.431858,81.813034 328.145424,82.3755367 327.945298,83.0786756 C327.751842,83.7583766 327.707662,84.3052542 327.812756,84.7193249 C327.937219,85.1958968 328.252118,85.4341792 328.757464,85.4341792 C329.247946,85.4341792 329.685494,85.2154281 330.070122,84.7779194 C330.421336,84.3794741 330.694779,83.8365028 330.890459,83.1489891 C331.081691,82.4771009 331.129587,81.9302233 331.034148,81.5083399 C330.916356,81.00833 330.601076,80.7583288 330.088299,80.7583288 Z M353.879892,81.465448 C353.103331,81.465448 352.715056,81.9757519 352.715056,82.9963751 C352.737244,83.9726235 353.125518,84.4718339 353.879892,84.4940214 C354.700828,84.4940214 355.11129,83.9948109 355.11129,82.9963751 C355.089103,81.9979393 354.678641,81.4876354 353.879892,81.465448 Z M319.631192,80.7583288 C319.296772,80.7583288 318.980292,80.8911419 318.681742,81.1567722 C318.383192,81.4224025 318.168324,81.7856855 318.03713,82.246632 C317.908159,82.699766 317.916233,83.063049 318.061353,83.336492 C318.199041,83.6099348 318.431376,83.7466542 318.758364,83.7466542 C319.048194,83.7466542 319.321226,83.6489975 319.577469,83.4536811 C319.933248,83.1958636 320.191184,82.7857053 320.351285,82.2231943 C320.480255,81.7700603 320.474785,81.4106835 320.334873,81.1450533 C320.20017,80.8872357 319.965612,80.7583288 319.631192,80.7583288 Z M340.188693,80.7583288 C339.854274,80.7583288 339.537794,80.8911419 339.239244,81.1567722 C338.940694,81.4224025 338.725825,81.7856855 338.594631,82.246632 C338.465661,82.699766 338.473735,83.063049 338.618855,83.336492 C338.756542,83.6099348 338.988877,83.7466542 339.315865,83.7466542 C339.605696,83.7466542 339.878728,83.6489975 340.134971,83.4536811 C340.490749,83.1958636 340.748685,82.7857053 340.908786,82.2231943 C341.037757,81.7700603 341.032287,81.4106835 340.892375,81.1450533 C340.757671,80.8872357 340.523113,80.7583288 340.188693,80.7583288 Z M347.444525,79.5351483 L346.346251,79.5351483 L346.346251,81.7649771 L347.444525,81.7649771 C348.309836,81.7427897 348.753578,81.3656085 348.775766,80.6334222 C348.753578,79.9234234 348.309836,79.5573358 347.444525,79.5351483 Z M312.608765,67.4132074 C310.971986,67.8153531 308.01113,68.0180438 303.116045,72.5329388 C300.010278,75.1166867 296.006078,76.3880681 291.103443,76.3470831 C295.911165,75.363752 299.233952,74.1095504 301.071805,72.5844782 C303.828583,70.2968697 307.743264,67.0154529 312.608765,67.4132074 Z M309.768784,65.5198867 C308.132005,65.9220325 305.171149,66.1247232 300.276064,70.6396181 C297.170297,73.223366 293.166097,74.4947475 288.263462,74.4537624 C293.071184,73.4704314 296.393971,72.2162298 298.231823,70.6911575 C300.988602,68.4035491 304.903283,65.1221322 309.768784,65.5198867 Z M308.027308,62.9593478 C306.390529,63.3614936 303.429673,63.5641843 298.534588,68.0790792 C295.428821,70.6628271 291.424621,71.9342085 286.521986,71.8932236 C291.329708,70.9098925 294.652495,69.6556908 296.490348,68.1306186 C299.247126,65.8430102 303.161807,62.5615933 308.027308,62.9593478 Z M286.583002,61.4036909 C288.672619,62.6187566 288.339269,65.4121287 285.582953,69.7838074 C286.109903,66.9895878 286.109903,65.0078259 285.582953,63.8385216 C284.409027,61.7758683 280.548042,62.4921038 274,65.9872279 C280.299051,61.7164709 284.493385,60.1886253 286.583002,61.4036909 Z" id="形状结合"></path>
                </g>
            </g>
        </g>
    </g>
</svg>