<?xml version="1.0" encoding="UTF-8"?>
<svg width="80px" height="80px" viewBox="0 0 80 80" version="1.1" xmlns="http://www.w3.org/2000/svg" xmlns:xlink="http://www.w3.org/1999/xlink">
    <title>Rohs</title>
    <g id="Why-choose-us？" stroke="none" stroke-width="1" fill="none" fill-rule="evenodd">
        <g id="Apple-TV" transform="translate(-440.000000, -839.000000)" fill="#787878" fill-rule="nonzero">
            <g id="ISO" transform="translate(320.000000, 800.000000)">
                <g id="iso9001" transform="translate(0.000000, 39.000000)">
                    <path d="M161.132074,0 C182.598239,0 200,17.5738537 200,39.2523008 C200,48.4057087 196.897567,56.8273381 191.696699,63.5032601 C192.596093,64.1033209 193.04604,65.1337946 193.04604,66.5940055 C193.04604,66.7784531 193.037735,66.9712848 193.021133,67.1725005 C193.010063,67.3066442 192.995303,67.4445145 192.976855,67.5861106 L192.946417,67.8012996 L188.015094,67.8012996 L188.013323,67.6993503 L188.009253,67.6073134 C187.585842,68.0167448 187.153278,68.4165999 186.711901,68.8065334 L186.721383,68.8087754 C186.85606,68.8441743 186.99258,68.8814365 187.130942,68.9205619 C187.33849,68.9792495 187.55019,69.0337457 187.766038,69.0840495 C188.861889,69.4026412 189.866414,69.8386081 190.779625,70.3919512 C191.692832,70.9452947 192.141134,71.8339971 192.124528,73.0580593 C192.124528,73.2592749 192.112075,73.4688744 192.087172,73.686858 C192.062265,73.9048417 192.016604,74.1312093 191.950189,74.365961 C191.750942,75.1875916 191.356606,75.9714945 190.767172,76.7176693 C190.177737,77.4638442 189.467925,78.088451 188.637736,78.5914903 C187.824152,79.0945295 186.969056,79.4550408 186.072455,79.6730245 C185.17585,79.8910082 184.16302,80 183.033961,80 C181.473209,80 180.049433,79.6520645 178.76264,78.9561938 C177.475851,78.2603228 176.832455,77.1410605 176.832455,75.598407 C176.843633,75.4516651 176.856688,75.3030233 176.87163,75.1524817 C175.313378,75.8507424 173.700939,76.4481882 172.042636,76.9370295 L171.345662,79.6478726 L166.364529,79.6478726 L166.762143,78.0958181 C165.075003,78.3430383 163.352757,78.4808134 161.602692,78.5017834 L161.30868,79.6478726 L156.327548,79.6478726 L156.686517,78.2506577 C154.898937,78.0451049 153.148164,77.717091 151.442623,77.2751271 C151.126291,77.6084701 150.775908,77.9217151 150.392452,78.2142109 C148.831697,79.404737 147.08,80 145.137357,80 C143.51019,80 142.231698,79.5766088 141.301885,78.7298259 C140.372076,77.8830435 139.907168,76.7553974 139.907168,75.3468876 C139.907168,75.0618321 139.927926,74.7767765 139.969435,74.4917209 C140.010944,74.2066654 140.064906,73.9132256 140.131321,73.6114023 C140.228551,73.2321771 140.347617,72.8667969 140.488515,72.5152624 C139.391472,71.8208975 138.33214,71.0718965 137.313228,70.2728261 C137.123044,70.5989757 136.862263,70.9095605 136.494339,71.1842379 C135.230944,72.1274365 133.880754,72.3579963 132.851323,72.7436595 C133.498867,73.0119474 134.635685,74.881576 134.619079,74.9318802 C134.589881,75.0719577 135.217076,76.4795755 135.525189,77.314148 C135.574317,77.4472249 135.626033,77.582359 135.678957,77.7170994 L135.759078,77.9186083 C136.095236,78.754446 136.451578,79.5270352 136.491181,79.6379894 L136.494339,79.6478726 L131.08302,79.6730245 C131.08302,79.3712008 129.37698,74.7097046 129.103021,74.365961 C128.837894,74.0333062 129.338597,73.8733907 128.618769,73.8634199 L128.542642,73.8629218 L126.475473,73.8629218 L124.981133,79.6478726 L120,79.6478726 L124.308681,62.8715155 L130.08548,62.8715503 C125.17549,56.2996419 122.264153,48.119323 122.264153,39.2523008 C122.264153,17.5738537 139.665914,0 161.132074,0 Z M167.796559,74.0554594 C166.099561,74.3849203 164.359073,74.5909356 162.584625,74.663892 L161.896474,77.3536679 C163.653132,77.3184187 165.380347,77.1619441 167.07026,76.8921877 L167.796559,74.0554594 Z M153.374841,73.82496 L153.330657,73.9824214 C153.08281,74.8265389 152.718658,75.5976932 152.238202,76.2958847 C153.781361,76.6733401 155.362106,76.9541609 156.973365,77.1325419 L157.644256,74.5208663 C156.193338,74.376298 154.768385,74.1424929 153.374841,73.82496 Z M144.490596,74.7350026 L144.48732,74.764368 C144.472378,74.9112556 144.464905,75.0551248 144.464905,75.1959758 C144.464905,75.7493189 144.589435,76.1601343 144.838491,76.4284218 C145.087547,76.6967093 145.461133,76.8308531 145.959245,76.8308531 C146.628218,76.8308531 147.201693,76.5839629 147.679668,76.090183 C146.593109,75.6851953 145.529189,75.2326671 144.490596,74.7350026 Z M181.920517,72.4230443 L181.60604,72.6237049 C180.700263,73.1916652 179.769658,73.7230639 178.816246,74.2158595 L182.087547,74.2150492 L182.087547,74.5168728 L182.089651,74.628883 C182.10928,75.1422063 182.266316,75.5240689 182.560756,75.7744708 C182.876227,76.0427583 183.390945,76.176902 184.104906,76.176902 C184.835472,76.176902 185.429059,76.0595263 185.885662,75.8247746 C186.342266,75.5900232 186.620377,75.2714315 186.72,74.8690003 C186.736606,74.8186965 186.749055,74.7683923 186.75736,74.7180884 C186.765661,74.6677846 186.769814,74.6174804 186.769814,74.5671766 C186.753208,74.3827291 186.678491,74.2318173 186.54566,74.1144416 C186.412829,73.9970655 186.18868,73.8880737 185.873209,73.7874661 C185.773586,73.7539299 185.669814,73.7203942 185.561886,73.686858 C185.453962,73.6533223 185.341889,73.6197862 185.22566,73.5862504 C184.943396,73.4856424 184.652831,73.3934186 184.353962,73.3095787 C184.055096,73.2257388 183.756226,73.133515 183.457361,73.032907 C182.923053,72.8557289 182.410776,72.6524413 181.920517,72.4230443 Z M179.103835,69.699525 L179.029645,69.7446073 C177.17861,70.8551548 175.217785,71.7986683 173.167547,72.5545791 L172.37465,75.6413938 C175.344217,74.7066875 178.156335,73.4114724 180.760786,71.8064619 C180.640762,71.7352577 180.522825,71.6618668 180.406417,71.5866696 C179.706162,71.1343291 179.27197,70.505281 179.103835,69.699525 Z M145.851424,71.1666852 L145.834715,71.1842379 C145.359731,71.7052737 144.981687,72.4996148 144.700585,73.5672612 C145.881763,74.146398 147.097366,74.6639497 148.343391,75.1171601 C148.553161,74.6934635 148.729565,74.1916499 148.873209,73.6114023 C148.956227,73.2928106 149.014341,73.0035632 149.047549,72.7436595 C149.056254,72.6755228 149.063818,72.6088263 149.070241,72.5435707 C147.970146,72.1382708 146.896333,71.6778758 145.851424,71.1666852 Z M168.058112,73.032907 L163.002263,73.032907 L162.782548,73.8921663 C164.562634,73.8070976 166.307239,73.5851528 168.006278,73.2365211 L168.058112,73.032907 Z M158.815501,69.9618307 C157.714907,70.0668884 156.599518,70.120615 155.471699,70.120615 C154.756764,70.120615 154.046825,70.0990256 153.342485,70.056457 C153.55109,70.5942532 153.655096,71.1925001 153.655096,71.8507652 C153.655096,72.1190526 153.63849,72.4041082 153.605282,72.7059318 C153.591458,72.8316025 153.573311,72.9572732 153.550848,73.0829439 C154.948664,73.4016536 156.379089,73.6337152 157.836065,73.7738359 L158.815501,69.9618307 Z M147.603018,70.3919512 C147.208658,70.3919512 146.848809,70.4764094 146.523476,70.6453253 C147.359169,71.0430808 148.213334,71.4074083 149.084295,71.7370284 C149.047414,71.3273905 148.927088,71.0133957 148.723773,70.7943828 C148.474716,70.5260953 148.10113,70.3919512 147.603018,70.3919512 Z M180.048462,59.977717 C178.614361,61.3990494 177.059881,62.6969507 175.401891,63.8544 L173.399022,71.6533573 C175.236415,70.9434716 176.997987,70.0787727 178.668085,69.0750622 L179.023868,68.85772 L179.027264,68.742926 C179.033493,68.6014464 179.049057,68.4552503 179.073963,68.3043389 C179.107171,68.1031229 179.14868,67.8935234 179.198489,67.6755397 C179.63019,66.0322782 180.551698,64.7579122 181.963021,63.8524417 C183.220081,63.0459414 184.766933,62.5986152 186.603581,62.5104624 C186.659207,62.4490458 186.714279,62.3871306 186.769132,62.3250145 C184.459045,61.6233366 182.21909,60.8410747 180.048462,59.977717 Z M138.179197,66.063249 L138.189027,66.1456973 C138.200367,66.2667091 138.206037,66.3909932 138.206037,66.5185494 C138.206037,66.7365331 138.189435,66.9587087 138.156228,67.1850766 C138.12302,67.4114441 138.073206,67.6503878 138.006791,67.9019072 C137.910579,68.277606 137.851538,68.7121097 137.742468,69.1582927 C138.781085,69.989536 139.86453,70.7654784 140.988094,71.4831561 C141.4301,70.7119638 141.995646,70.0206604 142.685012,69.4078763 C141.290509,68.5364321 139.960734,67.5684902 138.704989,66.5137357 L138.546594,66.3787888 L138.45276,66.5219078 L138.354955,66.2158242 C138.296199,66.1651579 138.237613,66.1142991 138.179197,66.063249 Z M131.08302,66.9964367 L128.218869,66.9964367 L127.396981,70.2410398 L130.236228,70.2410398 C130.817358,70.2410398 131.340377,70.1236637 131.805285,69.8889123 C132.270189,69.6541606 132.585661,69.2098094 132.751699,68.5558583 C132.784907,68.4384826 132.80981,68.3294908 132.826416,68.2288828 C132.843018,68.1282752 132.851323,68.036051 132.851323,67.9522114 C132.834717,67.600084 132.689432,67.3527561 132.415474,67.2102285 C132.141511,67.0677005 131.697357,66.9964367 131.08302,66.9964367 Z M171.018078,55.696506 L170.978265,55.7355666 C163.629283,62.8768935 154.094519,66.5471766 142.373967,66.7464159 C143.313966,67.1386286 144.275212,67.4897881 145.25529,67.7978004 C146.246708,67.3974827 147.303289,67.1976524 148.424907,67.1976524 C150.052074,67.1976524 151.330566,67.6252359 152.260379,68.4804026 C152.521452,68.7205191 152.745875,68.9817877 152.933647,69.2642075 C153.771578,69.3269742 154.618001,69.3584344 155.471699,69.3584344 C156.668746,69.3584344 157.851486,69.2965792 159.016958,69.1758611 L160.636229,62.8715155 L165.617357,62.8715155 L164.242991,68.2168728 C166.173105,67.7034218 168.036748,67.0245465 169.818158,66.1961691 L170.673207,62.8715155 L175.473545,62.8715063 C176.818861,61.8963346 178.091508,60.8253858 179.281705,59.6685387 C176.403362,58.4892299 173.648827,57.1652248 171.018078,55.696506 Z M139.700045,66.3485799 C140.845329,67.2739128 142.050583,68.1266914 143.308978,68.9000293 L143.205,68.9777634 L143.39404,68.8370717 C143.677999,68.630046 143.968338,68.4426277 144.265064,68.2748166 C142.6905,67.7397466 141.165837,67.0945298 139.700045,66.3485799 Z M169.574938,67.1425032 C168.226334,67.740923 166.833329,68.256141 165.402298,68.6817255 L169.17887,68.6816182 L169.574938,67.1425032 Z M186.271698,66.367638 C185.773586,66.367638 185.337736,66.4640537 184.96415,66.6568855 C184.590568,66.8497172 184.362267,67.0886605 184.279245,67.3737161 C184.262643,67.440788 184.25019,67.499476 184.241889,67.5497798 C184.233584,67.600084 184.229436,67.6503878 184.229436,67.7006916 C184.229436,67.7677635 184.25019,67.8306434 184.291699,67.8893315 C184.333207,67.9480191 184.39547,68.0025153 184.478492,68.0528191 C184.611323,68.1534271 184.839624,68.2540347 185.163397,68.3546427 C185.237844,68.3777759 185.319094,68.4026817 185.407143,68.4293609 C186.106115,67.8368577 186.782362,67.2190377 187.435684,66.5775279 C187.164709,66.4374633 186.776708,66.367638 186.271698,66.367638 Z M145.747466,40.3080589 C144.845362,44.4047795 147.637133,49.7427662 148.436512,51.1571068 L148.488981,51.2493506 C148.567525,51.3865474 148.619593,51.4733553 148.63728,51.5025906 L148.643976,51.5136102 C147.599746,52.7981383 145.201494,56.2802913 141.449218,61.9600685 L141.021377,62.6083147 C140.374204,63.5897951 139.688847,64.6332495 138.96531,65.7386776 C138.976832,65.7492642 138.988592,65.7592962 139.000356,65.7693198 L139.366462,65.3156625 C139.966923,65.6382644 140.577995,65.9433888 141.199009,66.2303639 L148.981918,54.1638058 C152.011699,54.7219706 154.48265,54.947641 156.394779,54.8408176 C158.306905,54.7339937 160.887226,54.2155673 164.135744,53.2855379 C160.287573,53.429975 157.429929,53.429975 155.562819,53.2855379 C153.812401,53.1501285 152.150232,52.827252 150.576309,52.3169086 L150.2627,52.2123403 L155.800733,44.8591632 C156.085279,44.9327318 156.364274,45.0028247 156.637718,45.0694425 C156.088726,44.5414594 155.548139,44.0039901 155.015745,43.4569349 C152.250354,47.2102868 150.631072,49.407885 150.158104,50.0497641 L150.119068,50.1027452 C150.089054,50.1434784 150.065336,50.1756676 150.047914,50.199313 L150.030198,50.2233509 C150.0179,50.2400437 150.01175,50.2483903 150.01175,50.2483903 C147.166476,47.0267732 145.747466,40.3080589 145.747466,40.3080589 Z M136.432072,15.1605063 L136.116058,15.4948721 C130.33471,21.7011301 126.792454,30.0589557 126.792454,39.2523008 C126.792454,49.3198851 131.040441,58.3854872 137.82501,64.720776 C134.671892,60.5306756 132.397144,55.5645163 131.335558,50.0491234 C129.246934,39.1978259 132.301004,28.5411856 138.782321,20.6476005 C138.679393,20.4324162 138.577626,20.2169606 138.477025,20.0012337 L138.235402,20.2366417 L136.039071,19.0918458 L136.420185,18.7201681 L138.005178,19.6601387 L137.120524,18.0371709 L137.439747,17.7258515 L137.471691,17.7455358 C137.107084,16.8880571 136.760544,16.0263756 136.432072,15.1605063 Z M154.730422,59.4549338 C154.436589,59.4501961 154.131078,59.5294332 153.813891,59.6926451 C153.351138,59.9307608 153.055395,60.2856573 152.926653,60.757334 C152.790395,61.2523699 152.866316,61.785392 153.154408,62.3563995 C153.443281,62.9289547 153.827537,63.298444 154.307177,63.4648679 C154.727193,63.5781553 155.137165,63.5319045 155.537092,63.3261156 C155.846616,63.166846 156.072857,62.9783114 156.215812,62.7605113 C156.291016,62.6484764 156.359384,62.4892168 156.420926,62.2827332 L156.446879,62.191349 L156.778544,62.5732808 L157.072747,62.4218956 L156.152253,60.5974565 L154.669756,61.3602946 L154.862992,61.7432876 L155.920274,61.1992479 C156.117108,61.6008545 156.160633,61.9424701 156.050843,62.2240944 C155.941053,62.5057191 155.733695,62.7249833 155.428771,62.8818877 C155.030374,63.0868883 154.678854,63.1074477 154.374207,62.943566 C154.06956,62.7796843 153.814961,62.4950281 153.610409,62.0895969 C153.373842,61.6207208 153.302712,61.2129077 153.397014,60.8661578 C153.491311,60.5194079 153.694758,60.2656096 154.007345,60.104763 C154.270899,59.9691475 154.517942,59.9136599 154.748478,59.9383012 C154.955958,59.960478 155.143322,60.0620804 155.310569,60.2431091 L155.365569,60.3063936 L155.818365,60.0734029 C155.51843,59.6663728 155.155779,59.4602165 154.730422,59.4549338 Z M135.184676,11.5818251 C127.924675,18.5274044 123.396227,28.3557849 123.396227,39.2523008 C123.396227,48.1735282 126.431678,56.378777 131.516452,62.8721654 L132.303397,62.8715155 L132.511455,62.8727023 C133.574147,62.8849372 134.488764,62.9917534 135.2553,63.1931511 C129.530961,56.8868965 126.037738,48.4815757 126.037738,39.2523008 C126.037738,29.5571369 129.892533,20.7712124 136.138738,14.3723878 C135.813745,13.4841696 135.50766,12.5908759 135.220527,11.6932138 L135.184676,11.5818251 Z M139.147677,21.4001704 C132.953569,29.0962157 130.056017,39.4068787 132.076411,49.9036924 C133.004615,54.7261125 134.880664,59.1194156 137.471418,62.92479 C135.651328,54.8170634 136.374144,46.3771777 139.639783,37.6049026 C140.791918,34.9642537 142.326705,32.5010339 144.244144,30.215243 C142.318923,27.3289405 140.620209,24.3906259 139.147677,21.4001704 Z M161.132074,1.14327096 C151.470838,1.14327096 142.65759,4.80984831 135.982304,10.8402776 L135.770208,11.0327928 L135.855254,11.2973722 C136.12783,12.1321599 136.416302,12.9629305 136.720684,13.7896842 C143.037709,7.61235575 151.6453,3.81090318 161.132074,3.81090318 C180.514143,3.81090318 196.226415,19.6785574 196.226415,39.2523008 C196.226415,47.9317503 193.137006,55.8824938 188.00814,62.0441929 C188.922746,62.3153622 189.849424,62.5741679 190.786904,62.8203454 C195.848435,56.3355669 198.867926,48.1500409 198.867926,39.2523008 C198.867926,18.2052646 181.973009,1.14327096 161.132074,1.14327096 Z M157.588372,59.3092719 C157.540714,59.3249976 157.50711,59.3363057 157.487556,59.3431958 C157.468002,59.3500859 157.454301,59.355297 157.446444,59.3588291 C157.278341,59.4344132 157.156984,59.562648 157.082367,59.7435331 C157.018408,59.8985776 156.983615,60.0240966 156.977993,60.1200902 L156.977609,60.1656262 L156.783505,59.7253473 L156.380531,59.9065381 L157.504241,62.4553957 L157.928425,62.2646691 L157.282109,60.7986593 C157.202368,60.6177879 157.189237,60.4321555 157.24272,60.2417618 C157.296202,60.0513685 157.429778,59.9081367 157.643439,59.8120667 C157.668576,59.8007646 157.6921,59.7911383 157.714007,59.7831886 L157.748867,59.7717917 L157.787725,59.7614504 L157.588372,59.3092719 Z M182.85617,12.2328271 L182.872416,12.5329357 L182.887032,12.551274 C187.692403,18.615301 190.566039,26.3083535 190.566039,34.6792174 C190.566039,44.3261034 186.749535,53.0727825 180.558168,59.4633625 C182.709384,60.3240148 184.92929,61.104981 187.217668,61.8061055 C192.363556,55.7423858 195.471699,47.8639058 195.471699,39.2523008 C195.471699,28.4275597 190.560722,18.7611814 182.866076,12.4015086 L182.85617,12.2328271 Z M158.907021,58.8151731 C158.546661,58.9622075 158.306726,59.2108935 158.187213,59.5612311 C158.067703,59.9115691 158.091052,60.2944637 158.257261,60.7099152 C158.42605,61.1318075 158.668128,61.4146855 158.983497,61.5585479 C159.298869,61.7024108 159.616005,61.7092825 159.934908,61.5791638 C160.065659,61.5258153 160.1777,61.4651141 160.271035,61.3970611 C160.445933,61.2732515 160.572987,61.1202613 160.652201,60.9380906 C160.700695,60.8321387 160.733082,60.7079409 160.749359,60.5654974 C160.762379,60.4515425 160.761603,60.3513102 160.747025,60.2648005 L160.733502,60.2024912 L160.310162,60.3752241 C160.32401,60.5025654 160.310063,60.6253282 160.268313,60.7435114 C160.194286,60.9479174 160.044861,61.0959869 159.820034,61.1877205 C159.579263,61.2859605 159.36975,61.2791956 159.191488,61.167426 C159.033033,61.0680752 158.900369,60.9104718 158.793495,60.6946153 L158.754625,60.6109386 L160.632159,59.8448638 C160.527797,59.5839989 160.439023,59.3991913 160.365836,59.2904399 C160.26756,59.1282408 160.149278,58.999491 160.010991,58.9041909 C159.866939,58.8037506 159.692378,58.7452622 159.487299,58.7287258 C159.28222,58.7121898 159.088794,58.7410055 158.907021,58.8151731 Z M161.19087,57.5793887 C160.835812,57.739034 160.604618,57.9960251 160.497284,58.3503617 C160.389954,58.7046979 160.426518,59.0865365 160.606983,59.4958767 C160.79025,59.9115635 161.041957,60.1857367 161.362108,60.3183967 C161.682259,60.4510567 161.999438,60.4467472 162.313649,60.3054681 C162.442474,60.2475435 162.552352,60.1829309 162.643278,60.1116295 C162.81379,59.9817313 162.935479,59.8243563 163.008349,59.6395046 C163.053154,59.5319081 163.081231,59.4066444 163.092575,59.2637138 C163.101649,59.1493697 163.097409,59.0492258 163.079848,58.9632827 L163.064181,58.9014879 L162.647066,59.0890358 C162.665308,59.2158117 162.655612,59.3389911 162.617971,59.458574 C162.551056,59.665464 162.406838,59.8187103 162.185319,59.9183119 C161.948091,60.0249777 161.738467,60.0256012 161.556453,59.9201826 C161.394662,59.8264771 161.256632,59.673645 161.142364,59.4616871 L161.100626,59.3794309 L162.950544,58.5476503 C162.837227,58.2906225 162.742121,58.109056 162.665221,58.0029508 C162.561398,57.8443137 162.438742,57.7198115 162.297245,57.6294428 C162.14981,57.5341407 161.97333,57.4818406 161.767808,57.4725424 C161.562281,57.4632442 161.369969,57.4988595 161.19087,57.5793887 Z M159.748812,59.278087 C159.857691,59.3647828 159.958582,59.4987533 160.051498,59.6799993 L158.628399,60.2606546 C158.54747,60.0351834 158.545144,59.8230631 158.621425,59.6242931 C158.697707,59.4255236 158.834706,59.2858018 159.032423,59.2051282 C159.308276,59.0925755 159.54707,59.1168951 159.748812,59.278087 Z M163.588464,56.4568836 C163.429106,56.5388837 163.300309,56.6451162 163.202072,56.775581 C163.117874,56.8874078 163.053939,57.0267559 163.010271,57.1936247 L162.990127,57.2793529 L162.812114,56.9265352 L162.419081,57.128776 L163.673344,59.6147485 L164.087064,59.4018634 L163.430069,58.0996874 C163.348093,57.9372054 163.295391,57.806927 163.271962,57.7088519 C163.248538,57.6107768 163.25061,57.5029918 163.278187,57.3854961 C163.312465,57.2392108 163.377711,57.1198732 163.473923,57.0274829 C163.526597,56.9750392 163.601972,56.9235865 163.700038,56.8731247 C163.893107,56.7737783 164.065453,56.7825543 164.217077,56.899453 C164.293145,56.9577705 164.364085,57.0444455 164.429895,57.1594775 L164.468768,57.2318993 L165.259268,58.7986887 L165.679882,58.5822556 L164.875328,56.9876121 C164.748849,56.7369258 164.617936,56.5616151 164.482589,56.4616798 C164.235866,56.2787127 163.937825,56.2771142 163.588464,56.4568836 Z M182.936034,13.8584098 L182.948662,14.1550892 C183.696792,32.6745083 180.103372,46.1323143 172.168403,54.5285077 C171.963827,54.7449741 171.75744,54.9585662 171.549243,55.169284 C174.175313,56.6420682 176.925069,57.9706919 179.798531,59.1546023 C185.986518,52.882983 189.811323,44.2321826 189.811323,34.6792174 C189.811323,26.8662286 187.252929,19.6566935 182.936034,13.8584098 Z M162.048146,58.0123518 C162.159953,58.0951573 162.265417,58.2254905 162.364537,58.4033513 L160.962371,59.0338094 C160.873699,58.8113281 160.864043,58.5994186 160.93341,58.3980814 C161.002774,58.1967445 161.134864,58.0522794 161.329672,57.9646861 C161.601468,57.8424799 161.840959,57.8583684 162.048146,58.0123518 Z M166.437174,53.3491297 L165.040424,54.3368156 L167.213956,57.4716333 L167.634459,57.1742817 L166.71563,55.8490797 L167.691872,55.1587454 C168.00461,54.9375994 168.173462,54.6830381 168.198428,54.3950614 C168.223398,54.1070848 168.151051,53.840748 167.981391,53.5960519 C167.78411,53.3115209 167.546449,53.150423 167.268405,53.1127582 C166.990361,53.0750933 166.713284,53.1538839 166.437174,53.3491297 Z M167.558138,53.8985257 C167.700181,54.1033879 167.740501,54.2879539 167.679094,54.4522241 C167.617691,54.616494 167.492606,54.7653715 167.303836,54.8988558 L166.467057,55.4905707 L165.713942,54.4043744 L166.55072,53.8126595 C166.712725,53.698102 166.855502,53.6300014 166.979057,53.6083575 C167.205314,53.5713329 167.398344,53.6680559 167.558138,53.8985257 Z M168.969156,52.2291448 C168.935983,52.2470285 168.910169,52.2610783 168.891709,52.2712944 L168.875706,52.2802329 C168.857634,52.2904474 168.845034,52.2979825 168.837906,52.3028383 C168.685354,52.4067539 168.587887,52.5543225 168.545506,52.7455449 C168.50918,52.9094498 168.496501,53.0391631 168.507469,53.1346845 L168.514922,53.179596 L168.248059,52.7800454 L167.882362,53.0291511 L169.427273,55.3422258 L169.812218,55.0800093 L168.923641,53.7496135 C168.814013,53.5854737 168.769164,53.4049635 168.789094,53.2080835 C168.809029,53.0112034 168.915942,52.8467239 169.10984,52.7146445 C169.132654,52.6991057 169.154162,52.6855007 169.174373,52.6738297 L169.206745,52.6564926 L169.243229,52.6394941 L168.969156,52.2291448 Z M170.589084,50.9897514 C170.247374,50.9838445 169.946345,51.1034822 169.685993,51.3486641 C169.395456,51.6222728 169.257862,51.941826 169.273208,52.3073235 C169.288558,52.672821 169.454565,53.0270428 169.771237,53.3699893 C170.066798,53.6900723 170.384001,53.8680695 170.722846,53.9039809 C171.061695,53.9398927 171.370097,53.8269662 171.648054,53.5652019 C171.981356,53.2513219 172.128134,52.9124317 172.088397,52.5485316 C172.048659,52.1846319 171.876907,51.8381945 171.573136,51.5092202 C171.258809,51.1688142 170.930793,50.995658 170.589084,50.9897514 Z M170.707429,51.4731604 C170.878048,51.5357026 171.051321,51.6622368 171.22725,51.8527626 C171.421944,52.0636109 171.556934,52.294472 171.632217,52.5453464 C171.7075,52.7962208 171.632574,53.0276666 171.407438,53.2396837 C171.20243,53.4327496 170.985904,53.5013 170.757868,53.4453345 C170.529836,53.3893691 170.315537,53.2527868 170.114979,53.0355874 C169.906211,52.8094968 169.775104,52.5720141 169.721653,52.3231384 C169.668202,52.0742627 169.74524,51.8521075 169.952768,51.6566728 C170.186704,51.4363643 170.43826,51.3751937 170.707429,51.4731604 Z M171.429484,47.6667224 L171.119476,47.9909174 L172.123364,48.9699441 C171.957709,48.9556689 171.827656,48.9604178 171.733203,48.9841912 C171.56972,49.0251488 171.41451,49.1224597 171.26757,49.2761245 C171.002364,49.5534704 170.90446,49.8702415 170.973859,50.2264384 C171.043258,50.5826349 171.222697,50.9018868 171.512172,51.1841938 C171.821439,51.4858042 172.14741,51.6455644 172.490087,51.6634745 C172.832763,51.681385 173.111017,51.5785269 173.324857,51.3549012 C173.457462,51.2162282 173.547916,51.0666301 173.596224,50.9061064 C173.63763,50.7685146 173.643946,50.617103 173.61518,50.451872 L173.597869,50.3681049 L173.874355,50.6377445 L174.164651,50.334163 L171.429484,47.6667224 Z M172.168097,49.2888071 C172.387864,49.3027425 172.62331,49.4321641 172.874438,49.6770716 C173.12309,49.9195661 173.265823,50.1559441 173.30264,50.3862058 C173.339458,50.6164672 173.283205,50.8096795 173.133876,50.9658428 C172.941539,51.1669812 172.730018,51.2431764 172.499311,51.1944283 C172.268604,51.1456807 172.04686,51.0175527 171.834083,50.8100452 C171.584194,50.5663442 171.445396,50.3289755 171.417688,50.0979391 C171.389976,49.8669031 171.457358,49.6664321 171.619827,49.4965266 C171.765571,49.3441111 171.948327,49.2748712 172.168097,49.2888071 Z M173.381176,45.9655119 L173.114849,46.3496286 L174.226331,47.1355934 C174.447501,47.2919892 174.60323,47.4413333 174.693518,47.5836252 C174.863107,47.8477195 174.855182,48.1134957 174.66974,48.3809549 C174.540519,48.5673224 174.38462,48.6468347 174.202035,48.6194912 C174.122916,48.6076425 174.038476,48.5743941 173.948723,48.5197463 L173.880414,48.4747481 L172.37801,47.4123512 L172.105763,47.8050033 L173.644088,48.8928025 C173.837082,49.0292755 174.013534,49.1063446 174.173435,49.1240094 C174.470843,49.1583406 174.732487,49.0126123 174.958371,48.6868248 C175.103374,48.4776947 175.167508,48.2580244 175.150771,48.0278143 C175.144475,47.9351612 175.124244,47.8441907 175.090081,47.7549027 L175.06185,47.6882522 L175.392758,47.9286084 L175.644291,47.5658319 L173.381176,45.9655119 Z M174.756589,43.9675117 C174.527935,44.0618062 174.335789,44.2450709 174.180151,44.5173058 C173.997863,44.8361664 173.964727,45.1667921 174.08075,45.5091824 C174.196773,45.8515731 174.46478,46.1452082 174.884772,46.3900884 C175.227318,46.5898135 175.566642,46.6623197 175.902738,46.6076071 C176.238833,46.5528941 176.497168,46.3676115 176.677737,46.0517588 C176.838533,45.7704994 176.897175,45.4968587 176.853657,45.2308369 C176.814098,44.9889989 176.672094,44.7620112 176.427646,44.5498736 L176.351238,44.4866776 L176.125524,44.8814936 C176.281257,45.022431 176.381973,45.1718995 176.42767,45.3298987 C176.473367,45.4878979 176.448064,45.651125 176.351761,45.8195799 C176.226221,46.0391726 176.052301,46.1523468 175.830002,46.1591024 C175.607703,46.1658577 175.376664,46.0993316 175.136883,45.9595242 C174.898589,45.8205851 174.718912,45.6676918 174.597849,45.5008446 C174.41127,45.2436579 174.39193,44.9857154 174.539826,44.7270169 C174.64817,44.5375055 174.775624,44.4283228 174.922188,44.3994696 C175.047812,44.3747382 175.178816,44.3833462 175.315197,44.4252933 L175.383835,44.4490455 L175.60955,44.0542294 C175.269568,43.9021232 174.985247,43.8732175 174.756589,43.9675117 Z M181.628118,12.5173449 L181.558073,12.5832403 C181.037963,13.0726347 180.361418,13.7375509 179.528459,14.5779854 L179.316957,14.7917508 C176.668275,17.4732877 172.532511,21.8234664 166.909844,27.8421898 C165.611323,26.4440658 164.78968,23.2689564 164.444919,18.3168614 L164.444547,18.3181534 L164.443624,18.3221737 C164.402396,18.4936834 163.401826,22.8053194 165.367703,29.4156809 L165.429451,29.6208559 C165.429451,29.6208559 165.422434,29.629994 165.408816,29.6477217 L165.372913,29.6944678 C165.070276,30.0884952 163.596424,32.0074076 162.014566,34.0669482 L161.793245,34.3550997 C161.608406,34.595754 161.422778,34.8374394 161.238025,35.0779793 L161.016856,35.3659379 L160.927277,35.4825673 L160.74903,35.7146401 C159.091865,37.8722261 157.630998,39.7742337 157.630998,39.7742337 C154.326806,34.7214727 155.562819,27.5410668 155.562819,27.5410668 C154.038742,31.7355725 154.316061,36.4171219 156.394779,41.5857153 C156.160689,41.9034083 155.933037,42.2123633 155.711824,42.5125799 L155.492774,42.8090928 L155.822339,43.1489106 C156.580249,43.9231896 157.354678,44.6781464 158.145625,45.4137811 C160.080707,45.8226022 161.688769,46.027101 162.97028,46.027101 C164.738456,46.027101 166.935959,45.6377885 169.562794,44.8591632 C165.989783,45.0643018 163.38394,45.0643018 161.745266,44.8591632 C160.192839,44.6648212 158.691696,44.1841209 157.24184,43.4170613 L157.000673,43.2865668 L163.884513,34.4911037 C166.882516,35.0755516 169.302144,35.2380056 171.143404,34.9784657 C172.984665,34.7189254 174.701438,33.9734123 176.293726,32.7419267 C173.672692,33.5028436 171.814687,33.8833021 170.719712,33.8833021 C167.480969,33.8833021 165.293003,32.8532109 165.082301,32.7502017 L165.067466,32.7428674 C165.066222,32.742244 165.0656,32.7419267 165.0656,32.7419267 C165.0656,32.7419267 166.972289,30.0368461 169.908129,26.5080014 C171.094934,25.0814739 172.406111,23.5273171 173.721666,21.9797034 L174.236403,21.3747472 C174.350723,21.2405191 174.464955,21.1064729 174.579024,20.9726965 L174.920655,20.572266 C177.784472,17.2174583 180.493995,14.0900837 181.787235,12.6012801 C181.734069,12.5732487 181.681129,12.5452278 181.628118,12.5173449 Z M175.543154,42.3319221 L175.342893,42.7288422 L174.655662,42.3752162 L174.44252,42.7976691 L175.129751,43.1512951 L174.959941,43.4878645 L175.297811,43.6617206 L175.467621,43.3251512 L177.097218,44.1636819 C177.255042,44.2448936 177.400941,44.2761097 177.534905,44.2573305 C177.668873,44.2385514 177.785043,44.1316727 177.883414,43.9366945 C177.913864,43.8763439 177.939104,43.8186722 177.959129,43.7636787 C177.972478,43.7270166 177.983691,43.6903382 177.992768,43.6536433 L178.004786,43.5985885 L177.678406,43.4306458 C177.665854,43.4631715 177.65411,43.4912373 177.643162,43.5148434 C177.632218,43.5384492 177.621671,43.5603107 177.611519,43.5804276 C177.573264,43.6562522 177.537512,43.7060762 177.504261,43.7298997 C177.453877,43.7674617 177.393563,43.7727056 177.323324,43.7456322 L177.287375,43.7294019 L175.680768,42.9026983 L175.881024,42.5057783 L175.543154,42.3319221 Z M130.708019,36.7361178 L130.597864,37.2594764 L129.719787,37.3842307 L129.430747,38.7574877 L130.18267,39.2321359 L130.073458,39.7510213 L127.169812,37.8420352 L127.286556,37.2873645 L130.708019,36.7361178 Z M129.290075,37.4462728 L127.748299,37.6669971 L127.744535,37.6848895 L129.063176,38.5243021 L129.290075,37.4462728 Z M129.462858,33.8252603 L129.413159,34.3028036 C129.25222,34.317909 129.128506,34.3691532 129.046035,34.4615614 C128.959064,34.5534919 128.909306,34.6815606 128.892268,34.8452899 C128.871442,35.0454031 128.927401,35.2076846 129.064187,35.3371599 C129.195991,35.4707054 129.397472,35.5472703 129.658673,35.5749956 C129.919877,35.6027204 130.132718,35.570133 130.293166,35.4722068 C130.448166,35.3828984 130.540815,35.2363918 130.562592,35.0271825 C130.597646,34.6903438 130.459819,34.4766053 130.156912,34.3830066 L130.094133,34.365888 L130.143832,33.8883448 C130.448895,33.9759044 130.670294,34.1235579 130.80448,34.321732 C130.934161,34.519428 130.98516,34.7731478 130.953921,35.073318 C130.916529,35.4326124 130.770563,35.6976139 130.515556,35.8728702 C130.270026,36.0445347 129.971862,36.1094506 129.611581,36.0712092 C129.260311,36.0339237 128.982025,35.907822 128.776732,35.6929038 C128.554845,35.4624292 128.462596,35.1675449 128.500463,34.8037024 C128.531702,34.5035322 128.624343,34.2696568 128.77838,34.1020761 C128.941428,33.9354514 129.1699,33.8401473 129.462858,33.8252603 Z M129.600087,30.7665062 C129.778468,30.7982704 129.922227,30.8703061 130.031367,30.9826132 C130.131589,31.093332 130.199546,31.2308118 130.229211,31.403265 C130.306305,31.1987426 130.419344,31.0517006 130.567541,30.966643 C130.715737,30.8815858 130.899095,30.8585127 131.113153,30.8966296 C131.434235,30.9538055 131.646473,31.1076892 131.759564,31.3553657 C131.842221,31.5456137 131.863479,31.788871 131.823337,32.0851378 L131.807686,32.185857 L131.551339,33.6540332 L128.367252,33.0870404 L128.623595,31.6188642 C128.678638,31.3036113 128.792454,31.0731223 128.975531,30.9199777 C129.148115,30.7742522 129.354815,30.7228299 129.600087,30.7665062 Z M130.578366,31.4840138 C130.487028,31.5693283 130.421401,31.7089956 130.379028,31.899467 L130.362288,31.9841976 L130.201091,32.9074374 L131.235694,33.09167 L131.394533,32.1819412 C131.430704,31.9747754 131.423338,31.8062925 131.381346,31.6780813 C131.321782,31.5188776 131.201364,31.4184933 131.018522,31.3859347 C130.831222,31.3525823 130.682756,31.3865117 130.578366,31.4840138 Z M129.198559,31.3544013 C129.117087,31.4292836 129.057914,31.5579106 129.019112,31.7337166 L129.003722,31.8119313 L128.854317,32.6676166 L129.804191,32.8367618 L129.952023,31.9900834 C129.99134,31.7649031 129.979513,31.5956262 129.920998,31.4830467 C129.858026,31.3696736 129.741813,31.2978989 129.572351,31.2677227 C129.411808,31.2391348 129.28721,31.2680277 129.198559,31.3544013 Z M131.788532,28.1922169 L131.896548,28.2198441 L131.407267,29.9430485 C131.629903,29.9884906 131.815892,29.9805033 131.963375,29.909035 C132.106508,29.8363059 132.208635,29.7088874 132.26106,29.5242582 C132.30724,29.3616089 132.305513,29.2183863 132.26022,29.0958511 C132.228157,29.0152063 132.166291,28.9358412 132.081102,28.8541277 L132.027243,28.8047882 L132.159547,28.3388196 C132.353508,28.4520753 132.503269,28.6048626 132.597627,28.8034525 C132.711221,29.0504295 132.727133,29.3262077 132.64101,29.6295271 C132.546149,29.9636176 132.365541,30.2015173 132.106037,30.3356938 C131.82848,30.483673 131.506879,30.504721 131.136887,30.3975774 C130.801715,30.3005179 130.550586,30.1231345 130.381655,29.8553752 C130.205869,29.595147 130.168834,29.2942221 130.263695,28.9601312 C130.36854,28.5908732 130.571555,28.3404321 130.878939,28.220121 C131.130099,28.1198567 131.433609,28.1094546 131.788532,28.1922169 Z M130.64614,29.0566081 C130.596212,29.2324454 130.6054,29.3825849 130.679915,29.5183392 C130.743489,29.628329 130.847079,29.7244098 130.995275,29.8015365 L131.061532,29.8334157 L131.409772,28.606951 C131.00553,28.5374643 130.750986,28.6873501 130.64614,29.0566081 Z M159.232811,9.24452324 C151.312942,10.7992139 144.561913,14.9869895 139.697172,20.7336736 C141.172672,23.7390025 142.870268,26.6880994 144.789997,29.5810071 C151.92617,21.4976477 163.98895,15.6988467 180.978457,12.1844788 C174.475181,8.93813716 166.904198,7.73860944 159.232811,9.24452324 Z M130.548993,25.9753262 L133.560592,27.3294359 L133.365355,27.7722741 L130.353761,26.4181645 L130.548993,25.9753262 Z M133.715358,22.4131174 C134.292354,22.6848366 134.438923,23.1562512 134.15677,23.8236611 L134.12231,23.9015397 L133.76827,24.6682948 L134.909192,25.2055764 L134.700594,25.6573403 L131.77031,24.2774149 L132.336779,23.0506069 C132.662117,22.3460211 133.120273,22.1328808 133.715358,22.4131174 Z M133.048259,22.8407062 C132.932771,22.8984503 132.82854,23.0173117 132.735569,23.19729 L132.701232,23.2676467 L132.360584,24.0053893 L133.386593,24.4885565 L133.727241,23.7508139 C133.83058,23.5270041 133.864176,23.3460374 133.829938,23.2037684 C133.793791,23.0656444 133.687341,22.9499189 133.50676,22.8648813 C133.326184,22.7798437 133.169976,22.7718785 133.048259,22.8407062 Z M136.310403,20.378299 C136.599731,20.5828939 136.781104,20.8395487 136.847096,21.1430178 C136.91531,21.459225 136.851831,21.7660476 136.64924,22.0582394 C136.446649,22.3504315 136.182866,22.5156113 135.865306,22.559025 C135.560358,22.6001927 135.259511,22.5158562 134.970183,22.311261 C134.677142,22.1040432 134.495769,21.8473879 134.428668,21.5375497 C134.357855,21.2250891 134.425043,20.9208894 134.627633,20.6286972 C134.830228,20.3365055 135.090303,20.1687028 135.405263,20.1290348 C135.713916,20.09049 136.017362,20.1710808 136.310403,20.378299 Z M135.464186,20.5782386 C135.246797,20.5808303 135.07762,20.673343 134.950348,20.8568994 C134.82308,21.0404558 134.794861,21.232643 134.869399,21.4360842 C134.929471,21.6125489 135.060404,21.7665446 135.253291,21.9029416 C135.446178,22.0393381 135.630542,22.1082983 135.815286,22.1049523 C136.026372,22.1034834 136.199258,22.0135936 136.326525,21.8300372 C136.453793,21.6464808 136.478304,21.4516707 136.410074,21.2471066 C136.346293,21.068019 136.221668,20.9129001 136.03249,20.7791261 C135.839603,20.6427295 135.648931,20.5748926 135.464186,20.5782386 Z M161.132074,4.57308342 C151.731674,4.57308342 143.213491,8.38766514 137.012477,14.5676845 C137.508144,15.8676118 138.043295,17.1571577 138.617954,18.4366059 L139.014969,18.6753519 L138.140085,17.0428543 L138.5212,16.671177 L139.577444,18.9278285 L139.258221,19.2391479 L138.881389,19.0164013 C139.030656,19.3411929 139.182486,19.6653334 139.336872,19.9888273 C143.294274,15.4004399 148.440328,11.8094223 154.41711,9.75156474 C154.216822,9.74663135 154.036955,9.68504827 153.876158,9.56808834 C153.632451,9.39379806 153.47007,9.1330473 153.382428,8.77806803 C153.296978,8.43196317 153.319139,8.12474639 153.448903,7.85641848 C153.587468,7.56702254 153.830303,7.37862476 154.181807,7.29011833 C154.471797,7.2171007 154.721099,7.22502357 154.929716,7.31388773 C155.119441,7.40185277 155.273542,7.55986995 155.385607,7.78955268 L155.421398,7.86877015 L154.960047,7.98493459 C154.89095,7.83737519 154.800955,7.73749544 154.686762,7.69083895 C154.571476,7.63974486 154.435289,7.63633043 154.277116,7.67615844 C154.083789,7.72483686 153.951925,7.83344816 153.878234,8.00753517 C153.799049,8.17829176 153.796719,8.39568084 153.860258,8.65304078 C153.923797,8.91040112 154.026914,9.10123818 154.172908,9.22000917 C154.309024,9.33655535 154.477036,9.37437343 154.679151,9.32348221 C155.004564,9.24154456 155.156306,9.03764277 155.1398,8.71817755 L155.134256,8.65274547 L155.595603,8.53658103 C155.618469,8.85602664 155.5568,9.11663416 155.418295,9.31175397 C155.375289,9.37049923 155.324778,9.42397658 155.266988,9.47199076 C155.652208,9.3494076 156.041516,9.23381296 156.434034,9.12469147 C156.365399,9.09227014 156.314876,9.04250373 156.28302,8.97359599 C156.240921,8.89727117 156.234561,8.81344163 156.265344,8.7177582 C156.293334,8.63077272 156.348667,8.56237837 156.429948,8.51692352 C156.509836,8.47581824 156.598547,8.46646085 156.693296,8.49755051 C156.779428,8.52581353 156.845756,8.58604453 156.890764,8.66813184 C156.925762,8.7517417 156.930719,8.83992041 156.902734,8.92690589 C156.893034,8.957046 156.88104,8.98404737 156.86684,9.00808887 C157.596598,8.814472 158.337553,8.64381784 159.088802,8.49634607 C167.267839,6.89077981 175.335195,8.29442539 182.169181,11.9432139 L182.272925,11.9227149 L182.118615,11.8009792 C176.315225,7.26945285 169.035452,4.57308342 161.132074,4.57308342 Z M139.150792,15.2043685 L139.685527,15.7443896 L140.063361,15.3628179 L140.345137,15.6473801 L139.967303,16.0289518 L140.927899,16.9990492 C140.972728,17.0443204 141.014355,17.0669558 141.055979,17.0701898 C141.086718,17.0701898 141.119506,17.059842 141.152706,17.0341796 L141.177656,17.0119839 L141.395391,16.7920951 L141.677167,17.0766569 L141.404995,17.351518 C141.264109,17.4937987 141.120021,17.5617057 140.982332,17.5520046 C140.864661,17.5463457 140.751891,17.4911713 140.637588,17.3886482 L140.588487,17.3418169 L139.627892,16.3717194 L139.320499,16.6821506 L139.038723,16.3975888 L139.346115,16.0871576 L138.95227,15.6894173 L139.150792,15.2043685 Z M142.286167,14.0269836 C142.542383,14.1132164 142.781505,14.3022693 143.000714,14.596064 L143.065877,14.6873466 L141.594257,15.689783 C141.735884,15.8691171 141.883442,15.9837322 142.041909,16.0247226 C142.197848,16.0619217 142.357183,16.0306104 142.514857,15.9232063 C142.653762,15.8285888 142.743595,15.7177503 142.786894,15.5944825 C142.813663,15.5118926 142.816785,15.4109349 142.803536,15.2930378 L142.793682,15.2202783 L143.19162,14.949211 C143.268115,15.1618784 143.285589,15.3761363 143.231468,15.5895171 C143.161289,15.8524519 142.997948,16.0740393 142.738911,16.2504887 C142.4536,16.4448387 142.163824,16.5098398 141.879631,16.4441692 C141.572821,16.3773534 141.313067,16.1847129 141.097829,15.8624559 C140.902849,15.5705291 140.823378,15.2716293 140.864396,14.956851 C140.895373,14.6433959 141.058535,14.3888318 141.343849,14.1944819 C141.659198,13.9796741 141.974119,13.9196092 142.286167,14.0269836 Z M141.575412,14.5166496 C141.42525,14.6189391 141.336725,14.7399172 141.307397,14.8922812 C141.286092,15.017807 141.30429,15.1586544 141.368725,15.313937 L141.39919,15.3813682 L142.446591,14.6678992 C142.181155,14.3522586 141.890761,14.3018419 141.575412,14.5166496 Z M144.219403,12.1748437 C144.428155,12.1772714 144.632576,12.25833 144.827456,12.422124 L144.892057,12.4797921 L144.517381,12.7754163 C144.394825,12.6689974 144.272383,12.6147193 144.149271,12.6190017 C144.023374,12.6196799 143.897588,12.6724994 143.769128,12.7738565 C143.612119,12.8977374 143.535402,13.0511217 143.538195,13.2404286 C143.534633,13.4289472 143.620055,13.6285002 143.781751,13.8375111 C143.943451,14.0465223 144.114514,14.1785041 144.295724,14.2270372 C144.467009,14.2775979 144.635726,14.2431339 144.799871,14.1136222 C145.064154,13.9051011 145.120652,13.6564988 144.976905,13.3714332 L144.945488,13.3139352 L145.320168,13.0183106 C145.469712,13.3007472 145.518336,13.5641541 145.470393,13.7992968 C145.419656,14.0308358 145.27436,14.244133 145.038851,14.4299543 C144.756952,14.6523764 144.466795,14.7304254 144.164819,14.6669172 C143.871984,14.6078002 143.618621,14.4362926 143.395589,14.1480014 C143.178132,13.8669173 143.074642,13.5771596 143.085118,13.278728 C143.09515,12.957435 143.241112,12.6855778 143.526582,12.4603399 C143.762091,12.274519 143.993031,12.1793534 144.219403,12.1748437 Z M144.556513,10.2879124 L145.312426,11.3386279 C145.302183,11.1765649 145.328889,11.0269599 145.397864,10.8972126 C145.455852,10.7755289 145.546124,10.6753787 145.667016,10.586675 C145.894153,10.4200195 146.114245,10.3602786 146.329959,10.4111518 C146.512714,10.455117 146.687613,10.5826855 146.852708,10.7911614 L146.907372,10.8636464 L147.76177,12.0512506 L147.373441,12.3361777 L146.566954,11.215168 C146.44452,11.0449816 146.317386,10.9460718 146.187563,10.9056628 C146.047754,10.86693 145.902244,10.9058613 145.755708,11.013381 C145.62382,11.1101484 145.554845,11.2398962 145.551437,11.4063232 C145.545248,11.5542992 145.589023,11.7002396 145.680302,11.8459455 L145.722322,11.9083821 L146.494206,12.9812956 L146.105881,13.2662227 L144.168183,10.5728396 L144.556513,10.2879124 Z M149.043242,8.05288878 L150.278173,11.1396739 L149.833123,11.3212632 L148.598196,8.2344781 L149.043242,8.05288878 Z M152.205767,8.56175414 L152.235393,8.63537999 L152.753066,9.99729967 L152.304946,10.1710173 L151.801877,8.84752156 C151.659073,8.47181959 151.41434,8.35116153 151.076137,8.48226898 C150.949313,8.53143437 150.851397,8.61837663 150.794091,8.74835687 C150.739392,8.87242898 150.725005,9.01462644 150.756596,9.17275407 L150.772964,9.24149214 L151.277654,10.5692571 L150.829538,10.7429751 L149.990552,8.53572552 L150.438668,8.36200785 L150.542527,8.63524554 C150.584888,8.4914659 150.651287,8.37265491 150.740105,8.2745434 C150.827303,8.17216275 150.940164,8.09901988 151.075444,8.0465769 C151.594021,7.84554494 151.972326,8.01380424 152.205767,8.56175414 Z" id="Rohs"></path>
                </g>
            </g>
        </g>
    </g>
</svg>