<?xml version="1.0" encoding="UTF-8"?>
<svg width="80px" height="44px" viewBox="0 0 80 44" version="1.1" xmlns="http://www.w3.org/2000/svg" xmlns:xlink="http://www.w3.org/1999/xlink">
    <title>Combined Shape</title>
    <g id="Why-choose-us？" stroke="none" stroke-width="1" fill="none" fill-rule="evenodd">
        <g id="Apple-TV" transform="translate(-801.000000, -2765.000000)" fill="#313131" fill-rule="nonzero">
            <g id="优势" transform="translate(0.000000, 2229.000000)">
                <path d="M848.180065,536 L848.18,552.5 L848.808404,552.5 C849.61703,552.5 850.269776,553.147248 850.269776,553.949063 L850.269776,566.357875 L852.857,566.357 L852.857143,549.0625 L857.866,549.062 L857.866071,540.714286 L870.388393,540.714286 L870.388,549.062 L876.232143,549.0625 L876.232,566.357 L878.895771,566.357875 C879.704397,566.357875 880.357143,567.005123 880.357143,567.806938 L880.357143,572.260392 C880.357143,573.062207 879.704397,573.714286 878.895771,573.714286 L877.899503,573.713783 C878.316885,574.276328 878.577961,574.946033 878.651234,575.662198 C878.75779,576.708576 878.46234,577.730391 877.808477,578.545878 C877.048058,579.50383 875.929224,580 874.800704,580 C873.943416,580 873.081285,579.715071 872.364457,579.125562 C870.740724,577.790748 870.458784,575.395335 871.699526,573.714414 L858.259988,573.714364 C858.67806,574.277389 858.939561,574.945356 859.012904,575.662198 C859.119459,576.708576 858.82401,577.730391 858.170146,578.545878 C857.409727,579.50383 856.290894,580 855.15753,580 C854.300242,580 853.438111,579.715071 852.721282,579.125562 C851.917272,578.467277 851.413555,577.524063 851.307,576.482598 C851.205396,575.48485 851.4693,574.509434 852.06092,573.713934 L848.18,573.714 L848.180065,579.214286 L801,579.214286 L801,536 L848.180065,536 Z M874.860874,574.5 C874.80581,574.5 874.750746,574.5 874.695681,574.507979 C874.278765,574.55585 873.90118,574.763295 873.633724,575.090419 C873.090946,575.776582 873.193209,576.78189 873.869715,577.332416 C874.546221,577.882942 875.53738,577.77922 876.080158,577.093057 C876.347614,576.757954 876.465609,576.343065 876.418411,575.920197 C876.371213,575.49733 876.166688,575.114355 875.844168,574.843081 C875.560979,574.61968 875.21486,574.5 874.860874,574.5 Z M855.193497,574.5 C855.139304,574.5 855.08511,574.5 855.030917,574.507852 C854.620596,574.554967 854.248984,574.75913 853.985759,575.081079 C853.722534,575.410881 853.606405,575.819207 853.652857,576.235386 C853.699308,576.651564 853.900598,577.028481 854.218016,577.295463 C854.88382,577.83728 855.859301,577.735199 856.393493,577.05989 C856.656718,576.730089 856.772847,576.321762 856.726395,575.905584 C856.679944,575.489405 856.478654,575.112489 856.161236,574.845507 C855.882527,574.617786 855.541883,574.5 855.193497,574.5 Z M856,568.475 L850.269776,568.475117 L850.269776,571.617974 L856,571.617 L856,568.475 Z M871.2,568.475 L858.085,568.475 L858.085,571.617 L871.203162,571.617802 C871.201508,571.59032 871.200669,571.562622 871.200669,571.534729 L871.2,568.475 Z M878.220112,568.475117 L873.285,568.475 L873.285714,571.534729 L873.286,571.617 L878.220112,571.617974 L878.220112,568.475117 Z M868.71875,559.080357 L865.379464,559.080357 L865.379464,565.758929 L874.5625,565.758929 L874.5625,559.080357 L871.223214,559.080357 L871.223214,562.419643 L869.965479,561.751786 L868.71875,562.419643 L868.71875,559.080357 Z M857.866071,559.080357 L854.526786,559.080357 L854.526786,565.758929 L863.709821,565.758929 L863.709821,559.080357 L860.370536,559.080357 L860.370536,562.419643 L859.112801,561.751786 L857.866071,562.419643 L857.866071,559.080357 Z M823.252441,562.880022 L820.916016,562.880022 L820.916016,565.071429 L823.252441,565.071429 L823.252441,562.880022 Z M826.920898,562.880022 L824.584473,562.880022 L824.584473,565.071429 L826.920898,565.071429 L826.920898,562.880022 Z M830.583984,562.880022 L828.247559,562.880022 L828.247559,565.071429 L830.583984,565.071429 L830.583984,562.880022 Z M825.027588,551.697405 L822.594482,551.697405 L822.594482,559.571429 L825.027588,559.571429 L825.027588,556.38637 L827.686279,556.38637 L827.686279,559.571429 L830.130127,559.571429 L830.130127,551.697405 L827.686279,551.697405 L827.686279,554.452776 L825.027588,554.452776 L825.027588,551.697405 Z M834.179932,551.697405 L831.746826,551.697405 L831.746826,559.571429 L837.977295,559.571429 L837.977295,557.632464 L834.179932,557.632464 L834.179932,551.697405 Z M817.674561,551.697405 L814.059814,551.697405 L814.059814,559.571429 L817.674561,559.571429 C818.107831,559.571429 818.591225,559.499815 819.124756,559.356585 C819.515057,559.252743 819.880288,559.044168 820.220459,558.730852 C820.56063,558.417537 820.826496,558.029032 821.018066,557.565325 C821.209636,557.101618 821.30542,556.449037 821.30542,555.607561 C821.30542,555.070449 821.240967,554.561991 821.112061,554.082171 C820.983154,553.602351 820.775473,553.181619 820.489014,552.819964 C820.202554,552.458308 819.840009,552.180805 819.401367,551.987444 C818.962726,551.794084 818.387129,551.697405 817.674561,551.697405 L817.674561,551.697405 Z M817.099854,553.480608 C817.730065,553.480608 818.181232,553.634578 818.453369,553.942522 C818.725506,554.250467 818.861572,554.821587 818.861572,555.655901 C818.861572,556.286113 818.8007,556.741756 818.678955,557.022845 C818.55721,557.303933 818.388917,557.500871 818.174072,557.613665 C817.959227,557.726458 817.597577,557.782854 817.089111,557.782854 L817.089111,557.782854 L816.49292,557.782854 L816.49292,553.480608 Z M857.866071,550.732143 L854.526786,550.732143 L854.526786,557.410714 L863.709821,557.410714 L863.709821,550.732143 L860.370536,550.732143 L860.370536,554.071429 L859.112801,553.403571 L857.866071,554.071429 L857.866071,550.732143 Z M868.71875,550.732143 L865.379464,550.732143 L865.379464,557.410714 L874.5625,557.410714 L874.5625,550.732143 L871.223214,550.732143 L871.223214,554.071429 L869.965479,553.403571 L868.71875,554.071429 L868.71875,550.732143 Z M862.875,542.383929 L859.535714,542.383929 L859.535714,549.0625 L868.71875,549.0625 L868.71875,542.383929 L865.379464,542.383929 L865.379464,545.723214 L864.121729,545.055357 L862.875,545.723214 L862.875,542.383929 Z" id="Combined-Shape"></path>
            </g>
        </g>
    </g>
</svg>