<?xml version="1.0" encoding="UTF-8"?>
<svg width="91px" height="44px" viewBox="0 0 91 44" version="1.1" xmlns="http://www.w3.org/2000/svg" xmlns:xlink="http://www.w3.org/1999/xlink">
    <title>Combined Shape</title>
    <g id="Why-choose-us？" stroke="none" stroke-width="1" fill="none" fill-rule="evenodd">
        <g id="Apple-TV" transform="translate(-320.000000, -2438.000000)" fill="#313131">
            <g id="优势" transform="translate(0.000000, 2229.000000)">
                <path d="M368.037885,209 L368.037,222.6 L374.442936,222.6 L374.442,229.8 L385.79994,229.8 L394.53769,235.248437 L394.53769,239.039188 L405.746139,232.947656 L410.509661,235.744531 L410.509661,242.261385 L392.773017,252.279688 L382.912115,252.279688 L374.442,247.106 L374.442936,248.2 L368.037,248.199 L368.037885,253 L320,253 L320,209 L368.037885,209 Z M384.789182,232.966211 L374.455663,232.966211 L374.455663,242.498047 L383.971349,249.080078 L391.889117,249.005273 L407.337628,240.141797 L407.337628,237.482812 L407.337628,237.482812 C407.337628,237.482812 406.673563,237.236849 405.345432,236.744922 L390.802713,244.984375 L383.005744,239.425 L379.292464,239.426758 L379.292464,236.283594 L383.971349,236.283594 L391.219643,241.197852 L391.219643,237.171484 L384.789182,232.966211 Z M371.24041,225.8 L368.037885,225.8 L368.037885,245 L371.24041,245 L371.24041,225.8 Z M334.36241,233.782813 L331.883111,233.782813 L331.883111,241.8 L334.36241,241.8 L334.36241,239.842187 L335.643108,238.502344 L337.334285,241.8 L340.388256,241.8 L337.334285,236.807031 L340.256903,233.782813 L336.962117,233.782813 L334.36241,236.8125 L334.36241,233.782813 Z M347.776433,233.782813 L341.132131,233.782813 L341.132131,241.8 L347.896841,241.8 L347.896841,239.984375 L343.616903,239.984375 L343.616903,238.403906 L347.475415,238.403906 L347.475415,236.76875 L343.616903,236.76875 L343.616903,235.494531 L347.776433,235.494531 L347.776433,233.782813 Z M351.103596,233.782813 L348.350643,233.782813 L351.475764,238.442187 L351.475764,241.8 L353.960536,241.8 L353.960536,238.442187 L357.080184,233.782813 L354.343651,233.782813 L352.723623,236.489844 L351.103596,233.782813 Z M337.741798,222.582812 L335.267972,222.582812 L335.267972,227.3625 C335.267972,227.756252 335.344594,228.208331 335.49784,228.71875 C335.592707,229.035939 335.768756,229.344009 336.025991,229.642969 C336.283227,229.941929 336.566911,230.172525 336.877053,230.334766 C337.187195,230.497006 337.573042,230.605468 338.034607,230.660156 C338.496171,230.714844 338.922154,230.742188 339.312568,230.742188 C339.987582,230.742188 340.565897,230.652865 341.04753,230.474219 C341.394159,230.346614 341.725276,230.125132 342.040891,229.809766 C342.356506,229.494399 342.588197,229.126174 342.735971,228.705078 C342.883744,228.283982 342.95763,227.836461 342.95763,227.3625 L342.95763,227.3625 L342.95763,222.582812 L340.483804,222.582812 L340.483804,227.477344 C340.483804,227.922138 340.362485,228.265754 340.119845,228.508203 C339.877204,228.750652 339.542438,228.871875 339.115537,228.871875 C338.684987,228.871875 338.348397,228.748829 338.105756,228.502734 C337.863116,228.256639 337.741798,227.914846 337.741798,227.477344 L337.741798,227.477344 L337.741798,222.582812 Z M334.212132,222.582812 L326.67572,222.582812 L326.67572,224.5625 L329.204276,224.5625 L329.204276,230.6 L331.683575,230.6 L331.683575,224.5625 L334.212132,224.5625 L334.212132,222.582812 Z M348.692941,222.582812 L344.560776,222.582812 L344.560776,230.6 L347.051021,230.6 L347.051021,227.346094 L347.269944,227.346094 C347.496165,227.346094 347.698666,227.408072 347.877454,227.532031 C348.008808,227.626823 348.158404,227.832811 348.326246,228.15 L348.326246,228.15 L349.650728,230.6 L352.452938,230.6 L351.254336,228.275781 C351.195956,228.159114 351.080111,227.99323 350.906796,227.778125 C350.733482,227.56302 350.601217,227.422657 350.509999,227.357031 C350.374996,227.258593 350.159724,227.160157 349.864177,227.061719 C350.232699,226.977864 350.522768,226.872136 350.734395,226.744531 C351.066429,226.544009 351.327309,226.282423 351.517043,225.959766 C351.706777,225.637108 351.801643,225.253388 351.801643,224.808594 C351.801643,224.298175 351.677588,223.865236 351.429474,223.509766 C351.181361,223.154295 350.854804,222.910938 350.449795,222.779687 C350.044786,222.648437 349.459174,222.582812 348.692941,222.582812 L348.692941,222.582812 Z M355.506446,222.582812 L353.191339,222.582812 L353.191339,230.6 L355.522866,230.6 L355.522866,226.197656 L358.527579,230.6 L360.864578,230.6 L360.864578,222.582812 L358.527579,222.582812 L358.527579,227.017969 L355.506446,222.582812 Z M404.066298,209 L404.066,220.2 L408.870087,220.2 L393.65809,229.8 L378.446093,220.2 L383.249,220.2 L383.249882,209 L404.066298,209 Z M400.821634,212.2 L386.494546,212.2 L386.494546,221.246154 L385.751464,221.246154 L393.807426,226.059375 L401.330156,221.246154 L400.821634,221.246154 L400.821634,212.2 Z M348.140161,224.201562 C348.592604,224.201562 348.900917,224.270833 349.06511,224.409375 C349.229302,224.547917 349.311397,224.746613 349.311397,225.005469 C349.311397,225.18047 349.259404,225.335416 349.155415,225.470313 C349.051426,225.605209 348.917338,225.689062 348.753145,225.721875 C348.428408,225.794792 348.209487,225.83125 348.096377,225.83125 L348.096377,225.83125 L347.051021,225.83125 L347.051021,224.201562 Z" id="Combined-Shape"></path>
            </g>
        </g>
    </g>
</svg>