<?xml version="1.0" encoding="UTF-8"?>
<svg width="80px" height="80px" viewBox="0 0 80 80" version="1.1" xmlns="http://www.w3.org/2000/svg" xmlns:xlink="http://www.w3.org/1999/xlink">
    <title>UL</title>
    <g id="Why-choose-us？" stroke="none" stroke-width="1" fill="none" fill-rule="evenodd">
        <g id="Apple-TV" transform="translate(-560.000000, -839.000000)" fill="#787878" fill-rule="nonzero">
            <g id="ISO" transform="translate(320.000000, 800.000000)">
                <g id="iso9001" transform="translate(0.000000, 39.000000)">
                    <path d="M280,0 C302.091388,0 320,17.90861 320,40 C320,62.09139 302.091388,80 280,80 C257.908612,80 240,62.09139 240,40 C240,17.90861 257.908612,0 280,0 Z M280,6 C261.22232,6 246,21.2223184 246,40 C246,58.7776816 261.22232,74 280,74 C298.77768,74 314,58.7776816 314,40 C314,21.2223184 298.77768,6 280,6 Z M272,52.8 C274.650968,52.8 276.8,54.9490332 276.8,57.6 C276.8,60.2509668 274.650968,62.4 272,62.4 C269.349032,62.4 267.2,60.2509668 267.2,57.6 C267.2,54.9490332 269.349032,52.8 272,52.8 Z M291.016548,30.2203308 L291.016548,55.468558 L300,55.468558 L300,61.7096928 L283.451536,61.7096928 L283.451536,30.2203308 L291.016548,30.2203308 Z M272,53.6 C269.79086,53.6 268,55.3908612 268,57.6 C268,59.8091388 269.79086,61.6 272,61.6 C274.20914,61.6 276,59.8091388 276,57.6 C276,55.3908612 274.20914,53.6 272,53.6 Z M272.4424,54.4024 C273.0472,54.4024 273.5344,54.5368 273.8872,54.814 C274.2568,55.1164 274.4416,55.5448 274.4416,56.116 C274.4416,56.4352 274.3576,56.7124 274.1896,56.956 C274.01572,57.19792 273.787408,57.364996 273.504664,57.457228 L273.4084,57.4852 L273.4084,57.502 C273.91912,57.61372 274.209992,57.937708 274.295416,58.473964 L274.3072,58.5604 L274.408,59.518 C274.43824,59.85064 274.53652,60.122044 274.70284,60.332212 L274.7608,60.4 L273.7696,60.4 C273.642668,60.2357332 273.562192,60.0050964 273.52228,59.719888 L273.5092,59.6104 L273.4336,58.8628 C273.4,58.5268 273.2908,58.2916 273.1144,58.1404 C272.94808,58.00432 272.720524,57.93628 272.425608,57.9240328 L272.3248,57.922 L270.7036,57.922 L270.7036,60.4 L269.788,60.4 L269.788,54.4024 L272.4424,54.4024 Z M272.3164,55.1836 L270.7036,55.1836 L270.7036,57.1408 L272.3248,57.1408 C272.728,57.1408 273.0304,57.0484 273.232,56.8804 C273.4252,56.7124 273.526,56.4688 273.526,56.1496 C273.526,55.8136 273.4252,55.57 273.2404,55.4188 C273.0388,55.2592 272.7364,55.1836 272.3164,55.1836 Z M267.612292,18.4 L267.612292,42.32435 C267.612292,43.1438928 267.8487,43.7900708 268.321512,44.262884 C268.794328,44.7356972 269.31442,44.9878644 269.881796,45.0193852 L269.881796,45.0193852 L270.212764,45.0193852 C270.275808,45.0193852 270.323088,45.0036248 270.354608,44.972104 C270.921984,44.9090624 271.44208,44.6253744 271.914892,44.12104 C272.387708,43.616706 272.624112,42.9074864 272.624112,41.9933808 L272.624112,41.9933808 L272.624112,18.4 L280.330968,18.4 L280.330968,40.6695036 C280.330968,44.4520096 279.464144,47.036722 277.730496,48.4236408 C275.996848,49.8105596 273.648544,50.5040188 270.68558,50.5040188 C267.15524,50.5040188 264.491724,49.8105596 262.695036,48.4236408 C260.898344,47.036722 260,44.7829788 260,41.6624112 L260,41.6624112 L260,18.4 L267.612292,18.4 Z" id="UL"></path>
                </g>
            </g>
        </g>
    </g>
</svg>