<?xml version="1.0" encoding="UTF-8"?>
<svg width="31px" height="34px" viewBox="0 0 31 34" version="1.1" xmlns="http://www.w3.org/2000/svg" xmlns:xlink="http://www.w3.org/1999/xlink">
    <title>Shape</title>
    <g id="Why-choose-us？" stroke="none" stroke-width="1" fill="none" fill-rule="evenodd">
        <g id="Apple-TV" transform="translate(-923.000000, -900.000000)" fill="#787878" fill-rule="nonzero">
            <g id="ISO" transform="translate(320.000000, 800.000000)">
                <g id="物流" transform="translate(427.000000, 39.000000)">
                    <path d="M191.004108,61 C185.217679,61 180.169274,62.065921 176,64.1699147 L176,80.9864995 C176,84.5251652 177.395849,87.4847766 180.037303,89.5455572 C182.489936,91.4613343 190.074218,94.6178049 191.004108,95 C191.885269,94.6350901 199.5599,91.4306051 201.973958,89.5455572 C204.613381,87.4857369 206.010245,84.5251652 206.010245,80.9864995 L206.010245,64.1699147 C201.841986,62.0668813 196.792566,61 191.003092,61 L191.004108,61 Z M199.572082,64.2553805 C201.297859,64.2774671 202.993181,64.3792578 204.630639,64.5242614 L204.630639,80.9864995 C204.630639,84.1506525 203.425641,86.7059821 201.097872,88.5305316 C199.019834,90.1601423 192.753233,92.8326272 191.004108,93.5672485 C189.231633,92.8230244 182.94879,90.1159691 180.907297,88.5305316 C178.594756,86.7376716 177.377576,84.1218438 177.377576,80.9874598 L177.377576,71.3682427 C184.023847,65.5642546 192.094392,64.1622324 199.572082,64.2563407 L199.572082,64.2553805 Z M191.39596,71.9213693 C189.971687,71.9213693 188.823538,72.2248206 187.877406,72.8057957 L187.877406,89.0029939 L190.488405,89.0029939 L190.488405,83.7713382 C190.749302,83.8443201 191.127957,83.913461 191.663963,83.913461 C194.560223,83.913461 196.22509,81.4263119 196.22509,77.7964188 C196.22509,74.1742078 194.511495,71.9223296 191.39596,71.9223296 L191.39596,71.9213693 Z M200.319242,71.9213693 C198.601587,71.9693837 196.805763,73.1534204 196.816878,75.1613851 C196.820991,76.4837034 197.205738,77.4728012 199.357883,78.6750834 C200.507047,79.3165566 200.969962,79.740044 200.98925,80.5188386 C201.011583,81.3869401 200.382182,81.9093375 199.424884,81.9064565 C198.59245,81.8997346 197.59556,81.4599221 196.928598,80.8943117 L196.928598,83.1826809 C197.746819,83.6465006 198.766043,83.9537932 199.797448,83.9537932 C202.377992,83.9537932 203.529187,82.2185505 203.57893,80.6283116 C203.628673,79.1792351 203.207381,78.0835452 201.025796,76.8630176 C200.052254,76.3185336 199.283776,75.961306 199.309155,75.0576738 C199.334534,74.1742078 200.105043,73.8640344 200.844081,73.8697961 C201.756713,73.8774784 202.638889,74.3585834 203.183017,74.8905835 L203.183017,72.7299328 C202.724163,72.3938315 201.752652,71.8800768 200.319242,71.9213693 Z M178.712515,72.1729651 L178.712515,79.9858781 C178.712515,82.6199515 180.02106,83.9537932 182.603635,83.9537932 C184.201501,83.9537932 185.540501,83.601367 186.537391,82.9550923 L186.537391,72.1739254 L183.930452,72.1739254 L183.930452,81.5425069 C183.646207,81.7278427 183.224914,81.8459583 182.694999,81.8459583 C181.499137,81.8459583 181.320469,80.802124 181.320469,80.0972717 L181.320469,72.1748857 L178.7115,72.1748857 L178.712515,72.1729651 Z M191.413218,73.9235723 C192.927841,73.9235723 193.555212,75.074959 193.555212,77.8588376 C193.555212,80.576456 192.838507,81.888211 191.336066,81.888211 C190.981774,81.888211 190.675195,81.8056262 190.488405,81.7384059 L190.488405,74.1041067 C190.699559,74.0032763 191.058926,73.9235723 191.413218,73.9235723 Z" id="Shape"></path>
                </g>
            </g>
        </g>
    </g>
</svg>