<?xml version="1.0" encoding="UTF-8"?>
<svg width="104px" height="20px" viewBox="0 0 104 20" version="1.1" xmlns="http://www.w3.org/2000/svg" xmlns:xlink="http://www.w3.org/1999/xlink">
    <title>形状结合</title>
    <g id="Why-choose-us？" stroke="none" stroke-width="1" fill="none" fill-rule="evenodd">
        <g id="Apple-TV" transform="translate(-1496.000000, -841.000000)" fill="#787878" fill-rule="nonzero">
            <g id="ISO" transform="translate(320.000000, 800.000000)">
                <g id="付款" transform="translate(881.000000, 39.000000)">
                    <path d="M399,2 L399,22 L295,22 L295,2 L399,2 Z M359.25,4.75 L358.25,4.75 L361.5,19.75 L362.5,19.75 L359.25,4.75 Z M357,4.75 L356,4.75 L359.25,19.75 L360.25,19.75 L357,4.75 Z M392.342186,4.75 L386.725494,4.75 L386.72528,14.6984667 C386.718459,15.1296138 386.54352,15.9796848 385.464649,15.9796848 C384.730099,15.9796848 384.301938,15.5436325 384.180168,14.6715279 L384.180168,14.6715279 L384.180168,4.75 L382.879549,4.8455 L380.128824,18.3190079 C380.944743,19.2730026 382.984159,19.75 386.247073,19.75 C389.509987,19.75 391.541691,18.4166667 392.342186,15.75 L392.342186,15.75 L392.342186,4.75 Z M365.69632,4.75 L360.651066,4.75 L363.953903,19.75 L369.9837,19.75 L371.54039,9.93974685 L373.009812,19.75 L379.278496,19.75 L382.408669,4.75 L377.265896,4.75 L376.07225,14.24975 L374.407234,4.75 L368.554962,4.75 L367.15,14.24975 L365.69632,4.75 Z M341.738479,12.25 C340.641705,12.25 339.786098,12.5798153 339.171659,13.2394459 C338.55722,13.8990765 338.25,14.8209103 338.25,16.0049472 C338.25,16.8525725 338.405146,17.5583773 338.715438,18.1223615 C339.02573,18.6863456 339.430492,19.0986148 339.929724,19.3591689 C340.428956,19.6197229 341.059524,19.75 341.821429,19.75 C342.571045,19.75 343.197004,19.5991095 343.699309,19.2973285 C344.201613,18.9955475 344.585638,18.5733839 344.851382,18.0308377 C345.117128,17.4882915 345.25,16.7932058 345.25,15.9455805 C345.25,14.7780343 344.945853,13.8702177 344.337558,13.2221306 C343.729263,12.5740435 342.862903,12.25 341.738479,12.25 Z M318.840116,12.5 L316.5,12.5 L316.5,17.3910162 L316.501136,17.4631675 C316.520835,18.0819788 316.796619,18.531787 317.328488,18.812592 C317.880814,19.1041973 318.699612,19.25 319.784884,19.25 C320.695737,19.25 321.417636,19.1041973 321.950581,18.812592 C322.483527,18.5209867 322.75,17.9775405 322.75,17.1822533 L322.75,17.1822533 L322.75,12.5 L320.380814,12.5 L320.380814,17.4606038 L320.3793,17.507755 C320.368197,17.6773518 320.296027,17.8107511 320.162791,17.9079529 C320.017442,18.0139912 319.857558,18.0736377 319.68314,18.0868925 C319.67345,18.0935199 319.658915,18.0968336 319.639535,18.0968336 L319.639535,18.0968336 L319.537791,18.0968336 L319.473065,18.0921737 C319.323628,18.0762265 319.18532,18.0247607 319.05814,17.9377761 C318.912791,17.8383653 318.840116,17.7025037 318.840116,17.5301915 L318.840116,17.5301915 L318.840116,12.5 Z M327.378842,12.5 L325,12.5 L325,19.25 L327.275414,19.25 L326.96513,15.4898649 L328.841608,19.25 L331.25,19.25 L331.25,12.5 L328.945036,12.5 L329.255319,16.402027 L327.378842,12.5 Z M336.25,12.5 L333.75,12.5 L333.75,19.25 L336.25,19.25 L336.25,12.5 Z M349.378842,12.5 L347,12.5 L347,19.25 L349.275414,19.25 L348.96513,15.4898649 L351.091608,19.25 L353.5,19.25 L353.5,12.5 L351.195036,12.5 L351.505319,16.402027 L349.378842,12.5 Z M341.738581,14.25 C342.049619,14.25 342.295949,14.3835931 342.477569,14.6507794 C342.65919,14.9179656 342.75,15.3411271 342.75,15.9202638 C342.75,16.6085132 342.662996,17.0855316 342.488989,17.351319 C342.314981,17.6171063 342.069195,17.75 341.751631,17.75 C341.442768,17.75 341.198614,17.6143086 341.019168,17.3429257 C340.839723,17.0715428 340.75,16.6252998 340.75,16.0041967 C340.75,15.377498 340.840267,14.9284572 341.020799,14.6570744 C341.201332,14.3856914 341.440593,14.25 341.738581,14.25 Z M342.237251,4.75 L338.75,4.75 L338.75,11.5 L341.159645,11.5 L341.159645,8.86486488 L341.713415,8.86486488 L341.783725,8.86558558 C342.104701,8.8723123 342.32572,8.92612612 342.446785,9.02702702 C342.576497,9.13513512 342.641352,9.30067568 342.641352,9.52364865 L342.641352,9.52364865 L342.641352,10.9324324 L342.64215,10.9884755 C342.648526,11.2060511 342.69316,11.3444647 342.776053,11.4037162 C342.865854,11.4679054 343.06541,11.5 343.374723,11.5 L343.374723,11.5 L345.5,11.5 L345.5,11.2871622 L345.462817,11.2851035 C345.376602,11.2754962 345.294207,11.2322635 345.215632,11.1554054 C345.125832,11.0675676 345.080931,10.8986487 345.080931,10.6486487 L345.080931,10.6486487 L344.976164,9.00675675 L344.97456,8.96099352 C344.960663,8.765151 344.85643,8.60135135 344.661862,8.4695946 C344.452328,8.3277027 344.162971,8.22297297 343.793791,8.1554054 C344.262749,8.01351353 344.594512,7.80067567 344.78908,7.5168919 C344.983648,7.2331081 345.080931,6.875 345.080931,6.44256757 C345.031042,5.84121623 344.751663,5.40878377 344.242794,5.14527027 C343.733925,4.88175675 343.06541,4.75 342.237251,4.75 L342.237251,4.75 Z M349.378842,4.75 L347,4.75 L347,11.5 L349.275414,11.5 L348.96513,7.73986488 L351.091608,11.5 L353.5,11.5 L353.5,4.75 L351.195036,4.75 L351.505319,8.65202702 L349.378842,4.75 Z M319.75,4.5 C318.955882,4.5 318.303922,4.66097677 317.794118,4.9829303 C317.284314,5.30488383 316.985294,5.661688 316.897059,6.05334283 L316.897059,6.05334283 L316.895221,6.10312945 L316.884191,6.2027027 L316.882353,6.25248933 L316.880515,6.26244665 L316.875,6.27240398 L316.869485,6.2823613 L316.867647,6.29231863 L316.86683,6.3044887 C316.865741,6.3118645 316.863562,6.31776513 316.860294,6.3221906 C316.855392,6.32882883 316.852941,6.33546705 316.852941,6.34210528 C316.852941,6.8598862 317.04902,7.27145568 317.441176,7.57681365 C317.833333,7.88217165 318.264706,8.137743 318.735294,8.34352775 C318.882353,8.41654813 319.029412,8.4829303 319.176471,8.54267425 C319.323529,8.6024182 319.465686,8.66548128 319.602941,8.73186345 C319.887255,8.85798958 320.125,8.9907539 320.316176,9.13015648 C320.507353,9.26955903 320.602941,9.43551445 320.602941,9.62802275 C320.602941,9.81389285 320.531863,9.96159318 320.389706,10.0711238 C320.247549,10.1806544 320.088235,10.2486961 319.911765,10.2752489 C319.892157,10.2818872 319.870098,10.2852063 319.845588,10.2852063 L319.845588,10.2852063 L319.735294,10.2852063 L319.676957,10.2815854 C319.484119,10.2634812 319.307487,10.1850295 319.147059,10.0462305 C318.970588,9.89355145 318.882353,9.66785208 318.882353,9.3691323 C318.882353,9.34921765 318.884804,9.32598388 318.889706,9.299431 C318.894608,9.27287815 318.901961,9.24632528 318.911765,9.2197724 L318.911765,9.2197724 L318.911765,9.17496445 L318.913399,9.15892208 C318.915577,9.14859598 318.919935,9.13900743 318.926471,9.13015648 L318.926471,9.13015648 L318.926471,9.05049788 L316.779412,9.05049788 L316.779412,9.12019915 L316.777778,9.14564565 C316.775599,9.1618724 316.771242,9.176624 316.764706,9.18990043 L316.764706,9.18990043 L316.764706,9.26955903 L316.762868,9.31934565 L316.751838,9.41891893 L316.75,9.46870555 C316.75,10.0993362 316.973039,10.5872452 317.419118,10.9324324 C317.865196,11.2776197 318.504902,11.4668089 319.338235,11.5 L319.338235,11.5 L319.647059,11.4900427 L319.791344,11.4885439 C320.555304,11.4725571 321.230248,11.3286754 321.816176,11.056899 C322.438725,10.7681366 322.75,10.2321005 322.75,9.4487909 L322.75,9.4487909 L322.75,9.27951635 L322.744283,9.20273293 C322.69981,8.72203473 322.498284,8.34767663 322.139706,8.0796586 C321.762255,7.79753438 321.348039,7.56685633 320.897059,7.38762448 C320.759804,7.33451873 320.625,7.28307255 320.492647,7.23328593 C320.360294,7.1834993 320.235294,7.1320531 320.117647,7.07894738 C319.813725,6.95945945 319.556373,6.83167378 319.345588,6.69559033 C319.134804,6.55950688 319.029412,6.38857278 319.029412,6.18278805 C319.029412,6.0433855 319.10049,5.9272167 319.242647,5.83428165 C319.384804,5.7413466 319.539216,5.69155998 319.705882,5.68492178 L319.705882,5.68492178 L319.75,5.68492178 L319.794118,5.68616643 L319.838235,5.68990043 C319.867647,5.69321952 319.901961,5.6981982 319.941176,5.70483642 C320.107843,5.7380275 320.259804,5.8176861 320.397059,5.94381223 C320.534314,6.06993835 320.602941,6.24917023 320.602941,6.48150783 L320.602941,6.48150783 L320.602941,6.67069703 L322.75,6.67069703 L322.75,6.53129445 L322.748847,6.4566272 C322.728082,5.79113748 322.426996,5.30156473 321.845588,4.98790895 C321.242647,4.66263632 320.544118,4.5 319.75,4.5 Z M315.25,4.75 L310,4.75 L310,11.5 L315.25,11.5 L315.25,10.1621622 L312.371968,10.1621622 L312.371968,8.72297297 L315.042453,8.72297297 L315.042453,7.3141892 L312.371968,7.3141892 L312.371968,6.0168919 L315.25,6.0168919 L315.25,4.75 Z M300.766667,4.75 L298.5,4.75 L300.144444,11.5 L302.662963,11.5 L303.492593,6.86824325 L304.203704,11.5 L306.825926,11.5 L308.5,4.75 L306.307407,4.75 L305.581481,9.3108108 L304.618519,4.75 L302.455556,4.75 L301.388889,9.3108108 L300.766667,4.75 Z M337,4.75 L331.75,4.75 L331.75,11.5 L337,11.5 L337,10.1621622 L334.121968,10.1621622 L334.121968,8.72297297 L336.792453,8.72297297 L336.792453,7.3141892 L334.121968,7.3141892 L334.121968,6.0168919 L337,6.0168919 L337,4.75 Z M330,4.75 L324,4.75 L324,6.08783785 L325.847291,6.08783785 L325.847291,11.5 L328.256158,11.5 L328.256158,6.08783785 L330,6.08783785 L330,4.75 Z M341,5.75 C341.383839,5.75 341.704545,5.78130885 341.962121,5.84392655 C342.219697,5.90654425 342.39899,6.12900188 342.5,6.51129943 L342.5,6.51129943 L342.5,6.69915255 L342.498687,6.75478343 C342.486431,7.0094727 342.388384,7.19526053 342.204545,7.3121469 C342.007576,7.4373823 341.792929,7.5 341.560606,7.5 L341.560606,7.5 L341,7.5 L341,5.75 Z M393.98,4.658 C393.866,4.658 393.7715,4.6835 393.6965,4.7345 C393.617,4.7885 393.578,4.862 393.578,4.9565 C393.578,5.0495 393.6185,5.1215 393.701,5.171 C393.734,5.189 393.815,5.2175 393.947,5.2595 C394.0655,5.2955 394.136,5.3195 394.16,5.3315 C394.2275,5.366 394.262,5.4125 394.262,5.4725 C394.262,5.5205 394.238,5.558 394.19,5.585 C394.142,5.612 394.0775,5.627 393.9965,5.627 C393.9065,5.627 393.8405,5.6105 393.797,5.5775 C393.749,5.5415 393.719,5.48 393.707,5.396 L393.707,5.396 L393.545,5.396 L393.549447,5.43966667 C393.565167,5.55255555 393.611833,5.637 393.6905,5.693 C393.764,5.744 393.866,5.771 393.9965,5.771 C394.1315,5.771 394.2365,5.744 394.3115,5.69 C394.3865,5.6345 394.424,5.5595 394.424,5.4635 C394.424,5.3645 394.3775,5.288 394.286,5.2325 C394.244,5.207 394.1495,5.1725 394.0055,5.1275 C393.905,5.0975 393.8435,5.075 393.8195,5.0615 C393.7655,5.033 393.74,4.9955 393.74,4.9475 C393.74,4.8935 393.7625,4.8545 393.809,4.8305 C393.8465,4.8095 393.9005,4.799 393.971,4.799 C394.052,4.799 394.112,4.814 394.154,4.8455 C394.196,4.8755 394.223,4.9265 394.238,4.9955 L394.238,4.9955 L394.4,4.9955 L394.394583,4.95309863 C394.378485,4.85759375 394.338125,4.7860625 394.2725,4.7375 C394.202,4.6835 394.1045,4.658 393.98,4.658 Z M394.769,4.679 L394.5755,4.679 L394.5755,5.75 L394.739,5.75 L394.739,4.985 L394.745,4.985 L395.0735,5.75 L395.2145,5.75 L395.543,4.985 L395.549,4.985 L395.549,5.75 L395.7125,5.75 L395.7125,4.679 L395.519,4.679 L395.147,5.537 L395.1425,5.537 L394.769,4.679 Z" id="形状结合"></path>
                </g>
            </g>
        </g>
    </g>
</svg>