<?xml version="1.0" encoding="UTF-8"?>
<svg width="100px" height="89px" viewBox="0 0 100 89" version="1.1" xmlns="http://www.w3.org/2000/svg" xmlns:xlink="http://www.w3.org/1999/xlink">
    <title>积分</title>
    <g id="规范" stroke="none" stroke-width="1" fill="none" fill-rule="evenodd">
        <g id="Artboard" transform="translate(-824.000000, -661.000000)">
            <g id="积分" transform="translate(824.000000, 661.000000)">
                <path d="M38.3197081,0 L61.32,13.279 L49.824,19.916 L38.3197081,13.2743363 L11.4959124,28.7610619 L11.4959124,59.7345133 L38.3197081,75.2212389 L49.823,68.579 L61.319,75.216 L38.3197081,88.4955752 L-1.64698147e-13,66.3716814 L-1.69139039e-13,22.1238938 L38.3197081,0 Z" id="形状结合" fill="#313131"></path>
                <path d="M61.3285577,0 L99.6482658,22.1238938 L99.6482658,66.3716814 L61.3285577,88.4955752 L23.0088496,66.3716814 L23.0088496,22.1238938 L61.3285577,0 Z M88.1518496,40.265 L34.5038496,40.265 L34.504762,59.7345133 L61.3285577,75.2212389 L88.1523534,59.7345133 L88.1518496,40.265 Z M60.8860798,60.619469 L62.1864897,63.2543872 L65.0942945,63.676916 L62.9901872,65.7279137 L63.4868995,68.623969 L60.8860798,67.2566372 L58.2852601,68.623969 L58.7819725,65.7279137 L56.6778651,63.676916 L59.58567,63.2543872 L60.8860798,60.619469 Z M76.3763453,53.8548673 L76.5310049,53.8587683 C76.8265078,53.8743724 77.0391139,53.9367889 77.1688232,54.0460177 C77.2985324,54.1552465 77.372652,54.3444465 77.3911819,54.6136175 L77.3958143,54.7548673 L77.3958143,54.8424779 L76.5515665,55.0415929 L76.5515665,54.5716814 L73.8595311,54.5716814 L73.8595311,55.4557522 L76.4241329,55.4557522 L76.5849691,55.4598158 C76.891525,55.4760701 77.107382,55.5410872 77.23254,55.6548673 C77.357698,55.7686473 77.4292169,55.9741015 77.4470966,56.2712299 L77.4515665,56.4274336 L77.4515665,56.9929204 L77.4470966,57.1491241 C77.4292169,57.4462525 77.357698,57.6517067 77.23254,57.7654867 C77.107382,57.8792668 76.891525,57.9442839 76.5849691,57.9605382 L76.4241329,57.9646018 L73.8834249,57.9646018 L73.7225888,57.9605382 C73.4160329,57.9442839 73.2001759,57.8792668 73.0750179,57.7654867 C72.9498598,57.6517067 72.878341,57.4462525 72.8604612,57.1491241 L72.8559913,56.9929204 L72.8559913,56.8814159 L73.7002391,56.7061947 L73.7002391,57.1920354 L76.6073188,57.1920354 L76.6073188,56.2522124 L74.042717,56.2522124 L73.8819621,56.2481488 C73.5757312,56.2318945 73.3611746,56.1668774 73.2382922,56.0530973 C73.1154098,55.9393173 73.0451912,55.7338631 73.0276366,55.4367347 L73.023248,55.280531 L73.023248,54.8265487 L73.0276366,54.670345 C73.0451912,54.3732165 73.1154098,54.1677623 73.2382922,54.0539823 C73.3611746,53.9402023 73.5757312,53.8751851 73.8819621,53.8589308 L74.042717,53.8548673 L76.3763453,53.8548673 Z M71.8205931,53.8548673 L71.8205931,54.5876106 L69.9250179,54.5876106 L69.9250179,57.9646018 L68.9692657,57.9646018 L68.9692657,54.5876106 L67.081655,54.5876106 L67.081655,53.8548673 L71.8205931,53.8548673 Z M61.7374072,53.8548673 L64.6285577,56.2761062 L64.7467524,56.3780531 C64.8962745,56.5097345 65.0135134,56.6244248 65.0984692,56.7221239 C65.0757132,56.3944374 65.0627098,56.1740293 65.0594589,56.0608994 L65.0586462,56.0132743 L65.0586462,53.8548673 L65.9188232,53.8548673 L65.9188232,57.9646018 L65.2657258,57.9646018 L62.2471418,55.4238938 L62.1241329,55.3159292 C62.0450769,55.2427729 61.9719205,55.1672566 61.9046639,55.0893805 C61.9245754,55.2884956 61.9370201,55.4607301 61.941998,55.6060841 L61.9444869,55.7424779 L61.9444869,57.9646018 L61.0843099,57.9646018 L61.0843099,53.8548673 L61.7374072,53.8548673 Z M58.9896196,53.8548673 L58.9896196,57.9646018 L58.0338674,57.9646018 L58.0338674,53.8548673 L58.9896196,53.8548673 Z M54.9993541,53.8548673 L55.1601091,53.8589308 C55.4663399,53.8751851 55.6808965,53.9402023 55.8037789,54.0539823 C55.9266614,54.1677623 55.9968799,54.3732165 56.0144345,54.670345 L56.0188232,54.8265487 L56.0188232,56.9929204 L56.0144345,57.1491241 C55.9968799,57.4462525 55.9266614,57.6517067 55.8037789,57.7654867 C55.6808965,57.8792668 55.4663399,57.9442839 55.1601091,57.9605382 L54.9993541,57.9646018 L51.9728055,57.9646018 L51.8120506,57.9605382 C51.5058197,57.9442839 51.2912631,57.8792668 51.1683807,57.7654867 C51.0454983,57.6517067 50.9752797,57.4462525 50.9577251,57.1491241 L50.9533365,56.9929204 L50.9533365,54.8265487 L50.9577251,54.670345 C50.9752797,54.3732165 51.0454983,54.1677623 51.1683807,54.0539823 C51.2912631,53.9402023 51.5058197,53.8751851 51.8120506,53.8589308 L51.9728055,53.8548673 L54.9993541,53.8548673 Z M48.6436019,53.8548673 L48.7802726,53.85958 C49.2613534,53.8941404 49.5219388,54.1187831 49.5620289,54.5335079 L49.5674957,54.6513274 L49.5674957,55.5672566 L49.5620289,55.6850762 C49.5219388,56.099801 49.2613534,56.3244436 48.7802726,56.359004 L48.6436019,56.3637168 L46.063071,56.3637168 L46.063071,57.9646018 L45.123248,57.9646018 L45.123248,53.8548673 L48.6436019,53.8548673 Z M55.063071,54.5876106 L51.9090887,54.5876106 L51.9090887,57.1920354 L55.063071,57.1920354 L55.063071,54.5876106 Z M48.2135134,54.5637168 L46.063071,54.5637168 L46.063071,55.6548673 L48.2135134,55.6548673 C48.362186,55.6548673 48.4657258,55.6389381 48.5241329,55.6070796 C48.5878497,55.5688496 48.6260798,55.5017345 48.6388232,55.4057345 L48.6436019,55.3283186 L48.6436019,54.8902655 L48.6388232,54.8128496 C48.6260798,54.7168496 48.5878497,54.6497345 48.5241329,54.6115044 C48.4657258,54.579646 48.362186,54.5637168 48.2135134,54.5637168 Z M77.8595311,46.7752212 L78.0819825,46.7805575 C78.7333276,46.8125752 79.2405931,46.9886726 79.6037789,47.3088496 C80.0073188,47.6646018 80.2090887,48.1637168 80.2090887,48.8061947 C80.2090887,49.2150442 80.1161683,49.5867257 79.9303276,49.9212389 C79.7285577,50.2716814 79.4471418,50.5238938 79.0860798,50.6778761 C78.7980267,50.7986726 78.385983,50.8666206 77.8499487,50.8817201 L77.6126285,50.8849558 L75.2152834,50.8849558 L75.2152834,46.7752212 L77.8595311,46.7752212 Z M72.3480267,46.7752212 L72.4846974,46.779934 C72.9657782,46.8144944 73.2263636,47.039137 73.2664537,47.4538619 L73.2719205,47.5716814 L73.2719205,48.5353982 L73.2664537,48.6532178 C73.2263636,49.0679426 72.9657782,49.2925852 72.4846974,49.3271456 L72.3480267,49.3318584 L71.8064338,49.3318584 L73.702009,50.8849558 L72.3320975,50.8849558 L70.6754603,49.3318584 L69.7674957,49.3318584 L69.7674957,50.8849558 L68.8276727,50.8849558 L68.8276727,46.7752212 L72.3480267,46.7752212 Z M65.1480267,46.7752212 L67.5055488,50.8849558 L66.4303276,50.8849558 L65.9365223,49.9849558 L63.3320975,49.9849558 L62.8542214,50.8849558 L61.8984692,50.8849558 L64.2241329,46.7752212 L65.1480267,46.7752212 Z M55.5586462,46.7752212 L56.602009,49.5309735 L57.6931595,46.7752212 L58.362186,46.7752212 L59.4772303,49.5309735 L60.4728055,46.7752212 L61.3250179,46.7752212 L59.7400621,50.8849558 L59.0949294,50.8849558 L57.9639559,48.0415929 L56.8170533,50.8849558 L56.1559913,50.8849558 L54.5710356,46.7752212 L55.5586462,46.7752212 Z M46.4312126,46.7752212 L46.5678832,46.779934 C47.048964,46.8144944 47.3095495,47.039137 47.3496395,47.4538619 L47.3551064,47.5716814 L47.3551064,48.5353982 L47.3496395,48.6532178 C47.3095495,49.0679426 47.048964,49.2925852 46.5678832,49.3271456 L46.4312126,49.3318584 L45.8896196,49.3318584 L47.7851949,50.8849558 L46.4152834,50.8849558 L44.7586462,49.3318584 L43.8506816,49.3318584 L43.8506816,50.8849558 L42.9108586,50.8849558 L42.9108586,46.7752212 L46.4312126,46.7752212 Z M53.5037789,46.7752212 L53.5037789,47.4761062 L50.2542214,47.4761062 L50.2542214,48.3920354 L52.1497966,48.3920354 L52.1497966,49.0929204 L50.2542214,49.0929204 L50.2542214,50.1123894 L53.5436019,50.1123894 L53.5436019,50.8849558 L49.2984692,50.8849558 L49.2984692,46.7752212 L53.5037789,46.7752212 Z M77.8674957,47.5079646 L76.1710356,47.5079646 L76.1710356,50.1123894 L77.4055488,50.1123894 C78.0374072,50.1123894 78.4913895,50.019469 78.7674957,49.8336283 C79.0701506,49.6318584 79.221478,49.2840708 79.221478,48.7902655 C79.221478,47.9353982 78.7701506,47.5079646 77.8674957,47.5079646 Z M64.6542214,47.5716814 L63.7382922,49.2442478 L65.5382922,49.2442478 L64.6542214,47.5716814 Z M46.0011241,47.4840708 L43.8506816,47.4840708 L43.8506816,48.6309735 L46.0011241,48.6309735 C46.1497966,48.6309735 46.2533365,48.6150442 46.3117435,48.5831858 C46.3754603,48.5449558 46.4136904,48.4778407 46.4264338,48.3818407 L46.4312126,48.3044248 L46.4312126,47.8106195 L46.4264338,47.7332035 C46.4136904,47.6372035 46.3754603,47.5700885 46.3117435,47.5318584 C46.2533365,47.5 46.1497966,47.4840708 46.0011241,47.4840708 Z M71.9179382,47.4840708 L69.7674957,47.4840708 L69.7674957,48.6309735 L71.9179382,48.6309735 C72.0666108,48.6309735 72.1701506,48.6150442 72.2285577,48.5831858 C72.2922745,48.5449558 72.3305046,48.4778407 72.343248,48.3818407 L72.3480267,48.3044248 L72.3480267,47.8106195 L72.343248,47.7332035 C72.3305046,47.6372035 72.2922745,47.5700885 72.2285577,47.5318584 C72.1701506,47.5 72.0666108,47.4840708 71.9179382,47.4840708 Z M87.0851949,32.5876106 L83.3860798,32.5876106 C82.9058438,32.5876106 82.5781152,32.6687316 82.402894,32.8309735 C82.2495754,32.9729351 82.1633337,33.2316602 82.1441689,33.6071488 L82.1400621,33.7752212 L82.1400621,36.4230088 C82.1400621,36.8902655 82.2276727,37.2050147 82.402894,37.3672566 C82.5562126,37.5092183 82.8262946,37.5890717 83.2131401,37.6068169 L83.3860798,37.6106195 L87.0851949,37.6106195 C87.5654308,37.6106195 87.8931595,37.5294985 88.0683807,37.3672566 C88.2216993,37.225295 88.307941,36.9665699 88.3271058,36.5910813 L88.3312126,36.4230088 L88.3312126,33.7752212 C88.3312126,33.3079646 88.2436019,32.9932153 88.0683807,32.8309735 C87.9150621,32.6890118 87.6449801,32.6091584 87.2581346,32.5914132 L87.0851949,32.5876106 Z M78.5285577,32.5876106 L75.063071,32.5876106 C74.582835,32.5876106 74.2551064,32.6687316 74.0798851,32.8309735 C73.9265665,32.9729351 73.8403248,33.2316602 73.82116,33.6071488 L73.8170533,33.7752212 L73.8170533,36.4230088 C73.8170533,36.8902655 73.9046639,37.2050147 74.0798851,37.3672566 C74.2332037,37.5092183 74.5032858,37.5890717 74.8901313,37.6068169 L75.063071,37.6106195 L78.5285577,37.6106195 C79.0087937,37.6106195 79.3365223,37.5294985 79.5117435,37.3672566 C79.6650621,37.225295 79.7513038,36.9665699 79.7704686,36.5910813 L79.7745754,36.4230088 L79.7745754,34.6902655 L76.7276727,34.6902655 L76.7276727,35.5469027 L78.6356373,35.5469027 L78.6356373,36.6663717 L74.9851949,36.6663717 L74.9851949,33.4831858 L78.6356373,33.4831858 L78.6356373,34.0477876 L79.7745754,33.8433628 L79.7745754,33.7265487 C79.7745754,33.2852507 79.6837199,32.9851032 79.502009,32.8261062 C79.343012,32.6869838 79.0747044,32.6087274 78.6970865,32.5913371 L78.5285577,32.5876106 Z M61.6586462,32.5876106 L58.1931595,32.5876106 C57.7129235,32.5876106 57.3851949,32.6687316 57.2099736,32.8309735 C57.056655,32.9729351 56.9704133,33.2316602 56.9512485,33.6071488 L56.9471418,33.7752212 L56.9471418,36.4230088 C56.9471418,36.8902655 57.0347524,37.2050147 57.2099736,37.3672566 C57.3632922,37.5092183 57.6333742,37.5890717 58.0202197,37.6068169 L58.1931595,37.6106195 L61.6586462,37.6106195 C62.1388822,37.6106195 62.4666108,37.5294985 62.641832,37.3672566 C62.7951506,37.225295 62.8813923,36.9665699 62.9005571,36.5910813 L62.9046639,36.4230088 L62.9046639,34.6902655 L59.8577612,34.6902655 L59.8577612,35.5469027 L61.7657258,35.5469027 L61.7657258,36.6663717 L58.1152834,36.6663717 L58.1152834,33.4831858 L61.7657258,33.4831858 L61.7657258,34.0477876 L62.9046639,33.8433628 L62.9046639,33.7265487 C62.9046639,33.2852507 62.8138084,32.9851032 62.6320975,32.8261062 C62.4731005,32.6869838 62.2047929,32.6087274 61.8271749,32.5913371 L61.6586462,32.5876106 Z M53.6276727,32.5876106 L49.3250179,32.5876106 L49.3250179,37.6106195 L53.3161683,37.6106195 C54.2409471,37.6106195 54.7322358,37.3225767 54.7900345,36.7464913 L54.7958143,36.6274336 L54.7958143,35.9849558 C54.7958143,35.420354 54.4940444,35.099115 53.8905046,35.0212389 C54.419954,34.9558014 54.706739,34.7131371 54.7508598,34.2932461 L54.7568763,34.1743363 L54.7568763,33.5610619 C54.7568763,32.9553589 54.428989,32.6323173 53.7732145,32.5919371 L53.6276727,32.5876106 Z M45.6648409,32.5876106 L42.6666108,32.5876106 C42.1863748,32.5876106 41.8586462,32.6687316 41.6834249,32.8309735 C41.5301064,32.9729351 41.4438647,33.2316602 41.4246998,33.6071488 L41.4205931,33.7752212 L41.4205931,36.4230088 C41.4205931,36.8902655 41.5082037,37.2050147 41.6834249,37.3672566 C41.8367435,37.5092183 42.1068256,37.5890717 42.4936711,37.6068169 L42.6666108,37.6106195 L45.6648409,37.6106195 C46.1450769,37.6106195 46.4728055,37.5294985 46.6480267,37.3672566 C46.8013453,37.225295 46.887587,36.9665699 46.9067518,36.5910813 L46.9108586,36.4230088 L46.9108586,35.8292035 L45.742717,35.5858407 L45.742717,36.6663717 L42.5887347,36.6663717 L42.5887347,33.4831858 L45.742717,33.4831858 L45.742717,34.4371681 L46.9108586,34.2522124 L46.9108586,33.7752212 C46.9108586,33.3079646 46.823248,32.9932153 46.6480267,32.8309735 C46.4947081,32.6890118 46.2246261,32.6091584 45.8377806,32.5914132 L45.6648409,32.5876106 Z M38.5975842,32.5876106 L34.2949294,32.5876106 L34.2949294,37.6106195 L35.4436019,37.6106195 L35.4436019,35.6539823 L38.5975842,35.6539823 C39.3001998,35.6539823 39.6749281,35.3713209 39.7217691,34.805998 L39.7267878,34.680531 L39.7267878,33.5610619 C39.7267878,32.9553589 39.3989005,32.6323173 38.743126,32.5919371 L38.5975842,32.5876106 Z M70.2152834,32.5876106 L66.5161683,32.5876106 C66.0359323,32.5876106 65.7082037,32.6687316 65.5329825,32.8309735 C65.3796639,32.9729351 65.2934222,33.2316602 65.2742574,33.6071488 L65.2701506,33.7752212 L65.2701506,36.4230088 C65.2701506,36.8902655 65.3577612,37.2050147 65.5329825,37.3672566 C65.6863011,37.5092183 65.9563831,37.5890717 66.3432286,37.6068169 L66.5161683,37.6106195 L70.2152834,37.6106195 C70.6955193,37.6106195 71.023248,37.5294985 71.1984692,37.3672566 C71.3517878,37.225295 71.4380295,36.9665699 71.4571943,36.5910813 L71.4613011,36.4230088 L71.4613011,33.7752212 C71.4613011,33.3079646 71.3736904,32.9932153 71.1984692,32.8309735 C71.0451506,32.6890118 70.7750686,32.6091584 70.3882231,32.5914132 L70.2152834,32.5876106 Z M53.1409471,35.4300885 C53.3356373,35.4300885 53.4719205,35.4528024 53.5497966,35.4982301 C53.6328645,35.5501475 53.6827052,35.6415221 53.6993188,35.772354 L53.7055488,35.8778761 L53.7055488,36.2575221 C53.7055488,36.4457227 53.6536314,36.5722714 53.5497966,36.6371681 C53.4719205,36.6825959 53.3356373,36.7053097 53.1409471,36.7053097 L50.4736904,36.7053097 L50.4736904,35.4300885 L53.1409471,35.4300885 Z M70.2931595,33.4831858 L70.2931595,36.6663717 L66.4382922,36.6663717 L66.4382922,33.4831858 L70.2931595,33.4831858 Z M87.163071,33.4831858 L87.163071,36.6663717 L83.3082037,36.6663717 L83.3082037,33.4831858 L87.163071,33.4831858 Z M38.0719205,33.4539823 C38.2536314,33.4539823 38.3801801,33.4734513 38.4515665,33.5123894 C38.5294426,33.559115 38.5761683,33.6411445 38.5917435,33.7584779 L38.5975842,33.8530973 L38.5975842,34.3884956 C38.5975842,34.5572271 38.5489117,34.6707965 38.4515665,34.7292035 C38.3801801,34.7681416 38.2536314,34.7876106 38.0719205,34.7876106 L35.4436019,34.7876106 L35.4436019,33.4539823 L38.0719205,33.4539823 Z M53.1409471,33.4053097 C53.4582201,33.4053097 53.6344829,33.5001712 53.6697354,33.689894 L53.6763453,33.7654867 L53.6763453,34.2424779 C53.6763453,34.4825959 53.4978792,34.6026549 53.1409471,34.6026549 L50.4736904,34.6026549 L50.4736904,33.4053097 L53.1409471,33.4053097 Z M61.3285577,13.2743363 L34.504762,28.7610619 L88.1523534,28.7610619 L61.3285577,13.2743363 Z" id="形状结合" fill="#9E6C01"></path>
            </g>
        </g>
    </g>
</svg>