<?xml version="1.0" encoding="UTF-8"?>
<svg width="90px" height="90px" viewBox="0 0 90 90" version="1.1" xmlns="http://www.w3.org/2000/svg" xmlns:xlink="http://www.w3.org/1999/xlink">
    <title>折扣</title>
    <g id="规范" stroke="none" stroke-width="1" fill="none" fill-rule="evenodd">
        <g id="Artboard" transform="translate(-1094.000000, -659.000000)">
            <g id="折扣" transform="translate(1094.000000, 659.000000)">
                <polygon id="多边形" fill="#313131" transform="translate(45.000000, 45.000000) rotate(22.500000) translate(-45.000000, -45.000000) " points="45 11.25 61.875 15.7716426 74.2283574 28.125 78.75 45 74.2283574 61.875 61.875 74.2283574 45 78.75 28.125 74.2283574 15.7716426 61.875 11.25 45 15.7716426 28.125 28.125 15.7716426"></polygon>
                <path d="M39.1263214,0.384981238 L62.2207545,3.42542104 L80.7009003,17.6057357 L89.6150188,39.1263214 L86.574579,62.2207545 L72.3942643,80.7009003 L50.8736786,89.6150188 L27.7792455,86.574579 L9.29909969,72.3942643 L0.384981238,50.8736786 L3.42542104,27.7792455 L17.6057357,9.29909969 L39.1263214,0.384981238 Z M40.594741,11.5387359 L24.4543018,18.2243248 L13.8190658,32.0844342 L11.5387359,49.405259 L18.2243248,65.5456982 L32.0844342,76.1809342 L49.405259,78.4612641 L65.5456982,71.7756752 L76.1809342,57.9155658 L78.4612641,40.594741 L71.7756752,24.4543018 L57.9155658,13.8190658 L40.594741,11.5387359 Z M61.8075,27.99 L32.445,64.845 L28.0575,64.845 L57.42,27.99 L61.8075,27.99 Z M58.5,44.2575 C61.38,44.2575 63.8325,45.25875 65.8575,47.26125 C67.8825,49.26375 68.895,51.705 68.895,54.585 C68.895,57.42 67.86,59.83875 65.79,61.84125 C63.72,63.84375 61.29,64.845 58.5,64.845 C55.71,64.845 53.29125,63.84375 51.24375,61.84125 C49.19625,59.83875 48.1725,57.42 48.1725,54.585 C48.1725,51.66 49.17375,49.2075 51.17625,47.2275 C53.17875,45.2475 55.62,44.2575 58.5,44.2575 Z M58.5,48.8475 C56.97,48.8475 55.63125,49.42125 54.48375,50.56875 C53.33625,51.71625 52.7625,53.0775 52.7625,54.6525 C52.7625,56.2275 53.325,57.5775 54.45,58.7025 C55.575,59.8275 56.925,60.39 58.5,60.39 C60.12,60.39 61.4925,59.8275 62.6175,58.7025 C63.7425,57.5775 64.305,56.2275 64.305,54.6525 C64.305,53.0775 63.73125,51.71625 62.58375,50.56875 C61.43625,49.42125 60.075,48.8475 58.5,48.8475 Z M31.365,27.99 C34.245,27.99 36.68625,28.98 38.68875,30.96 C40.69125,32.94 41.6925,35.37 41.6925,38.25 C41.6925,41.085 40.66875,43.5375 38.62125,45.6075 C36.57375,47.6775 34.155,48.7125 31.365,48.7125 C28.575,48.7125 26.145,47.6775 24.075,45.6075 C22.005,43.5375 20.97,41.085 20.97,38.25 C20.97,35.37 21.97125,32.94 23.97375,30.96 C25.97625,28.98 28.44,27.99 31.365,27.99 Z M31.2975,32.58 C29.7675,32.58 28.42875,33.15375 27.28125,34.30125 C26.13375,35.44875 25.56,36.81 25.56,38.385 C25.56,39.96 26.1225,41.31 27.2475,42.435 C28.3725,43.56 29.7225,44.1225 31.2975,44.1225 C32.9175,44.1225 34.29,43.56 35.415,42.435 C36.54,41.31 37.1025,39.96 37.1025,38.385 C37.1025,36.81 36.52875,35.44875 35.38125,34.30125 C34.23375,33.15375 32.8725,32.58 31.2975,32.58 Z" id="形状结合" fill="#9E6C01"></path>
            </g>
        </g>
    </g>
</svg>