<?xml version="1.0" encoding="UTF-8"?>
<svg width="90px" height="90px" viewBox="0 0 90 90" version="1.1" xmlns="http://www.w3.org/2000/svg" xmlns:xlink="http://www.w3.org/1999/xlink">
    <title>go币</title>
    <g id="规范" stroke="none" stroke-width="1" fill="none" fill-rule="evenodd">
        <g id="Artboard" transform="translate(-960.000000, -661.000000)">
            <g id="go币" transform="translate(960.000000, 661.000000)">
                <path d="M59.0284947,11.6129032 L78.6686757,31.2530843 L78.6686757,59.0284947 L59.0284947,78.6686757 L31.2530843,78.6686757 L11.6129032,59.0284947 L11.6129032,31.2530843 L31.2530843,11.6129032 L59.0284947,11.6129032 Z M58.2053056,32.0762734 L32.0762734,32.0762734 L32.0762734,58.2053056 L58.2053056,58.2053056 L58.2053056,32.0762734 Z" id="形状结合" fill="#313131"></path>
                <path d="M63.5169403,0.296151653 L89.7038483,26.4830597 L89.7038483,63.5169403 L63.5169403,89.7038483 L26.4830597,89.7038483 L0.296151653,63.5169403 L0.296151653,26.4830597 L26.4830597,0.296151653 L63.5169403,0.296151653 Z M59.0284947,11.6129032 L31.2530843,11.6129032 L11.6129032,31.2530843 L11.6129032,59.0284947 L31.2530843,78.6686757 L59.0284947,78.6686757 L78.6686757,59.0284947 L78.6686757,31.2530843 L59.0284947,11.6129032 Z M49.1980645,63.0464516 L49.4345257,63.0496011 C50.3566864,63.0747967 50.9946402,63.2511663 51.3483871,63.5787097 C51.7316129,63.9335484 51.9232258,64.6219355 51.9232258,65.643871 L51.9232258,65.643871 L51.9232258,71.4348387 L51.9198244,71.664749 C51.8926131,72.5607062 51.702134,73.1724566 51.3483871,73.5 C50.9651613,73.8548387 50.2483871,74.0322581 49.1980645,74.0322581 L49.1980645,74.0322581 L41.1077419,74.0322581 L40.8712808,74.0291086 C39.9491201,74.003913 39.3111663,73.8275434 38.9574194,73.5 C38.5741935,73.1451613 38.3825806,72.4567742 38.3825806,71.4348387 L38.3825806,71.4348387 L38.3825806,65.643871 L38.3859821,65.4139607 C38.4131934,64.5180034 38.6036725,63.9062531 38.9574194,63.5787097 C39.3406452,63.223871 40.0574194,63.0464516 41.1077419,63.0464516 L41.1077419,63.0464516 L49.1980645,63.0464516 Z M49.3683871,65.0051613 L40.9374194,65.0051613 L40.9374194,71.9670968 L49.3683871,71.9670968 L49.3683871,65.0051613 Z M71.9129032,40.3045161 L72.1618817,40.3081384 C73.0509498,40.3347021 73.6776344,40.5073656 74.0419355,40.826129 C74.4393548,41.173871 74.6380645,41.8303226 74.6380645,42.7954839 L74.6380645,42.7954839 L74.6380645,43.0509677 L72.1470968,43.4980645 L72.1470968,42.2632258 L64.1632258,42.2632258 L64.1632258,49.2251613 L72.1470968,49.2251613 L72.1470968,46.7767742 L67.9741935,46.7767742 L67.9741935,44.9032258 L74.6380645,44.9032258 L74.6380645,48.6929032 L74.6346631,48.9228135 C74.6074518,49.8187708 74.4169727,50.4305211 74.0632258,50.7580645 C73.68,51.1129032 72.9632258,51.2903226 71.9129032,51.2903226 L71.9129032,51.2903226 L64.3335484,51.2903226 L64.0970872,51.2871731 C63.1749265,51.2619775 62.5369727,51.0856079 62.1832258,50.7580645 C61.8,50.4032258 61.6083871,49.7148387 61.6083871,48.6929032 L61.6083871,48.6929032 L61.6083871,42.9019355 L61.6117885,42.6720252 C61.6389998,41.776068 61.8294789,41.1643176 62.1832258,40.8367742 C62.5664516,40.4819355 63.2832258,40.3045161 64.3335484,40.3045161 L64.3335484,40.3045161 L71.9129032,40.3045161 Z M25.4612903,40.3045161 L25.7102688,40.3081384 C26.5993369,40.3347021 27.2260215,40.5073656 27.5903226,40.826129 C27.9877419,41.173871 28.1864516,41.8303226 28.1864516,42.7954839 L28.1864516,42.7954839 L28.1864516,43.0509677 L25.6954839,43.4980645 L25.6954839,42.2632258 L17.7116129,42.2632258 L17.7116129,49.2251613 L25.6954839,49.2251613 L25.6954839,46.7767742 L21.5225806,46.7767742 L21.5225806,44.9032258 L28.1864516,44.9032258 L28.1864516,48.6929032 L28.1830502,48.9228135 C28.1558389,49.8187708 27.9653598,50.4305211 27.6116129,50.7580645 C27.2283871,51.1129032 26.5116129,51.2903226 25.4612903,51.2903226 L25.4612903,51.2903226 L17.8819355,51.2903226 L17.6454743,51.2871731 C16.7233136,51.2619775 16.0853598,51.0856079 15.7316129,50.7580645 C15.3483871,50.4032258 15.1567742,49.7148387 15.1567742,48.6929032 L15.1567742,48.6929032 L15.1567742,42.9019355 L15.1601756,42.6720252 C15.1873869,41.776068 15.377866,41.1643176 15.7316129,40.8367742 C16.1148387,40.4819355 16.8316129,40.3045161 17.8819355,40.3045161 L17.8819355,40.3045161 L25.4612903,40.3045161 Z M49.1980645,16.5948387 L49.4345257,16.5979882 C50.3566864,16.6231838 50.9946402,16.7995533 51.3483871,17.1270968 C51.7316129,17.4819355 51.9232258,18.1703226 51.9232258,19.1922581 L51.9232258,19.1922581 L51.9232258,24.9832258 L51.9198244,25.2131361 C51.8926131,26.1090933 51.702134,26.7208437 51.3483871,27.0483871 C50.9651613,27.4032258 50.2483871,27.5806452 49.1980645,27.5806452 L49.1980645,27.5806452 L41.1077419,27.5806452 L40.8712808,27.5774957 C39.9491201,27.5523001 39.3111663,27.3759305 38.9574194,27.0483871 C38.5741935,26.6935484 38.3825806,26.0051613 38.3825806,24.9832258 L38.3825806,24.9832258 L38.3825806,19.1922581 L38.3859821,18.9623478 C38.4131934,18.0663905 38.6036725,17.4546402 38.9574194,17.1270968 C39.3406452,16.7722581 40.0574194,16.5948387 41.1077419,16.5948387 L41.1077419,16.5948387 L49.1980645,16.5948387 Z M49.3683871,18.5535484 L40.9374194,18.5535484 L40.9374194,25.5154839 L49.3683871,25.5154839 L49.3683871,18.5535484 Z" id="形状结合" fill="#9E6C01"></path>
            </g>
        </g>
    </g>
</svg>