<?xml version="1.0" encoding="UTF-8"?>
<svg width="120px" height="151px" viewBox="0 0 120 151" version="1.1" xmlns="http://www.w3.org/2000/svg" xmlns:xlink="http://www.w3.org/1999/xlink">
    <title>V2</title>
    <defs>
        <linearGradient x1="50%" y1="30.7709755%" x2="50%" y2="85.864051%" id="linearGradient-1">
            <stop stop-color="#B5B5B5" offset="0%"></stop>
            <stop stop-color="#777777" offset="100%"></stop>
        </linearGradient>
        <linearGradient x1="50%" y1="0%" x2="50%" y2="100%" id="linearGradient-2">
            <stop stop-color="#9C9C9C" offset="0%"></stop>
            <stop stop-color="#6B6B6B" offset="100%"></stop>
        </linearGradient>
        <linearGradient x1="50%" y1="19.4513549%" x2="50%" y2="100%" id="linearGradient-3">
            <stop stop-color="#5C5C5C" offset="0%"></stop>
            <stop stop-color="#ADADAD" offset="100%"></stop>
        </linearGradient>
        <linearGradient x1="50%" y1="0%" x2="50%" y2="100%" id="linearGradient-4">
            <stop stop-color="#2E2E2E" offset="0%"></stop>
            <stop stop-color="#4A4A4A" offset="100%"></stop>
        </linearGradient>
        <linearGradient x1="50%" y1="0%" x2="50%" y2="100%" id="linearGradient-5">
            <stop stop-color="#FFFFFF" offset="0%"></stop>
            <stop stop-color="#FFFFFF" offset="100%"></stop>
        </linearGradient>
        <linearGradient x1="50%" y1="0%" x2="50%" y2="100%" id="linearGradient-6">
            <stop stop-color="#CFCFCF" offset="0%"></stop>
            <stop stop-color="#FFFFFF" offset="100%"></stop>
        </linearGradient>
    </defs>
    <g id="规范" stroke="none" stroke-width="1" fill="none" fill-rule="evenodd">
        <g id="Artboard" transform="translate(-970.000000, -1237.000000)">
            <g id="V1-VIP" transform="translate(829.000000, 1237.000000)">
                <g id="V2" transform="translate(141.000000, 0.000000)">
                    <path d="M13,3.55271368e-15 L108,3.55271368e-15 L108,16 L107.999,16 L108,35.838 L108.052559,35.9282032 L108,35.958 L108,36 L107.927,36 L69.9474411,57.9282032 L61.9474411,44.0717968 L92,26.72 L91.999,16 L28.999,16 L29,26.143 L60.0525589,44.0717968 L52.0525589,57.9282032 L14.072,36 L13,36 L13,3.55271368e-15 Z" id="形状结合" fill="url(#linearGradient-1)"></path>
                    <polygon id="多边形" fill="url(#linearGradient-2)" points="60 31 106.909889 53.5906119 118.495675 104.351256 86.0330243 145.058132 33.9669757 145.058132 1.50432527 104.351256 13.0901111 53.5906119"></polygon>
                    <path d="M60,46 L95.1824167,62.9429589 L103.871756,101.013442 L79.5247683,131.543599 L40.4752317,131.543599 L16.128244,101.013442 L24.8175833,62.9429589 L60,46 Z M60,48 L26.3812463,64.1899385 L18.0780998,100.5684 L41.3429992,129.741661 L78.6570008,129.741661 L101.9219,100.5684 L93.6187537,64.1899385 L60,48 Z" id="形状结合" fill="url(#linearGradient-3)"></path>
                    <polygon id="多边形" fill="url(#linearGradient-4)" points="60 48 93.6187537 64.1899385 101.9219 100.5684 78.6570008 129.741661 41.3429992 129.741661 18.0780998 100.5684 26.3812463 64.1899385"></polygon>
                    <path d="M55.7665605,115 L56.9304917,117.381966 L59.5331209,117.763932 L57.6498407,119.618034 L58.0944228,122.236068 L55.7665605,121 L53.4386981,122.236068 L53.8832802,119.618034 L52,117.763932 L54.6026293,117.381966 L55.7665605,115 Z M64.7665605,115 L65.9304917,117.381966 L68.5331209,117.763932 L66.6498407,119.618034 L67.0944228,122.236068 L64.7665605,121 L62.4386981,122.236068 L62.8832802,119.618034 L61,117.763932 L63.6026293,117.381966 L64.7665605,115 Z" id="形状结合" fill="url(#linearGradient-5)"></path>
                    <path d="M54.824,105 L67.304,72.984 L56.12,72.984 L50.648,86.904 L45.224,72.984 L34.04,72.984 L46.52,105 L54.824,105 Z M51.176,101.16 L50.168,101.16 L40.664,76.824 L42.008,76.824 L50.648,98.952 L59.336,76.824 L60.68,76.824 L51.176,101.16 Z M83.768,105 L86.504,96.6 L80.456,96.6 L81.08,95.4 C81.912,93.768 82.64,92.336 83.264,91.104 C83.888,89.872 84.4,88.76 84.8,87.768 C85.2,86.776 85.496,85.856 85.688,85.008 C85.88,84.16 85.976,83.304 85.976,82.44 C85.976,80.584 85.608,79.016 84.872,77.736 C84.136,76.456 83.176,75.432 81.992,74.664 C80.808,73.896 79.472,73.344 77.984,73.008 C76.496,72.672 74.984,72.504 73.448,72.504 C72.968,72.504 72.544,72.512 72.176,72.528 C71.808,72.544 71.456,72.568 71.12,72.6 C70.784,72.632 70.44,72.68 70.088,72.744 C69.736,72.808 69.336,72.888 68.888,72.984 L68.888,72.984 L68.888,81.864 C69.144,81.864 69.352,81.848 69.512,81.816 C69.704,81.784 69.912,81.76 70.136,81.744 C70.36,81.728 70.6,81.72 70.856,81.72 C73.48,81.72 74.792,82.792 74.792,84.936 C74.792,85.512 74.696,86.12 74.504,86.76 C74.312,87.4 73.88,88.36 73.208,89.64 L73.208,89.64 L65.144,105 L83.768,105 Z M81.176,101.16 L71.768,101.16 L78.056,89.256 C78.632,88.136 79.08,87.088 79.4,86.112 C79.72,85.136 79.88,84.2 79.88,83.304 C79.88,81.576 79.328,80.256 78.224,79.344 C77.12,78.432 75.656,77.976 73.832,77.976 C73.736,77.976 73.648,77.984 73.568,78 C73.488,78.016 73.416,78.024 73.352,78.024 L73.352,78.024 L73.208,78.024 L73.208,76.872 L73.352,76.872 C73.416,76.872 73.488,76.864 73.568,76.848 C73.648,76.832 73.736,76.824 73.832,76.824 C75.976,76.824 77.728,77.368 79.088,78.456 C80.448,79.544 81.128,81.144 81.128,83.256 C81.128,84.344 80.944,85.416 80.576,86.472 C80.208,87.528 79.736,88.616 79.16,89.736 L79.16,89.736 L73.736,100.008 L81.608,100.008 L81.176,101.16 Z" fill="#656565" fill-rule="nonzero"></path>
                    <path d="M54.824,103 L67.304,70.984 L56.12,70.984 L50.648,84.904 L45.224,70.984 L34.04,70.984 L46.52,103 L54.824,103 Z M51.176,99.16 L50.168,99.16 L40.664,74.824 L42.008,74.824 L50.648,96.952 L59.336,74.824 L60.68,74.824 L51.176,99.16 Z M83.768,103 L86.504,94.6 L80.456,94.6 L81.08,93.4 C81.912,91.768 82.64,90.336 83.264,89.104 C83.888,87.872 84.4,86.76 84.8,85.768 C85.2,84.776 85.496,83.856 85.688,83.008 C85.88,82.16 85.976,81.304 85.976,80.44 C85.976,78.584 85.608,77.016 84.872,75.736 C84.136,74.456 83.176,73.432 81.992,72.664 C80.808,71.896 79.472,71.344 77.984,71.008 C76.496,70.672 74.984,70.504 73.448,70.504 C72.968,70.504 72.544,70.512 72.176,70.528 C71.808,70.544 71.456,70.568 71.12,70.6 C70.784,70.632 70.44,70.68 70.088,70.744 C69.736,70.808 69.336,70.888 68.888,70.984 L68.888,70.984 L68.888,79.864 C69.144,79.864 69.352,79.848 69.512,79.816 C69.704,79.784 69.912,79.76 70.136,79.744 C70.36,79.728 70.6,79.72 70.856,79.72 C73.48,79.72 74.792,80.792 74.792,82.936 C74.792,83.512 74.696,84.12 74.504,84.76 C74.312,85.4 73.88,86.36 73.208,87.64 L73.208,87.64 L65.144,103 L83.768,103 Z M81.176,99.16 L71.768,99.16 L78.056,87.256 C78.632,86.136 79.08,85.088 79.4,84.112 C79.72,83.136 79.88,82.2 79.88,81.304 C79.88,79.576 79.328,78.256 78.224,77.344 C77.12,76.432 75.656,75.976 73.832,75.976 C73.736,75.976 73.648,75.984 73.568,76 C73.488,76.016 73.416,76.024 73.352,76.024 L73.352,76.024 L73.208,76.024 L73.208,74.872 L73.352,74.872 C73.416,74.872 73.488,74.864 73.568,74.848 C73.648,74.832 73.736,74.824 73.832,74.824 C75.976,74.824 77.728,75.368 79.088,76.456 C80.448,77.544 81.128,79.144 81.128,81.256 C81.128,82.344 80.944,83.416 80.576,84.472 C80.208,85.528 79.736,86.616 79.16,87.736 L79.16,87.736 L73.736,98.008 L81.608,98.008 L81.176,99.16 Z" fill="url(#linearGradient-6)" fill-rule="nonzero"></path>
                </g>
            </g>
        </g>
    </g>
</svg>