<?xml version="1.0" encoding="UTF-8"?>
<svg width="120px" height="151px" viewBox="0 0 120 151" version="1.1" xmlns="http://www.w3.org/2000/svg" xmlns:xlink="http://www.w3.org/1999/xlink">
    <title>V3</title>
    <defs>
        <linearGradient x1="50%" y1="30.7709755%" x2="50%" y2="85.864051%" id="linearGradient-1">
            <stop stop-color="#B5B5B5" offset="0%"></stop>
            <stop stop-color="#777777" offset="100%"></stop>
        </linearGradient>
        <linearGradient x1="50%" y1="0%" x2="50%" y2="100%" id="linearGradient-2">
            <stop stop-color="#9C9C9C" offset="0%"></stop>
            <stop stop-color="#6B6B6B" offset="100%"></stop>
        </linearGradient>
        <linearGradient x1="50%" y1="19.4513549%" x2="50%" y2="100%" id="linearGradient-3">
            <stop stop-color="#5C5C5C" offset="0%"></stop>
            <stop stop-color="#ADADAD" offset="100%"></stop>
        </linearGradient>
        <linearGradient x1="50%" y1="0%" x2="50%" y2="100%" id="linearGradient-4">
            <stop stop-color="#2E2E2E" offset="0%"></stop>
            <stop stop-color="#4A4A4A" offset="100%"></stop>
        </linearGradient>
        <linearGradient x1="50%" y1="0%" x2="50%" y2="100%" id="linearGradient-5">
            <stop stop-color="#FFFFFF" offset="0%"></stop>
            <stop stop-color="#FFFFFF" offset="100%"></stop>
        </linearGradient>
        <linearGradient x1="50%" y1="0%" x2="50%" y2="100%" id="linearGradient-6">
            <stop stop-color="#CFCFCF" offset="0%"></stop>
            <stop stop-color="#FFFFFF" offset="100%"></stop>
        </linearGradient>
    </defs>
    <g id="规范" stroke="none" stroke-width="1" fill="none" fill-rule="evenodd">
        <g id="Artboard" transform="translate(-1111.000000, -1237.000000)">
            <g id="V1-VIP" transform="translate(829.000000, 1237.000000)">
                <g id="V3" transform="translate(282.000000, 0.000000)">
                    <path d="M13,3.55271368e-15 L108,3.55271368e-15 L108,16 L107.999,16 L108,35.838 L108.052559,35.9282032 L108,35.958 L108,36 L107.927,36 L69.9474411,57.9282032 L61.9474411,44.0717968 L92,26.72 L91.999,16 L28.999,16 L29,26.143 L60.0525589,44.0717968 L52.0525589,57.9282032 L14.072,36 L13,36 L13,3.55271368e-15 Z" id="形状结合" fill="url(#linearGradient-1)"></path>
                    <polygon id="多边形" fill="url(#linearGradient-2)" points="60 31 106.909889 53.5906119 118.495675 104.351256 86.0330243 145.058132 33.9669757 145.058132 1.50432527 104.351256 13.0901111 53.5906119"></polygon>
                    <path d="M60,46 L95.1824167,62.9429589 L103.871756,101.013442 L79.5247683,131.543599 L40.4752317,131.543599 L16.128244,101.013442 L24.8175833,62.9429589 L60,46 Z M60,48 L26.3812463,64.1899385 L18.0780998,100.5684 L41.3429992,129.741661 L78.6570008,129.741661 L101.9219,100.5684 L93.6187537,64.1899385 L60,48 Z" id="形状结合" fill="url(#linearGradient-3)"></path>
                    <polygon id="多边形" fill="url(#linearGradient-4)" points="60 48 93.6187537 64.1899385 101.9219 100.5684 78.6570008 129.741661 41.3429992 129.741661 18.0780998 100.5684 26.3812463 64.1899385"></polygon>
                    <path d="M50.7665605,115 L51.9304917,117.381966 L54.5331209,117.763932 L52.6498407,119.618034 L53.0944228,122.236068 L50.7665605,121 L48.4386981,122.236068 L48.8832802,119.618034 L47,117.763932 L49.6026293,117.381966 L50.7665605,115 Z M59.7665605,115 L60.9304917,117.381966 L63.5331209,117.763932 L61.6498407,119.618034 L62.0944228,122.236068 L59.7665605,121 L57.4386981,122.236068 L57.8832802,119.618034 L56,117.763932 L58.6026293,117.381966 L59.7665605,115 Z M68.7561985,115 L69.9201297,117.381966 L72.5227589,117.763932 L70.6394787,119.618034 L71.0840609,122.236068 L68.7561985,121 L66.4283361,122.236068 L66.8729182,119.618034 L64.989638,117.763932 L67.5922673,117.381966 L68.7561985,115 Z" id="形状结合" fill="url(#linearGradient-5)"></path>
                    <path d="M54.824,105 L67.304,72.984 L56.12,72.984 L50.648,86.904 L45.224,72.984 L34.04,72.984 L46.52,105 L54.824,105 Z M51.176,101.16 L50.168,101.16 L40.664,76.824 L42.008,76.824 L50.648,98.952 L59.336,76.824 L60.68,76.824 L51.176,101.16 Z M69.944,105.384 C71.896,105.384 73.776,105.168 75.584,104.736 C77.392,104.304 78.984,103.632 80.36,102.72 C81.736,101.808 82.832,100.64 83.648,99.216 C84.464,97.792 84.872,96.088 84.872,94.104 C84.872,92.824 84.648,91.672 84.2,90.648 C83.752,89.624 83.256,88.744 82.712,88.008 C82.392,87.592 82.056,87.2 81.704,86.832 C81.352,86.464 80.968,86.12 80.552,85.8 C80.776,85.544 80.992,85.288 81.2,85.032 C81.408,84.776 81.592,84.504 81.752,84.216 C82.072,83.736 82.36,83.168 82.616,82.512 C82.872,81.856 83,81.128 83,80.328 C83,78.024 82.264,76.16 80.792,74.736 C79.32,73.312 77,72.6 73.832,72.6 C72.712,72.6 71.744,72.632 70.928,72.696 C70.112,72.76 69.432,72.824 68.888,72.888 L68.888,72.888 L67.304,73.176 L67.304,81.24 L68.216,81 C68.856,80.84 69.576,80.76 70.376,80.76 C70.888,80.76 71.36,80.864 71.792,81.072 C72.224,81.28 72.44,81.672 72.44,82.248 C72.44,82.6 72.312,82.968 72.056,83.352 C71.8,83.736 71.456,84.128 71.024,84.528 C70.592,84.928 70.104,85.32 69.56,85.704 C69.016,86.088 68.472,86.456 67.928,86.808 C68.536,87.096 69.224,87.44 69.992,87.84 C70.76,88.24 71.48,88.696 72.152,89.208 C72.824,89.72 73.384,90.28 73.832,90.888 C74.28,91.496 74.504,92.136 74.504,92.808 C74.504,93.288 74.416,93.744 74.24,94.176 C74.064,94.608 73.776,95 73.376,95.352 C72.976,95.704 72.432,95.984 71.744,96.192 C71.056,96.4 70.2,96.504 69.176,96.504 L69.176,96.504 L68.288,96.504 C67.984,96.504 67.656,96.472 67.304,96.408 L67.304,96.408 L67.304,105.336 C67.88,105.368 68.384,105.384 68.816,105.384 L68.816,105.384 L69.944,105.384 Z M71.288,101.496 L71,101.496 L71,100.344 L71.288,100.344 C72.344,100.344 73.336,100.2 74.264,99.912 C75.192,99.624 76.008,99.2 76.712,98.64 C77.416,98.08 77.968,97.392 78.368,96.576 C78.768,95.76 78.968,94.824 78.968,93.768 C78.968,92.968 78.864,92.248 78.656,91.608 C78.448,90.968 78.128,90.36 77.696,89.784 C77.264,89.208 76.704,88.632 76.016,88.056 C75.328,87.48 74.52,86.872 73.592,86.232 C74.712,85.272 75.576,84.384 76.184,83.568 C76.792,82.752 77.096,81.88 77.096,80.952 C77.096,79.928 76.744,79.144 76.04,78.6 C75.336,78.056 74.424,77.784 73.304,77.784 C72.952,77.784 72.632,77.792 72.344,77.808 C72.056,77.824 71.832,77.848 71.672,77.88 C71.512,77.912 71.336,77.928 71.144,77.928 L71.144,77.928 L71.144,76.872 L71.768,76.776 C71.96,76.744 72.184,76.72 72.44,76.704 C72.696,76.688 72.984,76.68 73.304,76.68 C74.648,76.68 75.824,77.04 76.832,77.76 C77.84,78.48 78.344,79.512 78.344,80.856 C78.344,81.688 78.144,82.496 77.744,83.28 C77.344,84.064 76.552,85.016 75.368,86.136 C77.128,87.448 78.376,88.68 79.112,89.832 C79.848,90.984 80.216,92.296 80.216,93.768 C80.216,94.984 79.984,96.064 79.52,97.008 C79.056,97.952 78.416,98.76 77.6,99.432 C76.784,100.104 75.84,100.616 74.768,100.968 C73.696,101.32 72.536,101.496 71.288,101.496 L71.288,101.496 Z" fill="#656565" fill-rule="nonzero"></path>
                    <path d="M54.824,103 L67.304,70.984 L56.12,70.984 L50.648,84.904 L45.224,70.984 L34.04,70.984 L46.52,103 L54.824,103 Z M51.176,99.16 L50.168,99.16 L40.664,74.824 L42.008,74.824 L50.648,96.952 L59.336,74.824 L60.68,74.824 L51.176,99.16 Z M69.944,103.384 C71.896,103.384 73.776,103.168 75.584,102.736 C77.392,102.304 78.984,101.632 80.36,100.72 C81.736,99.808 82.832,98.64 83.648,97.216 C84.464,95.792 84.872,94.088 84.872,92.104 C84.872,90.824 84.648,89.672 84.2,88.648 C83.752,87.624 83.256,86.744 82.712,86.008 C82.392,85.592 82.056,85.2 81.704,84.832 C81.352,84.464 80.968,84.12 80.552,83.8 C80.776,83.544 80.992,83.288 81.2,83.032 C81.408,82.776 81.592,82.504 81.752,82.216 C82.072,81.736 82.36,81.168 82.616,80.512 C82.872,79.856 83,79.128 83,78.328 C83,76.024 82.264,74.16 80.792,72.736 C79.32,71.312 77,70.6 73.832,70.6 C72.712,70.6 71.744,70.632 70.928,70.696 C70.112,70.76 69.432,70.824 68.888,70.888 L68.888,70.888 L67.304,71.176 L67.304,79.24 L68.216,79 C68.856,78.84 69.576,78.76 70.376,78.76 C70.888,78.76 71.36,78.864 71.792,79.072 C72.224,79.28 72.44,79.672 72.44,80.248 C72.44,80.6 72.312,80.968 72.056,81.352 C71.8,81.736 71.456,82.128 71.024,82.528 C70.592,82.928 70.104,83.32 69.56,83.704 C69.016,84.088 68.472,84.456 67.928,84.808 C68.536,85.096 69.224,85.44 69.992,85.84 C70.76,86.24 71.48,86.696 72.152,87.208 C72.824,87.72 73.384,88.28 73.832,88.888 C74.28,89.496 74.504,90.136 74.504,90.808 C74.504,91.288 74.416,91.744 74.24,92.176 C74.064,92.608 73.776,93 73.376,93.352 C72.976,93.704 72.432,93.984 71.744,94.192 C71.056,94.4 70.2,94.504 69.176,94.504 L69.176,94.504 L68.288,94.504 C67.984,94.504 67.656,94.472 67.304,94.408 L67.304,94.408 L67.304,103.336 C67.88,103.368 68.384,103.384 68.816,103.384 L68.816,103.384 L69.944,103.384 Z M71.288,99.496 L71,99.496 L71,98.344 L71.288,98.344 C72.344,98.344 73.336,98.2 74.264,97.912 C75.192,97.624 76.008,97.2 76.712,96.64 C77.416,96.08 77.968,95.392 78.368,94.576 C78.768,93.76 78.968,92.824 78.968,91.768 C78.968,90.968 78.864,90.248 78.656,89.608 C78.448,88.968 78.128,88.36 77.696,87.784 C77.264,87.208 76.704,86.632 76.016,86.056 C75.328,85.48 74.52,84.872 73.592,84.232 C74.712,83.272 75.576,82.384 76.184,81.568 C76.792,80.752 77.096,79.88 77.096,78.952 C77.096,77.928 76.744,77.144 76.04,76.6 C75.336,76.056 74.424,75.784 73.304,75.784 C72.952,75.784 72.632,75.792 72.344,75.808 C72.056,75.824 71.832,75.848 71.672,75.88 C71.512,75.912 71.336,75.928 71.144,75.928 L71.144,75.928 L71.144,74.872 L71.768,74.776 C71.96,74.744 72.184,74.72 72.44,74.704 C72.696,74.688 72.984,74.68 73.304,74.68 C74.648,74.68 75.824,75.04 76.832,75.76 C77.84,76.48 78.344,77.512 78.344,78.856 C78.344,79.688 78.144,80.496 77.744,81.28 C77.344,82.064 76.552,83.016 75.368,84.136 C77.128,85.448 78.376,86.68 79.112,87.832 C79.848,88.984 80.216,90.296 80.216,91.768 C80.216,92.984 79.984,94.064 79.52,95.008 C79.056,95.952 78.416,96.76 77.6,97.432 C76.784,98.104 75.84,98.616 74.768,98.968 C73.696,99.32 72.536,99.496 71.288,99.496 L71.288,99.496 Z" fill="url(#linearGradient-6)" fill-rule="nonzero"></path>
                </g>
            </g>
        </g>
    </g>
</svg>