<?xml version="1.0" encoding="UTF-8"?>
<svg width="120px" height="151px" viewBox="0 0 120 151" version="1.1" xmlns="http://www.w3.org/2000/svg" xmlns:xlink="http://www.w3.org/1999/xlink">
    <title>V5</title>
    <defs>
        <linearGradient x1="50%" y1="58.9883097%" x2="50%" y2="0%" id="linearGradient-1">
            <stop stop-color="#C1B291" offset="0%"></stop>
            <stop stop-color="#CCBEA2" offset="100%"></stop>
        </linearGradient>
        <linearGradient x1="50%" y1="0%" x2="50%" y2="94.2712657%" id="linearGradient-2">
            <stop stop-color="#E3CB99" offset="0%"></stop>
            <stop stop-color="#897446" offset="100%"></stop>
        </linearGradient>
        <linearGradient x1="50%" y1="0%" x2="50%" y2="103.297905%" id="linearGradient-3">
            <stop stop-color="#61553A" offset="0%"></stop>
            <stop stop-color="#BFAB81" offset="100%"></stop>
        </linearGradient>
        <linearGradient x1="50%" y1="0%" x2="50%" y2="100%" id="linearGradient-4">
            <stop stop-color="#302A1D" offset="0%"></stop>
            <stop stop-color="#4A3F26" offset="100%"></stop>
        </linearGradient>
        <linearGradient x1="50%" y1="0%" x2="50%" y2="100%" id="linearGradient-5">
            <stop stop-color="#FFFFFF" offset="0%"></stop>
            <stop stop-color="#FFFFFF" offset="100%"></stop>
        </linearGradient>
        <linearGradient x1="50%" y1="0%" x2="50%" y2="83.2637545%" id="linearGradient-6">
            <stop stop-color="#E0D7C7" offset="0%"></stop>
            <stop stop-color="#FFFFFF" offset="100%"></stop>
        </linearGradient>
    </defs>
    <g id="规范" stroke="none" stroke-width="1" fill="none" fill-rule="evenodd">
        <g id="Artboard" transform="translate(-1393.000000, -1237.000000)">
            <g id="V1-VIP" transform="translate(829.000000, 1237.000000)">
                <g id="V5" transform="translate(564.000000, 0.000000)">
                    <path d="M13,3.55271368e-15 L108,3.55271368e-15 L108,16 L107.999,16 L108,35.838 L108.052559,35.9282032 L108,35.958 L108,36 L107.927,36 L69.9474411,57.9282032 L61.9474411,44.0717968 L92,26.72 L91.999,16 L28.999,16 L29,26.143 L60.0525589,44.0717968 L52.0525589,57.9282032 L14.072,36 L13,36 L13,3.55271368e-15 Z" id="形状结合" fill="url(#linearGradient-1)" fill-rule="nonzero"></path>
                    <polygon id="多边形" fill="url(#linearGradient-2)" fill-rule="nonzero" points="60 31 106.909889 53.5906119 118.495675 104.351256 86.0330243 145.058132 33.9669757 145.058132 1.50432527 104.351256 13.0901111 53.5906119"></polygon>
                    <path d="M60,46 L95.1824167,62.9429589 L103.871756,101.013442 L79.5247683,131.543599 L40.4752317,131.543599 L16.128244,101.013442 L24.8175833,62.9429589 L60,46 Z M60,48 L26.3812463,64.1899385 L18.0780998,100.5684 L41.3429992,129.741661 L78.6570008,129.741661 L101.9219,100.5684 L93.6187537,64.1899385 L60,48 Z" id="形状结合" fill="url(#linearGradient-3)" fill-rule="nonzero"></path>
                    <polygon id="多边形" fill="url(#linearGradient-4)" points="60 48 93.6187537 64.1899385 101.9219 100.5684 78.6570008 129.741661 41.3429992 129.741661 18.0780998 100.5684 26.3812463 64.1899385"></polygon>
                    <path d="M55.7561985,118 L56.9201297,120.381966 L59.5227589,120.763932 L57.6394787,122.618034 L58.0840609,125.236068 L55.7561985,124 L53.4283361,125.236068 L53.8729182,122.618034 L51.989638,120.763932 L54.5922673,120.381966 L55.7561985,118 Z M64.960396,118 L66.1243272,120.381966 L68.7269565,120.763932 L66.8436763,122.618034 L67.2882584,125.236068 L64.960396,124 L62.6325337,125.236068 L63.0771158,122.618034 L61.1938356,120.763932 L63.7964648,120.381966 L64.960396,118 Z M50.7665605,109 L51.9304917,111.381966 L54.5331209,111.763932 L52.6498407,113.618034 L53.0944228,116.236068 L50.7665605,115 L48.4386981,116.236068 L48.8832802,113.618034 L47,111.763932 L49.6026293,111.381966 L50.7665605,109 Z M59.7665605,109 L60.9304917,111.381966 L63.5331209,111.763932 L61.6498407,113.618034 L62.0944228,116.236068 L59.7665605,115 L57.4386981,116.236068 L57.8832802,113.618034 L56,111.763932 L58.6026293,111.381966 L59.7665605,109 Z M68.7561985,109 L69.9201297,111.381966 L72.5227589,111.763932 L70.6394787,113.618034 L71.0840609,116.236068 L68.7561985,115 L66.4283361,116.236068 L66.8729182,113.618034 L64.989638,111.763932 L67.5922673,111.381966 L68.7561985,109 Z" id="形状结合" fill="url(#linearGradient-5)"></path>
                    <path d="M54.824,105 L67.304,72.984 L56.12,72.984 L50.648,86.904 L45.224,72.984 L34.04,72.984 L46.52,105 L54.824,105 Z M51.176,101.16 L50.168,101.16 L40.664,76.824 L42.008,76.824 L50.648,98.952 L59.336,76.824 L60.68,76.824 L51.176,101.16 Z M65.168,105.72 C67.184,105.72 69.184,105.456 71.168,104.928 C73.152,104.4 74.92,103.584 76.472,102.48 C78.024,101.376 79.28,99.976 80.24,98.28 C81.2,96.584 81.68,94.552 81.68,92.184 C81.68,90.456 81.392,88.96 80.816,87.696 C80.24,86.432 79.6,85.368 78.896,84.504 C78.48,83.992 78.04,83.528 77.576,83.112 C77.112,82.696 76.624,82.312 76.112,81.96 L76.112,81.96 L82.112,81.96 L82.112,72.984 L69.104,72.984 L63.344,87.096 C64.208,87.096 65.112,87.152 66.056,87.264 C67,87.376 67.864,87.6 68.648,87.936 C69.432,88.272 70.072,88.744 70.568,89.352 C71.064,89.96 71.312,90.76 71.312,91.752 C71.312,93.192 70.688,94.344 69.44,95.208 C68.192,96.072 66.368,96.504 63.968,96.504 L63.968,96.504 L63.968,105.624 C64.032,105.656 64.144,105.672 64.304,105.672 C64.4,105.704 64.688,105.72 65.168,105.72 Z M67.04,101.64 L67.04,100.488 C67.616,100.488 68.4,100.376 69.392,100.152 C70.384,99.928 71.352,99.512 72.296,98.904 C73.24,98.296 74.056,97.464 74.744,96.408 C75.432,95.352 75.776,93.992 75.776,92.328 C75.776,90.664 75.424,89.312 74.72,88.272 C74.016,87.232 73.248,86.424 72.416,85.848 C71.392,85.176 70.288,84.696 69.104,84.408 L69.104,84.408 L72.176,76.824 L78.896,76.824 L78.896,77.976 L72.944,77.976 L70.64,83.736 C71.888,84.184 72.944,84.776 73.808,85.512 C74.608,86.152 75.344,87.024 76.016,88.128 C76.688,89.232 77.024,90.632 77.024,92.328 C77.024,93.96 76.68,95.368 75.992,96.552 C75.304,97.736 74.456,98.704 73.448,99.456 C72.44,100.208 71.36,100.76 70.208,101.112 C69.056,101.464 68,101.64 67.04,101.64 L67.04,101.64 Z" fill="#877C63" fill-rule="nonzero"></path>
                    <path d="M54.824,103 L67.304,70.984 L56.12,70.984 L50.648,84.904 L45.224,70.984 L34.04,70.984 L46.52,103 L54.824,103 Z M51.176,99.16 L50.168,99.16 L40.664,74.824 L42.008,74.824 L50.648,96.952 L59.336,74.824 L60.68,74.824 L51.176,99.16 Z M65.168,103.72 C67.184,103.72 69.184,103.456 71.168,102.928 C73.152,102.4 74.92,101.584 76.472,100.48 C78.024,99.376 79.28,97.976 80.24,96.28 C81.2,94.584 81.68,92.552 81.68,90.184 C81.68,88.456 81.392,86.96 80.816,85.696 C80.24,84.432 79.6,83.368 78.896,82.504 C78.48,81.992 78.04,81.528 77.576,81.112 C77.112,80.696 76.624,80.312 76.112,79.96 L76.112,79.96 L82.112,79.96 L82.112,70.984 L69.104,70.984 L63.344,85.096 C64.208,85.096 65.112,85.152 66.056,85.264 C67,85.376 67.864,85.6 68.648,85.936 C69.432,86.272 70.072,86.744 70.568,87.352 C71.064,87.96 71.312,88.76 71.312,89.752 C71.312,91.192 70.688,92.344 69.44,93.208 C68.192,94.072 66.368,94.504 63.968,94.504 L63.968,94.504 L63.968,103.624 C64.032,103.656 64.144,103.672 64.304,103.672 C64.4,103.704 64.688,103.72 65.168,103.72 Z M67.04,99.64 L67.04,98.488 C67.616,98.488 68.4,98.376 69.392,98.152 C70.384,97.928 71.352,97.512 72.296,96.904 C73.24,96.296 74.056,95.464 74.744,94.408 C75.432,93.352 75.776,91.992 75.776,90.328 C75.776,88.664 75.424,87.312 74.72,86.272 C74.016,85.232 73.248,84.424 72.416,83.848 C71.392,83.176 70.288,82.696 69.104,82.408 L69.104,82.408 L72.176,74.824 L78.896,74.824 L78.896,75.976 L72.944,75.976 L70.64,81.736 C71.888,82.184 72.944,82.776 73.808,83.512 C74.608,84.152 75.344,85.024 76.016,86.128 C76.688,87.232 77.024,88.632 77.024,90.328 C77.024,91.96 76.68,93.368 75.992,94.552 C75.304,95.736 74.456,96.704 73.448,97.456 C72.44,98.208 71.36,98.76 70.208,99.112 C69.056,99.464 68,99.64 67.04,99.64 L67.04,99.64 Z" fill="url(#linearGradient-6)" fill-rule="nonzero"></path>
                </g>
            </g>
        </g>
    </g>
</svg>