<?xml version="1.0" encoding="UTF-8"?>
<svg width="120px" height="151px" viewBox="0 0 120 151" version="1.1" xmlns="http://www.w3.org/2000/svg" xmlns:xlink="http://www.w3.org/1999/xlink">
    <title>V6</title>
    <defs>
        <linearGradient x1="50%" y1="58.9883097%" x2="50%" y2="0%" id="linearGradient-1">
            <stop stop-color="#C1B291" offset="0%"></stop>
            <stop stop-color="#CCBEA2" offset="100%"></stop>
        </linearGradient>
        <linearGradient x1="50%" y1="0%" x2="50%" y2="94.2712657%" id="linearGradient-2">
            <stop stop-color="#E3CB99" offset="0%"></stop>
            <stop stop-color="#897446" offset="100%"></stop>
        </linearGradient>
        <linearGradient x1="50%" y1="0%" x2="50%" y2="103.297905%" id="linearGradient-3">
            <stop stop-color="#61553A" offset="0%"></stop>
            <stop stop-color="#BFAB81" offset="100%"></stop>
        </linearGradient>
        <linearGradient x1="50%" y1="0%" x2="50%" y2="100%" id="linearGradient-4">
            <stop stop-color="#302A1D" offset="0%"></stop>
            <stop stop-color="#4A3F26" offset="100%"></stop>
        </linearGradient>
        <linearGradient x1="50%" y1="0%" x2="50%" y2="100%" id="linearGradient-5">
            <stop stop-color="#FFFFFF" offset="0%"></stop>
            <stop stop-color="#FFFFFF" offset="100%"></stop>
        </linearGradient>
        <linearGradient x1="50%" y1="0%" x2="50%" y2="83.2637545%" id="linearGradient-6">
            <stop stop-color="#E0D7C7" offset="0%"></stop>
            <stop stop-color="#FFFFFF" offset="100%"></stop>
        </linearGradient>
    </defs>
    <g id="规范" stroke="none" stroke-width="1" fill="none" fill-rule="evenodd">
        <g id="Artboard" transform="translate(-1528.000000, -1237.000000)">
            <g id="V1-VIP" transform="translate(829.000000, 1237.000000)">
                <g id="V6" transform="translate(699.000000, 0.000000)">
                    <path d="M13,3.55271368e-15 L108,3.55271368e-15 L108,16 L107.999,16 L108,35.838 L108.052559,35.9282032 L108,35.958 L108,36 L107.927,36 L69.9474411,57.9282032 L61.9474411,44.0717968 L92,26.72 L91.999,16 L28.999,16 L29,26.143 L60.0525589,44.0717968 L52.0525589,57.9282032 L14.072,36 L13,36 L13,3.55271368e-15 Z" id="形状结合" fill="url(#linearGradient-1)" fill-rule="nonzero"></path>
                    <polygon id="多边形" fill="url(#linearGradient-2)" fill-rule="nonzero" points="60 31 106.909889 53.5906119 118.495675 104.351256 86.0330243 145.058132 33.9669757 145.058132 1.50432527 104.351256 13.0901111 53.5906119"></polygon>
                    <path d="M60,46 L95.1824167,62.9429589 L103.871756,101.013442 L79.5247683,131.543599 L40.4752317,131.543599 L16.128244,101.013442 L24.8175833,62.9429589 L60,46 Z M60,48 L26.3812463,64.1899385 L18.0780998,100.5684 L41.3429992,129.741661 L78.6570008,129.741661 L101.9219,100.5684 L93.6187537,64.1899385 L60,48 Z" id="形状结合" fill="url(#linearGradient-3)" fill-rule="nonzero"></path>
                    <polygon id="多边形" fill="url(#linearGradient-4)" points="60 48 93.6187537 64.1899385 101.9219 100.5684 78.6570008 129.741661 41.3429992 129.741661 18.0780998 100.5684 26.3812463 64.1899385"></polygon>
                    <path d="M55.960396,118 L57.1243272,120.381966 L59.7269565,120.763932 L57.8436763,122.618034 L58.2882584,125.236068 L55.960396,124 L53.6325337,125.236068 L54.0771158,122.618034 L52.1938356,120.763932 L54.7964648,120.381966 L55.960396,118 Z M64.960396,118 L66.1243272,120.381966 L68.7269565,120.763932 L66.8436763,122.618034 L67.2882584,125.236068 L64.960396,124 L62.6325337,125.236068 L63.0771158,122.618034 L61.1938356,120.763932 L63.7964648,120.381966 L64.960396,118 Z M46.7665605,109 L47.9304917,111.381966 L50.5331209,111.763932 L48.6498407,113.618034 L49.0944228,116.236068 L46.7665605,115 L44.4386981,116.236068 L44.8832802,113.618034 L43,111.763932 L45.6026293,111.381966 L46.7665605,109 Z M55.7665605,109 L56.9304917,111.381966 L59.5331209,111.763932 L57.6498407,113.618034 L58.0944228,116.236068 L55.7665605,115 L53.4386981,116.236068 L53.8832802,113.618034 L52,111.763932 L54.6026293,111.381966 L55.7665605,109 Z M64.7561985,109 L65.9201297,111.381966 L68.5227589,111.763932 L66.6394787,113.618034 L67.0840609,116.236068 L64.7561985,115 L62.4283361,116.236068 L62.8729182,113.618034 L60.989638,111.763932 L63.5922673,111.381966 L64.7561985,109 Z M73.7561985,109 L74.9201297,111.381966 L77.5227589,111.763932 L75.6394787,113.618034 L76.0840609,116.236068 L73.7561985,115 L71.4283361,116.236068 L71.8729182,113.618034 L69.989638,111.763932 L72.5922673,111.381966 L73.7561985,109 Z" id="形状结合" fill="url(#linearGradient-5)"></path>
                    <path d="M52.824,105 L65.304,72.984 L54.12,72.984 L48.648,86.904 L43.224,72.984 L32.04,72.984 L44.52,105 L52.824,105 Z M49.176,101.16 L48.168,101.16 L38.664,76.824 L40.008,76.824 L48.648,98.952 L57.336,76.824 L58.68,76.824 L49.176,101.16 Z M74.688,105.816 C76.416,105.816 78.016,105.504 79.488,104.88 C80.96,104.256 82.232,103.392 83.304,102.288 C84.376,101.184 85.216,99.904 85.824,98.448 C86.432,96.992 86.736,95.416 86.736,93.72 C86.736,92.248 86.512,90.856 86.064,89.544 C85.616,88.232 84.968,87.064 84.12,86.04 C83.272,85.016 82.256,84.144 81.072,83.424 C79.888,82.704 78.576,82.2 77.136,81.912 C77.872,80.568 78.632,79.368 79.416,78.312 C80.2,77.256 80.928,76.328 81.6,75.528 L81.6,75.528 L83.904,72.984 L72.288,72.984 C70.4,74.84 68.688,76.872 67.152,79.08 C66.512,80.008 65.888,81.008 65.28,82.08 C64.672,83.152 64.128,84.288 63.648,85.488 C63.168,86.688 62.784,87.936 62.496,89.232 C62.208,90.528 62.064,91.848 62.064,93.192 C62.064,95.016 62.384,96.696 63.024,98.232 C63.664,99.768 64.544,101.104 65.664,102.24 C66.784,103.376 68.12,104.256 69.672,104.88 C71.224,105.504 72.896,105.816 74.688,105.816 Z M74.4,101.352 C73.312,101.352 72.296,101.16 71.352,100.776 C70.408,100.392 69.576,99.832 68.856,99.096 C68.136,98.36 67.568,97.464 67.152,96.408 C66.736,95.352 66.528,94.152 66.528,92.808 C66.528,90.696 66.936,88.704 67.752,86.832 C68.568,84.96 69.488,83.256 70.512,81.72 C71.632,79.992 72.96,78.36 74.496,76.824 L74.496,76.824 L76.032,76.824 C75.488,77.336 74.968,77.872 74.472,78.432 C73.976,78.992 73.488,79.576 73.008,80.184 C72.176,81.208 71.344,82.416 70.512,83.808 C69.68,85.2 69.008,86.68 68.496,88.248 C69.232,87.416 70.104,86.768 71.112,86.304 C72.12,85.84 73.216,85.608 74.4,85.608 C75.488,85.608 76.512,85.816 77.472,86.232 C78.432,86.648 79.264,87.208 79.968,87.912 C80.672,88.616 81.232,89.448 81.648,90.408 C82.064,91.368 82.272,92.392 82.272,93.48 C82.272,94.568 82.064,95.592 81.648,96.552 C81.232,97.512 80.672,98.344 79.968,99.048 C79.264,99.752 78.432,100.312 77.472,100.728 C76.512,101.144 75.488,101.352 74.4,101.352 Z M74.4,100.056 C75.296,100.056 76.144,99.888 76.944,99.552 C77.744,99.216 78.448,98.744 79.056,98.136 C79.664,97.528 80.136,96.832 80.472,96.048 C80.808,95.264 80.976,94.408 80.976,93.48 C80.976,92.584 80.808,91.736 80.472,90.936 C80.136,90.136 79.664,89.432 79.056,88.824 C78.448,88.216 77.744,87.744 76.944,87.408 C76.144,87.072 75.296,86.904 74.4,86.904 C73.472,86.904 72.616,87.072 71.832,87.408 C71.048,87.744 70.352,88.216 69.744,88.824 C69.136,89.432 68.664,90.136 68.328,90.936 C67.992,91.736 67.824,92.584 67.824,93.48 C67.824,94.408 67.992,95.264 68.328,96.048 C68.664,96.832 69.136,97.528 69.744,98.136 C70.352,98.744 71.048,99.216 71.832,99.552 C72.616,99.888 73.472,100.056 74.4,100.056 Z M74.4,96.36 C73.6,96.36 72.92,96.08 72.36,95.52 C71.8,94.96 71.52,94.264 71.52,93.432 C71.52,92.664 71.808,92 72.384,91.44 C72.96,90.88 73.632,90.6 74.4,90.6 C75.2,90.6 75.88,90.88 76.44,91.44 C77,92 77.28,92.68 77.28,93.48 C77.28,94.28 77,94.96 76.44,95.52 C75.88,96.08 75.2,96.36 74.4,96.36 Z" fill="#877C63" fill-rule="nonzero"></path>
                    <path d="M52.824,103 L65.304,70.984 L54.12,70.984 L48.648,84.904 L43.224,70.984 L32.04,70.984 L44.52,103 L52.824,103 Z M49.176,99.16 L48.168,99.16 L38.664,74.824 L40.008,74.824 L48.648,96.952 L57.336,74.824 L58.68,74.824 L49.176,99.16 Z M74.688,103.816 C76.416,103.816 78.016,103.504 79.488,102.88 C80.96,102.256 82.232,101.392 83.304,100.288 C84.376,99.184 85.216,97.904 85.824,96.448 C86.432,94.992 86.736,93.416 86.736,91.72 C86.736,90.248 86.512,88.856 86.064,87.544 C85.616,86.232 84.968,85.064 84.12,84.04 C83.272,83.016 82.256,82.144 81.072,81.424 C79.888,80.704 78.576,80.2 77.136,79.912 C77.872,78.568 78.632,77.368 79.416,76.312 C80.2,75.256 80.928,74.328 81.6,73.528 L81.6,73.528 L83.904,70.984 L72.288,70.984 C70.4,72.84 68.688,74.872 67.152,77.08 C66.512,78.008 65.888,79.008 65.28,80.08 C64.672,81.152 64.128,82.288 63.648,83.488 C63.168,84.688 62.784,85.936 62.496,87.232 C62.208,88.528 62.064,89.848 62.064,91.192 C62.064,93.016 62.384,94.696 63.024,96.232 C63.664,97.768 64.544,99.104 65.664,100.24 C66.784,101.376 68.12,102.256 69.672,102.88 C71.224,103.504 72.896,103.816 74.688,103.816 Z M74.4,99.352 C73.312,99.352 72.296,99.16 71.352,98.776 C70.408,98.392 69.576,97.832 68.856,97.096 C68.136,96.36 67.568,95.464 67.152,94.408 C66.736,93.352 66.528,92.152 66.528,90.808 C66.528,88.696 66.936,86.704 67.752,84.832 C68.568,82.96 69.488,81.256 70.512,79.72 C71.632,77.992 72.96,76.36 74.496,74.824 L74.496,74.824 L76.032,74.824 C75.488,75.336 74.968,75.872 74.472,76.432 C73.976,76.992 73.488,77.576 73.008,78.184 C72.176,79.208 71.344,80.416 70.512,81.808 C69.68,83.2 69.008,84.68 68.496,86.248 C69.232,85.416 70.104,84.768 71.112,84.304 C72.12,83.84 73.216,83.608 74.4,83.608 C75.488,83.608 76.512,83.816 77.472,84.232 C78.432,84.648 79.264,85.208 79.968,85.912 C80.672,86.616 81.232,87.448 81.648,88.408 C82.064,89.368 82.272,90.392 82.272,91.48 C82.272,92.568 82.064,93.592 81.648,94.552 C81.232,95.512 80.672,96.344 79.968,97.048 C79.264,97.752 78.432,98.312 77.472,98.728 C76.512,99.144 75.488,99.352 74.4,99.352 Z M74.4,98.056 C75.296,98.056 76.144,97.888 76.944,97.552 C77.744,97.216 78.448,96.744 79.056,96.136 C79.664,95.528 80.136,94.832 80.472,94.048 C80.808,93.264 80.976,92.408 80.976,91.48 C80.976,90.584 80.808,89.736 80.472,88.936 C80.136,88.136 79.664,87.432 79.056,86.824 C78.448,86.216 77.744,85.744 76.944,85.408 C76.144,85.072 75.296,84.904 74.4,84.904 C73.472,84.904 72.616,85.072 71.832,85.408 C71.048,85.744 70.352,86.216 69.744,86.824 C69.136,87.432 68.664,88.136 68.328,88.936 C67.992,89.736 67.824,90.584 67.824,91.48 C67.824,92.408 67.992,93.264 68.328,94.048 C68.664,94.832 69.136,95.528 69.744,96.136 C70.352,96.744 71.048,97.216 71.832,97.552 C72.616,97.888 73.472,98.056 74.4,98.056 Z M74.4,94.36 C73.6,94.36 72.92,94.08 72.36,93.52 C71.8,92.96 71.52,92.264 71.52,91.432 C71.52,90.664 71.808,90 72.384,89.44 C72.96,88.88 73.632,88.6 74.4,88.6 C75.2,88.6 75.88,88.88 76.44,89.44 C77,90 77.28,90.68 77.28,91.48 C77.28,92.28 77,92.96 76.44,93.52 C75.88,94.08 75.2,94.36 74.4,94.36 Z" fill="url(#linearGradient-6)" fill-rule="nonzero"></path>
                </g>
            </g>
        </g>
    </g>
</svg>