<?xml version="1.0" encoding="UTF-8"?>
<svg width="120px" height="151px" viewBox="0 0 120 151" version="1.1" xmlns="http://www.w3.org/2000/svg" xmlns:xlink="http://www.w3.org/1999/xlink">
    <title>V4</title>
    <defs>
        <linearGradient x1="50%" y1="58.9883097%" x2="50%" y2="0%" id="linearGradient-1">
            <stop stop-color="#C1B291" offset="0%"></stop>
            <stop stop-color="#CCBEA2" offset="100%"></stop>
        </linearGradient>
        <linearGradient x1="50%" y1="0%" x2="50%" y2="94.2712657%" id="linearGradient-2">
            <stop stop-color="#E3CB99" offset="0%"></stop>
            <stop stop-color="#897446" offset="100%"></stop>
        </linearGradient>
        <linearGradient x1="50%" y1="0%" x2="50%" y2="103.297905%" id="linearGradient-3">
            <stop stop-color="#61553A" offset="0%"></stop>
            <stop stop-color="#BFAB81" offset="100%"></stop>
        </linearGradient>
        <linearGradient x1="50%" y1="0%" x2="50%" y2="100%" id="linearGradient-4">
            <stop stop-color="#302A1D" offset="0%"></stop>
            <stop stop-color="#4A3F26" offset="100%"></stop>
        </linearGradient>
        <linearGradient x1="50%" y1="0%" x2="50%" y2="100%" id="linearGradient-5">
            <stop stop-color="#FFFFFF" offset="0%"></stop>
            <stop stop-color="#FFFFFF" offset="100%"></stop>
        </linearGradient>
        <linearGradient x1="50%" y1="0%" x2="50%" y2="83.2637545%" id="linearGradient-6">
            <stop stop-color="#E0D7C7" offset="0%"></stop>
            <stop stop-color="#FFFFFF" offset="100%"></stop>
        </linearGradient>
    </defs>
    <g id="规范" stroke="none" stroke-width="1" fill="none" fill-rule="evenodd">
        <g id="Artboard" transform="translate(-1252.000000, -1237.000000)">
            <g id="V1-VIP" transform="translate(829.000000, 1237.000000)">
                <g id="V4" transform="translate(423.000000, 0.000000)">
                    <path d="M13,3.55271368e-15 L108,3.55271368e-15 L108,16 L107.999,16 L108,35.838 L108.052559,35.9282032 L108,35.958 L108,36 L107.927,36 L69.9474411,57.9282032 L61.9474411,44.0717968 L92,26.72 L91.999,16 L28.999,16 L29,26.143 L60.0525589,44.0717968 L52.0525589,57.9282032 L14.072,36 L13,36 L13,3.55271368e-15 Z" id="形状结合" fill="url(#linearGradient-1)" fill-rule="nonzero"></path>
                    <polygon id="多边形" fill="url(#linearGradient-2)" fill-rule="nonzero" points="60 31 106.909889 53.5906119 118.495675 104.351256 86.0330243 145.058132 33.9669757 145.058132 1.50432527 104.351256 13.0901111 53.5906119"></polygon>
                    <path d="M60,46 L95.1824167,62.9429589 L103.871756,101.013442 L79.5247683,131.543599 L40.4752317,131.543599 L16.128244,101.013442 L24.8175833,62.9429589 L60,46 Z M60,48 L26.3812463,64.1899385 L18.0780998,100.5684 L41.3429992,129.741661 L78.6570008,129.741661 L101.9219,100.5684 L93.6187537,64.1899385 L60,48 Z" id="形状结合" fill="url(#linearGradient-3)" fill-rule="nonzero"></path>
                    <polygon id="多边形" fill="url(#linearGradient-4)" points="60 48 93.6187537 64.1899385 101.9219 100.5684 78.6570008 129.741661 41.3429992 129.741661 18.0780998 100.5684 26.3812463 64.1899385"></polygon>
                    <path d="M46.7665605,115 L47.9304917,117.381966 L50.5331209,117.763932 L48.6498407,119.618034 L49.0944228,122.236068 L46.7665605,121 L44.4386981,122.236068 L44.8832802,119.618034 L43,117.763932 L45.6026293,117.381966 L46.7665605,115 Z M55.7665605,115 L56.9304917,117.381966 L59.5331209,117.763932 L57.6498407,119.618034 L58.0944228,122.236068 L55.7665605,121 L53.4386981,122.236068 L53.8832802,119.618034 L52,117.763932 L54.6026293,117.381966 L55.7665605,115 Z M64.7561985,115 L65.9201297,117.381966 L68.5227589,117.763932 L66.6394787,119.618034 L67.0840609,122.236068 L64.7561985,121 L62.4283361,122.236068 L62.8729182,119.618034 L60.989638,117.763932 L63.5922673,117.381966 L64.7561985,115 Z M73.7561985,115 L74.9201297,117.381966 L77.5227589,117.763932 L75.6394787,119.618034 L76.0840609,122.236068 L73.7561985,121 L71.4283361,122.236068 L71.8729182,119.618034 L69.989638,117.763932 L72.5922673,117.381966 L73.7561985,115 Z" id="形状结合" fill="url(#linearGradient-5)"></path>
                    <path d="M53.824,105 L66.304,72.984 L55.12,72.984 L49.648,86.904 L44.224,72.984 L33.04,72.984 L45.52,105 L53.824,105 Z M50.176,101.16 L49.168,101.16 L39.664,76.824 L41.008,76.824 L49.648,98.952 L58.336,76.824 L59.68,76.824 L50.176,101.16 Z M82.936,105 L82.936,100.536 L84.856,100.536 L84.856,91.56 L82.936,91.56 L82.936,72.984 L74.824,72.984 L62.104,96.696 L62.104,100.536 L73,100.536 L73,105 L82.936,105 Z M78.28,101.16 L77.032,101.16 L77.032,96.696 L67.048,96.696 L77.704,76.824 L78.28,76.824 L78.28,95.544 L80.392,95.544 L80.392,96.696 L78.28,96.696 L78.28,101.16 Z M77.032,95.544 L77.032,80.664 L69.064,95.544 L77.032,95.544 Z" fill="#877C63" fill-rule="nonzero"></path>
                    <path d="M53.824,103 L66.304,70.984 L55.12,70.984 L49.648,84.904 L44.224,70.984 L33.04,70.984 L45.52,103 L53.824,103 Z M50.176,99.16 L49.168,99.16 L39.664,74.824 L41.008,74.824 L49.648,96.952 L58.336,74.824 L59.68,74.824 L50.176,99.16 Z M82.936,103 L82.936,98.536 L84.856,98.536 L84.856,89.56 L82.936,89.56 L82.936,70.984 L74.824,70.984 L62.104,94.696 L62.104,98.536 L73,98.536 L73,103 L82.936,103 Z M78.28,99.16 L77.032,99.16 L77.032,94.696 L67.048,94.696 L77.704,74.824 L78.28,74.824 L78.28,93.544 L80.392,93.544 L80.392,94.696 L78.28,94.696 L78.28,99.16 Z M77.032,93.544 L77.032,78.664 L69.064,93.544 L77.032,93.544 Z" fill="url(#linearGradient-6)" fill-rule="nonzero"></path>
                </g>
            </g>
        </g>
    </g>
</svg>