<?xml version="1.0" encoding="UTF-8"?>
<svg width="120px" height="151px" viewBox="0 0 120 151" version="1.1" xmlns="http://www.w3.org/2000/svg" xmlns:xlink="http://www.w3.org/1999/xlink">
    <title>VIP</title>
    <defs>
        <linearGradient x1="50%" y1="58.9883097%" x2="50%" y2="35.6603667%" id="linearGradient-1">
            <stop stop-color="#A99366" offset="0%"></stop>
            <stop stop-color="#BEAF8D" offset="100%"></stop>
        </linearGradient>
        <linearGradient x1="50%" y1="0%" x2="50%" y2="94.2712657%" id="linearGradient-2">
            <stop stop-color="#C3A563" offset="0%"></stop>
            <stop stop-color="#987835" offset="100%"></stop>
        </linearGradient>
        <linearGradient x1="50%" y1="0%" x2="50%" y2="103.297905%" id="linearGradient-3">
            <stop stop-color="#75623A" offset="0%"></stop>
            <stop stop-color="#CAA966" offset="100%"></stop>
        </linearGradient>
        <linearGradient x1="50%" y1="0%" x2="50%" y2="100%" id="linearGradient-4">
            <stop stop-color="#211B0E" offset="0%"></stop>
            <stop stop-color="#41351B" offset="100%"></stop>
        </linearGradient>
        <linearGradient x1="50%" y1="0%" x2="50%" y2="100%" id="linearGradient-5">
            <stop stop-color="#FFFFFF" offset="0%"></stop>
            <stop stop-color="#FFFFFF" offset="100%"></stop>
        </linearGradient>
        <linearGradient x1="50%" y1="0%" x2="50%" y2="83.2637545%" id="linearGradient-6">
            <stop stop-color="#E0D7C7" offset="0%"></stop>
            <stop stop-color="#FFFFFF" offset="100%"></stop>
        </linearGradient>
    </defs>
    <g id="规范" stroke="none" stroke-width="1" fill="none" fill-rule="evenodd">
        <g id="Artboard" transform="translate(-1669.000000, -1237.000000)">
            <g id="V1-VIP" transform="translate(829.000000, 1237.000000)">
                <g id="VIP" transform="translate(840.000000, 0.000000)">
                    <path d="M13,3.55271368e-15 L108,3.55271368e-15 L108,16 L107.999,16 L108,35.838 L108.052559,35.9282032 L108,35.958 L108,36 L107.927,36 L69.9474411,57.9282032 L61.9474411,44.0717968 L92,26.72 L91.999,16 L28.999,16 L29,26.143 L60.0525589,44.0717968 L52.0525589,57.9282032 L14.072,36 L13,36 L13,3.55271368e-15 Z" id="形状结合" fill="url(#linearGradient-1)" fill-rule="nonzero"></path>
                    <polygon id="多边形" fill="url(#linearGradient-2)" fill-rule="nonzero" points="60 31 106.909889 53.5906119 118.495675 104.351256 86.0330243 145.058132 33.9669757 145.058132 1.50432527 104.351256 13.0901111 53.5906119"></polygon>
                    <path d="M60,46 L95.1824167,62.9429589 L103.871756,101.013442 L79.5247683,131.543599 L40.4752317,131.543599 L16.128244,101.013442 L24.8175833,62.9429589 L60,46 Z M60,48 L26.3812463,64.1899385 L18.0780998,100.5684 L41.3429992,129.741661 L78.6570008,129.741661 L101.9219,100.5684 L93.6187537,64.1899385 L60,48 Z" id="形状结合" fill="url(#linearGradient-3)" fill-rule="nonzero"></path>
                    <polygon id="多边形" fill="url(#linearGradient-4)" points="60 48 93.6187537 64.1899385 101.9219 100.5684 78.6570008 129.741661 41.3429992 129.741661 18.0780998 100.5684 26.3812463 64.1899385"></polygon>
                    <path d="M55.960396,118 L57.1243272,120.381966 L59.7269565,120.763932 L57.8436763,122.618034 L58.2882584,125.236068 L55.960396,124 L53.6325337,125.236068 L54.0771158,122.618034 L52.1938356,120.763932 L54.7964648,120.381966 L55.960396,118 Z M64.960396,118 L66.1243272,120.381966 L68.7269565,120.763932 L66.8436763,122.618034 L67.2882584,125.236068 L64.960396,124 L62.6325337,125.236068 L63.0771158,122.618034 L61.1938356,120.763932 L63.7964648,120.381966 L64.960396,118 Z M46.7665605,109 L47.9304917,111.381966 L50.5331209,111.763932 L48.6498407,113.618034 L49.0944228,116.236068 L46.7665605,115 L44.4386981,116.236068 L44.8832802,113.618034 L43,111.763932 L45.6026293,111.381966 L46.7665605,109 Z M55.7665605,109 L56.9304917,111.381966 L59.5331209,111.763932 L57.6498407,113.618034 L58.0944228,116.236068 L55.7665605,115 L53.4386981,116.236068 L53.8832802,113.618034 L52,111.763932 L54.6026293,111.381966 L55.7665605,109 Z M64.7561985,109 L65.9201297,111.381966 L68.5227589,111.763932 L66.6394787,113.618034 L67.0840609,116.236068 L64.7561985,115 L62.4283361,116.236068 L62.8729182,113.618034 L60.989638,111.763932 L63.5922673,111.381966 L64.7561985,109 Z M73.7561985,109 L74.9201297,111.381966 L77.5227589,111.763932 L75.6394787,113.618034 L76.0840609,116.236068 L73.7561985,115 L71.4283361,116.236068 L71.8729182,113.618034 L69.989638,111.763932 L72.5922673,111.381966 L73.7561985,109 Z" id="形状结合" fill="url(#linearGradient-5)"></path>
                    <path d="M46.824,105 L59.304,72.984 L48.12,72.984 L42.648,86.904 L37.224,72.984 L26.04,72.984 L38.52,105 L46.824,105 Z M43.176,101.16 L42.168,101.16 L32.664,76.824 L34.008,76.824 L42.648,98.952 L51.336,76.824 L52.68,76.824 L43.176,101.16 Z M66.872,105 L66.872,72.984 L56.024,72.984 L56.024,105 L66.872,105 Z M62.072,101.16 L60.824,101.16 L60.824,76.824 L62.072,76.824 L62.072,101.16 Z M80.456,105 L80.456,97.368 C82.504,97.368 84.416,97.144 86.192,96.696 C87.968,96.248 89.52,95.544 90.848,94.584 C92.176,93.624 93.224,92.368 93.992,90.816 C94.76,89.264 95.144,87.384 95.144,85.176 C95.144,82.968 94.76,81.088 93.992,79.536 C93.224,77.984 92.176,76.728 90.848,75.768 C89.52,74.808 87.968,74.104 86.192,73.656 C84.416,73.208 82.504,72.984 80.456,72.984 L80.456,72.984 L70.232,72.984 L70.232,105 L80.456,105 Z M76.28,101.16 L75.032,101.16 L75.032,76.824 L80.456,76.824 C81.896,76.824 83.232,76.992 84.464,77.328 C85.696,77.664 86.76,78.168 87.656,78.84 C88.552,79.512 89.248,80.376 89.744,81.432 C90.24,82.488 90.488,83.736 90.488,85.176 C90.488,86.616 90.24,87.864 89.744,88.92 C89.248,89.976 88.552,90.84 87.656,91.512 C86.76,92.184 85.696,92.688 84.464,93.024 C83.232,93.36 81.896,93.528 80.456,93.528 L80.456,93.528 L76.28,93.528 L76.28,101.16 Z M80.456,92.376 C81.608,92.376 82.704,92.256 83.744,92.016 C84.784,91.776 85.704,91.384 86.504,90.84 C87.304,90.296 87.944,89.56 88.424,88.632 C88.904,87.704 89.144,86.552 89.144,85.176 C89.144,83.8 88.904,82.648 88.424,81.72 C87.944,80.792 87.304,80.056 86.504,79.512 C85.704,78.968 84.784,78.576 83.744,78.336 C82.704,78.096 81.608,77.976 80.456,77.976 L80.456,77.976 L76.28,77.976 L76.28,92.376 L80.456,92.376 Z M80.888,88.728 L80.456,88.728 L80.456,81.624 L80.888,81.624 C82.232,81.624 83.2,81.936 83.792,82.56 C84.384,83.184 84.68,84.056 84.68,85.176 C84.68,86.296 84.384,87.168 83.792,87.792 C83.2,88.416 82.232,88.728 80.888,88.728 L80.888,88.728 Z" id="vip" fill="#877C63" fill-rule="nonzero"></path>
                    <path d="M46.824,103 L59.304,70.984 L48.12,70.984 L42.648,84.904 L37.224,70.984 L26.04,70.984 L38.52,103 L46.824,103 Z M43.176,99.16 L42.168,99.16 L32.664,74.824 L34.008,74.824 L42.648,96.952 L51.336,74.824 L52.68,74.824 L43.176,99.16 Z M66.872,103 L66.872,70.984 L56.024,70.984 L56.024,103 L66.872,103 Z M62.072,99.16 L60.824,99.16 L60.824,74.824 L62.072,74.824 L62.072,99.16 Z M80.456,103 L80.456,95.368 C82.504,95.368 84.416,95.144 86.192,94.696 C87.968,94.248 89.52,93.544 90.848,92.584 C92.176,91.624 93.224,90.368 93.992,88.816 C94.76,87.264 95.144,85.384 95.144,83.176 C95.144,80.968 94.76,79.088 93.992,77.536 C93.224,75.984 92.176,74.728 90.848,73.768 C89.52,72.808 87.968,72.104 86.192,71.656 C84.416,71.208 82.504,70.984 80.456,70.984 L80.456,70.984 L70.232,70.984 L70.232,103 L80.456,103 Z M76.28,99.16 L75.032,99.16 L75.032,74.824 L80.456,74.824 C81.896,74.824 83.232,74.992 84.464,75.328 C85.696,75.664 86.76,76.168 87.656,76.84 C88.552,77.512 89.248,78.376 89.744,79.432 C90.24,80.488 90.488,81.736 90.488,83.176 C90.488,84.616 90.24,85.864 89.744,86.92 C89.248,87.976 88.552,88.84 87.656,89.512 C86.76,90.184 85.696,90.688 84.464,91.024 C83.232,91.36 81.896,91.528 80.456,91.528 L80.456,91.528 L76.28,91.528 L76.28,99.16 Z M80.456,90.376 C81.608,90.376 82.704,90.256 83.744,90.016 C84.784,89.776 85.704,89.384 86.504,88.84 C87.304,88.296 87.944,87.56 88.424,86.632 C88.904,85.704 89.144,84.552 89.144,83.176 C89.144,81.8 88.904,80.648 88.424,79.72 C87.944,78.792 87.304,78.056 86.504,77.512 C85.704,76.968 84.784,76.576 83.744,76.336 C82.704,76.096 81.608,75.976 80.456,75.976 L80.456,75.976 L76.28,75.976 L76.28,90.376 L80.456,90.376 Z M80.888,86.728 L80.456,86.728 L80.456,79.624 L80.888,79.624 C82.232,79.624 83.2,79.936 83.792,80.56 C84.384,81.184 84.68,82.056 84.68,83.176 C84.68,84.296 84.384,85.168 83.792,85.792 C83.2,86.416 82.232,86.728 80.888,86.728 L80.888,86.728 Z" id="vip" fill="url(#linearGradient-6)" fill-rule="nonzero"></path>
                </g>
            </g>
        </g>
    </g>
</svg>